<svg xmlns="http://www.w3.org/2000/svg" width="108" height="108" viewBox="0 0 108 108">
  <g id="Grupo_1108658" data-name="Grupo 1108658" transform="translate(-1219.169 -2739)">
    <circle id="Elipse_11937" data-name="Elipse 11937" cx="54" cy="54" r="54" transform="translate(1219.169 2739)" fill="#3cead6"/>
    <g id="idea_1713279" transform="translate(1236.055 2755.965)">
      <path id="Trazado_890291" data-name="Trazado 890291" d="M128,256.516h9.279v1.16a2.327,2.327,0,0,1-2.32,2.32H130.32a2.326,2.326,0,0,1-2.32-2.32Zm0,0" transform="translate(-109.443 -218.9)" fill="#626169"/>
      <path id="Trazado_890292" data-name="Trazado 890292" d="M128,232.516h9.279V236H128Zm0,0" transform="translate(-109.443 -198.38)" fill="#79787d"/>
      <path id="Trazado_890293" data-name="Trazado 890293" d="M91.84,22.585A13.868,13.868,0,0,1,86.284,33.7a9.324,9.324,0,0,0-3.723,7.446H73.283a9.379,9.379,0,0,0-3.746-7.469,13.9,13.9,0,1,1,22.3-11.088Zm0,0" transform="translate(-54.725 -7.006)" fill="#96e1f8"/>
      <path id="Trazado_890294" data-name="Trazado 890294" d="M114.557,49.794a9.278,9.278,0,1,1-9.278-9.278A9.279,9.279,0,0,1,114.557,49.794Zm0,0" transform="translate(-82.082 -34.215)" fill="#62d2f5"/>
      <path id="Trazado_890295" data-name="Trazado 890295" d="M125.918,63.475a6.959,6.959,0,1,1-6.959-6.959A6.959,6.959,0,0,1,125.918,63.475Zm0,0" transform="translate(-95.762 -47.895)" fill="#2dc2f1"/>
      <path id="Trazado_890296" data-name="Trazado 890296" d="M418.438,46.79V15.475h3.479l-6.959-6.959L408,15.475h3.479V46.79Zm0,0" transform="translate(-348.849 -6.854)" fill="#ff8f5b"/>
      <path id="Trazado_890297" data-name="Trazado 890297" d="M464,56.516h2.32V87.83H464Zm0,0" transform="translate(-396.731 -47.895)" fill="#fd7732"/>
      <path id="Trazado_890298" data-name="Trazado 890298" d="M449.16,8.516,448,9.675l5.8,5.8h2.32Zm0,0" transform="translate(-383.05 -6.854)" fill="#fd7732"/>
      <path id="Trazado_890299" data-name="Trazado 890299" d="M18.438,278.79V247.475h3.479l-6.959-6.959L8,247.475h3.479V278.79Zm0,0" transform="translate(-6.84 -205.22)" fill="#ff8f5b"/>
      <path id="Trazado_890300" data-name="Trazado 890300" d="M64,288.516h2.32v31.315H64Zm0,0" transform="translate(-54.721 -246.261)" fill="#fd7732"/>
      <path id="Trazado_890301" data-name="Trazado 890301" d="M49.16,240.516,48,241.676l5.8,5.8h2.32Zm0,0" transform="translate(-41.041 -205.22)" fill="#fd7732"/>
      <path id="Trazado_890302" data-name="Trazado 890302" d="M304.237,463.475H288v-6.959h16.237Zm0,0" transform="translate(-246.247 -389.905)" fill="#ff8f5b"/>
      <path id="Trazado_890303" data-name="Trazado 890303" d="M288,456.516h16.237v6.959h-2.32V460H288Zm0,0" transform="translate(-246.247 -389.905)" fill="#fd7732"/>
      <path id="Trazado_890304" data-name="Trazado 890304" d="M288,456.516h2.32v6.959H288Zm0,0" transform="translate(-246.247 -389.905)" fill="#ffa980"/>
      <path id="Trazado_890305" data-name="Trazado 890305" d="M347.479,296.516,344,300l1.183.3,3.456.859,1.16-4.639Zm0,0" transform="translate(-294.128 -253.101)" fill="#ff8f5b"/>
      <path id="Trazado_890306" data-name="Trazado 890306" d="M309.8,300l-3.479-3.479H304l1.16,4.639,3.456-.859Zm0,0" transform="translate(-259.927 -253.101)" fill="#ff8f5b"/>
      <path id="Trazado_890307" data-name="Trazado 890307" d="M329.137,320.817,328,333.274l2.32,2.32,2.32-2.32L331.5,320.817l-1.183-.3Zm0,0" transform="translate(-280.448 -273.622)" fill="#ff8f5b"/>
      <path id="Trazado_890308" data-name="Trazado 890308" d="M280,120.516l2.32,4.639-2.32,1.16,2.32,3.479h5.8l4.639-4.639,3.479,3.479,2.32-2.32V124l-3.479-3.479Zm0,0" transform="translate(-239.406 -102.617)" fill="#b25e1e"/>
      <path id="Trazado_890309" data-name="Trazado 890309" d="M391.382,192.516v5.8a6.253,6.253,0,0,1-.1,1.148l.1.011a3.479,3.479,0,0,0,0-6.959Zm0,0" transform="translate(-334.551 -164.179)" fill="#ffb680"/>
      <path id="Trazado_890310" data-name="Trazado 890310" d="M272,196a3.479,3.479,0,0,0,3.479,3.479l.1-.011a6.2,6.2,0,0,1-.1-1.148v-5.8A3.479,3.479,0,0,0,272,196Zm0,0" transform="translate(-232.566 -164.179)" fill="#ffb680"/>
      <path id="Trazado_890311" data-name="Trazado 890311" d="M320,274.035v3.259l3.479,3.479,3.479-3.479v-3.259A6.913,6.913,0,0,1,320,274.035Zm0,0" transform="translate(-273.607 -233.879)" fill="#ffb680"/>
      <path id="Trazado_890312" data-name="Trazado 890312" d="M299.479,170.133a6.949,6.949,0,0,0,10.334-4.871,6.248,6.248,0,0,0,.1-1.148v-8.119l-3.479-3.479-4.639,4.639H296v6.959a6.2,6.2,0,0,0,.1,1.148,6.8,6.8,0,0,0,1.937,3.769,6.669,6.669,0,0,0,1.438,1.1Zm0,0" transform="translate(-253.087 -129.977)" fill="#ffdaaa"/>
      <path id="Trazado_890313" data-name="Trazado 890313" d="M401.16,442.836H400v3.479h2.32a4.639,4.639,0,0,0,4.639-4.639v-1.16H402.32v1.16A1.16,1.16,0,0,1,401.16,442.836Zm0,0" transform="translate(-342.009 -376.225)" fill="#ffdaaa"/>
      <path id="Trazado_890314" data-name="Trazado 890314" d="M189.918,296.516h4.639l1.16,4.639,3.456-.859-1.137,12.457,2.32,2.32,2.32-2.32L201.539,300.3l3.456.859,1.16-4.639h4.639l4.639,4.639v16.237h-4.639v1.16a1.16,1.16,0,0,1-1.16,1.16H191.077a1.16,1.16,0,0,1-1.16-1.16V305.794l-4.639,4.639H176v-6.959h6.959Zm0,0" transform="translate(-150.484 -253.101)" fill="#fefcff"/>
      <path id="Trazado_890315" data-name="Trazado 890315" d="M280,120.516h15.078l2.9,2.9H282.9l2.32,4.639-2.32,1.16.386.58h-.966L280,126.315l2.32-1.16Zm0,0" transform="translate(-239.406 -102.617)" fill="#c46322"/>
      <path id="Trazado_890316" data-name="Trazado 890316" d="M323.479,274.975a6.8,6.8,0,0,0,3.479-.94v2.32a6.913,6.913,0,0,1-6.959,0v-2.32A6.8,6.8,0,0,0,323.479,274.975Zm0,0" transform="translate(-273.607 -233.88)" fill="#eb975d"/>
      <path id="Trazado_890317" data-name="Trazado 890317" d="M301.8,157.155l4.639-4.639L309.918,156v3.479L306.438,156l-4.639,4.639H296v-3.479Zm0,0" transform="translate(-253.087 -129.978)" fill="#eb975d"/>
      <path id="Trazado_890318" data-name="Trazado 890318" d="M329.137,320.817l1.183-.3v15.078l-2.32-2.32Zm0,0" transform="translate(-280.448 -273.622)" fill="#fd7732"/>
      <path id="Trazado_890319" data-name="Trazado 890319" d="M416,336.516h2.32v15.078H416Zm0,0" transform="translate(-355.69 -287.302)" fill="#dedddf"/>
      <path id="Trazado_890320" data-name="Trazado 890320" d="M176,344.635h9.278L189.918,340v-3.479l-5.219,5.219H176Zm0,0" transform="translate(-150.484 -287.302)" fill="#dedddf"/>
      <path id="Trazado_890321" data-name="Trazado 890321" d="M112,344.516h9.278V348H112Zm0,0" transform="translate(-95.762 -294.142)" fill="#ffdaaa"/>
      <path id="Trazado_890322" data-name="Trazado 890322" d="M144,368.516h4.639V372H144Zm0,0" transform="translate(-123.123 -314.663)" fill="#ffb680"/>
      <g id="Grupo_1108237" data-name="Grupo 1108237" transform="translate(0 0.499)">
        <path id="Trazado_890323" data-name="Trazado 890323" d="M150.051,138.371a1.158,1.158,0,0,0-.819-.34h-5.8v-1.472a7.969,7.969,0,0,0,3.164-4.413,4.623,4.623,0,0,0,.315-9.028v-.844l1.979-1.98a1.161,1.161,0,0,0,.34-.82v-2.32a1.161,1.161,0,0,0-.34-.82l-3.479-3.479a1.158,1.158,0,0,0-.819-.34H129.515a1.16,1.16,0,0,0-1.044,1.678l1.8,3.6-1.282.64a1.16,1.16,0,0,0-.447,1.682l2.022,3.033a4.62,4.62,0,0,0,.439,9,7.779,7.779,0,0,0,3.143,4.407v1.475h-5.793a1.159,1.159,0,0,0-.82.34l-6.619,6.619H105.159a1.159,1.159,0,0,0-1.16,1.16v3.479a1.16,1.16,0,0,0,1.16,1.16h3.479v2.32a1.16,1.16,0,0,0,1.16,1.16h13.918a1.158,1.158,0,0,0,.819-.34l2.66-2.659v9.958a2.319,2.319,0,0,0,2.32,2.32v5.8h2.32v-5.8h13.918v5.8h2.32v-2.32h1.16a5.806,5.806,0,0,0,5.8-5.8v-17.4a1.16,1.16,0,0,0-.34-.82Zm-40.253,10.1h-3.479v-1.16h6.959v4.639h-2.32v-2.32A1.16,1.16,0,0,0,109.8,148.469Zm30.111,6.523-1.116,1.116-1.116-1.116,1.014-11.1.1-.026.106.027Zm-5.075-14.641,1.692,1.692-1.527.383-.52-2.075Zm1.64-2.667a7.89,7.89,0,0,0,4.639,0v1.028l-2.32,2.32-2.32-2.32Zm4.587,4.361,1.692-1.693h.355l-.519,2.075Zm7.012-14.451a2.313,2.313,0,0,1-1.16,2V125.6A2.313,2.313,0,0,1,148.072,127.593Zm-18.557,0a2.31,2.31,0,0,1,1.16-2v3.995a2.31,2.31,0,0,1-1.16-2Zm1.693-7.668,1.145-.572a1.16,1.16,0,0,0,.52-1.556l-1.481-2.961h12.721l2.8,2.8v1.359l-1.16,1.16-2.66-2.659a1.16,1.16,0,0,0-1.639,0l-4.3,4.3h-4.7Zm1.786,9.988v-5.8h4.639a1.158,1.158,0,0,0,.819-.34l3.82-3.819,2.32,2.32v7.638a5.24,5.24,0,0,1-.089.964,5.7,5.7,0,0,1-2.821,4.059,5.755,5.755,0,0,1-5.8-.012,5.486,5.486,0,0,1-1.193-.916,5.628,5.628,0,0,1-1.612-3.155A5.074,5.074,0,0,1,132.994,129.912Zm-5.8,15.078v3l-3.96,3.96H115.6V147.31h5.8a1.158,1.158,0,0,0,.819-.34l6.619-6.619h3.255l.94,3.761a1.16,1.16,0,0,0,1.4.844l1.871-.464-.99,10.831a1.158,1.158,0,0,0,.335.928l2.32,2.32a1.159,1.159,0,0,0,1.64,0l2.32-2.32a1.157,1.157,0,0,0,.335-.928l-.989-10.835,1.874.464a1.159,1.159,0,0,0,1.4-.844l.944-3.756h3.255l3.96,3.96v14.6h-2.32V144.99h-2.32v16.237H129.515V144.99Zm22.036,19.717h-1.16v-1.16a2.32,2.32,0,0,0,2.32-2.32h2.32A3.48,3.48,0,0,1,149.232,164.707Zm0,0" transform="translate(-88.922 -96.276)" fill="#24131a"/>
        <path id="Trazado_890324" data-name="Trazado 890324" d="M62.032,27.591a8.276,8.276,0,0,1,3.287,6.545v4.639A3.479,3.479,0,0,0,68.8,42.255h1.16v2.32h2.32v-2.32h1.16a3.48,3.48,0,0,0,3.479-3.479V34.136a8.164,8.164,0,0,1,3.261-6.519,15.075,15.075,0,1,0-18.141-.026Zm5.607,7.7H74.6v1.16H67.638Zm5.8,4.639H68.8a1.16,1.16,0,0,1-1.16-1.16H74.6A1.16,1.16,0,0,1,73.437,39.935Zm-2.843-37.1a12.749,12.749,0,0,1,8.187,22.932,10.482,10.482,0,0,0-4.119,7.213H67.572a10.638,10.638,0,0,0-4.142-7.235,12.746,12.746,0,0,1,7.164-22.91Zm0,0" transform="translate(-47.922 -0.499)" fill="#24131a"/>
        <path id="Trazado_890325" data-name="Trazado 890325" d="M129.5,68.934a1.159,1.159,0,0,0,.821.34h1.16v1.16h2.32v-1.16h1.16a1.161,1.161,0,0,0,.821-.34l1.16-1.16a1.161,1.161,0,0,0,.339-.82v-2.32a1.161,1.161,0,0,0-.339-.82l-1.16-1.16a1.161,1.161,0,0,0-.821-.34H130.8l-.48-.48V60.475l.48-.48h3.679l.48.48v.68h2.32V60a1.161,1.161,0,0,0-.339-.82l-1.16-1.16a1.161,1.161,0,0,0-.821-.34H133.8v-1.16h-2.32v1.16h-1.16a1.159,1.159,0,0,0-.821.34l-1.16,1.16A1.156,1.156,0,0,0,128,60v2.32a1.156,1.156,0,0,0,.339.82l1.16,1.16a1.159,1.159,0,0,0,.821.34h4.159l.48.48v1.359l-.48.48H130.8l-.48-.48v-.68H128v1.16a1.156,1.156,0,0,0,.339.82Zm0,0" transform="translate(-109.443 -48.395)" fill="#24131a"/>
        <path id="Trazado_890326" data-name="Trazado 890326" d="M168.119,42.954h2.32A10.45,10.45,0,0,0,160,32.516v2.32A8.128,8.128,0,0,1,168.119,42.954Zm0,0" transform="translate(-136.804 -27.874)" fill="#24131a"/>
        <path id="Trazado_890327" data-name="Trazado 890327" d="M415.9,7.817,408.938.858a1.16,1.16,0,0,0-1.639,0l-6.959,6.959a1.16,1.16,0,0,0,.82,1.98h2.32V23.714h2.32V8.637a1.16,1.16,0,0,0-1.16-1.16h-.68l4.16-4.159,4.159,4.159h-.68a1.159,1.159,0,0,0-1.16,1.16V39.952h2.32V9.8h2.32a1.16,1.16,0,0,0,.819-1.98Zm0,0" transform="translate(-342.009 -0.516)" fill="#24131a"/>
        <path id="Trazado_890328" data-name="Trazado 890328" d="M424,176.516h2.32v2.32H424Zm0,0" transform="translate(-362.53 -150.998)" fill="#24131a"/>
        <path id="Trazado_890329" data-name="Trazado 890329" d="M16.149,241.081a1.159,1.159,0,0,0-.252-1.264l-6.959-6.959a1.16,1.16,0,0,0-1.639,0L.34,239.817a1.16,1.16,0,0,0,.82,1.98H3.48v30.155H5.8V240.637a1.16,1.16,0,0,0-1.16-1.16h-.68l4.16-4.159,4.159,4.159H11.6a1.159,1.159,0,0,0-1.16,1.16v15.078h2.32V241.8h2.32a1.16,1.16,0,0,0,1.071-.716Zm0,0" transform="translate(0 -198.881)" fill="#24131a"/>
        <path id="Trazado_890330" data-name="Trazado 890330" d="M72,408.516h2.32v2.32H72Zm0,0" transform="translate(-61.562 -349.363)" fill="#24131a"/>
      </g>
    </g>
  </g>
</svg>
