<svg xmlns="http://www.w3.org/2000/svg" width="60" height="60" viewBox="0 0 60 60">
  <g id="forbidden_1866483" transform="translate(0)">
    <path id="Trazado_889877" data-name="Trazado 889877" d="M74.141,98.282A24.141,24.141,0,1,1,98.282,74.141,24.168,24.168,0,0,1,74.141,98.282Zm0,0" transform="translate(-44.141 -44.141)" fill="#60a4ff"/>
    <path id="Trazado_889878" data-name="Trazado 889878" d="M38.828,10A28.828,28.828,0,1,0,67.657,38.828,28.829,28.829,0,0,0,38.828,10ZM14.688,38.688A24.132,24.132,0,0,1,50.979,17.975a1.172,1.172,0,0,1,.234,1.839l-31.4,31.4a1.172,1.172,0,0,1-1.839-.234,24,24,0,0,1-3.287-12.291ZM38.969,62.969a24,24,0,0,1-12.292-3.287,1.172,1.172,0,0,1-.234-1.839l31.4-31.4a1.172,1.172,0,0,1,1.839.234A24.131,24.131,0,0,1,38.969,62.969Zm0,0" transform="translate(-8.828 -8.828)" fill="#ff6977"/>
    <path id="Trazado_889879" data-name="Trazado 889879" d="M51.213,8.787A30,30,0,0,0,13.562,4.9a1.172,1.172,0,0,0,1.286,1.96A27.657,27.657,0,0,1,49.556,49.556,27.657,27.657,0,0,1,7.549,13.849a1.172,1.172,0,1,0-1.9-1.371A30,30,0,0,0,51.213,51.214a30,30,0,0,0,0-42.427Zm0,0" transform="translate(0)"/>
    <path id="Trazado_889880" data-name="Trazado 889880" d="M78.055,43.448A25.249,25.249,0,0,0,65.311,40h-.146A25.3,25.3,0,0,0,43.448,78.055a2.322,2.322,0,0,0,1.721,1.138,2.376,2.376,0,0,0,.306.02,2.327,2.327,0,0,0,1.653-.687l31.4-31.4a2.344,2.344,0,0,0-.471-3.679ZM45.471,76.872A22.96,22.96,0,0,1,65.179,42.344h.132A22.9,22.9,0,0,1,76.869,45.47Zm0,0" transform="translate(-35.313 -35.312)"/>
    <path id="Trazado_889881" data-name="Trazado 889881" d="M170.8,165.534a1.172,1.172,0,0,0,1.624-.332,25.266,25.266,0,0,0,.733-26.654,2.345,2.345,0,0,0-3.682-.474l-31.4,31.4a2.345,2.345,0,0,0,.474,3.682,25.268,25.268,0,0,0,25.976-.3,1.172,1.172,0,1,0-1.229-2,22.92,22.92,0,0,1-23.564.271l31.4-31.4a22.922,22.922,0,0,1-.665,24.18,1.172,1.172,0,0,0,.332,1.624Zm0,0" transform="translate(-121.286 -121.286)"/>
    <path id="Trazado_889882" data-name="Trazado 889882" d="M392.029,393.818a1.171,1.171,0,1,0-.172,1.506A1.18,1.18,0,0,0,392.029,393.818Zm0,0" transform="translate(-344.194 -347.209)"/>
    <path id="Trazado_889883" data-name="Trazado 889883" d="M76.511,69.438a1.172,1.172,0,1,0,.432-1.423A1.182,1.182,0,0,0,76.511,69.438Zm0,0" transform="translate(-67.468 -59.873)"/>
  </g>
</svg>
