<svg xmlns="http://www.w3.org/2000/svg" width="60" height="60" viewBox="0 0 60 60">
  <g id="delete_13299747" transform="translate(-6 -6)">
    <g id="Grupo_1108068" data-name="Grupo 1108068" transform="translate(6 6)">
      <g id="Grupo_1108063" data-name="Grupo 1108063" transform="translate(1.25 1.25)">
        <g id="Grupo_1108062" data-name="Grupo 1108062">
          <g id="Grupo_1108061" data-name="Grupo 1108061">
            <g id="Grupo_1108060" data-name="Grupo 1108060">
              <path id="Trazado_889884" data-name="Trazado 889884" d="M54.5,19.5V39.75l-.687,24.612a1.247,1.247,0,0,1-.563.137h-45A1.254,1.254,0,0,1,7,63.25v-55A1.254,1.254,0,0,1,8.25,7H42Z" transform="translate(-7 -7)" fill="#e7eef9"/>
            </g>
          </g>
        </g>
      </g>
      <g id="Grupo_1108067" data-name="Grupo 1108067">
        <g id="Grupo_1108066" data-name="Grupo 1108066">
          <g id="Grupo_1108065" data-name="Grupo 1108065">
            <g id="Grupo_1108064" data-name="Grupo 1108064">
              <path id="Trazado_889885" data-name="Trazado 889885" d="M53.5,66H8.5A2.5,2.5,0,0,1,6,63.5V8.5A2.5,2.5,0,0,1,8.5,6H42.25a1.25,1.25,0,0,1,.884.366l12.5,12.5A1.25,1.25,0,0,1,56,19.75V40l-.688,24.647a1.25,1.25,0,0,1-.692,1.084A2.492,2.492,0,0,1,53.5,66ZM8.5,8.5v55H52.843L53.5,39.966v-19.7L41.732,8.5Z" transform="translate(-6 -6)"/>
            </g>
          </g>
        </g>
      </g>
    </g>
    <g id="Grupo_1108088" data-name="Grupo 1108088" transform="translate(38.5 38.5)">
      <g id="Grupo_1108077" data-name="Grupo 1108077">
        <g id="Grupo_1108072" data-name="Grupo 1108072" transform="translate(1.413 1.413)">
          <g id="Grupo_1108071" data-name="Grupo 1108071" transform="translate(0 0)">
            <g id="Grupo_1108070" data-name="Grupo 1108070">
              <g id="Grupo_1108069" data-name="Grupo 1108069">
                <circle id="Elipse_11927" data-name="Elipse 11927" cx="12.5" cy="12.5" r="12.5" transform="translate(0.087 0.087)" fill="#e3334f"/>
              </g>
            </g>
          </g>
        </g>
        <g id="Grupo_1108076" data-name="Grupo 1108076">
          <g id="Grupo_1108075" data-name="Grupo 1108075">
            <g id="Grupo_1108074" data-name="Grupo 1108074">
              <g id="Grupo_1108073" data-name="Grupo 1108073">
                <path id="Trazado_889886" data-name="Trazado 889886" d="M45.75,59.5A13.75,13.75,0,1,1,59.5,45.75,13.766,13.766,0,0,1,45.75,59.5Zm0-25A11.25,11.25,0,1,0,57,45.75,11.263,11.263,0,0,0,45.75,34.5Z" transform="translate(-32 -32)"/>
              </g>
            </g>
          </g>
        </g>
      </g>
      <g id="Grupo_1108082" data-name="Grupo 1108082" transform="translate(7.197 7.197)">
        <g id="Grupo_1108081" data-name="Grupo 1108081">
          <g id="Grupo_1108080" data-name="Grupo 1108080">
            <g id="Grupo_1108079" data-name="Grupo 1108079">
              <g id="Grupo_1108078" data-name="Grupo 1108078">
                <path id="Trazado_889887" data-name="Trazado 889887" d="M39.007,50.864a1.25,1.25,0,0,1-.884-2.134L48.73,38.124A1.25,1.25,0,1,1,50.5,39.891L39.891,50.5A1.246,1.246,0,0,1,39.007,50.864Z" transform="translate(-37.757 -37.758)"/>
              </g>
            </g>
          </g>
        </g>
      </g>
      <g id="Grupo_1108087" data-name="Grupo 1108087" transform="translate(7.197 7.197)">
        <g id="Grupo_1108086" data-name="Grupo 1108086">
          <g id="Grupo_1108085" data-name="Grupo 1108085">
            <g id="Grupo_1108084" data-name="Grupo 1108084">
              <g id="Grupo_1108083" data-name="Grupo 1108083">
                <path id="Trazado_889888" data-name="Trazado 889888" d="M49.614,50.864a1.246,1.246,0,0,1-.884-.366L38.124,39.891a1.25,1.25,0,0,1,1.768-1.768L50.5,48.73a1.25,1.25,0,0,1-.884,2.134Z" transform="translate(-37.757 -37.758)"/>
              </g>
            </g>
          </g>
        </g>
      </g>
    </g>
    <g id="Grupo_1108097" data-name="Grupo 1108097" transform="translate(41 6)">
      <g id="Grupo_1108092" data-name="Grupo 1108092" transform="translate(1.25 1.251)">
        <g id="Grupo_1108091" data-name="Grupo 1108091">
          <g id="Grupo_1108090" data-name="Grupo 1108090">
            <g id="Grupo_1108089" data-name="Grupo 1108089">
              <path id="Trazado_889889" data-name="Trazado 889889" d="M35,7V19.5H47.5Z" transform="translate(-35 -7)" fill="#2ba4f5"/>
            </g>
          </g>
        </g>
      </g>
      <g id="Grupo_1108096" data-name="Grupo 1108096">
        <g id="Grupo_1108095" data-name="Grupo 1108095">
          <g id="Grupo_1108094" data-name="Grupo 1108094">
            <g id="Grupo_1108093" data-name="Grupo 1108093">
              <path id="Trazado_889890" data-name="Trazado 889890" d="M47.75,21H35.25A1.25,1.25,0,0,1,34,19.75V7.25a1.25,1.25,0,0,1,2.134-.884l12.5,12.5A1.25,1.25,0,0,1,47.75,21ZM36.5,18.5h8.232L36.5,10.268Z" transform="translate(-34 -6)"/>
            </g>
          </g>
        </g>
      </g>
    </g>
    <g id="Grupo_1108102" data-name="Grupo 1108102" transform="translate(41 6)">
      <g id="Grupo_1108101" data-name="Grupo 1108101">
        <g id="Grupo_1108100" data-name="Grupo 1108100">
          <g id="Grupo_1108099" data-name="Grupo 1108099">
            <g id="Grupo_1108098" data-name="Grupo 1108098">
              <path id="Trazado_889891" data-name="Trazado 889891" d="M47.75,21a1.246,1.246,0,0,1-.884-.366l-12.5-12.5a1.25,1.25,0,1,1,1.768-1.768l12.5,12.5A1.25,1.25,0,0,1,47.75,21Z" transform="translate(-34 -6)"/>
            </g>
          </g>
        </g>
      </g>
    </g>
    <g id="Grupo_1108107" data-name="Grupo 1108107" transform="translate(12.25 13.5)">
      <g id="Grupo_1108106" data-name="Grupo 1108106">
        <g id="Grupo_1108105" data-name="Grupo 1108105">
          <g id="Grupo_1108104" data-name="Grupo 1108104">
            <g id="Grupo_1108103" data-name="Grupo 1108103">
              <path id="Trazado_889892" data-name="Trazado 889892" d="M29.75,14.5H12.25a1.25,1.25,0,1,1,0-2.5h17.5a1.25,1.25,0,0,1,0,2.5Z" transform="translate(-11 -12)"/>
            </g>
          </g>
        </g>
      </g>
    </g>
    <g id="Grupo_1108112" data-name="Grupo 1108112" transform="translate(12.25 21)">
      <g id="Grupo_1108111" data-name="Grupo 1108111">
        <g id="Grupo_1108110" data-name="Grupo 1108110">
          <g id="Grupo_1108109" data-name="Grupo 1108109">
            <g id="Grupo_1108108" data-name="Grupo 1108108">
              <path id="Trazado_889893" data-name="Trazado 889893" d="M34.75,20.5H12.25a1.25,1.25,0,1,1,0-2.5h22.5a1.25,1.25,0,0,1,0,2.5Z" transform="translate(-11 -18)"/>
            </g>
          </g>
        </g>
      </g>
    </g>
    <g id="Grupo_1108117" data-name="Grupo 1108117" transform="translate(12.25 49.75)">
      <g id="Grupo_1108116" data-name="Grupo 1108116">
        <g id="Grupo_1108115" data-name="Grupo 1108115">
          <g id="Grupo_1108114" data-name="Grupo 1108114">
            <g id="Grupo_1108113" data-name="Grupo 1108113">
              <path id="Trazado_889894" data-name="Trazado 889894" d="M29.75,43.5H12.25a1.25,1.25,0,1,1,0-2.5h17.5a1.25,1.25,0,0,1,0,2.5Z" transform="translate(-11 -41)"/>
            </g>
          </g>
        </g>
      </g>
    </g>
    <g id="Grupo_1108122" data-name="Grupo 1108122" transform="translate(12.25 57.25)">
      <g id="Grupo_1108121" data-name="Grupo 1108121">
        <g id="Grupo_1108120" data-name="Grupo 1108120">
          <g id="Grupo_1108119" data-name="Grupo 1108119">
            <g id="Grupo_1108118" data-name="Grupo 1108118">
              <path id="Trazado_889895" data-name="Trazado 889895" d="M34.75,49.5H12.25a1.25,1.25,0,1,1,0-2.5h22.5a1.25,1.25,0,0,1,0,2.5Z" transform="translate(-11 -47)"/>
            </g>
          </g>
        </g>
      </g>
    </g>
    <g id="Grupo_1108127" data-name="Grupo 1108127" transform="translate(14.75 25.192)">
      <g id="Grupo_1108126" data-name="Grupo 1108126">
        <g id="Grupo_1108125" data-name="Grupo 1108125">
          <g id="Grupo_1108124" data-name="Grupo 1108124">
            <g id="Grupo_1108123" data-name="Grupo 1108123">
              <path id="Trazado_889896" data-name="Trazado 889896" d="M14.251,39.218a1.25,1.25,0,0,1-.708-2.281,50.574,50.574,0,0,0,4.208-3.318,17.412,17.412,0,0,1,.581-8.965,4.389,4.389,0,0,1,.638-1.256c.438-.592,1.769-2.4,3.518-1.984,1.32.31,2.185,1.722,2.645,4.317a6.275,6.275,0,0,1-.98,4.609,25.377,25.377,0,0,1-3.521,4.033,6.993,6.993,0,0,0,1.213,1.869l5.989-6.62A1.25,1.25,0,0,1,30,30.6a18.213,18.213,0,0,0-.029,3.825,17.867,17.867,0,0,0,1.8-2.824,1.25,1.25,0,0,1,2.342.707,8.875,8.875,0,0,0,.161,2.755c.482-.33,1.66-1.45,3.9-5.232A1.25,1.25,0,1,1,40.326,31.1c-3.074,5.193-5.07,7.072-6.874,6.492a2.454,2.454,0,0,1-1.5-1.642c-.932,1.128-1.854,1.669-2.853,1.359s-1.586-1.494-1.713-3.509l-3.777,4.109a2.479,2.479,0,0,1-1.821.8h-.007A2.425,2.425,0,0,1,20,37.924,9.362,9.362,0,0,1,18.7,36.105c-1.967,1.667-3.616,2.8-3.746,2.894a1.246,1.246,0,0,1-.706.219ZM21.925,23.9a3.709,3.709,0,0,0-.944.984,1.893,1.893,0,0,0-.272.544,16.127,16.127,0,0,0-.782,6.121,19.736,19.736,0,0,0,2.151-2.6,3.786,3.786,0,0,0,.593-2.78,5.615,5.615,0,0,0-.747-2.265Z" transform="translate(-13 -21.354)"/>
            </g>
          </g>
        </g>
      </g>
    </g>
  </g>
</svg>
