<svg xmlns="http://www.w3.org/2000/svg" width="63.582" height="54.641" viewBox="0 0 63.582 54.641">
  <g id="pin_1066440" transform="translate(0)">
    <path id="Trazado_889789" data-name="Trazado 889789" d="M66.943,290.928,64.3,286.954,59.661,280H17.935l-2.652,3.974L8,294.9H69.6Zm0,0" transform="translate(-7.007 -245.229)" fill="#a0d468"/>
    <path id="Trazado_889790" data-name="Trazado 889790" d="M148.815,46.745c-1.192-1.213-2.783-2.92-4.441-4.967C140.371,36.82,136,29.817,136,22.9a14.9,14.9,0,0,1,29.8,0c0,6.915-4.371,13.918-8.375,18.876-1.659,2.048-3.25,3.754-4.441,4.967h-.01c-1.252,1.262-2.076,1.987-2.076,1.987S150.077,48.007,148.815,46.745Zm0,0" transform="translate(-119.111 -7.007)" fill="#ffce54"/>
    <path id="Trazado_889791" data-name="Trazado 889791" d="M241.946,8a15.068,15.068,0,0,0-1.987.147A14.892,14.892,0,0,1,252.874,22.9c0,6.915-4.371,13.918-8.375,18.876-1.659,2.048-3.25,3.754-4.441,4.967h-.01l-.094.094c1.207,1.2,1.993,1.893,1.993,1.893s.825-.725,2.076-1.987h.01c1.192-1.213,2.783-2.92,4.441-4.967,4-4.958,8.374-11.961,8.374-18.876A14.9,14.9,0,0,0,241.946,8Zm0,0" transform="translate(-210.155 -7.006)" fill="#f6bb42"/>
    <path id="Trazado_889792" data-name="Trazado 889792" d="M412.576,339.974h-5.961L402.641,336h7.292Zm0,0" transform="translate(-352.64 -294.275)" fill="#8cc152"/>
    <path id="Trazado_889793" data-name="Trazado 889793" d="M178.892,323.974l4.3-3.974,5.4,8.941H165.013l-3.974-3.974Zm0,0" transform="translate(-141.041 -280.262)" fill="#8cc152"/>
    <g id="Grupo_1108055" data-name="Grupo 1108055" transform="translate(0.993 38.745)">
      <path id="Trazado_889794" data-name="Trazado 889794" d="M425.959,368l2.652,3.974h-8.792l-1.9-3.974Zm0,0" transform="translate(-367.017 -361.046)" fill="#e6e9ed"/>
      <path id="Trazado_889795" data-name="Trazado 889795" d="M172.832,321.987s.825-.725,2.076-1.987h8.286l1.431,4.967H161.039L162.47,320h8.276C172.007,321.262,172.832,321.987,172.832,321.987Zm0,0" transform="translate(-142.034 -319.007)" fill="#e6e9ed"/>
      <path id="Trazado_889796" data-name="Trazado 889796" d="M22,312l-5.206,10.928H8L15.282,312Zm0,0" transform="translate(-8 -312)" fill="#e6e9ed"/>
    </g>
    <path id="Trazado_889797" data-name="Trazado 889797" d="M87.98,315.974l-3.313,6.954H78.8L84.007,312Zm0,0" transform="translate(-69.016 -273.255)" fill="#8cc152"/>
    <path id="Trazado_889798" data-name="Trazado 889798" d="M69.6,400v3.974H8V400Zm0,0" transform="translate(-7.007 -350.327)" fill="#81b53e"/>
    <path id="Trazado_889799" data-name="Trazado 889799" d="M386.6,286.954h-7.292L376,280h5.961Zm0,0" transform="translate(-329.307 -245.229)" fill="#e6e9ed"/>
    <path id="Trazado_889800" data-name="Trazado 889800" d="M213.909,112.993v7.948a1,1,0,0,1-.993.993H200.993a1,1,0,0,1-.993-.993v-7.948a1,1,0,0,1,.993-.993h11.922A1,1,0,0,1,213.909,112.993Zm0,0" transform="translate(-175.164 -98.092)" fill="#656d78"/>
    <path id="Trazado_889801" data-name="Trazado 889801" d="M62.588,288.886H.993a.993.993,0,0,1-.827-1.544l9.935-14.9a.994.994,0,1,1,1.653,1.1L2.849,286.9H60.732l-8.905-13.357a.994.994,0,1,1,1.653-1.1l9.935,14.9a.994.994,0,0,1-.827,1.545Zm0,0" transform="translate(0 -238.219)"/>
    <path id="Trazado_889802" data-name="Trazado 889802" d="M62.589,397.961H.993A.992.992,0,0,1,0,396.967v-3.974A.992.992,0,0,1,.993,392h61.6a.992.992,0,0,1,.993.993v3.974A.992.992,0,0,1,62.589,397.961Zm-60.6-1.987H61.6v-1.987H1.987Zm0,0" transform="translate(0 -343.32)"/>
    <path id="Trazado_889803" data-name="Trazado 889803" d="M71.787,316.905a.98.98,0,0,1-.427-.1.993.993,0,0,1-.469-1.324L76.1,304.555a.994.994,0,0,1,1.793.856l-5.209,10.928A.991.991,0,0,1,71.787,316.905Zm0,0" transform="translate(-62.003 -266.239)"/>
    <path id="Trazado_889804" data-name="Trazado 889804" d="M154.058,318.96a1.006,1.006,0,0,1-.274-.039.993.993,0,0,1-.682-1.228l1.425-4.967a.993.993,0,0,1,1.909.546l-1.424,4.967A.992.992,0,0,1,154.058,318.96Zm0,0" transform="translate(-134.056 -273.261)"/>
    <path id="Trazado_889805" data-name="Trazado 889805" d="M412.828,365.943a.992.992,0,0,1-.9-.565l-1.9-3.976a.994.994,0,0,1,1.793-.856l1.9,3.976a.993.993,0,0,1-.9,1.421Zm0,0" transform="translate(-359.031 -315.276)"/>
    <path id="Trazado_889806" data-name="Trazado 889806" d="M372.309,280.934a.992.992,0,0,1-.9-.566L368.1,273.42a.993.993,0,0,1,1.793-.856l3.312,6.949a.993.993,0,0,1-.9,1.421Zm0,0" transform="translate(-322.303 -238.22)"/>
    <path id="Trazado_889807" data-name="Trazado 889807" d="M333.882,318.962a.993.993,0,0,1-.954-.72l-1.424-4.967a.993.993,0,0,1,1.909-.546l1.425,4.967a.993.993,0,0,1-.682,1.228A1.007,1.007,0,0,1,333.882,318.962Zm0,0" transform="translate(-290.303 -273.263)"/>
    <path id="Trazado_889808" data-name="Trazado 889808" d="M66.375,305.987H59.658a.993.993,0,1,1,0-1.987h6.717a.993.993,0,0,1,0,1.987Zm0,0" transform="translate(-51.379 -266.249)"/>
    <path id="Trazado_889809" data-name="Trazado 889809" d="M418.983,361.987h-8.036a.993.993,0,1,1,0-1.987h8.036a.993.993,0,0,1,0,1.987Zm0,0" transform="translate(-359.044 -315.294)"/>
    <path id="Trazado_889810" data-name="Trazado 889810" d="M402.971,329.987h-7.282a.993.993,0,1,1,0-1.987h7.282a.993.993,0,1,1,0,1.987Zm0,0" transform="translate(-345.681 -287.268)"/>
    <path id="Trazado_889811" data-name="Trazado 889811" d="M173.9,313.987h-8.379a.993.993,0,1,1,0-1.987H173.9a.993.993,0,1,1,0,1.987Zm0,0" transform="translate(-144.096 -273.255)"/>
    <path id="Trazado_889812" data-name="Trazado 889812" d="M274.023,313.987h-8.287a.993.993,0,0,1,0-1.987h8.287a.993.993,0,0,1,0,1.987Zm0,0" transform="translate(-231.866 -273.255)"/>
    <path id="Trazado_889813" data-name="Trazado 889813" d="M177.636,353.987H154.056a.993.993,0,0,1,0-1.987h23.579a.993.993,0,1,1,0,1.987Zm0,0" transform="translate(-134.055 -308.288)"/>
    <path id="Trazado_889814" data-name="Trazado 889814" d="M143.9,42.719a.992.992,0,0,1-.655-.246C142.618,41.927,128,28.968,128,15.9a15.9,15.9,0,0,1,31.791,0c0,13.073-14.619,26.032-15.241,26.577a.992.992,0,0,1-.655.246Zm0-40.732A13.924,13.924,0,0,0,129.987,15.9c0,10.664,11.071,21.8,13.909,24.48C146.732,37.7,157.8,26.56,157.8,15.9A13.924,13.924,0,0,0,143.9,1.987Zm0,0" transform="translate(-112.104)"/>
    <path id="Trazado_889815" data-name="Trazado 889815" d="M95.326,273.987H80.993a.993.993,0,0,1,0-1.987H95.326a.993.993,0,0,1,0,1.987Zm0,0" transform="translate(-70.066 -238.222)"/>
    <path id="Trazado_889816" data-name="Trazado 889816" d="M315.9,273.987H301.567a.993.993,0,0,1,0-1.987H315.9a.993.993,0,0,1,0,1.987Zm0,0" transform="translate(-263.248 -238.222)"/>
    <path id="Trazado_889817" data-name="Trazado 889817" d="M205.909,115.922H193.987A1.989,1.989,0,0,1,192,113.935v-7.948A1.989,1.989,0,0,1,193.987,104h11.922a1.989,1.989,0,0,1,1.987,1.987v7.948A1.989,1.989,0,0,1,205.909,115.922Zm0-1.987v0Zm-11.922-7.948v7.948h11.919l0-7.948Zm0,0" transform="translate(-168.157 -91.085)"/>
    <path id="Trazado_889818" data-name="Trazado 889818" d="M224.993,84.967a.992.992,0,0,1-.993-.993v-2.98a.993.993,0,0,1,1.987,0v2.98A.992.992,0,0,1,224.993,84.967Zm0,0" transform="translate(-196.183 -70.066)"/>
    <path id="Trazado_889819" data-name="Trazado 889819" d="M230.954,81.987h-5.961a.993.993,0,0,1,0-1.987h5.961a.993.993,0,0,1,0,1.987Zm0,0" transform="translate(-196.183 -70.066)"/>
    <path id="Trazado_889820" data-name="Trazado 889820" d="M272.993,84.967a.992.992,0,0,1-.993-.993v-2.98a.993.993,0,0,1,1.987,0v2.98A.992.992,0,0,1,272.993,84.967Zm0,0" transform="translate(-238.222 -70.066)"/>
    <path id="Trazado_889821" data-name="Trazado 889821" d="M230.954,145.987h-5.961a.993.993,0,1,1,0-1.987h5.961a.993.993,0,0,1,0,1.987Zm0,0" transform="translate(-196.183 -126.118)"/>
  </g>
</svg>
