<svg xmlns="http://www.w3.org/2000/svg" width="62.181" height="54.641" viewBox="0 0 62.181 54.641">
  <g id="Layer_x0020_1" transform="translate(0 -103)">
    <path id="Trazado_889855" data-name="Trazado 889855" d="M49.431,116.259a4.105,4.105,0,0,1-4.153-4.153V110.65H16.866v1.457a4.116,4.116,0,1,1-8.233,0V110.65H5.209a3.071,3.071,0,0,0-3.023,3.06v7.03H20.472a12.058,12.058,0,0,1,21.2,0H60v-7.03a3.078,3.078,0,0,0-3.06-3.06H53.548v1.457A4.1,4.1,0,0,1,49.431,116.259ZM0,113.71a5.311,5.311,0,0,1,5.209-5.245H8.633v-1.457a4.118,4.118,0,0,1,8.233,0v1.457H45.279v-1.457a4.136,4.136,0,0,1,8.269,0v1.457h3.388a5.318,5.318,0,0,1,5.245,5.245v38.722a5.17,5.17,0,0,1-5.245,5.209H5.209A5.162,5.162,0,0,1,0,152.431Zm60,9.216H42.583a12.553,12.553,0,0,1,.51,3.533c0,5.282-7.322,15.736-11.074,21.929a1.123,1.123,0,0,1-1.894,0c-3.752-6.193-11.074-16.72-11.074-21.929a11.382,11.382,0,0,1,.546-3.533H2.186v29.506a2.993,2.993,0,0,0,3.023,3.023H45.17V144.527a3.848,3.848,0,0,1,3.9-3.861H60Zm-11.11,32.529h8.05A3,3,0,0,0,60,152.431v-8.05Zm-34.2-45.862v-2.586c0-2.368-3.861-2.368-3.861,0v5.1a1.931,1.931,0,1,0,3.861,0Zm32.784-.036v2.55a1.949,1.949,0,0,0,3.9,0v-5.1c0-2.368-3.9-2.368-3.9,0Zm1.6,33.294a1.657,1.657,0,0,0-1.712,1.676v9.4l11.074-11.074Zm-8.16-16.392a9.835,9.835,0,0,0-19.671,0c0,4.189,6.593,13.988,9.835,19.27C34.351,140.483,40.908,130.648,40.908,126.459Zm-9.835,6.775a6.666,6.666,0,1,1,6.7-6.666A6.765,6.765,0,0,1,31.072,133.234Zm0-11.147a4.481,4.481,0,1,0,4.517,4.481A4.525,4.525,0,0,0,31.072,122.088Z" fill-rule="evenodd"/>
    <path id="Trazado_889856" data-name="Trazado 889856" d="M87.94,675.462c-3.752-6.193-11.074-16.72-11.074-21.929A11.382,11.382,0,0,1,77.412,650H60v29.506a2.993,2.993,0,0,0,3.023,3.023h39.96V671.6a3.848,3.848,0,0,1,3.9-3.861H117.81V650H100.4a12.554,12.554,0,0,1,.51,3.533c0,5.282-7.322,15.736-11.074,21.929A1.123,1.123,0,0,1,87.94,675.462Z" transform="translate(-57.814 -527.074)" fill="#b5dbff" fill-rule="evenodd"/>
    <path id="Trazado_889857" data-name="Trazado 889857" d="M583,486.835c0,4.189,6.593,13.988,9.835,19.27,3.278-5.245,9.835-15.081,9.835-19.27a9.835,9.835,0,1,0-19.671,0Zm9.835,6.775a6.666,6.666,0,1,1,6.7-6.666A6.765,6.765,0,0,1,592.835,493.611Z" transform="translate(-561.763 -360.376)" fill="#ee6161" fill-rule="evenodd"/>
    <path id="Trazado_889858" data-name="Trazado 889858" d="M78.286,323.09a12.058,12.058,0,0,1,21.2,0H117.81v-7.03a3.078,3.078,0,0,0-3.06-3.06h-3.388v1.457a4.135,4.135,0,1,1-8.269,0V313H74.68v1.457a4.116,4.116,0,1,1-8.233,0V313H63.023A3.071,3.071,0,0,0,60,316.06v7.03Z" transform="translate(-57.814 -202.35)" fill="#e3374e" fill-rule="evenodd"/>
    <path id="Trazado_889859" data-name="Trazado 889859" d="M1303,168.576v2.55a1.949,1.949,0,0,0,3.9,0v-5.1c0-2.368-3.9-2.368-3.9,0Z" transform="translate(-1255.536 -59.019)" fill="#596c76" fill-rule="evenodd"/>
    <path id="Trazado_889860" data-name="Trazado 889860" d="M300.861,171.126v-5.1c0-2.368-3.861-2.368-3.861,0v5.1A1.931,1.931,0,1,0,300.861,171.126Z" transform="translate(-286.181 -59.019)" fill="#596c76" fill-rule="evenodd"/>
    <path id="Trazado_889861" data-name="Trazado 889861" d="M1301.712,1197a1.657,1.657,0,0,0-1.712,1.676v9.4L1311.074,1197Z" transform="translate(-1252.645 -1054.149)" fill="#97d0ff" fill-rule="evenodd"/>
    <path id="Trazado_889862" data-name="Trazado 889862" d="M1353.11,1239,1342,1250.074h8.05a3,3,0,0,0,3.06-3.023Z" transform="translate(-1293.115 -1094.619)" fill="#b5dbff" fill-rule="evenodd"/>
  </g>
</svg>
