<svg id="Page-1" xmlns="http://www.w3.org/2000/svg" width="60.002" height="59.988" viewBox="0 0 60.002 59.988">
  <g id="_056---Questionaire" data-name="056---Questionaire">
    <g id="Icons" transform="translate(1 1)">
      <path id="Path" d="M44,11.24v20.8A13,13,0,0,0,33,50H3a3,3,0,0,1-3-3V3A3,3,0,0,1,3,0H32.76a2.98,2.98,0,0,1,1.66.51L34,1V7a3,3,0,0,0,3,3h6l.49-.42A2.98,2.98,0,0,1,44,11.24Z" fill="#02a9f4" fill-rule="evenodd"/>
      <path id="Path-2" data-name="Path" d="M43.49,9.58,43,10H40.723A2.965,2.965,0,0,1,41,11.24v20.8A13,13,0,0,0,30,50h3A13,13,0,0,1,44,32.04V11.24a2.98,2.98,0,0,0-.51-1.66Z" fill="#0377bc" fill-rule="evenodd"/>
      <path id="Path-3" data-name="Path" d="M43.49,9.58,43,10H37a3,3,0,0,1-3-3V1l.42-.49a2.762,2.762,0,0,1,.46.37l8.24,8.24a2.762,2.762,0,0,1,.37.46Z" fill="#0377bc" fill-rule="evenodd"/>
      <g id="Grupo_1108058" data-name="Grupo 1108058">
        <rect id="Rectangle" width="10" height="10" rx="2" transform="translate(18 5)" fill="#f5f5f5"/>
        <rect id="Rectangle-2" data-name="Rectangle" width="10" height="10" rx="2" transform="translate(18 20)" fill="#f5f5f5"/>
        <rect id="Rectangle-3" data-name="Rectangle" width="10" height="10" rx="2" transform="translate(18 35)" fill="#f5f5f5"/>
        <path id="Path-4" data-name="Path" d="M58,45A13,13,0,1,1,44,32.04c.33-.03.66-.04,1-.04A13,13,0,0,1,58,45Z" fill="#f5f5f5" fill-rule="evenodd"/>
      </g>
      <path id="Path-5" data-name="Path" d="M45,32c-.34,0-.67.01-1,.04-.158.012-.311.041-.467.058a12.992,12.992,0,0,1-.026,25.808A13.136,13.136,0,0,0,45,58a13,13,0,0,0,0-26Z" fill="#cfd8dc" fill-rule="evenodd"/>
    </g>
    <g id="Icons_copy">
      <path id="Shape" d="M10.914,6.594a1,1,0,0,0-1.828,0l-4,9a1,1,0,0,0,1.828.812L7.983,14h4.034l1.069,2.406A1,1,0,0,0,14,17a.987.987,0,0,0,.4-.086,1,1,0,0,0,.508-1.32ZM8.872,12,10,9.462,11.128,12Z"/>
      <path id="Shape-2" data-name="Shape" d="M13.337,25.534A3.488,3.488,0,0,0,10.5,20H7a1,1,0,0,0-1,1V31a1,1,0,0,0,1,1h4.5a3.492,3.492,0,0,0,1.837-6.466ZM8,22h2.5a1.5,1.5,0,0,1,0,3H8Zm3.5,8H8V27h3.5a1.5,1.5,0,0,1,0,3Z"/>
      <path id="Path-6" data-name="Path" d="M10.54,37a3,3,0,0,1,2.109.863,3.16,3.16,0,0,1,.481.63,1,1,0,0,0,1.74-.986,5.233,5.233,0,0,0-.8-1.049A5,5,0,0,0,5.54,40v2a5,5,0,0,0,9.327,2.5,1,1,0,1,0-1.734-1A3,3,0,0,1,7.54,42V40a3,3,0,0,1,3-3Z" fill-rule="evenodd"/>
      <g id="Grupo_1108059" data-name="Grupo 1108059">
        <path id="Shape-3" data-name="Shape" d="M27,5H21a3,3,0,0,0-3,3v6a3,3,0,0,0,3,3h6a3,3,0,0,0,3-3V8A3,3,0,0,0,27,5Zm1,9a1,1,0,0,1-1,1H21a1,1,0,0,1-1-1V8a1,1,0,0,1,1-1h6a1,1,0,0,1,1,1Z"/>
        <path id="Shape-4" data-name="Shape" d="M27,20H21a3,3,0,0,0-3,3v6a3,3,0,0,0,3,3h6a3,3,0,0,0,3-3V23A3,3,0,0,0,27,20Zm-6,2h5.586L20,28.586V23A1,1,0,0,1,21,22Zm6,8H21.414L28,23.414V29A1,1,0,0,1,27,30Z"/>
        <path id="Shape-5" data-name="Shape" d="M27,35H21a3,3,0,0,0-3,3v6a3,3,0,0,0,3,3h6a3,3,0,0,0,3-3V38A3,3,0,0,0,27,35Zm1,9a1,1,0,0,1-1,1H21a1,1,0,0,1-1-1V38a1,1,0,0,1,1-1h6a1,1,0,0,1,1,1Z"/>
        <path id="Shape-6" data-name="Shape" d="M46,32V12.24a4.026,4.026,0,0,0-1.173-2.827l-8.24-8.24A4.026,4.026,0,0,0,33.76,0H4A4,4,0,0,0,0,4V48a4,4,0,0,0,4,4H33.37A13.993,13.993,0,1,0,46,32ZM42.586,10H38a2,2,0,0,1-2-2V3.414ZM4,50a2,2,0,0,1-2-2V4A2,2,0,0,1,4,2H33.76a1.931,1.931,0,0,1,.24.024V8a4,4,0,0,0,4,4h5.976a1.931,1.931,0,0,1,.024.24V32.16A13.963,13.963,0,0,0,32.59,50Zm42,8A12,12,0,1,1,58,46,12,12,0,0,1,46,58Z"/>
      </g>
      <path id="Path-7" data-name="Path" d="M47,45.586V37a1,1,0,0,0-2,0v9a1,1,0,0,0,.293.707l5,5a1,1,0,0,0,1.414-1.414Z" fill-rule="evenodd"/>
    </g>
  </g>
</svg>
