<svg xmlns="http://www.w3.org/2000/svg" width="70.871" height="70.841" viewBox="0 0 70.871 70.841">
  <g id="agreement_12001919" transform="translate(-4.007 -4.114)">
    <path id="Trazado_889897" data-name="Trazado 889897" d="M23.023,16.759,11.863,27.919a3.215,3.215,0,0,0-1.048,2.366V70.113H53.423v-54.4H25.389a3.216,3.216,0,0,0-2.366,1.048Z" transform="translate(-5.851 -9.966)" fill="#e3f1ff" fill-rule="evenodd"/>
    <path id="Trazado_889898" data-name="Trazado 889898" d="M29.907,23.83,18.934,34.8a3.718,3.718,0,0,1,2.59-1.049h7.333V26.42a3.718,3.718,0,0,1,1.05-2.59Z" transform="translate(-12.828 -16.944)" fill="#61a0e0" fill-rule="evenodd"/>
    <path id="Trazado_889899" data-name="Trazado 889899" d="M43.591,23.829l-8.734,8.734a3.7,3.7,0,0,1,1.615-.369h6.069V26.419a3.719,3.719,0,0,1,1.049-2.59Z" transform="translate(-26.512 -16.943)" fill="#7cb5ef" fill-rule="evenodd"/>
    <path id="Trazado_889900" data-name="Trazado 889900" d="M301.722,15.71h1.7v54.4h-1.7Z" transform="translate(-255.85 -9.965)" fill="#b6dbff"/>
    <g id="Grupo_1108128" data-name="Grupo 1108128" transform="translate(27.489 5.078)">
      <path id="Trazado_889901" data-name="Trazado 889901" d="M220.378,10.967h-6.422V20.4l3.211-2.663,3.211,2.663Z" transform="translate(-207.915 -10.967)" fill="#fdc72e" fill-rule="evenodd"/>
      <path id="Trazado_889902" data-name="Trazado 889902" d="M219.218,10.967h-5.262v7.948L216.269,17l.9.745,2.051,1.7Z" transform="translate(-207.915 -10.967)" fill="#fcdb35" fill-rule="evenodd"/>
      <path id="Trazado_889903" data-name="Trazado 889903" d="M204.578,334.341l1.984,1.129c2.562,1.479,4.11-1.666,2.109-2.831l1.114.643a1.868,1.868,0,0,0,1.874-3.233l.6.344a1.99,1.99,0,0,0,2-3.441h0l.592.342a1.986,1.986,0,0,0,2.913-2.237,2.234,2.234,0,0,0-.924-1.209l-5.978-3.452a72.814,72.814,0,0,1-7.238-6.4c-4.106-2.951-7.061.72-12.493-2.335l-3.864-2.173c-3.448,2.809-5.4,6.326-4.192,12.059l6.9,3.557,1.779,1.914,12.828,7.319Z" transform="translate(-181.062 -267.512)" fill="#f29988" fill-rule="evenodd"/>
      <path id="Trazado_889904" data-name="Trazado 889904" d="M295.354,349.528a1.978,1.978,0,0,0,.337-.432,2,2,0,0,0,.2-1.509,2.233,2.233,0,0,0-.924-1.209l-5.978-3.452a72.81,72.81,0,0,1-7.239-6.4,6.713,6.713,0,0,0-1.491-.822l-5.223,3.256a2.961,2.961,0,0,0-.2,4.914,4.772,4.772,0,0,0,3.282,1.188c2.475-.1,4.426-2.151,6.67-2.164a7.043,7.043,0,0,1,3.459,1.312l5.91,3.412c.506.323,1.512.9,1.2,1.9Z" transform="translate(-259.189 -290.041)" fill="#ea806f" fill-rule="evenodd"/>
      <path id="Trazado_889905" data-name="Trazado 889905" d="M358.224,472.295a.771.771,0,0,0-.771,1.335l1.815,1.048a1.7,1.7,0,0,0-.757-2.217l-.287-.166Z" transform="translate(-330.903 -407.334)" fill="#ea806f" fill-rule="evenodd"/>
      <path id="Trazado_889906" data-name="Trazado 889906" d="M372.871,450.467a.861.861,0,1,0-.861,1.491l2.708,1.563a1.877,1.877,0,0,0-.747-2.419Z" transform="translate(-343.374 -388.565)" fill="#ea806f" fill-rule="evenodd"/>
      <path id="Trazado_889907" data-name="Trazado 889907" d="M388.755,426.965l-1.7-.981a.861.861,0,0,0-.861,1.491l3.4,1.962a2,2,0,0,0-.839-2.472Z" transform="translate(-355.565 -367.525)" fill="#ea806f" fill-rule="evenodd"/>
      <path id="Trazado_889908" data-name="Trazado 889908" d="M243.024,417.3a1.967,1.967,0,0,0,3.407,1.967l1.414-2.449a1.967,1.967,0,1,0-3.407-1.967Z" transform="translate(-232.67 -357.214)" fill="#ffcec0" fill-rule="evenodd"/>
      <path id="Trazado_889909" data-name="Trazado 889909" d="M315.717,459.271a1.967,1.967,0,1,0,3.407,1.967l1.414-2.449a1.967,1.967,0,1,0-3.407-1.967Z" transform="translate(-295.141 -393.282)" fill="#ffcec0" fill-rule="evenodd"/>
      <path id="Trazado_889910" data-name="Trazado 889910" d="M288.091,446.108a1.967,1.967,0,1,0,3.407,1.967l1.891-3.276a1.967,1.967,0,1,0-3.407-1.967l-1.891,3.276Z" transform="translate(-271.4 -381.259)" fill="#ffcec0" fill-rule="evenodd"/>
      <path id="Trazado_889911" data-name="Trazado 889911" d="M261.01,432.812a1.967,1.967,0,0,0,3.407,1.967l2.292-3.97a1.967,1.967,0,1,0-3.407-1.967Z" transform="translate(-248.127 -369.237)" fill="#ffcec0" fill-rule="evenodd"/>
      <path id="Trazado_889912" data-name="Trazado 889912" d="M312.544,321.548l-7.581,3.508a2.234,2.234,0,0,0-.924-1.209l-5.978-3.452a8.16,8.16,0,0,0-4.211-1.511c-3.578.021-5.982,3.813-9,1.317a1.485,1.485,0,0,1,.039-2.508l6.392-3.986a7.868,7.868,0,0,1,6.758-1.2,7.038,7.038,0,0,0,5.812-.523l4.5-2.5a10.813,10.813,0,0,1,4.192,12.059Z" transform="translate(-268.265 -267.51)" fill="#ffcec0" fill-rule="evenodd"/>
      <path id="Trazado_889913" data-name="Trazado 889913" d="M443.559,316.365l-1.9.807a.758.758,0,0,1-1.054-.69,14.039,14.039,0,0,0-5.167-10.967.758.758,0,0,1,.12-1.242l2.422-1.347a1.116,1.116,0,0,1,1.256.1c3.831,3.022,5.855,8.294,4.991,12.52a1.106,1.106,0,0,1-.669.818Z" transform="translate(-398.02 -261.744)" fill="#8bbd00" fill-rule="evenodd"/>
      <path id="Trazado_889914" data-name="Trazado 889914" d="M449.247,316.366l-1.309.556-.023-.014a.782.782,0,0,1-.363-.664,14.885,14.885,0,0,0-5.478-11.628.779.779,0,0,1-.286-.643l1.881-1.046a1.116,1.116,0,0,1,1.256.1c3.831,3.022,5.855,8.294,4.991,12.52a1.106,1.106,0,0,1-.669.818Z" transform="translate(-403.709 -261.745)" fill="#a8e304" fill-rule="evenodd"/>
      <path id="Trazado_889915" data-name="Trazado 889915" d="M171.864,316.365l1.9.807a.758.758,0,0,0,1.054-.69,14.039,14.039,0,0,1,5.167-10.967.758.758,0,0,0-.12-1.242l-2.422-1.347a1.116,1.116,0,0,0-1.256.1c-3.831,3.022-5.855,8.294-4.991,12.52a1.106,1.106,0,0,0,.669.818Z" transform="translate(-170.998 -261.744)" fill="#2a92fa" fill-rule="evenodd"/>
      <path id="Trazado_889916" data-name="Trazado 889916" d="M171.865,316.366l1.308.556.023-.014a.782.782,0,0,0,.363-.664,14.885,14.885,0,0,1,5.478-11.628.78.78,0,0,0,.286-.643l-1.881-1.046a1.117,1.117,0,0,0-1.256.1c-3.831,3.022-5.855,8.294-4.991,12.52a1.106,1.106,0,0,0,.669.818Z" transform="translate(-170.998 -261.745)" fill="#4eb1fc" fill-rule="evenodd"/>
      <path id="Trazado_889917" data-name="Trazado 889917" d="M252.345,423.185a1.977,1.977,0,0,0,2.322-.884l1.414-2.449a1.975,1.975,0,0,0-.4-2.453l-3.34,5.785Z" transform="translate(-240.906 -360.247)" fill="#fdb0a0" fill-rule="evenodd"/>
      <path id="Trazado_889918" data-name="Trazado 889918" d="M325.038,465.154a1.977,1.977,0,0,0,2.322-.884l1.414-2.449a1.975,1.975,0,0,0-.4-2.453l-3.34,5.785Z" transform="translate(-303.377 -396.314)" fill="#fdb0a0" fill-rule="evenodd"/>
      <path id="Trazado_889919" data-name="Trazado 889919" d="M297.414,451.991a1.977,1.977,0,0,0,2.322-.884l1.891-3.276a1.975,1.975,0,0,0-.4-2.453Z" transform="translate(-279.637 -384.291)" fill="#fdb0a0" fill-rule="evenodd"/>
      <path id="Trazado_889920" data-name="Trazado 889920" d="M270.332,438.694a1.977,1.977,0,0,0,2.319-.879l2.295-3.975a1.975,1.975,0,0,0-.4-2.453Z" transform="translate(-256.363 -372.268)" fill="#fdb0a0" fill-rule="evenodd"/>
    </g>
    <path id="Trazado_889921" data-name="Trazado 889921" d="M0,0H21.706V6.256H0Z" transform="matrix(0.5, -0.866, 0.866, 0.5, 41.289, 30.17)" fill="#dea368"/>
    <path id="Trazado_889922" data-name="Trazado 889922" d="M351.848,29.462a3.137,3.137,0,0,1,1.145,4.273l-1.264,2.189L346.311,32.8l1.264-2.189a3.136,3.136,0,0,1,4.272-1.145Z" transform="translate(-294.169 -21.426)" fill="#495586" fill-rule="evenodd"/>
    <path id="Trazado_889923" data-name="Trazado 889923" d="M0,0H21.706V4.1H0Z" transform="matrix(0.5, -0.866, 0.866, 0.5, 41.289, 30.169)" fill="#e6b17c"/>
    <path id="Trazado_889924" data-name="Trazado 889924" d="M346.311,32.8l1.264-2.189a3.139,3.139,0,0,1,3.244-1.517,3.14,3.14,0,0,1,.308,3.568l-1.264,2.189L346.311,32.8Z" transform="translate(-294.169 -21.426)" fill="#5d689e" fill-rule="evenodd"/>
    <path id="Trazado_889925" data-name="Trazado 889925" d="M0,0H4.349V6.256H0Z" transform="matrix(0.5, -0.866, 0.866, 0.5, 49.968, 15.138)" fill="#f9ac00"/>
    <path id="Trazado_889926" data-name="Trazado 889926" d="M0,0H4.349V4.1H0Z" transform="matrix(0.5, -0.866, 0.866, 0.5, 49.968, 15.138)" fill="#fcdb35"/>
    <path id="Trazado_889927" data-name="Trazado 889927" d="M263.083,192.524l-6.759,6.061a.321.321,0,0,1-.528-.3l1.869-8.884Z" transform="translate(-216.376 -159.227)" fill="#495586" fill-rule="evenodd"/>
    <path id="Trazado_889928" data-name="Trazado 889928" d="M259.474,195.852l1.358-6.455,3.553,2.051Z" transform="translate(-219.543 -159.228)" fill="#5d689e" fill-rule="evenodd"/>
    <path id="Trazado_889929" data-name="Trazado 889929" d="M55.56,8.686a2.143,2.143,0,0,1,2.409,3.137L57.2,13.158l-3.71-2.142.771-1.337a2.131,2.131,0,0,1,1.3-.994ZM40.154,4.114H33.332a.986.986,0,0,0-.742.68H19.548a4.2,4.2,0,0,0-3.065,1.341L5.348,17.269a4.2,4.2,0,0,0-1.341,3.065V43.469a.984.984,0,0,0,1.969,0V20.335a2.223,2.223,0,0,1,.746-1.655l.013-.012.083-.083a2.729,2.729,0,0,1,1.9-.77h7.325a.986.986,0,0,0,.985-.984V9.505A2.728,2.728,0,0,1,17.8,7.6l.083-.083.012-.013a2.222,2.222,0,0,1,1.655-.746h13v7.753a.984.984,0,0,0,1.613.757l2.582-2.141,2.584,2.141a.984.984,0,0,0,1.612-.757V6.763h5.625v5.717a.984.984,0,0,0,1.969,0v-6.7a.984.984,0,0,0-.985-.984H40.9a.987.987,0,0,0-.743-.68Zm11.16,10.667,3.711,2.143,1.188-2.06L52.5,12.721ZM40.806,37.263,41.977,31.7l3.064,1.768Zm-.386-7.544a.249.249,0,0,0-.017.032.807.807,0,0,0-.039.1s0,0,0,0a.713.713,0,0,0-.03.11v0l-.42,2H12.587a.984.984,0,1,0,0,1.969H39.5l-.934,4.435H12.587a.984.984,0,1,0,0,1.969h26.7a1.284,1.284,0,0,0,1.27-.21L40.6,40.1a.135.135,0,0,1,.016-.013l6.756-6.058.014-.014c.016-.014.03-.028.044-.043l.043-.049a.387.387,0,0,0,.034-.044c.015-.02.029-.041.042-.062s.013-.018.018-.027l3.087-5.347a.984.984,0,0,0-1.7-.984L46.35,31.948l-3.711-2.142,7.69-13.32,3.711,2.142L50.869,24.12a.984.984,0,1,0,1.7.985l7.1-12.3A4.111,4.111,0,0,0,52.554,8.7L40.442,29.674a.45.45,0,0,0-.022.045ZM72.735,58.731a.126.126,0,0,1-.09.109l-1.591.676a15.048,15.048,0,0,0-5.262-11.159l2.138-1.19a.134.134,0,0,1,.167.014C71.59,49.935,73.54,54.792,72.735,58.731Zm-8.962,1.828c.028.017.056.035.083.054a3.7,3.7,0,0,1,.771.723l4.448-2.058a12.924,12.924,0,0,0-4.5-9.375l-.993.552a8.036,8.036,0,0,1-6.578.6c-1.829-.6-3.762-.246-5.906,1.091l-6.37,3.972c-.235.146-.243.27-.246.317a.8.8,0,0,0,.314.589c1.264,1.046,2.22.653,4.095-.262a9.665,9.665,0,0,1,4.236-1.277h.038a8.7,8.7,0,0,1,4.508,1.553l6.106,3.525Zm-.619,3.069a1.006,1.006,0,0,1-1.364.365l-2.08-1.2a.984.984,0,0,0-.984,1.7l1.479.855h0a1.011,1.011,0,0,1,.365,1.364,1,1,0,0,1-1.363.365l-.6-.346-.689-.4a.984.984,0,1,0-.984,1.7l.689.4a.877.877,0,0,1-.878,1.52l-1.118-.645a.984.984,0,0,0-.984,1.7.714.714,0,0,1,.325,1.019c-.251.436-.788.474-1.444.1l-.274-.154.543-.937a2.95,2.95,0,0,0-1.079-4.023,2.917,2.917,0,0,0-2.071-.329,2.939,2.939,0,0,0-3.4-1.961,2.941,2.941,0,0,0-3.4-1.962,2.946,2.946,0,0,0-5.345-.551l-.411.71L37.229,62a.971.971,0,0,0-.27-.2l-4.652-2.4a12.93,12.93,0,0,1,4.5-9.477l.374.211a11.334,11.334,0,0,0,7.38,1.317,8.09,8.09,0,0,1,3.6.211l-4.473,2.789A2.354,2.354,0,0,0,42.512,56.3a2.747,2.747,0,0,0,1.022,2.237c2.3,1.9,4.379.887,6.215-.01a8.027,8.027,0,0,1,3.382-1.076h.025a6.972,6.972,0,0,1,3.524,1.289l6.062,3.5a1.231,1.231,0,0,1,.518.674,1.014,1.014,0,0,1-.107.716ZM50.085,72.951a.967.967,0,0,0,.594-.451l1.408-2.441a.977.977,0,0,0-.357-1.333.983.983,0,0,0-1.331.355l-1.415,2.448a.973.973,0,0,0,1.1,1.422Zm-3.872-1.137a.967.967,0,0,0,.594-.451l.475-.824,0,0L48.691,68.1h0A.976.976,0,0,0,47,67.122h0l-1.884,3.263h0a.979.979,0,0,0,.359,1.333.969.969,0,0,0,.74.094Zm-4.535-1.363a.988.988,0,0,0,1.333-.357l.4-.692L45.3,66.136a.976.976,0,0,0-.359-1.331.987.987,0,0,0-1.331.356h0l-1.629,2.82-.655,1.135a.979.979,0,0,0,.357,1.333ZM39.9,67.07a.971.971,0,0,0,.594-.452h0L41.9,64.178h0a.976.976,0,0,0-1.69-.976L38.8,65.641a.973.973,0,0,0,1.1,1.428Zm-9.565-7.553a15.048,15.048,0,0,1,5.262-11.159l-2.137-1.19a.136.136,0,0,0-.169.014,12.989,12.989,0,0,0-3.9,5.263.965.965,0,0,1-.06.15,11,11,0,0,0-.675,6.137.127.127,0,0,0,.09.11l.857.364.008,0,.725.308ZM69.317,45.635c4.044,3.19,6.291,8.863,5.346,13.49a2.1,2.1,0,0,1-1.249,1.528l-1.9.807a1.75,1.75,0,0,1-.686.142,1.732,1.732,0,0,1-.95-.287,2.058,2.058,0,0,1-.2-.149l-4.435,2.052a2.946,2.946,0,0,1-2.192,2.776,3.032,3.032,0,0,1-.39.077,2.955,2.955,0,0,1-2.194,3.01,3.01,3.01,0,0,1-.447.083,2.849,2.849,0,0,1-3.015,2.877,2.779,2.779,0,0,1-.339.984,2.685,2.685,0,0,1-2.349,1.335,3.541,3.541,0,0,1-1.774-.514l-.294-.165a2.92,2.92,0,0,1-1.662,1.173,2.969,2.969,0,0,1-.771.1A2.942,2.942,0,0,1,47.291,73.5a2.871,2.871,0,0,1-.569.216,2.938,2.938,0,0,1-3.344-1.427,2.948,2.948,0,0,1-4.1-3.238,2.945,2.945,0,0,1-2.206-4.337L35.9,63.463l-4.3-2.218c-.032.023-.062.048-.094.069a1.726,1.726,0,0,1-.95.288,1.751,1.751,0,0,1-.686-.142l-.851-.362H4.991a.984.984,0,0,1-.984-.984V47.32a.984.984,0,1,1,1.969,0V59.13H26.724s0,0,0,0a12.5,12.5,0,0,1,.355-5.981H12.587a.984.984,0,1,1,0-1.969H27.81a15.24,15.24,0,0,1,3.028-4.436H12.587a.985.985,0,1,1,0-1.969H39.954a.985.985,0,0,1,0,1.969H36.738l.1.055a1.719,1.719,0,0,1,.887,1.354v.028l.418.235a9.421,9.421,0,0,0,6.245,1.072,17.77,17.77,0,0,1,2.177-.1V37.431a.984.984,0,1,1,1.969,0V49.7a7.172,7.172,0,0,1,1.593.725,8.721,8.721,0,0,1,7.49-1.246,6.039,6.039,0,0,0,5.006-.447l1.042-.58V48.15a1.72,1.72,0,0,1,.887-1.355l2.423-1.347a2.088,2.088,0,0,1,2.344.188ZM24.76,21.121a.985.985,0,0,1,0-1.969H39.954a.985.985,0,0,1,0,1.969ZM12.587,25.557H39.954a.985.985,0,0,1,0,1.969H12.587a.985.985,0,1,1,0-1.969Zm2.473-9.712h-5.5l5.5-5.5ZM38.97,12.42l-1.6-1.326a.985.985,0,0,0-1.256,0l-1.6,1.326V6.063H38.97V12.42Z" transform="translate(0 0)" fill-rule="evenodd"/>
  </g>
</svg>
