<svg xmlns="http://www.w3.org/2000/svg" width="400" height="262.308" viewBox="0 0 400 262.308">
  <g id="_2" data-name="2" transform="translate(-50.714 -33.8)">
    <g id="Grupo_1108452" data-name="Grupo 1108452" transform="translate(339.574 74.071)" opacity="0.5">
      <g id="Grupo_1108449" data-name="Grupo 1108449" transform="translate(0 0)">
        <path id="Trazado_890492" data-name="Trazado 890492" d="M668.5,203.471s40.913-95.245,70.884-82.34-44.045,57.278-54.893,85.426Z" transform="translate(-668.5 -119.929)" fill="#eaeaea"/>
      </g>
      <g id="Grupo_1108451" data-name="Grupo 1108451" transform="translate(8.276 13.266)">
        <g id="Grupo_1108450" data-name="Grupo 1108450">
          <path id="Trazado_890493" data-name="Trazado 890493" d="M686.2,220.119c3.974-10.848,12.811-28.382,32.449-50.217a234.58,234.58,0,0,1,21.976-21.6l.327.421a241.209,241.209,0,0,0-21.929,21.555c-19.544,21.742-28.382,39.183-32.356,50.03Z" transform="translate(-686.2 -148.3)" fill="#fff"/>
        </g>
      </g>
    </g>
    <g id="Grupo_1108481" data-name="Grupo 1108481" transform="translate(81.661 33.8)">
      <g id="Grupo_1108480" data-name="Grupo 1108480" transform="translate(0 0)">
        <g id="Grupo_1108453" data-name="Grupo 1108453" transform="translate(35.981 19.077)">
          <path id="Trazado_890494" data-name="Trazado 890494" d="M198.785,82.315c-2.2,2.244-3.554,2.2-4.4,1.309s-.888-2.291,1.309-4.535c4.021-4.115,7.528-4.489,7.528-4.489S202.853,78.154,198.785,82.315Z" transform="translate(-193.854 -74.6)" fill="#d5d6da"/>
        </g>
        <g id="Grupo_1108454" data-name="Grupo 1108454" transform="translate(40.873 38.247)">
          <path id="Trazado_890495" data-name="Trazado 890495" d="M209.124,124.437c-1.4,2.9-2.665,3.273-3.787,2.712-1.075-.561-1.543-1.87-.187-4.769,2.525-5.237,5.7-6.78,5.7-6.78S211.7,119.107,209.124,124.437Z" transform="translate(-204.315 -115.6)" fill="#d5d6da"/>
        </g>
        <g id="Grupo_1108479" data-name="Grupo 1108479">
          <g id="Grupo_1108456" data-name="Grupo 1108456" transform="translate(12.25 34.647)">
            <g id="Grupo_1108455" data-name="Grupo 1108455">
              <path id="Trazado_890496" data-name="Trazado 890496" d="M188.127,173.267l-.561.094c0-.094-1.5-9.4-7.715-22.023A117.309,117.309,0,0,0,143.1,108.414l.327-.514a117.9,117.9,0,0,1,36.985,43.2C186.584,163.775,188.127,173.173,188.127,173.267Z" transform="translate(-143.1 -107.9)" fill="#d5d6da"/>
            </g>
          </g>
          <g id="Grupo_1108458" data-name="Grupo 1108458" transform="translate(27.493 12.063)">
            <g id="Grupo_1108457" data-name="Grupo 1108457">
              <path id="Trazado_890497" data-name="Trazado 890497" d="M181.685,101.495l-.561-.187c6.78-20.994-5.284-41.146-5.424-41.38l.514-.327C176.355,59.834,188.558,80.22,181.685,101.495Z" transform="translate(-175.7 -59.6)" fill="#d5d6da"/>
            </g>
          </g>
          <g id="Grupo_1108460" data-name="Grupo 1108460" transform="translate(11.643 45.121)">
            <g id="Grupo_1108459" data-name="Grupo 1108459">
              <path id="Trazado_890498" data-name="Trazado 890498" d="M152.741,131.8a20.445,20.445,0,0,1-10.941-.374l.187-.561a19.011,19.011,0,0,0,13.186-.561l.234.561A18.27,18.27,0,0,1,152.741,131.8Z" transform="translate(-141.8 -130.3)" fill="#d5d6da"/>
            </g>
          </g>
          <g id="Grupo_1108462" data-name="Grupo 1108462" transform="translate(19.872 75.513)">
            <g id="Grupo_1108461" data-name="Grupo 1108461">
              <path id="Trazado_890499" data-name="Trazado 890499" d="M192.6,206.756c-12.063,1.683-22.958-1.777-32.5-10.24-.327-.281-.655-.561-.7-.608h.047l.047-.608c.187,0,.327.14.982.748,9.351,8.323,20.152,11.736,32.029,10.1Z" transform="translate(-159.4 -195.3)" fill="#d5d6da"/>
            </g>
          </g>
          <g id="Grupo_1108464" data-name="Grupo 1108464" transform="translate(26.698 66.068)">
            <g id="Grupo_1108463" data-name="Grupo 1108463">
              <path id="Trazado_890500" data-name="Trazado 890500" d="M182.276,193.943h-.608c.14-8.276-7.621-18.329-7.668-18.469l.468-.374a60.451,60.451,0,0,1,3.974,6.172C180.219,184.638,182.37,189.5,182.276,193.943Z" transform="translate(-174 -175.1)" fill="#d5d6da"/>
            </g>
          </g>
          <g id="Grupo_1108466" data-name="Grupo 1108466" transform="translate(0 28.47)">
            <g id="Grupo_1108465" data-name="Grupo 1108465">
              <path id="Trazado_890501" data-name="Trazado 890501" d="M127.935,98.155c3.694,2.011,4.348,3.554,3.787,4.676s-2.151,1.4-5.845-.608c-6.733-3.694-8.977-7.528-8.977-7.528S121.061,94.414,127.935,98.155Z" transform="translate(-116.9 -94.69)" fill="#d5d6da"/>
            </g>
          </g>
          <g id="Grupo_1108468" data-name="Grupo 1108468" transform="translate(1.122 43.342)">
            <g id="Grupo_1108467" data-name="Grupo 1108467">
              <path id="Trazado_890502" data-name="Trazado 890502" d="M130.849,127.106c4.115.795,5.19,2.011,4.956,3.273s-1.637,2.011-5.751,1.216c-7.528-1.4-10.754-4.348-10.754-4.348S123.228,125.656,130.849,127.106Z" transform="translate(-119.3 -126.496)" fill="#d5d6da"/>
            </g>
          </g>
          <g id="Grupo_1108470" data-name="Grupo 1108470" transform="translate(20.807 59.054)">
            <g id="Grupo_1108469" data-name="Grupo 1108469">
              <path id="Trazado_890503" data-name="Trazado 890503" d="M168.554,165.15c2.057,2.431,1.917,3.787,1.029,4.629s-2.244.795-4.3-1.637c-3.741-4.4-3.881-8.042-3.881-8.042S164.767,160.661,168.554,165.15Z" transform="translate(-161.4 -160.1)" fill="#d5d6da"/>
            </g>
          </g>
          <g id="Grupo_1108472" data-name="Grupo 1108472" transform="translate(20.24 28.99)">
            <g id="Grupo_1108471" data-name="Grupo 1108471">
              <path id="Trazado_890504" data-name="Trazado 890504" d="M166.038,102.486c1.4,2.852.982,4.161-.094,4.769-1.075.561-2.385.187-3.787-2.665-2.618-5.19-1.87-8.79-1.87-8.79S163.42,97.2,166.038,102.486Z" transform="translate(-160.188 -95.8)" fill="#d5d6da"/>
            </g>
          </g>
          <g id="Grupo_1108474" data-name="Grupo 1108474" transform="translate(37.04 71.726)">
            <g id="Grupo_1108473" data-name="Grupo 1108473">
              <path id="Trazado_890505" data-name="Trazado 890505" d="M200.832,195.289c.608,3.179-.187,4.3-1.4,4.535s-2.338-.514-2.946-3.647c-1.075-5.751.561-8.977.561-8.977S199.756,189.444,200.832,195.289Z" transform="translate(-196.117 -187.2)" fill="#d5d6da"/>
            </g>
          </g>
          <g id="Grupo_1108476" data-name="Grupo 1108476" transform="translate(15.009 72.282)">
            <g id="Grupo_1108475" data-name="Grupo 1108475">
              <path id="Trazado_890506" data-name="Trazado 890506" d="M157.042,191.667c2.525,1.917,2.665,3.273,1.964,4.3s-2.057,1.262-4.535-.608c-4.582-3.46-5.471-6.967-5.471-6.967S152.413,188.114,157.042,191.667Z" transform="translate(-149 -188.389)" fill="#d5d6da"/>
            </g>
          </g>
          <g id="Grupo_1108478" data-name="Grupo 1108478" transform="translate(21.41)">
            <g id="Grupo_1108477" data-name="Grupo 1108477">
              <path id="Trazado_890507" data-name="Trazado 890507" d="M169.895,43.151c1.964,3.834,1.637,5.471.561,6.032-1.075.608-2.525-.094-4.489-3.928-3.554-7.014-3.273-11.456-3.273-11.456S166.341,36.044,169.895,43.151Z" transform="translate(-162.689 -33.8)" fill="#d5d6da"/>
            </g>
          </g>
        </g>
      </g>
    </g>
    <g id="Grupo_1108482" data-name="Grupo 1108482" transform="translate(71.374 239.438)">
      <ellipse id="Elipse_11960" data-name="Elipse 11960" cx="184.644" cy="28.335" rx="184.644" ry="28.335" fill="#eaeaea"/>
    </g>
    <g id="Grupo_1108486" data-name="Grupo 1108486" transform="translate(343.361 88.909)">
      <g id="Grupo_1108483" data-name="Grupo 1108483">
        <path id="Trazado_890508" data-name="Trazado 890508" d="M676.6,226.958s72.427-94.356,101.744-71.819c29.317,22.49-64.946,51.433-85.051,79.628Z" transform="translate(-676.6 -151.661)" fill="#eaeaea"/>
      </g>
      <g id="Grupo_1108485" data-name="Grupo 1108485" transform="translate(8.697 14.653)">
        <g id="Grupo_1108484" data-name="Grupo 1108484">
          <path id="Trazado_890509" data-name="Trazado 890509" d="M695.2,247.619c7.481-10.941,22.3-27.961,50.17-46.71A270.946,270.946,0,0,1,775.809,183l.234.561a273.056,273.056,0,0,0-30.392,17.908c-27.774,18.75-42.549,35.676-49.984,46.57Z" transform="translate(-695.2 -183)" fill="#fff"/>
        </g>
      </g>
    </g>
    <g id="Grupo_1108504" data-name="Grupo 1108504" transform="translate(313.53 179.137)">
      <g id="Grupo_1108488" data-name="Grupo 1108488">
        <g id="Grupo_1108487" data-name="Grupo 1108487">
          <path id="Trazado_890510" data-name="Trazado 890510" d="M726.514,392.917c-15.009,4.676-9.632,27.961-27.727,25.109-16.786-2.665-16.879-3.928-22.818,2.618-.888.982-1.169,3.039-1.637,4.255a10.861,10.861,0,0,1-9.118,6.967c-22.257,1.777-17.581-17.394-37.219-30.907-5.517-3.787-10.661-7.575-15.2-11.269a21.359,21.359,0,0,1,8.884-13.56,24.677,24.677,0,0,1,8.136-3.507c17.815-4.4,24.5,3.507,36.19-19.264,11.736-22.771,34.834,6.453,46.9,4.348s22.35-6.733,33.385,5.471C757.327,375.337,741.523,388.242,726.514,392.917Z" transform="translate(-612.8 -344.632)" fill="#d5d6da"/>
        </g>
      </g>
      <g id="Grupo_1108503" data-name="Grupo 1108503" transform="translate(20.526 1.715)" opacity="0.4">
        <g id="Grupo_1108490" data-name="Grupo 1108490" transform="translate(0 20.339)">
          <g id="Grupo_1108489" data-name="Grupo 1108489">
            <path id="Trazado_890511" data-name="Trazado 890511" d="M657.4,430.375l-.7-.795c.327-.281,35.816-29.083,115.537-37.78l.14,1.029C692.984,401.479,657.729,430.094,657.4,430.375Z" transform="translate(-656.7 -391.8)" fill="#fff"/>
          </g>
        </g>
        <g id="Grupo_1108492" data-name="Grupo 1108492" transform="translate(32.122 6.827)">
          <g id="Grupo_1108491" data-name="Grupo 1108491">
            <path id="Trazado_890512" data-name="Trazado 890512" d="M739.988,379.639c-11.689-8.65-14.448-16.085-14.588-16.412l.982-.327c.047.094,2.805,7.434,14.214,15.9Z" transform="translate(-725.4 -362.9)" fill="#fff"/>
          </g>
        </g>
        <g id="Grupo_1108494" data-name="Grupo 1108494" transform="translate(46.641)">
          <g id="Grupo_1108493" data-name="Grupo 1108493">
            <path id="Trazado_890513" data-name="Trazado 890513" d="M759.7,382.994c-3.6-5-4.208-12.624-1.824-21.976A68.356,68.356,0,0,1,762.6,348.3l.935.514c-.094.234-11.268,22.069-2.992,33.618Z" transform="translate(-756.452 -348.3)" fill="#fff"/>
          </g>
        </g>
        <g id="Grupo_1108496" data-name="Grupo 1108496" transform="translate(68.546 28.662)">
          <g id="Grupo_1108495" data-name="Grupo 1108495">
            <path id="Trazado_890514" data-name="Trazado 890514" d="M805.5,411.985c-1.4-.935-2.151-1.59-2.2-1.59l.655-.795c.14.14,16.178,13.373,37.219,10.941l.14,1.029C824.388,423.534,810.641,415.538,805.5,411.985Z" transform="translate(-803.3 -409.6)" fill="#fff"/>
          </g>
        </g>
        <g id="Grupo_1108498" data-name="Grupo 1108498" transform="translate(75.349 33.852)">
          <g id="Grupo_1108497" data-name="Grupo 1108497">
            <path id="Trazado_890515" data-name="Trazado 890515" d="M826.523,441.18a25.945,25.945,0,0,1-8.229-13.84,19.074,19.074,0,0,1-.281-6.64l1.029.234c0,.094-1.824,10.333,8.182,19.5Z" transform="translate(-817.85 -420.7)" fill="#fff"/>
          </g>
        </g>
        <g id="Grupo_1108500" data-name="Grupo 1108500" transform="translate(22.35 45.121)">
          <g id="Grupo_1108499" data-name="Grupo 1108499">
            <path id="Trazado_890516" data-name="Trazado 890516" d="M721.847,468.553c-13.045-8.977-17.3-23.332-17.347-23.519l.982-.234c.047.187,5.33,17.955,22.21,25.95l-.421.935A43.3,43.3,0,0,1,721.847,468.553Z" transform="translate(-704.5 -444.8)" fill="#fff"/>
          </g>
        </g>
        <g id="Grupo_1108502" data-name="Grupo 1108502" transform="translate(28.241 54.213)">
          <g id="Grupo_1108501" data-name="Grupo 1108501">
            <path id="Trazado_890517" data-name="Trazado 890517" d="M717.521,467.076l-.421-.982c5.33-2.291,15.009-3.6,31.094,3.18a106.838,106.838,0,0,1,17.066,9.164l-.561.842C764.418,479.14,735.382,459.408,717.521,467.076Z" transform="translate(-717.1 -464.245)" fill="#fff"/>
          </g>
        </g>
      </g>
    </g>
    <g id="Grupo_1108505" data-name="Grupo 1108505" transform="translate(96.002 125.921)">
      <path id="Trazado_890518" data-name="Trazado 890518" d="M238.715,317.264s-59.849-102.211-85.987-84.35S207.481,292.2,223.986,322.5Z" transform="translate(-147.571 -230.819)" fill="#d5d6da"/>
    </g>
    <g id="Grupo_1108509" data-name="Grupo 1108509" transform="translate(62.603 136.124)">
      <g id="Grupo_1108506" data-name="Grupo 1108506">
        <path id="Trazado_890519" data-name="Trazado 890519" d="M172.815,310.647s-68.873-75.7-92.486-54.145,59.428,39.323,78.692,62.094Z" transform="translate(-76.14 -252.64)" fill="#eaeaea"/>
      </g>
      <g id="Grupo_1108508" data-name="Grupo 1108508" transform="translate(15.458 12.325)">
        <g id="Grupo_1108507" data-name="Grupo 1108507">
          <path id="Trazado_890520" data-name="Trazado 890520" d="M182.749,329.171c-13-15.944-32.309-28.522-46.2-36.284A236.351,236.351,0,0,0,109.2,279.795l.281-.795a233.381,233.381,0,0,1,27.447,13.139c13.98,7.762,33.385,20.386,46.43,36.471Z" transform="translate(-109.2 -279)" fill="#fff"/>
        </g>
      </g>
    </g>
    <g id="Grupo_1108523" data-name="Grupo 1108523" transform="translate(50.714 169.018)">
      <g id="Grupo_1108511" data-name="Grupo 1108511">
        <g id="Grupo_1108510" data-name="Grupo 1108510">
          <path id="Trazado_890521" data-name="Trazado 890521" d="M76.985,377.468c15.523,3.133,13.419,27.4,30.907,22.49s15.991-6.032,24.641,1.73c0,0,3.46,7.575,10.474,8.7,27.68,4.4,64.572-38.715,35.3-61.392-2.1-1.637-5.143-2.2-8.51-2.712-18.235-2.525-23.706,6.219-38.481-15.664S97.745,341,85.542,340.109c-12.2-.842-23-4.4-32.263,9.164C44.068,362.973,61.462,374.382,76.985,377.468Z" transform="translate(-50.714 -322.992)" fill="#d5d6da"/>
        </g>
      </g>
      <g id="Grupo_1108522" data-name="Grupo 1108522" transform="translate(0.461 2.809)">
        <g id="Grupo_1108513" data-name="Grupo 1108513" transform="translate(0 27.447)">
          <g id="Grupo_1108512" data-name="Grupo 1108512">
            <path id="Trazado_890522" data-name="Trazado 890522" d="M170.65,414.445l.561-.888c-.374-.234-39.463-25.67-119.512-25.857v1.075C131.468,388.962,170.276,414.165,170.65,414.445Z" transform="translate(-51.7 -387.7)" fill="#fff"/>
          </g>
        </g>
        <g id="Grupo_1108515" data-name="Grupo 1108515" transform="translate(67.751 4.722)">
          <g id="Grupo_1108514" data-name="Grupo 1108514">
            <path id="Trazado_890523" data-name="Trazado 890523" d="M197.348,357.616c10.333-10.1,12.063-17.955,12.11-18.282l-1.029-.234c0,.094-1.73,7.9-11.83,17.721Z" transform="translate(-196.6 -339.1)" fill="#fff"/>
          </g>
        </g>
        <g id="Grupo_1108517" data-name="Grupo 1108517" transform="translate(58.353)">
          <g id="Grupo_1108516" data-name="Grupo 1108516">
            <path id="Trazado_890524" data-name="Trazado 890524" d="M185.057,363.928c2.852-5.471,2.431-13.279-1.262-22.537A69.506,69.506,0,0,0,177.342,329l-.842.608c.14.234,14.214,21.228,7.668,33.852Z" transform="translate(-176.5 -329)" fill="#fff"/>
          </g>
        </g>
        <g id="Grupo_1108519" data-name="Grupo 1108519" transform="translate(11.689 30.86)">
          <g id="Grupo_1108518" data-name="Grupo 1108518">
            <path id="Trazado_890525" data-name="Trazado 890525" d="M110.833,397.618a24,24,0,0,0,1.917-1.87L112,395c-.14.14-14.167,15.383-35.3,15.149v1.075C93.766,411.412,106.251,401.78,110.833,397.618Z" transform="translate(-76.7 -395)" fill="#fff"/>
          </g>
        </g>
        <g id="Grupo_1108521" data-name="Grupo 1108521" transform="translate(35.208 36.891)">
          <g id="Grupo_1108520" data-name="Grupo 1108520">
            <path id="Trazado_890526" data-name="Trazado 890526" d="M127.748,429.642a25.785,25.785,0,0,0,6.219-14.962,19.423,19.423,0,0,0-.655-6.78l-.982.374c.047.094,3.273,10.333-5.33,20.714Z" transform="translate(-127 -407.9)" fill="#fff"/>
          </g>
        </g>
      </g>
    </g>
    <g id="Grupo_1108526" data-name="Grupo 1108526" transform="translate(204.258 208.625)">
      <g id="Grupo_1108524" data-name="Grupo 1108524" transform="translate(1.59)">
        <path id="Trazado_890527" data-name="Trazado 890527" d="M464.372,441.88V407.7H397.883v34.18c0,8.884-5.7,16.084-12.718,16.084H382.5v4.4h97.3v-4.4h-2.665C470.076,457.964,464.372,450.763,464.372,441.88Z" transform="translate(-382.5 -407.7)" fill="#657285"/>
      </g>
      <g id="Grupo_1108525" data-name="Grupo 1108525" transform="translate(0 50.264)">
        <path id="Trazado_890528" data-name="Trazado 890528" d="M477.384,519.6H381.3a2.2,2.2,0,0,1-2.2-2.2h0a2.2,2.2,0,0,1,2.2-2.2h96.086a2.2,2.2,0,0,1,2.2,2.2h0A2.2,2.2,0,0,1,477.384,519.6Z" transform="translate(-379.1 -515.2)" fill="#364154"/>
      </g>
    </g>
    <g id="Grupo_1108527" data-name="Grupo 1108527" transform="translate(134.216 62.975)">
      <path id="Trazado_890529" data-name="Trazado 890529" d="M462.806,262.841,238,260.176a8.957,8.957,0,0,1-8.7-9.118V108.823a8.979,8.979,0,0,1,8.65-9.118L459.86,96.2a8.959,8.959,0,0,1,8.931,8.931l2.9,148.408A8.922,8.922,0,0,1,462.806,262.841Z" transform="translate(-229.3 -96.197)" fill="#657285"/>
    </g>
    <g id="Grupo_1108528" data-name="Grupo 1108528" transform="translate(142.96 77.331)">
      <path id="Trazado_890530" data-name="Trazado 890530" d="M461.213,250.994H256.65a8.66,8.66,0,0,1-8.65-8.65V135.55a8.66,8.66,0,0,1,8.65-8.65H461.213a8.66,8.66,0,0,1,8.65,8.65V242.344A8.66,8.66,0,0,1,461.213,250.994Z" transform="translate(-248 -126.9)" fill="#b8c1c9"/>
    </g>
    <g id="Grupo_1108529" data-name="Grupo 1108529" transform="translate(314.465 44.881)">
      <path id="Trazado_890531" data-name="Trazado 890531" d="M644.958,57.5s15.43-.094,15.71,18.189l-45.869.748,12.858-14.308,9.959-4.582h7.341Z" transform="translate(-614.8 -57.5)" fill="#d5d6da"/>
    </g>
    <g id="Grupo_1108587" data-name="Grupo 1108587" transform="translate(118.042 127.562)">
      <g id="Grupo_1108530" data-name="Grupo 1108530" transform="translate(24.684 8.216)">
        <path id="Trazado_890532" data-name="Trazado 890532" d="M247.594,253.957a.094.094,0,1,1,0-.187,4.1,4.1,0,0,0,3.273-1.824.074.074,0,0,1,.14.047,4.158,4.158,0,0,1-3.413,1.964Z" transform="translate(-247.5 -251.9)" fill="#fff"/>
      </g>
      <g id="Grupo_1108531" data-name="Grupo 1108531" transform="translate(18.64 132.543)">
        <path id="Trazado_890533" data-name="Trazado 890533" d="M240.525,518.174s-.14,2.712,1.59,3.6c1.777.888,6.967,2.011,4.863,3.6-1.216.888-6.5-.187-8-.281-1.5-.14-2.946.421-4.021-.7-1.122-1.216.561-6.593.561-6.593a5.908,5.908,0,0,0,2.431.842A5.2,5.2,0,0,0,240.525,518.174Z" transform="translate(-234.575 -517.8)" fill="#131f2d"/>
      </g>
      <g id="Grupo_1108532" data-name="Grupo 1108532" transform="translate(21.486)">
        <path id="Trazado_890534" data-name="Trazado 890534" d="M248.207,239.786s.935-4.535-3.133-5.33c-4.021-.795-3.413,2.385-4.208,3.133-.795.7.842,3.226,2.805,3.694S248.207,239.786,248.207,239.786Z" transform="translate(-240.661 -234.329)" fill="#131f2d"/>
      </g>
      <g id="Grupo_1108533" data-name="Grupo 1108533" transform="translate(9.242 132.543)">
        <path id="Trazado_890535" data-name="Trazado 890535" d="M220.425,518.174s-.14,2.712,1.59,3.6,6.967,2.011,4.863,3.6c-1.216.888-6.5-.187-8-.281-1.5-.14-2.946.421-4.021-.7-1.122-1.216.561-6.593.561-6.593a5.908,5.908,0,0,0,2.431.842A5.2,5.2,0,0,0,220.425,518.174Z" transform="translate(-214.475 -517.8)" fill="#131f2d"/>
      </g>
      <g id="Grupo_1108534" data-name="Grupo 1108534" transform="translate(17.357 62.947)">
        <path id="Trazado_890536" data-name="Trazado 890536" d="M254.446,372.529c-.561-8.557-17.721.935-17.721.935l2.946,29.317-3.694,4.769s-6.5,24.641-3.226,32.87c.655,1.637,3.46,1.59,4.769,1.45,9.3-1.075,11.6-30.439,14.027-43.344C252.763,392.027,254.774,377.673,254.446,372.529Z" transform="translate(-231.83 -368.955)" fill="#00a3fe"/>
      </g>
      <g id="Grupo_1108535" data-name="Grupo 1108535" transform="translate(6.843 59.544)">
        <path id="Trazado_890537" data-name="Trazado 890537" d="M209.37,368.467c.468,2.1,8.276,4.3,17.581,2.057s16.6-4.582,16.131-6.686-8.557-3.133-17.861-.935C215.869,365.194,208.855,366.363,209.37,368.467Z" transform="translate(-209.343 -361.677)" fill="#131f2d"/>
      </g>
      <g id="Grupo_1108536" data-name="Grupo 1108536" transform="translate(7.1 63.168)">
        <path id="Trazado_890538" data-name="Trazado 890538" d="M235.427,370.537l-13.653,66.536a6.554,6.554,0,0,1-5.33,5.517l-1.216.187a4.628,4.628,0,0,1-5.33-4.769l2.525-64.244c.047-.748,2.525-1.449,3.226-1.637C221.586,370.771,235.38,367.825,235.427,370.537Z" transform="translate(-209.895 -369.428)" fill="#00a3fe"/>
      </g>
      <g id="Grupo_1108537" data-name="Grupo 1108537" transform="translate(5.1 23.101)">
        <path id="Trazado_890539" data-name="Trazado 890539" d="M237.356,294.52a32.621,32.621,0,0,0,4.4-2.572s-4.91-8.79-15.243-8.183c-1.449.094-7.9,1.262-9.258,1.5-17.768,3.273-9.913,40.959-9.866,41.754a58.745,58.745,0,0,1,33.712-4.629A105.037,105.037,0,0,0,237.356,294.52Z" transform="translate(-205.615 -283.736)" fill="#364154"/>
      </g>
      <g id="Grupo_1108538" data-name="Grupo 1108538" transform="translate(18.931 80.065)">
        <rect id="Rectángulo_405004" data-name="Rectángulo 405004" width="51.386" height="0.187" transform="translate(0 50.775) rotate(-81.17)" fill="#020202"/>
      </g>
      <g id="Grupo_1108539" data-name="Grupo 1108539" transform="translate(13.228 62.481)">
        <path id="Trazado_890540" data-name="Trazado 890540" d="M223,371.344s12.484-4.115,25.436-3.273a1.207,1.207,0,0,1,1.122,1.122l.281,4.769-13.606-1.216Z" transform="translate(-223 -367.957)" fill="#00a3fe"/>
      </g>
      <g id="Grupo_1108540" data-name="Grupo 1108540" transform="translate(18.465 10.927)">
        <path id="Trazado_890541" data-name="Trazado 890541" d="M234.2,271.026a6.783,6.783,0,0,0,5.658,2.431c3.507,0,1.87-3.6,1.87-3.6a1.3,1.3,0,0,1-1.4-1.309l-.093-1.029-.047-.514-.14-1.683-.14-1.5-.514-6.125-1.59,6.219-.281,1.075-.935,3.647a3.252,3.252,0,0,1-2.385,2.385Z" transform="translate(-234.2 -257.7)" fill="#ffb27d"/>
      </g>
      <g id="Grupo_1108541" data-name="Grupo 1108541" transform="translate(21.832 18.222)">
        <path id="Trazado_890542" data-name="Trazado 890542" d="M241.4,273.3a4.025,4.025,0,0,0,2.665,1.964l-.14-1.683C242.9,273.44,241.4,273.3,241.4,273.3Z" transform="translate(-241.4 -273.3)" fill="#131f2d"/>
      </g>
      <g id="Grupo_1108542" data-name="Grupo 1108542" transform="translate(16.688 10.974)">
        <path id="Trazado_890543" data-name="Trazado 890543" d="M230.4,257.8a7.124,7.124,0,0,1,.14,3.086c-.374,3.133,3.226,3.834,3.974,2.852.094-.14-.842-5.19-.842-5.19l-1.169-.468Z" transform="translate(-230.4 -257.8)" fill="#131f2d"/>
      </g>
      <g id="Grupo_1108543" data-name="Grupo 1108543" transform="translate(17.356 3.961)">
        <ellipse id="Elipse_11961" data-name="Elipse 11961" cx="5.751" cy="7.107" rx="5.751" ry="7.107" transform="translate(0 1.764) rotate(-8.824)" fill="#ffb27d"/>
      </g>
      <g id="Grupo_1108544" data-name="Grupo 1108544" transform="translate(16.435 3.669)">
        <path id="Trazado_890544" data-name="Trazado 890544" d="M238.948,244.618c-.14.234,1.309,3.694-5.237,5.611s-3.787-6.827,1.122-7.808c7.107-1.356,8.884,3.273,8.463,5.1S238.948,244.618,238.948,244.618Z" transform="translate(-229.857 -242.176)" fill="#131f2d"/>
      </g>
      <g id="Grupo_1108545" data-name="Grupo 1108545" transform="translate(17.85 10.46)">
        <path id="Trazado_890545" data-name="Trazado 890545" d="M235.884,256.7s-2.291,3.32-.888,6.125c0,0-1.87-1.5-2.011-2.151a25.01,25.01,0,0,1-.094-3.039Z" transform="translate(-232.884 -256.7)" fill="#131f2d"/>
      </g>
      <g id="Grupo_1108546" data-name="Grupo 1108546" transform="translate(18.513 11.108)">
        <path id="Trazado_890546" data-name="Trazado 890546" d="M235.143,260.664a1.449,1.449,0,0,0,2.057-.187,1.613,1.613,0,0,0-.655-2.057,1.449,1.449,0,0,0-2.057.187A1.566,1.566,0,0,0,235.143,260.664Z" transform="translate(-234.303 -258.086)" fill="#ffb27d"/>
      </g>
      <g id="Grupo_1108548" data-name="Grupo 1108548" transform="translate(23.016 11.53)">
        <g id="Grupo_1108547" data-name="Grupo 1108547">
          <path id="Trazado_890547" data-name="Trazado 890547" d="M245.6,259.274c.047,0,.047-.047.094-.094,0-.094-.047-.14-.094-.14a1.445,1.445,0,0,0-1.636.655.116.116,0,0,0,.047.187c.047.047.14,0,.187-.047a2.069,2.069,0,0,1,1.356-.514A.046.046,0,0,1,245.6,259.274Z" transform="translate(-243.934 -258.988)" fill="#080435"/>
        </g>
      </g>
      <g id="Grupo_1108549" data-name="Grupo 1108549" transform="translate(23.88 12.792)">
        <path id="Trazado_890548" data-name="Trazado 890548" d="M245.79,262.3c.047.327.234.561.468.514s.374-.281.327-.608-.234-.561-.468-.514S245.743,261.974,245.79,262.3Z" transform="translate(-245.781 -261.687)" fill="#080435"/>
      </g>
      <g id="Grupo_1108551" data-name="Grupo 1108551" transform="translate(27.657 11.22)">
        <g id="Grupo_1108550" data-name="Grupo 1108550">
          <path id="Trazado_890549" data-name="Trazado 890549" d="M255.608,258.875c.047,0,.094,0,.094-.047a.116.116,0,0,0-.047-.187,1.427,1.427,0,0,0-1.73-.047c-.047.047-.094.14-.047.187s.094.047.187.047a2.136,2.136,0,0,1,1.449.047Z" transform="translate(-253.859 -258.326)" fill="#080435"/>
        </g>
      </g>
      <g id="Grupo_1108552" data-name="Grupo 1108552" transform="translate(28.02 12.496)">
        <path id="Trazado_890550" data-name="Trazado 890550" d="M254.666,261.5c-.094.281.047.608.234.655a.536.536,0,0,0,.561-.421c.094-.281-.047-.608-.234-.655C254.993,260.983,254.76,261.216,254.666,261.5Z" transform="translate(-254.636 -261.055)" fill="#080435"/>
      </g>
      <g id="Grupo_1108553" data-name="Grupo 1108553" transform="translate(21.401 9.599)" opacity="0.3">
        <path id="Trazado_890551" data-name="Trazado 890551" d="M240.536,257.263c-.281,1.73.514,3.554,1.73,4.021s2.385-.561,2.665-2.291-.514-3.554-1.73-4.021S240.769,255.533,240.536,257.263Z" transform="translate(-240.479 -254.859)" fill="#fff"/>
      </g>
      <g id="Grupo_1108554" data-name="Grupo 1108554" transform="translate(27.3 9.67)" opacity="0.3">
        <path id="Trazado_890552" data-name="Trazado 890552" d="M253.1,257.53c-.047,1.73.748,3.46,1.87,3.834,1.075.374,2.011-.7,2.057-2.431s-.748-3.46-1.87-3.834C254.08,254.678,253.145,255.8,253.1,257.53Z" transform="translate(-253.096 -255.01)" fill="#fff"/>
      </g>
      <g id="Grupo_1108556" data-name="Grupo 1108556" transform="translate(21.177 9.179)">
        <g id="Grupo_1108555" data-name="Grupo 1108555">
          <path id="Trazado_890553" data-name="Trazado 890553" d="M240.14,258.047c0,.094.047.187.047.281a4,4,0,0,0,1.122,2.1,2.79,2.79,0,0,0,.7.421,2.118,2.118,0,0,0,.748.14h.187a1.844,1.844,0,0,0,.655-.234,2.584,2.584,0,0,0,1.169-1.5,4.933,4.933,0,0,0,.234-.888,6.9,6.9,0,0,0,.047-.982,1.294,1.294,0,0,0-.047-.421,3.7,3.7,0,0,0-1.59-2.759,2.273,2.273,0,0,0-.327-.14,1.909,1.909,0,0,0-1.59.14,2.873,2.873,0,0,0-1.309,1.964c-.047.14-.047.281-.094.374a.422.422,0,0,1-.047.234,3.537,3.537,0,0,0-.047.7A2.468,2.468,0,0,1,240.14,258.047Zm3.881,2.011a1.765,1.765,0,0,1-.561.468,1.329,1.329,0,0,1-.561.187,1.74,1.74,0,0,1-.842-.094,1.85,1.85,0,0,1-.7-.468,4.028,4.028,0,0,1-1.029-2.2h0c0-.14-.047-.281-.047-.421v-.374a2.879,2.879,0,0,1,.047-.608,1.657,1.657,0,0,1,.14-.514c.047-.094.047-.187.094-.281h0v-.047a2.508,2.508,0,0,1,.234-.514,2.573,2.573,0,0,1,.842-.888,1.413,1.413,0,0,1,.748-.234,3.158,3.158,0,0,1,.655.093c.094.047.14.047.234.094a3.566,3.566,0,0,1,1.543,2.665c0,.14.047.281.047.421a5.659,5.659,0,0,1-.047.888,4.426,4.426,0,0,1-.234.842,2.469,2.469,0,0,1-.561.982Z" transform="translate(-240 -253.96)" fill="#131f2d"/>
        </g>
      </g>
      <g id="Grupo_1108558" data-name="Grupo 1108558" transform="translate(27.162 9.338)">
        <g id="Grupo_1108557" data-name="Grupo 1108557">
          <path id="Trazado_890554" data-name="Trazado 890554" d="M252.987,258.134c0,.094.047.187.047.281s.047.187.047.281c0,.047.047.14.047.187v.047c0,.047.047.094.047.14h0a4.623,4.623,0,0,1-.187-1.4.145.145,0,0,1-.094-.047v.281C252.94,257.947,252.94,258.041,252.987,258.134Zm0,0c0,.094.047.187.047.281s.047.187.047.281c0,.047.047.14.047.187v.047c0,.047.047.094.047.14h0a4.623,4.623,0,0,1-.187-1.4.145.145,0,0,1-.094-.047v.281C252.94,257.947,252.94,258.041,252.987,258.134Zm0,0c0,.094.047.187.047.281s.047.187.047.281c0,.047.047.14.047.187v.047c0,.047.047.094.047.14h0a4.623,4.623,0,0,1-.187-1.4.145.145,0,0,1-.094-.047v.281C252.94,257.947,252.94,258.041,252.987,258.134Zm0,0c0,.094.047.187.047.281s.047.187.047.281c0,.047.047.14.047.187v.047c0,.047.047.094.047.14h0a4.623,4.623,0,0,1-.187-1.4.145.145,0,0,1-.094-.047v.281C252.94,257.947,252.94,258.041,252.987,258.134Zm0,0c0,.094.047.187.047.281s.047.187.047.281c0,.047.047.14.047.187v.047c0,.047.047.094.047.14h0a4.623,4.623,0,0,1-.187-1.4.145.145,0,0,1-.094-.047v.281C252.94,257.947,252.94,258.041,252.987,258.134Zm0,0c0,.094.047.187.047.281s.047.187.047.281c0,.047.047.14.047.187v.047c0,.047.047.094.047.14h0a4.623,4.623,0,0,1-.187-1.4.145.145,0,0,1-.094-.047v.281C252.94,257.947,252.94,258.041,252.987,258.134Zm0,0c0,.094.047.187.047.281s.047.187.047.281c0,.047.047.14.047.187v.047c0,.047.047.094.047.14h0a4.623,4.623,0,0,1-.187-1.4.145.145,0,0,1-.094-.047v.281C252.94,257.947,252.94,258.041,252.987,258.134Zm0,0c0,.094.047.187.047.281s.047.187.047.281c0,.047.047.14.047.187v.047c0,.047.047.094.047.14h0a4.623,4.623,0,0,1-.187-1.4.145.145,0,0,1-.094-.047v.281C252.94,257.947,252.94,258.041,252.987,258.134Zm-.14.281a4.769,4.769,0,0,0,.561,1.683h0a2.4,2.4,0,0,0,1.075.982c.047,0,.047,0,.094.047h0a1.052,1.052,0,0,0,.655.047,1.674,1.674,0,0,0,.514-.187,3.353,3.353,0,0,0,1.309-2.431c.234-1.824-.514-3.694-1.683-4.161-.047,0-.047,0-.094-.047h0A.593.593,0,0,0,255,254.3h-.421a1.4,1.4,0,0,0-.468.187,3.353,3.353,0,0,0-1.309,2.431v.655A5.085,5.085,0,0,0,252.847,258.415Zm.374.655a4.623,4.623,0,0,1-.187-1.4v-.421a.35.35,0,0,1,.047-.234,4.116,4.116,0,0,1,.421-1.4,2.208,2.208,0,0,1,.748-.842h.047a1.4,1.4,0,0,1,.468-.187h.421c.047,0,.14.047.187.047,1.075.421,1.777,2.2,1.543,3.928h0A3.11,3.11,0,0,1,255.7,260.8a1.232,1.232,0,0,1-.982.14c-.047,0-.094,0-.094-.047-.047,0-.047-.047-.094-.047h-.047a2.461,2.461,0,0,1-.655-.561,4.2,4.2,0,0,1-.561-1.122Zm-.234-.935c0,.094.047.187.047.281s.047.187.047.281c0,.047.047.14.047.187v.047c0,.047.047.094.047.14h0a4.623,4.623,0,0,1-.187-1.4.145.145,0,0,1-.094-.047v.281C252.94,257.947,252.94,258.041,252.987,258.134Zm0,0c0,.094.047.187.047.281s.047.187.047.281c0,.047.047.14.047.187v.047c0,.047.047.094.047.14h0a4.623,4.623,0,0,1-.187-1.4.145.145,0,0,1-.094-.047v.281C252.94,257.947,252.94,258.041,252.987,258.134Zm0,0c0,.094.047.187.047.281s.047.187.047.281c0,.047.047.14.047.187v.047c0,.047.047.094.047.14h0a4.623,4.623,0,0,1-.187-1.4.145.145,0,0,1-.094-.047v.281C252.94,257.947,252.94,258.041,252.987,258.134Zm0,0c0,.094.047.187.047.281s.047.187.047.281c0,.047.047.14.047.187v.047c0,.047.047.094.047.14h0a4.623,4.623,0,0,1-.187-1.4.145.145,0,0,1-.094-.047v.281C252.94,257.947,252.94,258.041,252.987,258.134Zm0,0c0,.094.047.187.047.281s.047.187.047.281c0,.047.047.14.047.187v.047c0,.047.047.094.047.14h0a4.623,4.623,0,0,1-.187-1.4.145.145,0,0,1-.094-.047v.281C252.94,257.947,252.94,258.041,252.987,258.134Zm0,0c0,.094.047.187.047.281s.047.187.047.281c0,.047.047.14.047.187v.047c0,.047.047.094.047.14h0a4.623,4.623,0,0,1-.187-1.4.145.145,0,0,1-.094-.047v.281C252.94,257.947,252.94,258.041,252.987,258.134Zm0,0c0,.094.047.187.047.281s.047.187.047.281c0,.047.047.14.047.187v.047c0,.047.047.094.047.14h0a4.623,4.623,0,0,1-.187-1.4.145.145,0,0,1-.094-.047v.281C252.94,257.947,252.94,258.041,252.987,258.134Z" transform="translate(-252.8 -254.3)" fill="#131f2d"/>
        </g>
      </g>
      <g id="Grupo_1108560" data-name="Grupo 1108560" transform="translate(25.601 12.143)">
        <g id="Grupo_1108559" data-name="Grupo 1108559">
          <path id="Trazado_890555" data-name="Trazado 890555" d="M251.349,260.861c.047,0,.094-.047.14-.094a.225.225,0,0,0-.094-.281,2.313,2.313,0,0,0-1.824,0,.209.209,0,0,0,.187.374,1.918,1.918,0,0,1,1.5,0Z" transform="translate(-249.461 -260.3)" fill="#131f2d"/>
        </g>
      </g>
      <g id="Grupo_1108561" data-name="Grupo 1108561" transform="translate(12.019 1.943)">
        <path id="Trazado_890556" data-name="Trazado 890556" d="M228.45,242s-1.262-4.489-5.19-3.32c-3.974,1.169-2.759,3.32-2.338,4.676a3.83,3.83,0,0,0,4.161,2.011C227.047,244.9,228.45,242,228.45,242Z" transform="translate(-220.414 -238.485)" fill="#131f2d"/>
      </g>
      <g id="Grupo_1108562" data-name="Grupo 1108562" transform="translate(18.072 17.641)">
        <path id="Trazado_890557" data-name="Trazado 890557" d="M233.471,274.182h-.047c-.047-.047-.094-.094-.047-.187a5.817,5.817,0,0,1,2.431-1.917c.047-.047.14,0,.187.047s0,.14-.047.187a5.045,5.045,0,0,0-2.291,1.824A.353.353,0,0,1,233.471,274.182Z" transform="translate(-233.359 -272.059)" fill="#131f2d"/>
      </g>
      <g id="Grupo_1108563" data-name="Grupo 1108563" transform="translate(24.824 16.363)">
        <path id="Trazado_890558" data-name="Trazado 890558" d="M249.249,269.921a4.172,4.172,0,0,1-1.4-.327c-.047,0-.047-.047-.047-.093s.047-.047.094-.047c0,0,1.637.748,2.338-.094.047-.047.047-.047.094,0s.047.047,0,.094A1.176,1.176,0,0,1,249.249,269.921Z" transform="translate(-247.8 -269.325)" fill="#020202"/>
      </g>
      <g id="Grupo_1108564" data-name="Grupo 1108564" transform="translate(16.053 24.253)">
        <path id="Trazado_890559" data-name="Trazado 890559" d="M231.454,286.2l-2.338.468a1.265,1.265,0,0,0,.748,1.636c1.169.374,1.4.374,1.777,1.262s1.824.935,2.338.608,1.4.842,2.2.842c.842,0,1.309-1.449.982-2.431A13.281,13.281,0,0,1,231.454,286.2Z" transform="translate(-229.042 -286.2)" fill="#daebe8"/>
      </g>
      <g id="Grupo_1108565" data-name="Grupo 1108565" transform="translate(24.123 22.939)">
        <path id="Trazado_890560" data-name="Trazado 890560" d="M248.17,283.534s1.449,3.507-1.87,3.6c0,0,1.73,1.73,2.946,1.029s.047-1.309.561-1.777,1.075-.795.561-1.356,0-1.5,0-1.5A4.627,4.627,0,0,0,248.17,283.534Z" transform="translate(-246.3 -283.389)" fill="#daebe8"/>
      </g>
      <g id="Grupo_1108566" data-name="Grupo 1108566" transform="translate(27.162 31.267)">
        <circle id="Elipse_11962" data-name="Elipse 11962" cx="0.514" cy="0.514" r="0.514" fill="#daebe8"/>
      </g>
      <g id="Grupo_1108567" data-name="Grupo 1108567" transform="translate(29.313 48.006)">
        <path id="Trazado_890561" data-name="Trazado 890561" d="M257.4,337.514a.514.514,0,1,1,.514.514A.519.519,0,0,1,257.4,337.514Z" transform="translate(-257.4 -337)" fill="#daebe8"/>
      </g>
      <g id="Grupo_1108568" data-name="Grupo 1108568" transform="translate(29.313 40.431)">
        <path id="Trazado_890562" data-name="Trazado 890562" d="M257.4,321.314a.514.514,0,1,1,.514.514A.519.519,0,0,1,257.4,321.314Z" transform="translate(-257.4 -320.8)" fill="#daebe8"/>
      </g>
      <g id="Grupo_1108569" data-name="Grupo 1108569" transform="translate(28.237 23.084)">
        <path id="Trazado_890563" data-name="Trazado 890563" d="M255.1,283.7s7.481.374,15.477,8.183c9.913,9.772,20.246,4.909,20.246,4.909l-2.852,8.51s-15.944,5.658-27.587-7.294Z" transform="translate(-255.1 -283.7)" fill="#364154"/>
      </g>
      <g id="Grupo_1108570" data-name="Grupo 1108570" transform="translate(0 24.721)">
        <path id="Trazado_890564" data-name="Trazado 890564" d="M210.836,287.2s-14.822,2.338-16.038,20.246,10.193,13.606,20.667,11.222v-10.38s-7.528-1.4-7.855-4.161C207.236,301.414,210.836,287.2,210.836,287.2Z" transform="translate(-194.709 -287.2)" fill="#364154"/>
      </g>
      <g id="Grupo_1108571" data-name="Grupo 1108571" transform="translate(19.323 45.855)">
        <path id="Trazado_890565" data-name="Trazado 890565" d="M236.065,338.1c-.234,3.881.935,4.676,1.4,4.676s.888-2.338.888-5.19-.374-5.19-.888-5.19S236.205,335.205,236.065,338.1Z" transform="translate(-236.035 -332.4)" fill="#131f2d"/>
      </g>
      <g id="Grupo_1108574" data-name="Grupo 1108574" transform="translate(22.425 36.315)">
        <g id="Grupo_1108572" data-name="Grupo 1108572" transform="translate(0 0.132)">
          <path id="Trazado_890566" data-name="Trazado 890566" d="M244.741,333.516l12.671-1.262a1.819,1.819,0,0,0,1.59-1.262l4.442-15.1a1.749,1.749,0,0,0-1.59-2.151l-12.624-1.449a1.886,1.886,0,0,0-2.057,1.309l-4.442,17.815A1.757,1.757,0,0,0,244.741,333.516Z" transform="translate(-242.669 -312.278)" fill="#00a3fe"/>
        </g>
        <g id="Grupo_1108573" data-name="Grupo 1108573" transform="translate(10.862)">
          <path id="Trazado_890567" data-name="Trazado 890567" d="M272.306,312.793s-.094,1.169-.748,1.169a45.363,45.363,0,0,1-5.658-.421c0-.14.187-1.262.795-1.5C267.349,311.858,272.446,312.232,272.306,312.793Z" transform="translate(-265.9 -311.996)" fill="#131f2d"/>
        </g>
      </g>
      <g id="Grupo_1108583" data-name="Grupo 1108583" transform="translate(20.211 41.666)">
        <g id="Grupo_1108576" data-name="Grupo 1108576" transform="translate(0 4.038)">
          <g id="Grupo_1108575" data-name="Grupo 1108575">
            <path id="Trazado_890568" data-name="Trazado 890568" d="M238.245,337.6a.613.613,0,0,0,.748.374,32.124,32.124,0,0,0,3.413-1.122c.561-.234-1.59-5.05-2.1-4.769a5.661,5.661,0,0,1-1.637.608.541.541,0,0,0-.327.234A7.772,7.772,0,0,0,238.245,337.6Z" transform="translate(-237.934 -332.075)" fill="#ffb27d"/>
          </g>
        </g>
        <g id="Grupo_1108582" data-name="Grupo 1108582" transform="translate(2.416)">
          <g id="Grupo_1108578" data-name="Grupo 1108578">
            <g id="Grupo_1108577" data-name="Grupo 1108577">
              <path id="Trazado_890569" data-name="Trazado 890569" d="M243.1,327.489s.327-2.478,1.683-3.32c1.309-.842,3.694-.982,2.992-.281a11.726,11.726,0,0,1-1.87,1.309s2.525-1.262,2.572-.561c.047.655-2.151,1.73-2.151,1.73s3.133-1.262,2.992-.608c-.187.655-2.572,1.59-2.572,1.59s2.992-1.075,2.759-.327-2.478.888-2.385,1.543c.047.655.047,3.32-1.964,3.741Z" transform="translate(-243.1 -323.44)" fill="#ffb27d"/>
            </g>
          </g>
          <g id="Grupo_1108579" data-name="Grupo 1108579" transform="translate(1.758 1.618)">
            <path id="Trazado_890570" data-name="Trazado 890570" d="M246.973,327.835h0c-.094,0-.14-.094-.094-.14.14-.514.935-.748.982-.795.047,0,.14,0,.14.047s0,.14-.047.14c-.187.047-.748.327-.842.608Q247.043,327.835,246.973,327.835Z" transform="translate(-246.861 -326.9)" fill="#ec865c"/>
          </g>
          <g id="Grupo_1108580" data-name="Grupo 1108580" transform="translate(2.038 2.834)">
            <path id="Trazado_890571" data-name="Trazado 890571" d="M247.571,330.529h-.047c-.047-.047-.093-.094-.047-.14a2.01,2.01,0,0,1,1.122-.888c.047,0,.14,0,.14.094,0,.047,0,.14-.094.14a2.089,2.089,0,0,0-1.029.795C247.665,330.482,247.618,330.529,247.571,330.529Z" transform="translate(-247.459 -329.5)" fill="#ec865c"/>
          </g>
          <g id="Grupo_1108581" data-name="Grupo 1108581" transform="translate(2.507 3.722)">
            <path id="Trazado_890572" data-name="Trazado 890572" d="M248.573,332.429h0c-.094,0-.14-.047-.094-.14.094-.514.982-.842,1.075-.888.047,0,.14,0,.14.047s0,.14-.047.14c-.234.094-.888.374-.935.7C248.713,332.429,248.666,332.429,248.573,332.429Z" transform="translate(-248.461 -331.4)" fill="#ec865c"/>
          </g>
        </g>
      </g>
      <g id="Grupo_1108584" data-name="Grupo 1108584" transform="translate(7.337 44.125)">
        <path id="Trazado_890573" data-name="Trazado 890573" d="M223.773,330.524c-3.367-1.122-13.279-1.637-13.373-1.637V328.7c.094,0,10.006.514,13.419,1.637Z" transform="translate(-210.4 -328.7)" fill="#131f2d"/>
      </g>
      <g id="Grupo_1108585" data-name="Grupo 1108585" transform="translate(12.714 39.73)">
        <path id="Trazado_890574" data-name="Trazado 890574" d="M222.087,324.256H221.9a12.336,12.336,0,0,1,1.777-4.956l.187.094C223.817,319.44,222.134,322.292,222.087,324.256Z" transform="translate(-221.9 -319.3)" fill="#131f2d"/>
      </g>
      <g id="Grupo_1108586" data-name="Grupo 1108586" transform="translate(5.607 56.142)">
        <path id="Trazado_890575" data-name="Trazado 890575" d="M208.851,356.551a14.253,14.253,0,0,1-2.151-.094l.047-.187c.421.094,8.744.468,15.056-1.87l.094.187A40.3,40.3,0,0,1,208.851,356.551Z" transform="translate(-206.7 -354.4)" fill="#131f2d"/>
      </g>
    </g>
    <g id="Grupo_1108588" data-name="Grupo 1108588" transform="translate(157.433 43.653)">
      <path id="Trazado_890576" data-name="Trazado 890576" d="M466.145,56.1,310.536,54.885s-32.543-1.964-31.561,42.222c1.824,79.581,17.253,99.874.281,160.1l159.4,1.029s9.538-15.991,6.078-57.371C442.111,169.394,422.1,56.1,466.145,56.1Z" transform="translate(-278.953 -54.872)" fill="#f4f4f4"/>
    </g>
    <g id="Grupo_1108597" data-name="Grupo 1108597" transform="translate(178.119 104.918)">
      <g id="Grupo_1108589" data-name="Grupo 1108589" transform="translate(0.046 0.281)">
        <path id="Trazado_890577" data-name="Trazado 890577" d="M355.559,186.827l-31.187-.327a1.049,1.049,0,0,0-1.029,1.075l-.047.982a1.058,1.058,0,0,0,1.075,1.169l31.187-.655A1.114,1.114,0,0,0,356.588,188h0A1.1,1.1,0,0,0,355.559,186.827Z" transform="translate(-323.294 -186.5)" fill="#00a3fe"/>
      </g>
      <g id="Grupo_1108590" data-name="Grupo 1108590" transform="translate(0 8.697)">
        <path id="Trazado_890578" data-name="Trazado 890578" d="M370.609,205.482l-45.822-.982c-.842,0-1.5.468-1.543,1.075l-.047.982c-.047.655.7,1.216,1.59,1.216h45.869a1.381,1.381,0,0,0,1.5-1.075h0C372.152,206.043,371.451,205.529,370.609,205.482Z" transform="translate(-323.196 -204.5)" fill="#00a3fe"/>
      </g>
      <g id="Grupo_1108591" data-name="Grupo 1108591" transform="translate(55.731 8.697)">
        <path id="Trazado_890579" data-name="Trazado 890579" d="M462.733,205.482l-19.5-.982c-.374,0-.655.468-.748,1.075l-.094.982c-.047.655.187,1.216.608,1.216h19.591c.327,0,.655-.468.7-1.075h0C463.34,206.043,463.107,205.482,462.733,205.482Z" transform="translate(-442.387 -204.5)" fill="#00a3fe"/>
      </g>
      <g id="Grupo_1108592" data-name="Grupo 1108592" transform="translate(39.088 0.281)">
        <path id="Trazado_890580" data-name="Trazado 890580" d="M443.875,187.014l-35.816-.514a1.184,1.184,0,0,0-1.216,1.075l-.047.982a1.179,1.179,0,0,0,1.216,1.216l35.863-.468a1.14,1.14,0,0,0,1.169-1.075h0A1.141,1.141,0,0,0,443.875,187.014Z" transform="translate(-406.794 -186.5)" fill="#00a3fe"/>
      </g>
      <g id="Grupo_1108593" data-name="Grupo 1108593" transform="translate(82.245 0)">
        <path id="Trazado_890581" data-name="Trazado 890581" d="M528.132,186.6l-28.008-.7a1.074,1.074,0,0,0-.982,1.075l-.047.982a1.052,1.052,0,0,0,.935,1.216l28.054-.281a1.037,1.037,0,0,0,.935-1.075h0A1.052,1.052,0,0,0,528.132,186.6Z" transform="translate(-499.092 -185.9)" fill="#00a3fe"/>
      </g>
      <g id="Grupo_1108594" data-name="Grupo 1108594" transform="translate(0.046 17.721)">
        <path id="Trazado_890582" data-name="Trazado 890582" d="M353.408,224.127l-29.083-.327a1.074,1.074,0,0,0-.982,1.075l-.047.982a1.017,1.017,0,0,0,.982,1.169l29.13-.655a1.036,1.036,0,0,0,.935-1.075h0A1.037,1.037,0,0,0,353.408,224.127Z" transform="translate(-323.293 -223.8)" fill="#00a3fe"/>
      </g>
      <g id="Grupo_1108595" data-name="Grupo 1108595" transform="translate(36.517 17.721)">
        <path id="Trazado_890583" data-name="Trazado 890583" d="M435.9,224.314l-33.431-.514a1.129,1.129,0,0,0-1.122,1.075l-.047.982a1.16,1.16,0,0,0,1.122,1.216l33.478-.468a1.058,1.058,0,0,0,1.075-1.075h0A1.151,1.151,0,0,0,435.9,224.314Z" transform="translate(-401.294 -223.8)" fill="#00a3fe"/>
      </g>
      <g id="Grupo_1108596" data-name="Grupo 1108596" transform="translate(76.821 17.44)">
        <path id="Trazado_890584" data-name="Trazado 890584" d="M514.568,223.9l-26.137-.7a1,1,0,0,0-.888,1.075l-.047.982a1.052,1.052,0,0,0,.888,1.216l26.184-.281c.468,0,.842-.468.888-1.075h0C515.457,224.462,515.036,223.9,514.568,223.9Z" transform="translate(-487.492 -223.2)" fill="#00a3fe"/>
      </g>
    </g>
    <g id="Grupo_1108603" data-name="Grupo 1108603" transform="translate(178.074 142.324)">
      <g id="Grupo_1108598" data-name="Grupo 1108598" transform="translate(0.047 0.234)">
        <path id="Trazado_890585" data-name="Trazado 890585" d="M350.506,266.727l-26.371-.327a1,1,0,0,0-.888,1.075l-.047.982c0,.655.374,1.216.888,1.169l26.371-.655a1,1,0,0,0,.842-1.075h0A.943.943,0,0,0,350.506,266.727Z" transform="translate(-323.2 -266.4)" fill="#00a3fe"/>
      </g>
      <g id="Grupo_1108599" data-name="Grupo 1108599" transform="translate(0 8.697)">
        <path id="Trazado_890586" data-name="Trazado 890586" d="M363.218,285.482l-38.762-.982a1.245,1.245,0,0,0-1.309,1.075l-.047.982a1.3,1.3,0,0,0,1.356,1.216h38.762a1.2,1.2,0,0,0,1.262-1.075h0A1.165,1.165,0,0,0,363.218,285.482Z" transform="translate(-323.1 -284.5)" fill="#00a3fe"/>
      </g>
      <g id="Grupo_1108600" data-name="Grupo 1108600" transform="translate(47.172 8.697)">
        <path id="Trazado_890587" data-name="Trazado 890587" d="M441.2,285.482l-16.505-.982c-.281,0-.561.468-.608,1.075l-.094.982c-.047.655.187,1.216.514,1.216H441.06c.281,0,.561-.468.608-1.075h0C441.714,286.043,441.48,285.482,441.2,285.482Z" transform="translate(-423.987 -284.5)" fill="#00a3fe"/>
      </g>
      <g id="Grupo_1108601" data-name="Grupo 1108601" transform="translate(33.104 0.281)">
        <path id="Trazado_890588" data-name="Trazado 890588" d="M425.274,267.014l-30.3-.514a1.08,1.08,0,0,0-1.029,1.075l-.047.982a1.15,1.15,0,0,0,1.029,1.216l30.345-.468a1.041,1.041,0,0,0,.982-1.075h0A1.084,1.084,0,0,0,425.274,267.014Z" transform="translate(-393.9 -266.5)" fill="#00a3fe"/>
      </g>
      <g id="Grupo_1108602" data-name="Grupo 1108602" transform="translate(69.664)">
        <path id="Trazado_890589" data-name="Trazado 890589" d="M496.6,266.6l-23.659-.7c-.421,0-.795.468-.795,1.075l-.047.982c-.047.655.327,1.216.795,1.216l23.706-.281c.421,0,.748-.468.795-1.075h0C497.391,267.162,497.017,266.6,496.6,266.6Z" transform="translate(-472.091 -265.9)" fill="#00a3fe"/>
      </g>
    </g>
    <g id="Grupo_1108636" data-name="Grupo 1108636" transform="translate(278.902 145.643)">
      <g id="Grupo_1108604" data-name="Grupo 1108604" transform="translate(22.377 56.717)">
        <path id="Trazado_890590" data-name="Trazado 890590" d="M601.749,400.051s-3.46,5-7.9,5.564c-2.618.327-7.247-2.478-7.247-2.478l12.765-8.837Z" transform="translate(-586.6 -394.3)" fill="#ffb27d"/>
      </g>
      <g id="Grupo_1108605" data-name="Grupo 1108605" transform="translate(64.486 127.601)">
        <path id="Trazado_890591" data-name="Trazado 890591" d="M683.831,545.9s-.14,2.525-1.87,3.226c-1.73.655-6.733,1.169-4.909,2.852,1.029.982,6.078.514,7.528.514,1.4.047,2.759.7,3.834-.234,1.169-1.029.187-6.265.187-6.265a5.891,5.891,0,0,1-2.338.561A4.965,4.965,0,0,1,683.831,545.9Z" transform="translate(-676.658 -545.9)" fill="#131f2d"/>
      </g>
      <g id="Grupo_1108606" data-name="Grupo 1108606" transform="translate(58.99 51.973)">
        <path id="Trazado_890592" data-name="Trazado 890592" d="M666.866,386.841c.327,5.284-2.338,20.62-1.917,31.374.888,21.742,8.931,42.876,13.98,42.783l1.45.094a5.044,5.044,0,0,0,5.284-5.33s-2.572-20.807-2.993-27.072c-.842-12.671,5.19-35.489,5.19-35.489S666.3,378.191,666.866,386.841Z" transform="translate(-664.903 -384.155)" fill="#364154"/>
      </g>
      <g id="Grupo_1108607" data-name="Grupo 1108607" transform="translate(79.355 124.842)">
        <path id="Trazado_890593" data-name="Trazado 890593" d="M715.631,540s-.14,2.525-1.87,3.226c-1.73.655-6.733,1.169-4.909,2.852,1.029.982,6.078.514,7.528.514,1.4.047,2.759.7,3.834-.234,1.169-1.029.187-6.265.187-6.265a5.891,5.891,0,0,1-2.338.561A4.722,4.722,0,0,1,715.631,540Z" transform="translate(-708.458 -540)" fill="#131f2d"/>
      </g>
      <g id="Grupo_1108608" data-name="Grupo 1108608" transform="translate(73.812 46.757)">
        <path id="Trazado_890594" data-name="Trazado 890594" d="M698.566,378.143c.327,5.284-2.338,20.62-1.917,31.374.888,21.742,8.931,42.876,13.98,42.783l1.449.093a5.044,5.044,0,0,0,5.284-5.33s-2.572-20.807-2.992-27.072c-.468-6.78,1.075-16.505,2.618-24.08,1.5-7.528-1.075-18.75-8.042-22.023C704.036,371.55,698.285,374.122,698.566,378.143Z" transform="translate(-696.603 -372.999)" fill="#364154"/>
      </g>
      <g id="Grupo_1108609" data-name="Grupo 1108609" transform="translate(72.361 16.131)">
        <path id="Trazado_890595" data-name="Trazado 890595" d="M719.45,323.771c-6.827-13.7-25.95-16.271-25.95-16.271s12.25,31.561,14.729,29.691C712.483,333.918,719.029,331.673,719.45,323.771Z" transform="translate(-693.5 -307.5)" fill="#00a3fe"/>
      </g>
      <g id="Grupo_1108617" data-name="Grupo 1108617" transform="translate(0 9.329)">
        <g id="Grupo_1108610" data-name="Grupo 1108610" transform="translate(125.243 3.941)">
          <path id="Trazado_890596" data-name="Trazado 890596" d="M806.6,304.008l7.341-2.572c.608-.234,1.4.281,1.777,1.169l.327.7c.421.888.234,1.87-.374,2.151l-6.967,3.18Z" transform="translate(-806.6 -301.38)" fill="#131f2d"/>
        </g>
        <g id="Grupo_1108611" data-name="Grupo 1108611" transform="translate(0 59.358)">
          <path id="Trazado_890597" data-name="Trazado 890597" d="M540.452,419.9s-1.964,1.309-1.683,1.73c.468.655,2.385-.14,2.385-.14Z" transform="translate(-538.741 -419.9)" fill="#131f2d"/>
        </g>
        <g id="Grupo_1108612" data-name="Grupo 1108612" transform="translate(79.629)">
          <path id="Trazado_890598" data-name="Trazado 890598" d="M710.145,313.08a1.09,1.09,0,0,1-.982-.608,1.13,1.13,0,0,1,.468-1.5L744.418,293.3a3.151,3.151,0,0,1,3.787.7l.047.047,2.805,3.694a1.1,1.1,0,0,1-1.73,1.356l-2.805-3.647a1,1,0,0,0-1.122-.187L710.613,312.94A.7.7,0,0,1,710.145,313.08Z" transform="translate(-709.043 -292.952)" fill="#131f2d"/>
        </g>
        <g id="Grupo_1108613" data-name="Grupo 1108613" transform="translate(12.652 2.554)">
          <path id="Trazado_890599" data-name="Trazado 890599" d="M569.961,356.807,681.8,310.517c1.075-.514,1.59-4.535-.561-8.183l-1.216-2.665a2.125,2.125,0,0,0-2.805-1.075L565.8,345.492Z" transform="translate(-565.8 -298.413)" fill="#364154"/>
        </g>
        <g id="Grupo_1108614" data-name="Grupo 1108614" transform="translate(99.574 9.468)">
          <path id="Trazado_890600" data-name="Trazado 890600" d="M760.116,313.2s4.816,5.237,4.115,12.017l-8.136,3.367s.281-6.967-4.4-11.83Z" transform="translate(-751.7 -313.2)" fill="#131f2d"/>
        </g>
        <g id="Grupo_1108615" data-name="Grupo 1108615" transform="translate(1.643 49.592)">
          <path id="Trazado_890601" data-name="Trazado 890601" d="M542.323,408.78l.655,1.449a1.14,1.14,0,0,0,1.075.655l11.736-.187a3.856,3.856,0,0,0,3.647-2.852,6.061,6.061,0,0,0-.795-4.535,9.8,9.8,0,0,0-3.554-3.974,3,3,0,0,0-3.367.468l-9.258,8.183A.7.7,0,0,0,542.323,408.78Z" transform="translate(-542.256 -399.014)" fill="#00a3fe"/>
        </g>
        <g id="Grupo_1108616" data-name="Grupo 1108616" transform="translate(114.144 11.881)">
          <path id="Trazado_890602" data-name="Trazado 890602" d="M783.019,323.8c-.047,0-.14-.047-.14-.094a.171.171,0,0,1,.094-.234l12.624-5.1a.178.178,0,0,1,.14.327l-12.624,5.1Z" transform="translate(-782.861 -318.361)" fill="#131f2d"/>
        </g>
      </g>
      <g id="Grupo_1108618" data-name="Grupo 1108618" transform="translate(57.539 7.201)">
        <path id="Trazado_890603" data-name="Trazado 890603" d="M668.393,297.1l-2.2-2.9-.655-.842L661.8,288.4l1.636,5.611.982,3.367.327,1.075c.234.7-.187,1.029-.561,1.87-.14.327-1.122,2.338.795,2.478,2.385.14,5.845-2.478,6.733-4.676C671.713,298.126,669.094,298.032,668.393,297.1Z" transform="translate(-661.8 -288.4)" fill="#ffb27d"/>
      </g>
      <g id="Grupo_1108619" data-name="Grupo 1108619" transform="translate(52.225 2.295)">
        <ellipse id="Elipse_11963" data-name="Elipse 11963" cx="5.611" cy="6.312" rx="5.611" ry="6.312" transform="translate(0 1.276) rotate(-6.529)" fill="#ffb27d"/>
      </g>
      <g id="Grupo_1108620" data-name="Grupo 1108620" transform="translate(49.002 0.3)">
        <path id="Trazado_890604" data-name="Trazado 890604" d="M649.367,281.524c-2.992,1.122-5.05,0-5.564-1.5-.7-1.917.047-4.068,1.824-3.881s.514-1.356,1.917-2.011c2.618-1.262,3.741.374,6.032-.327,2.992-.888,7.949,2.572,6.593,6.733C660.168,280.542,651.752,280.589,649.367,281.524Z" transform="translate(-643.542 -273.642)" fill="#131f2d"/>
      </g>
      <g id="Grupo_1108621" data-name="Grupo 1108621" transform="translate(51.46 1.964)">
        <path id="Trazado_890605" data-name="Trazado 890605" d="M648.8,282.39s4.255,1.824,4.348,3.6c.14,1.777.468,2.385,2.665,2.618s.982,2.2,3.554,1.449,4.722-4.582,3.18-9.164a7.046,7.046,0,0,0-2.992-3.694Z" transform="translate(-648.8 -277.2)" fill="#131f2d"/>
      </g>
      <g id="Grupo_1108622" data-name="Grupo 1108622" transform="translate(54.096 10.351)">
        <path id="Trazado_890606" data-name="Trazado 890606" d="M654.513,296.008a1.225,1.225,0,0,1,1.4-.842.994.994,0,0,1,.655,1.356,1.225,1.225,0,0,1-1.4.842A.994.994,0,0,1,654.513,296.008Z" transform="translate(-654.437 -295.137)" fill="#ffb27d"/>
      </g>
      <g id="Grupo_1108623" data-name="Grupo 1108623" transform="translate(65.983 7.135)">
        <path id="Trazado_890607" data-name="Trazado 890607" d="M681.094,289.166c-.047,0-.047,0-.047-.047a1.914,1.914,0,0,0-1.122-.7c-.047,0-.094-.047-.047-.093,0-.047.047-.094.094-.047a1.789,1.789,0,0,1,1.216.795s0,.047-.094.094Z" transform="translate(-679.859 -288.259)" fill="#131f2d"/>
      </g>
      <g id="Grupo_1108624" data-name="Grupo 1108624" transform="translate(65.862 5.751)">
        <path id="Trazado_890608" data-name="Trazado 890608" d="M679.693,286.516c-.047,0-.047,0-.094-.047,0-.047,0-.094.047-.094,0,0,.795-.327.748-.982a.074.074,0,1,1,.14-.047c.094.748-.795,1.122-.842,1.169Z" transform="translate(-679.6 -285.3)" fill="#131f2d"/>
      </g>
      <g id="Grupo_1108625" data-name="Grupo 1108625" transform="translate(49.102 1.122)">
        <path id="Trazado_890609" data-name="Trazado 890609" d="M643.823,276.99c-.047,0-.047,0-.047-.047a.065.065,0,0,1,0-.094,1.54,1.54,0,0,1,1.5-.234,3.184,3.184,0,0,0,.7.093.424.424,0,0,0,.327-.14,1.832,1.832,0,0,0,.094-1.075c0-.047,0-.094.047-.094s.094,0,.094.047.187.842-.094,1.216a.491.491,0,0,1-.421.234,3.635,3.635,0,0,1-.748-.094,1.238,1.238,0,0,0-1.449.187C643.87,276.943,643.87,276.99,643.823,276.99Z" transform="translate(-643.756 -275.4)" fill="#131f2d"/>
      </g>
      <g id="Grupo_1108626" data-name="Grupo 1108626" transform="translate(56.417 0)">
        <path id="Trazado_890610" data-name="Trazado 890610" d="M660.756,273.421a4.474,4.474,0,0,1-1.309-.234c-.047,0-.047-.047-.047-.094s.047-.047.093-.047a3.337,3.337,0,0,0,2.431-.047c.047,0,.094,0,.094.047s0,.094-.047.094A2.222,2.222,0,0,1,660.756,273.421Z" transform="translate(-659.4 -273)" fill="#131f2d"/>
      </g>
      <g id="Grupo_1108627" data-name="Grupo 1108627" transform="translate(55.274 11.456)">
        <path id="Trazado_890611" data-name="Trazado 890611" d="M656.976,298.669h0a.065.065,0,0,1,0-.094c.047,0,.748-.047.935-1.029a.046.046,0,0,1,.047-.047l.047.047c-.187,1.075-.982,1.122-1.029,1.122Z" transform="translate(-656.956 -297.5)" fill="#131f2d"/>
      </g>
      <g id="Grupo_1108628" data-name="Grupo 1108628" transform="translate(59.082 54.377)">
        <path id="Trazado_890612" data-name="Trazado 890612" d="M666.035,402.344c4.91-1.637,22.444-7.9,33.759-8.931a1.946,1.946,0,0,0,.14-2.2c-2.1-3.6-16.646-1.029-16.646-1.029l-11.783,4.3-3.367,2.011-3.039,4.863C665.147,401.408,665.334,402.577,666.035,402.344Z" transform="translate(-665.1 -389.297)" fill="#131f2d"/>
      </g>
      <g id="Grupo_1108629" data-name="Grupo 1108629" transform="translate(50.441 15.729)">
        <path id="Trazado_890613" data-name="Trazado 890613" d="M675.74,311.577s-4.769-7.808-16.646-3.787c-20.713,7.014-10.988,22.069-3.787,49.563a113.938,113.938,0,0,1,34.787-10.146s-3.039-15.2-9.679-26.652C678.732,317.562,677.657,314.055,675.74,311.577Z" transform="translate(-646.619 -306.639)" fill="#00a3fe"/>
      </g>
      <g id="Grupo_1108630" data-name="Grupo 1108630" transform="translate(44.013 17.815)">
        <path id="Trazado_890614" data-name="Trazado 890614" d="M649.391,311.1a19.983,19.983,0,0,0-9.959,8.7c-3.367,6.359-2.244,11.5-5.845,17.44-2.665,4.4,2.712,10.287,6.593,9.071,3.928-1.216,6.452-5.237,6.452-5.237Z" transform="translate(-632.873 -311.1)" fill="#00a3fe"/>
      </g>
      <g id="Grupo_1108631" data-name="Grupo 1108631" transform="translate(81.759 24.548)">
        <path id="Trazado_890615" data-name="Trazado 890615" d="M724.027,350.562c-3.226-11.783-10.333-24.828-10.427-24.968l.14-.094c.094.14,7.2,13.186,10.427,24.968Z" transform="translate(-713.6 -325.5)" fill="#131f2d"/>
      </g>
      <g id="Grupo_1108632" data-name="Grupo 1108632" transform="translate(27.992 60.78)">
        <path id="Trazado_890616" data-name="Trazado 890616" d="M607.721,403.79a5.1,5.1,0,0,0-5.7.187c-1.029.748-3.787-.281-3.367.795.421,1.029,3.694,2.385,3.413,3.367C601.783,409.074,607.721,403.79,607.721,403.79Z" transform="translate(-598.607 -402.991)" fill="#ffb27d"/>
      </g>
      <g id="Grupo_1108633" data-name="Grupo 1108633" transform="translate(76.901 71.118)">
        <path id="Trazado_890617" data-name="Trazado 890617" d="M704.234,463.067c-2.151-9.4-.514-19.217,1.262-25.81a71.522,71.522,0,0,1,4.4-12.157l.234.14a67.819,67.819,0,0,0-4.348,12.11c-1.73,6.546-3.367,16.318-1.263,25.67Z" transform="translate(-703.211 -425.1)" fill="#131f2d"/>
      </g>
      <g id="Grupo_1108634" data-name="Grupo 1108634" transform="translate(33.082 42.466)">
        <path id="Trazado_890618" data-name="Trazado 890618" d="M612.209,386.4c2.852,1.309,21.6-7.06,23.706-16.505,2.2-10.053-14.775-4.582-14.775-4.582L609.5,382.094A4.634,4.634,0,0,0,612.209,386.4Z" transform="translate(-609.495 -363.822)" fill="#00a3fe"/>
      </g>
      <g id="Grupo_1108635" data-name="Grupo 1108635" transform="translate(55.622 38.481)">
        <path id="Trazado_890619" data-name="Trazado 890619" d="M657.84,371.712l-.14-.094c4.722-6.593,6.359-16.225,6.359-16.318l.14.047C664.246,355.44,662.61,365.119,657.84,371.712Z" transform="translate(-657.7 -355.3)" fill="#131f2d"/>
      </g>
    </g>
    <g id="Grupo_1108637" data-name="Grupo 1108637" transform="translate(245.212 205.456)">
      <path id="Trazado_890620" data-name="Trazado 890620" d="M478.008,433.267c-1.73,0-2.244-.795-2.385-1.5-.374-2.011,2.1-5.985,6.406-10.146a50.62,50.62,0,0,1,5.751-4.816c.608-2.618,1.029-5.19,1.356-7.388a5.972,5.972,0,0,1-3.413.608c-.047,0-.14-.047-.187-.047a17.468,17.468,0,0,1-1.169,3.086c-.608,1.262-1.449,1.262-1.87,1.169a3.329,3.329,0,0,1-1.5-1.029,38.236,38.236,0,0,1-3.273,7.668c-.655,1.122-1.309,1.59-1.964,1.309a3.108,3.108,0,0,1-1.262-1.964,41.83,41.83,0,0,1-3.039,5.424c-.7,1.075-1.449,1.59-2.1,1.5-.748-.094-1.356-.888-1.777-2.338-.842-2.665-1.122-7.2-.7-11.643.234-2.385,1.029-8.183,3.46-10.474.748-.7,1.4-.935,1.917-.7,1.216.561,1.075,3.694,1.075,4.068a.281.281,0,1,1-.561,0c.094-1.169-.047-3.179-.748-3.507-.374-.187-.935.234-1.309.608-3.6,3.413-4.3,16.272-2.618,21.555.374,1.216.842,1.87,1.356,1.964.421.047.982-.374,1.59-1.216a40.044,40.044,0,0,0,3.273-5.938,20.033,20.033,0,0,1-.094-8.65c.374-1.169.888-1.309,1.262-1.216a1.479,1.479,0,0,1,1.122.982c.7,1.683,0,5.143-1.683,8.977.281,1.169.655,2.057,1.122,2.244s.982-.561,1.262-1.075a37.751,37.751,0,0,0,3.367-7.949A7.126,7.126,0,0,1,479.364,409a1.7,1.7,0,0,1,1.309-1.87.821.821,0,0,1,.935.374c.561.795.327,2.805-.327,5.237a3.116,3.116,0,0,0,1.4,1.169c.187.047.748.187,1.262-.888a17.474,17.474,0,0,0,1.169-3.086c-.748-.468-1.4-1.449-1.216-3.554.094-.842.327-1.356.748-1.5a.646.646,0,0,1,.748.281,4.2,4.2,0,0,1,.561,2.805,14.294,14.294,0,0,1-.234,1.683c.047,0,.14.047.187.047a5.239,5.239,0,0,0,3.367-.7c.281-2.151.468-3.881.514-4.863a3.243,3.243,0,0,1,1.824-3.039,2.453,2.453,0,0,1,2.665.561,2.646,2.646,0,0,1,.468,2.992c-.608,1.637-2.759,3.6-5,4.722-.281,2.151-.7,4.676-1.262,7.2a34.071,34.071,0,0,1,8.229-4.3.267.267,0,1,1,.14.514,35.236,35.236,0,0,0-8.6,4.582c-.234.982-.468,1.964-.748,2.9-2.338,8.51-5.424,13-9.118,13.232A.382.382,0,0,0,478.008,433.267Zm9.538-15.617a50.185,50.185,0,0,0-5.143,4.4c-4.068,3.974-6.593,7.855-6.219,9.679.14.795.888,1.122,2.2,1.029,4.3-.281,7.06-7.107,8.6-12.811C487.172,419.147,487.359,418.4,487.547,417.651Zm-12.3-7.621c-.281,0-.514.608-.608.842a19.5,19.5,0,0,0-.047,7.575c1.449-3.507,1.917-6.5,1.356-7.808a.747.747,0,0,0-.7-.608Zm5.517-2.572h-.094c-.561.094-.842.561-.842,1.309a6.437,6.437,0,0,0,.982,3.133c.561-2.1.7-3.741.281-4.3C480.954,407.551,480.907,407.457,480.767,407.457Zm3.928-2.244h0c-.094.047-.327.281-.374,1.029-.14,1.449.14,2.431.795,2.946.421-2.1.094-3.413-.234-3.834C484.788,405.26,484.741,405.213,484.694,405.213Zm7.715-3.974a1.876,1.876,0,0,0-.7.14c-.514.187-1.356.795-1.449,2.572-.047.935-.187,2.525-.468,4.535,1.964-1.122,3.834-2.852,4.4-4.255a2.075,2.075,0,0,0-.374-2.385A1.845,1.845,0,0,0,492.409,401.239Z" transform="translate(-466.687 -400.922)" fill="#131f2d"/>
    </g>
    <g id="Grupo_1108642" data-name="Grupo 1108642" transform="translate(248.07 187.024)">
      <g id="Grupo_1108638" data-name="Grupo 1108638">
        <path id="Trazado_890621" data-name="Trazado 890621" d="M492.812,362.014,473.5,361.5a.68.68,0,0,0-.655.7l-.047.655a.738.738,0,0,0,.655.795l19.311-.14a.751.751,0,0,0,.655-.7h0A.675.675,0,0,0,492.812,362.014Z" transform="translate(-472.8 -361.5)" fill="#00a3fe"/>
      </g>
      <g id="Grupo_1108639" data-name="Grupo 1108639" transform="translate(24.875)">
        <path id="Trazado_890622" data-name="Trazado 890622" d="M550.127,362.2l-23.285-.7a.771.771,0,0,0-.795.7l-.047.655a.788.788,0,0,0,.795.795l23.285.094a.7.7,0,0,0,.748-.7h0A.727.727,0,0,0,550.127,362.2Z" transform="translate(-526 -361.5)" fill="#00a3fe"/>
      </g>
      <g id="Grupo_1108640" data-name="Grupo 1108640" transform="translate(0 4.068)">
        <path id="Trazado_890623" data-name="Trazado 890623" d="M486.734,370.387l-13.419-.187c-.234,0-.468.327-.468.7l-.047.655c0,.421.187.795.421.748l13.466-.421c.234,0,.421-.327.468-.7h0C487.2,370.761,487.014,370.387,486.734,370.387Z" transform="translate(-472.8 -370.2)" fill="#00a3fe"/>
      </g>
      <g id="Grupo_1108641" data-name="Grupo 1108641" transform="translate(17.066 4.068)">
        <path id="Trazado_890624" data-name="Trazado 890624" d="M526.927,370.574l-17.02-.374c-.327,0-.561.281-.561.7l-.047.655c0,.421.234.795.561.795l17.066-.234a.675.675,0,0,0,.561-.7h0C527.489,370.948,527.255,370.574,526.927,370.574Z" transform="translate(-509.3 -370.2)" fill="#00a3fe"/>
      </g>
    </g>
    <g id="Grupo_1108647" data-name="Grupo 1108647" transform="translate(248.07 172.342)">
      <g id="Grupo_1108643" data-name="Grupo 1108643">
        <path id="Trazado_890625" data-name="Trazado 890625" d="M492.812,330.614,473.5,330.1a.68.68,0,0,0-.655.7l-.047.655a.738.738,0,0,0,.655.795l19.311-.14a.751.751,0,0,0,.655-.7h0A.653.653,0,0,0,492.812,330.614Z" transform="translate(-472.8 -330.1)" fill="#00a3fe"/>
      </g>
      <g id="Grupo_1108644" data-name="Grupo 1108644" transform="translate(24.875)">
        <path id="Trazado_890626" data-name="Trazado 890626" d="M550.127,330.8l-23.285-.7a.771.771,0,0,0-.795.7l-.047.655a.788.788,0,0,0,.795.795l23.285.094a.7.7,0,0,0,.748-.7h0A.727.727,0,0,0,550.127,330.8Z" transform="translate(-526 -330.1)" fill="#00a3fe"/>
      </g>
      <g id="Grupo_1108645" data-name="Grupo 1108645" transform="translate(0 4.068)">
        <path id="Trazado_890627" data-name="Trazado 890627" d="M486.734,338.987l-13.419-.187c-.234,0-.468.327-.468.7l-.047.655c0,.421.187.795.421.748l13.466-.421c.234,0,.421-.327.468-.7h0C487.2,339.361,487.014,338.987,486.734,338.987Z" transform="translate(-472.8 -338.8)" fill="#00a3fe"/>
      </g>
      <g id="Grupo_1108646" data-name="Grupo 1108646" transform="translate(17.066 4.068)">
        <path id="Trazado_890628" data-name="Trazado 890628" d="M526.927,339.174l-17.02-.374c-.327,0-.561.281-.561.7l-.047.655c0,.421.234.795.561.795l17.066-.234a.675.675,0,0,0,.561-.7h0C527.489,339.548,527.255,339.174,526.927,339.174Z" transform="translate(-509.3 -338.8)" fill="#00a3fe"/>
      </g>
    </g>
    <g id="Grupo_1108653" data-name="Grupo 1108653" transform="translate(179.571 180.812)">
      <g id="Grupo_1108648" data-name="Grupo 1108648">
        <path id="Trazado_890629" data-name="Trazado 890629" d="M351.176,397.911c-10.1,0-19.451-5.564-23.192-14.869a23.521,23.521,0,0,1,.7-19.03,27.55,27.55,0,0,1,14.682-13.7c13.56-5.517,28.756.234,33.852,12.765s-1.824,27.213-15.383,32.73A28.106,28.106,0,0,1,351.176,397.911Zm2.805-49.329a27.839,27.839,0,0,0-10.474,2.057,27.024,27.024,0,0,0-14.495,13.513,23.122,23.122,0,0,0-.7,18.7c5,12.344,19.965,18,33.338,12.578h0c13.373-5.424,20.2-19.872,15.2-32.263C373.152,354.052,363.94,348.582,353.981,348.582Zm-2.665,46.851a24.043,24.043,0,0,1-8.51-1.543,21.322,21.322,0,0,1-12.391-11.83c-4.582-11.315,1.636-24.548,13.887-29.5s25.9.187,30.486,11.5-1.636,24.548-13.887,29.5A25.7,25.7,0,0,1,351.316,395.433Zm-6.967-42.689.047.187c-12.017,4.863-18.189,17.908-13.653,28.99A20.879,20.879,0,0,0,342.9,393.562a24.432,24.432,0,0,0,17.815-.327c12.017-4.863,18.189-17.908,13.653-28.99-4.489-11.128-17.955-16.178-30.018-11.315Z" transform="translate(-326.302 -348.215)" fill="#131f2d"/>
      </g>
      <g id="Grupo_1108649" data-name="Grupo 1108649" transform="translate(9.508 8.993)">
        <path id="Trazado_890630" data-name="Trazado 890630" d="M369.3,397.817c-8.65,3.507-18.376-.14-21.6-8.136s1.169-17.394,9.819-20.9,18.376.14,21.6,8.136C382.342,384.959,377.946,394.311,369.3,397.817Zm-10.848-26.792c-7.341,2.946-11.035,10.894-8.323,17.628,2.759,6.78,10.941,9.866,18.235,6.873,7.341-2.946,11.035-10.894,8.323-17.628C373.925,371.166,365.743,368.08,358.449,371.025Z" transform="translate(-346.636 -367.447)" fill="#00a3fe"/>
      </g>
      <g id="Grupo_1108650" data-name="Grupo 1108650" transform="translate(13.734 13.023)">
        <path id="Trazado_890631" data-name="Trazado 890631" d="M367.516,399.741a13.349,13.349,0,0,1-4.489-.795,11.079,11.079,0,0,1-6.219-15.336,13.176,13.176,0,0,1,7.014-6.546c6.453-2.618,13.7.094,16.131,6.078h0a11.173,11.173,0,0,1-.327,9.071,13.176,13.176,0,0,1-7.014,6.546A13.719,13.719,0,0,1,367.516,399.741Zm1.356-23.332a12.954,12.954,0,0,0-4.91.982,12.812,12.812,0,0,0-6.827,6.359,10.725,10.725,0,0,0,6.032,14.869,13.055,13.055,0,0,0,16.131-6.546,10.885,10.885,0,0,0,.327-8.79h0A11.442,11.442,0,0,0,368.872,376.409Z" transform="translate(-355.674 -376.066)" fill="#131f2d"/>
      </g>
      <g id="Grupo_1108651" data-name="Grupo 1108651" transform="translate(8.989 4.761)">
        <path id="Trazado_890632" data-name="Trazado 890632" d="M368.8,361.438a1.423,1.423,0,0,1-.982.047,17.6,17.6,0,0,0-11.6.795c-6.453,2.618-8.183,6.312-8.183,6.359a1.409,1.409,0,0,1-1.73.748,1.123,1.123,0,0,1-.655-1.59c.093-.187,2.2-4.722,9.679-7.762a19.837,19.837,0,0,1,13.56-.842,1.153,1.153,0,0,1,.655,1.59A1.482,1.482,0,0,1,368.8,361.438Z" transform="translate(-345.525 -358.397)" fill="#00a3fe"/>
      </g>
      <g id="Grupo_1108652" data-name="Grupo 1108652" transform="translate(18.986 34.471)">
        <path id="Trazado_890633" data-name="Trazado 890633" d="M381.679,430.991c-.14.047-.327.14-.468.187a19.911,19.911,0,0,1-13.56.608,1.116,1.116,0,0,1-.608-1.59,1.456,1.456,0,0,1,1.73-.7,17.643,17.643,0,0,0,11.6-.561c6.406-2.431,8.276-6.172,8.323-6.219a1.456,1.456,0,0,1,1.73-.7,1.167,1.167,0,0,1,.655,1.59C390.937,423.79,388.786,428.092,381.679,430.991Z" transform="translate(-366.907 -421.938)" fill="#00a3fe"/>
      </g>
    </g>
    <text id="CONTRATO" transform="translate(177.39 81.98)" fill="#657285" font-size="22" font-family="Roboto-Bold, Roboto" font-weight="700"><tspan x="0" y="0">CONTRATO</tspan></text>
  </g>
</svg>
