<svg xmlns="http://www.w3.org/2000/svg" width="400" height="264.937" viewBox="0 0 400 264.937">
  <g id="_11107581_4630060" data-name="11107581_4630060" transform="translate(-22.072 -29.379)">
    <g id="OBJECTS" transform="translate(22.072 29.379)">
      <path id="Trazado_890331" data-name="Trazado 890331" d="M421.436,216.219c-9.7-15.419-22.985-27.7-36.779-38.761-11.558-9.274-24.309-18.821-29.076-33.617-2.606-8.066-2.531-16.983-5.46-24.912-3.9-10.571-16-23.377-26.295-27.993-15.761-7.066-34.808,3.648-51.179-1.858-6.76-2.274-8.547-6.62-13.205-11.183-4.988-4.886-10.983-9.134-16.742-13.05-11.3-7.683-23.807-13.853-37.279-16.537C181.7,43.581,156.385,50.33,136.8,65.071a107.115,107.115,0,0,0-28.781,33.555c-6.955,12.5-10.028,26.353-16.469,38.974-12.072,23.65-37.128,36.758-48.981,60.546-8.718,17.511-9.075,38.912-4.486,58.22S51.8,293.274,61.394,310.237c.045.078.088.146.13.211H77.355c60.414-.205,320.716-1.017,326.9.208h12.031c8.773-7.641,16.777-28.747,18.376-41.491C436.992,250.617,431.128,231.638,421.436,216.219Z" transform="translate(-35.171 -46.815)" fill="#f7eeeb" opacity="0.45"/>
      <g id="Grupo_1108293" data-name="Grupo 1108293" transform="translate(164.907 82.4)">
        <g id="Grupo_1108246" data-name="Grupo 1108246" transform="translate(62.478)">
          <g id="Grupo_1108241" data-name="Grupo 1108241" transform="translate(0.674 40.501)">
            <path id="Trazado_890332" data-name="Trazado 890332" d="M399.569,253.184c-2.2,3.443-7.928,7.457-12,7.4-13.856-.256-18.414-9.693-19.911-13.132.282-.069.755-.126,1.091-.167,2.555-.368,5.159-2.892,5.923-5.742a66.645,66.645,0,0,0,2.045-15.55l17.524,9.7c-.027,1.329-.115,2.784-.243,4.251-.091.894-.178,1.768-.281,2.621-.1.815-.206,1.589-.307,2.307a6.293,6.293,0,0,0,2.773,6.106Z" transform="translate(-367.66 -225.993)" fill="#fe8e68"/>
          </g>
          <g id="Grupo_1108242" data-name="Grupo 1108242" transform="translate(33.555 14.228)">
            <path id="Trazado_890333" data-name="Trazado 890333" d="M416.136,203.428a10.976,10.976,0,0,0,.415,7.776c.679,1.751,2.187.206,4.065.237,2.9.049,5.177-2.975,6.937-11,1.116-5.884,1.4-8.871,1.176-9.436-.8-2.034-3.447-3.127-5.629-3.318" transform="translate(-415.597 -187.69)" fill="#3d302a"/>
          </g>
          <g id="Grupo_1108243" data-name="Grupo 1108243" transform="translate(6.436 2.192)">
            <path id="Trazado_890334" data-name="Trazado 890334" d="M408.142,180.282c4.58,5.521,6.249,21.059,2.378,31.879-2.752,7.693-5.945,12.661-9.682,12.5-5.664-.241-16.644-4.894-20.224-8.788-6.439-7.005-4.565-20.732-3.235-29.38,1.209-7.856,4.882-18.051,14.755-16.111A27.772,27.772,0,0,1,408.142,180.282Z" transform="translate(-376.06 -170.142)" fill="#fe8e68"/>
          </g>
          <g id="Grupo_1108244" data-name="Grupo 1108244" transform="translate(9.873)">
            <path id="Trazado_890335" data-name="Trazado 890335" d="M383.692,184.248c1.018,1.215,2.807,1.484,4.282,1.723a4.823,4.823,0,0,1,3.989,2.8,7.138,7.138,0,0,0,2.473,3.039c.55.294,1.383.335,1.655-.226a1.614,1.614,0,0,1-.567-1.678,3.987,3.987,0,0,1,.908-1.628,5.648,5.648,0,0,1,.556,1.595,2.952,2.952,0,0,0,1.445,1.655.6.6,0,0,0,.342.086.667.667,0,0,0,.383-.279c.723-.863,1.428-2.512,2.43-3.037a5.98,5.98,0,0,0,1.141,2.463,3.492,3.492,0,0,0,1.942,1.538.66.66,0,0,0,.728-.229c.154-.294-.087-.593-.05-.891a1.473,1.473,0,0,1,.312-.644,10.746,10.746,0,0,1,1.186-1.735,27.572,27.572,0,0,0,3.2,3.092c.253.208.626.414.879.206a.736.736,0,0,0,.2-.471l.422-2.614c.079-.489.366-1.127.846-1,.232.06.373.289.5.493.161.262,2.973,3.233,3.033,3,.438-1.686,1.339-3.224,1.777-4.91,2.82-10.867-9.776-19.6-19.4-19.646a27.83,27.83,0,0,0-6.221.9,24.091,24.091,0,0,0-6.518,1.96c-2.816,1.544-4.955,4.347-4.4,7.7" transform="translate(-381.072 -166.947)" fill="#3d302a"/>
          </g>
          <g id="Grupo_1108245" data-name="Grupo 1108245" transform="translate(0 8.464)">
            <path id="Trazado_890336" data-name="Trazado 890336" d="M383.809,185.248c1.4,1.584,1.77,3.811,1.9,5.918a17.733,17.733,0,0,1-1.536,9.293c-.418.8-.725,4.774-1.371,4.554-.2-.069-.171-3.147-.711-4.808-.836-2.573-4.694-3.55-6.427-1.929-2.769,2.589-1.144,5.73-.229,7.684A13.814,13.814,0,0,1,377,209.714c.189,1.6.24,7.419-.8,8.783-.871,1.14-1.8-4.364-2.583-5.448-5.838-8.073-11.438-28.633-1.466-33.086,1.515-.676,6.2-1.03,7.614-.166" transform="translate(-366.677 -179.287)" fill="#3d302a"/>
          </g>
        </g>
        <path id="Trazado_890337" data-name="Trazado 890337" d="M397.3,372.469a13,13,0,0,0,1.759.2,46.654,46.654,0,0,0,9.446-1.142c2.759-.475,3.507-.737,3.447-4.063a317.307,317.307,0,0,0-11.323-78.034,45.953,45.953,0,0,0-4.257-11.26c-3.475-5.917-11.464-11.032-17.585-13.9-.866-.405-4.447,1.872-5.317,1.478-.765-.346-1.436-.876-2.2-1.212-2.248-.984-3.756,1.073-5.638,1.927a6.985,6.985,0,0,1-3.129.673c-.871-.036-1.66-.561-2.458-.149-3.581,1.85-12.473-11.9-12.473-11.9l-3.849,4.024-11.266,11.8-28.166,38.8s-5.11,31.8-8.624,52.643c-.608,3.6-3.027,11.364-3.5,14.091.1-.586,24.039-.75,25.332-.75h48.788c2.737,0,10.1,1.162,12.019-.849,2.364-2.473,5.1-13.8,5.245-16.978.473-10.678-.259-21.276-.4-32.021.058,4.368,1.315,8.32,1.851,12.6.69,5.508,1.68,11.012,2.569,16.491.715,4.406,1.4,8.818,1.947,13.249.247,1.993-.071,3.181,1.618,3.961C392.547,372.808,395.643,372.186,397.3,372.469Z" transform="translate(-280.794 -194.63)" fill="#bc744a"/>
        <path id="Trazado_890338" data-name="Trazado 890338" d="M418.441,410.211c-1.3-.538-9.349-2.533-12.977-3.283-1.9-.394-10.514-2.627-12.51-2.627s-4.711,2.852-4.711,2.852l.72,9.814c1.919-.192,4.491.806,5.873,1s6.065.216,8.943-1.228c.165-.083.313-.175.469-.263a7.288,7.288,0,0,0,4.222,2.11s1.259-.127,1.139-.637a24.373,24.373,0,0,0-1.728-2.769c1.232,1.256,3.25,3.29,5.576,3.406,0,0,1.259-.127,1.139-.637a35.084,35.084,0,0,0-2.251-3.541l.043.034c1.019.9,3.447,4,6.325,4.144,0,0,1.259-.127,1.139-.637a13.726,13.726,0,0,0-1.1-1.833,16.667,16.667,0,0,0,2.725,1.7c3.109,1.535,4.875.37,4.875,0S419.746,410.748,418.441,410.211Z" transform="translate(-310.973 -241.496)" fill="#fe8e68"/>
        <path id="Trazado_890339" data-name="Trazado 890339" d="M387.98,396.3a9.723,9.723,0,0,1,4.565,8.876c-.445,6.035-2.259,13.034-9.819,12.3S387.98,396.3,387.98,396.3Z" transform="translate(-308.491 -238.984)" fill="#874c2e"/>
        <path id="Trazado_890340" data-name="Trazado 890340" d="M348.2,372.524c-18.12,6.29-42.37.282-57.74-10.167-9.63-6.532-15.773-14.821-14.74-22.922,2.683-21.044,19.22-69.275,33.531-76.316,9.724-4.788,21.527-6.773,28.1-7.564,3.085-.376,5.016-.469,5.016-.469l-2.388,6.733L328.031,295.51c-.442,20-14.753,31.868-11.91,36.521s25.323,9.657,37.125,17.61C356.52,351.855,360.664,367.83,348.2,372.524Z" transform="translate(-275.597 -194.63)" fill="#bc744a"/>
        <g id="Grupo_1108247" data-name="Grupo 1108247" transform="translate(0 145.324)">
          <path id="Trazado_890341" data-name="Trazado 890341" d="M275.72,378.816l-.038,1.4a5.782,5.782,0,0,0,0,.7l.08.695a12.385,12.385,0,0,0,.185,1.381l.333,1.353a19.1,19.1,0,0,0,2.351,5.017,33.481,33.481,0,0,0,7.531,8.121,68.664,68.664,0,0,0,19.525,10.592,82.852,82.852,0,0,0,21.727,4.88,65.293,65.293,0,0,0,11.162.038,49.874,49.874,0,0,0,10.988-2.082,46.7,46.7,0,0,1-10.937,2.584,65.386,65.386,0,0,1-11.271.25,71.377,71.377,0,0,1-11.173-1.582,86.435,86.435,0,0,1-10.848-3.123,77.378,77.378,0,0,1-10.293-4.648,57.012,57.012,0,0,1-9.379-6.3,33.916,33.916,0,0,1-7.459-8.468,19.489,19.489,0,0,1-2.185-5.208A15.093,15.093,0,0,1,275.72,378.816Z" transform="translate(-275.59 -378.816)" fill="#874c2e"/>
        </g>
        <g id="Grupo_1108248" data-name="Grupo 1108248" transform="translate(39.678 100.885)">
          <path id="Trazado_890342" data-name="Trazado 890342" d="M346.2,314.028a43.076,43.076,0,0,1-1.5,11.271,58.549,58.549,0,0,1-4.137,10.635c-.841,1.708-1.744,3.383-2.668,5.037s-1.853,3.3-2.62,5a10.3,10.3,0,0,0-.837,2.569,3.126,3.126,0,0,0,.05,1.215,2.283,2.283,0,0,0,.213.527,4.084,4.084,0,0,0,.382.478,16.668,16.668,0,0,0,4.653,2.858c6.845,3.117,14.114,5.429,21.045,8.547a71.315,71.315,0,0,1,10.082,5.337l.592.4c.2.137.384.316.575.473a5.633,5.633,0,0,1,.914,1.151,10.765,10.765,0,0,1,1.117,2.655,22.085,22.085,0,0,1,.736,5.642,24.076,24.076,0,0,0-1-5.563,6.9,6.9,0,0,0-3.21-4.334,71.372,71.372,0,0,0-10.123-5.034c-3.492-1.442-7.021-2.8-10.571-4.127-3.544-1.342-7.113-2.628-10.6-4.215a17.35,17.35,0,0,1-4.941-3.125,4.91,4.91,0,0,1-.494-.637,3.236,3.236,0,0,1-.316-.785,4.072,4.072,0,0,1-.061-1.6,11.149,11.149,0,0,1,.932-2.814c.814-1.754,1.77-3.4,2.7-5.047s1.862-3.292,2.741-4.961A51.372,51.372,0,0,0,346.2,314.028Z" transform="translate(-333.437 -314.028)" fill="#874c2e"/>
        </g>
        <path id="Trazado_890343" data-name="Trazado 890343" d="M403.271,264.358c-1.731,1.717-9.424,7.2-16.762,7.2a21.043,21.043,0,0,1-3.876-.362,22.438,22.438,0,0,1-14.378-9.939,20.411,20.411,0,0,1-1.462-2.709,15.5,15.5,0,0,1-1.167-3.554c3.085-.376,6.035-1.154,6.518-1.7.523,3.594,4.963,10.086,11.682,11.307a14.006,14.006,0,0,0,2.4.241h.014a13.186,13.186,0,0,0,7.23-1.971c.014,0,3.22-2.526,3.233-2.54Z" transform="translate(-303.87 -194.065)" fill="#bc744a"/>
        <ellipse id="Elipse_11942" data-name="Elipse 11942" cx="1.244" cy="2.455" rx="1.244" ry="2.455" transform="translate(87.742 32.123)" fill="#56211a"/>
        <ellipse id="Elipse_11943" data-name="Elipse 11943" cx="0.539" cy="0.75" rx="0.539" ry="0.75" transform="translate(88.979 34.797)" fill="#fff"/>
        <ellipse id="Elipse_11944" data-name="Elipse 11944" cx="1.244" cy="2.455" rx="1.244" ry="2.455" transform="translate(101.128 33.248)" fill="#56211a"/>
        <path id="Trazado_890344" data-name="Trazado 890344" d="M415.444,233.592c-.015.518-2.183,3.671-4.289,3.421-1.767-.21-3.316-3.523-2.386-5.033C409.267,231.454,415.459,233.074,415.444,233.592Z" transform="translate(-317.332 -187.34)" fill="#fff"/>
        <g id="Grupo_1108250" data-name="Grupo 1108250" transform="translate(85.019 27.137)">
          <g id="Grupo_1108249" data-name="Grupo 1108249">
            <path id="Trazado_890345" data-name="Trazado 890345" d="M399.808,207.92c1.541-1.359,5.247-.831,6.823.176a.321.321,0,0,0,.388-.5c-1.067-1.06-2.847-1.124-4.264-1.071-1.076.039-2.839-.008-3.207,1.246a.157.157,0,0,0,.26.151Z" transform="translate(-399.541 -206.51)" fill="#3d302a"/>
          </g>
        </g>
        <g id="Grupo_1108252" data-name="Grupo 1108252" transform="translate(100.126 28.524)">
          <g id="Grupo_1108251" data-name="Grupo 1108251">
            <path id="Trazado_890346" data-name="Trazado 890346" d="M421.779,209.476a8.334,8.334,0,0,1,2.756-.011,11.11,11.11,0,0,1,2.471,1.25.2.2,0,0,0,.265-.265c-.822-1.816-4.015-2.481-5.605-1.389-.165.114-.126.433.113.415Z" transform="translate(-421.566 -208.532)" fill="#3d302a"/>
          </g>
        </g>
        <g id="Grupo_1108254" data-name="Grupo 1108254" transform="translate(96.158 34.357)">
          <g id="Grupo_1108253" data-name="Grupo 1108253">
            <path id="Trazado_890347" data-name="Trazado 890347" d="M416.183,217.322a20.552,20.552,0,0,0,.224,4.256c.084.5.73,1.842.625,2.273-.114.47-.934,1.051-1.213,1.514a.264.264,0,0,0,.359.359c.836-.433,1.8-1.075,1.622-2.085-.161-.937-.59-1.837-.735-2.8-.175-1.169-.188-2.341-.292-3.515a.3.3,0,0,0-.591,0Z" transform="translate(-415.781 -217.037)" fill="#cc6144"/>
          </g>
        </g>
        <ellipse id="Elipse_11945" data-name="Elipse 11945" cx="0.539" cy="0.798" rx="0.539" ry="0.798" transform="translate(102.208 35.876)" fill="#fff"/>
        <g id="Grupo_1108256" data-name="Grupo 1108256" transform="translate(81.724 51.818)">
          <g id="Grupo_1108255" data-name="Grupo 1108255">
            <path id="Trazado_890348" data-name="Trazado 890348" d="M394.8,242.84a11.816,11.816,0,0,0,8.211,3.879c.3.008.373-.471.071-.527a17.035,17.035,0,0,1-7.988-3.646.208.208,0,0,0-.294.294Z" transform="translate(-394.737 -242.492)" fill="#cc6144"/>
          </g>
        </g>
        <g id="Grupo_1108258" data-name="Grupo 1108258" transform="translate(59.307 58.931)">
          <g id="Grupo_1108257" data-name="Grupo 1108257">
            <path id="Trazado_890349" data-name="Trazado 890349" d="M369.511,253.267c-4.46-2.113-6.846,4.588-7.3,7.873-.866,6.314,1.937,12.2,4.484,17.785,2.675,5.869,5.734,11.541,8.469,17.379a65.985,65.985,0,0,1,3.609,9.322c.987,3.349,1.1,7.082,2.311,10.309a.4.4,0,0,0,.789-.107c.591-4.678-1.481-10.431-3.094-14.808a122.148,122.148,0,0,0-5.531-12.186c-2.6-5.207-5.234-10.464-7.37-15.884a28.348,28.348,0,0,1-2.143-8.492c-.152-2.343.709-11.885,5.27-10,.678.28,1.168-.875.5-1.191Z" transform="translate(-362.054 -252.863)" fill="#874c2e"/>
          </g>
        </g>
        <g id="Grupo_1108260" data-name="Grupo 1108260" transform="translate(75.545 65.237)">
          <g id="Grupo_1108259" data-name="Grupo 1108259">
            <path id="Trazado_890350" data-name="Trazado 890350" d="M403,263.367c5.611,2.134,3.649,12.388,2.882,16.834a68.575,68.575,0,0,1-4.874,15.684c-4.275,9.8-10.035,18.894-15.192,28.24a.684.684,0,0,0,1.18.69c6.411-11.253,13.72-22.175,17.953-34.506a57.635,57.635,0,0,0,3.3-17.8c.058-4.031-.536-8.937-4.9-10.411-.814-.274-1.132.975-.351,1.272Z" transform="translate(-385.728 -262.056)" fill="#874c2e"/>
          </g>
        </g>
        <path id="Trazado_890351" data-name="Trazado 890351" d="M392.54,345.419l-13-.385a1.22,1.22,0,0,0-1.188,1.188c-.817,6.509-1.1,13.145-2.078,19.625a1.209,1.209,0,0,0,1.145,1.5c4.275.089,8.551.217,12.826.263a1.144,1.144,0,0,0,.57-.137l.021-.012a1.034,1.034,0,0,0,.121-.075,1.1,1.1,0,0,0,.433-.648c1.65-6.4,1.652-13.567,2.34-20.134A1.2,1.2,0,0,0,392.54,345.419Z" transform="translate(-307.207 -222.881)" fill="#874c2e"/>
        <g id="Grupo_1108262" data-name="Grupo 1108262" transform="translate(101.531 105.401)">
          <g id="Grupo_1108261" data-name="Grupo 1108261">
            <path id="Trazado_890352" data-name="Trazado 890352" d="M424.616,364.151c.189-3.531-.162-7.105-.187-10.644-.026-3.665.084-7.327.278-10.987.189-3.548.475-7.09.881-10.62.418-3.636,1.178-7.237,1.563-10.871.051-.488-.727-.576-.845-.115a79.647,79.647,0,0,0-1.587,10.324c-.442,3.748-.765,7.512-.946,11.281-.176,3.658-.2,7.326-.115,10.987a58.855,58.855,0,0,0,.807,10.665c.019.088.145.062.15-.02Z" transform="translate(-423.613 -320.612)" fill="#874c2e"/>
          </g>
        </g>
        <g id="Grupo_1108264" data-name="Grupo 1108264" transform="translate(66.478 65.707)">
          <g id="Grupo_1108263" data-name="Grupo 1108263">
            <path id="Trazado_890353" data-name="Trazado 890353" d="M372.515,262.961c1.158,4.753,6.48,8.784,11.16,9.486a.318.318,0,0,0,.169-.612,18.75,18.75,0,0,1-6.642-3.414,23.883,23.883,0,0,1-4.363-5.6.178.178,0,0,0-.324.136Z" transform="translate(-372.509 -262.742)" fill="#874c2e"/>
          </g>
        </g>
        <g id="Grupo_1108266" data-name="Grupo 1108266" transform="translate(81.731 73.638)">
          <g id="Grupo_1108265" data-name="Grupo 1108265">
            <path id="Trazado_890354" data-name="Trazado 890354" d="M395.088,276.1c.816-.185,1.625-.377,2.43-.606a7.187,7.187,0,0,0,2.1-.763.231.231,0,0,0-.116-.427c-1.478-.038-3.189.774-4.563,1.261a.278.278,0,0,0,.147.535Z" transform="translate(-394.747 -274.304)" fill="#874c2e"/>
          </g>
        </g>
        <g id="Grupo_1108268" data-name="Grupo 1108268" transform="translate(73.162 30.252)">
          <g id="Grupo_1108267" data-name="Grupo 1108267">
            <path id="Trazado_890355" data-name="Trazado 890355" d="M383.213,211.7c.452-.695,1.15,1.46,1.178,1.641a5.582,5.582,0,0,1-.255,2.385c-.08.3.849.064.96-.15.6-1.168.65-3.2-.4-4.157a1.7,1.7,0,0,0-2.411.316c-.213.334.779.2.929-.035Z" transform="translate(-382.254 -211.052)" fill="#cc6144"/>
          </g>
        </g>
        <g id="Grupo_1108270" data-name="Grupo 1108270" transform="translate(73.981 31.676)">
          <g id="Grupo_1108269" data-name="Grupo 1108269">
            <path id="Trazado_890356" data-name="Trazado 890356" d="M385.068,214a.836.836,0,0,1,.027-.267.057.057,0,0,0-.018-.068,1.325,1.325,0,0,0-1.513-.451c-.034.013-.153.067-.1.121.134.143.4.137.569.222a1.661,1.661,0,0,1,.367.271c.123.11.271.155.4.261.056.045.271,0,.271-.088Z" transform="translate(-383.448 -213.127)" fill="#cc6144"/>
          </g>
        </g>
        <g id="Grupo_1108272" data-name="Grupo 1108272" transform="translate(91.273 49.869)">
          <g id="Grupo_1108271" data-name="Grupo 1108271">
            <path id="Trazado_890357" data-name="Trazado 890357" d="M408.675,239.939a1.943,1.943,0,0,0,2.448.614c.06-.036.056-.082-.021-.078a1.977,1.977,0,0,1-1.809-.774c-.1-.146-.742.066-.618.239Z" transform="translate(-408.659 -239.652)" fill="#cc6144"/>
          </g>
        </g>
        <g id="Grupo_1108274" data-name="Grupo 1108274" transform="translate(86.16 35.689)">
          <g id="Grupo_1108273" data-name="Grupo 1108273">
            <path id="Trazado_890358" data-name="Trazado 890358" d="M401.244,219.079a1.967,1.967,0,0,0,.253,1.489,1.7,1.7,0,0,0,1.112.816c.056.01.344-.049.274-.145-.266-.37-.671-.58-.9-1a3.036,3.036,0,0,1-.426-1.229c0-.08-.3-.01-.309.065Z" transform="translate(-401.203 -218.979)" fill="#cc6144"/>
          </g>
        </g>
        <g id="Grupo_1108276" data-name="Grupo 1108276" transform="translate(102.608 39.105)">
          <g id="Grupo_1108275" data-name="Grupo 1108275">
            <path id="Trazado_890359" data-name="Trazado 890359" d="M425.227,224.036c.051,0,.176-.077.068-.077-.052,0-.177.077-.068.077Z" transform="translate(-425.184 -223.959)" fill="#cc6144"/>
          </g>
        </g>
        <g id="Grupo_1108278" data-name="Grupo 1108278" transform="translate(103.013 37.595)">
          <g id="Grupo_1108277" data-name="Grupo 1108277">
            <path id="Trazado_890360" data-name="Trazado 890360" d="M426.174,223.2c.45-.232,1.093-.914.665-1.427-.034-.04-.162.008-.18.048-.215.486-.258,1.006-.785,1.278-.3.154.161.174.3.1Z" transform="translate(-425.775 -221.757)" fill="#cc6144"/>
          </g>
        </g>
        <g id="Grupo_1108280" data-name="Grupo 1108280" transform="translate(102.134 109.264)">
          <g id="Grupo_1108279" data-name="Grupo 1108279">
            <path id="Trazado_890361" data-name="Trazado 890361" d="M425.092,338.492a13.188,13.188,0,0,1,3.314-7.447c1.386-1.749,3.114-2.882,4.7-4.388a.243.243,0,0,0-.235-.4c-2.318.724-4.2,3.081-5.583,4.962-1.453,1.971-3.471,4.749-2.579,7.328a.194.194,0,0,0,.379-.051Z" transform="translate(-424.493 -326.244)" fill="#874c2e"/>
          </g>
        </g>
        <g id="Grupo_1108282" data-name="Grupo 1108282" transform="translate(102.231 115.113)">
          <g id="Grupo_1108281" data-name="Grupo 1108281">
            <path id="Trazado_890362" data-name="Trazado 890362" d="M424.79,342.9c.735-.9,1.2-1.991,1.845-2.953a20.105,20.105,0,0,1,2.635-3.161c.19-.186,2.008-2.043,2.185-.553.112.942-1.771,1.3-2.325,1.632-.622.378-1.042.675-1.043,1.44a.263.263,0,0,0,.487.132c.739-1.487,3.408-1.437,3.689-3.43a1.094,1.094,0,0,0-1.312-1.23c-1.4.147-2.869,2.2-3.656,3.177-1.1,1.372-2.4,3.078-2.659,4.855-.011.08.089.172.155.091Z" transform="translate(-424.634 -334.772)" fill="#874c2e"/>
          </g>
        </g>
        <g id="Grupo_1108284" data-name="Grupo 1108284" transform="translate(70.54 159.232)">
          <g id="Grupo_1108283" data-name="Grupo 1108283">
            <path id="Trazado_890363" data-name="Trazado 890363" d="M383.05,399.275a19.392,19.392,0,0,1-.868,6.926c-.827,2.248-2.329,3.964-3.721,5.865-.106.144.095.307.231.231,4.061-2.25,6.117-8.769,4.729-13.072a.19.19,0,0,0-.371.05Z" transform="translate(-378.432 -399.092)" fill="#874c2e"/>
          </g>
        </g>
        <g id="Grupo_1108286" data-name="Grupo 1108286" transform="translate(82.296 137.385)">
          <g id="Grupo_1108285" data-name="Grupo 1108285">
            <path id="Trazado_890364" data-name="Trazado 890364" d="M406.52,367.442c-.582,3.658-1.259,6.986-3.147,10.239a24.091,24.091,0,0,1-7.693,8.068.233.233,0,0,0,.235.4c6.288-3.584,11.582-11.123,11.149-18.637-.016-.292-.493-.4-.545-.073Z" transform="translate(-395.571 -367.242)" fill="#874c2e"/>
          </g>
        </g>
        <g id="Grupo_1108288" data-name="Grupo 1108288" transform="translate(113.457 42.898)">
          <g id="Grupo_1108287" data-name="Grupo 1108287">
            <path id="Trazado_890365" data-name="Trazado 890365" d="M441.388,231.114a4.871,4.871,0,0,0,2.307-1.365.174.174,0,0,0-.15-.26,4.784,4.784,0,0,0-2.4,1.044c-.29.181-.1.723.245.581Z" transform="translate(-441 -229.488)" fill="#874c2e"/>
          </g>
        </g>
        <g id="Grupo_1108290" data-name="Grupo 1108290" transform="translate(113.81 45.931)">
          <g id="Grupo_1108289" data-name="Grupo 1108289">
            <path id="Trazado_890366" data-name="Trazado 890366" d="M441.662,234.553a1.8,1.8,0,0,0,1.8.295.252.252,0,0,0,0-.431,2.767,2.767,0,0,0-.744-.224,5.416,5.416,0,0,1-.8-.259c-.375-.153-.556.415-.261.618Z" transform="translate(-441.515 -233.909)" fill="#874c2e"/>
          </g>
        </g>
        <g id="Grupo_1108292" data-name="Grupo 1108292" transform="translate(113.072 49.89)">
          <g id="Grupo_1108291" data-name="Grupo 1108291">
            <path id="Trazado_890367" data-name="Trazado 890367" d="M440.6,240.262a3.286,3.286,0,0,0,1.652.683.191.191,0,0,0,.163-.285,3.194,3.194,0,0,0-1.495-.947c-.366-.16-.681.334-.321.549Z" transform="translate(-440.439 -239.682)" fill="#874c2e"/>
          </g>
        </g>
      </g>
      <g id="Grupo_1108294" data-name="Grupo 1108294" transform="translate(7.085 263.84)">
        <path id="Trazado_890368" data-name="Trazado 890368" d="M81.5,431.47H441.035" transform="translate(-56.807 -431.47)" fill="none" stroke="#000" stroke-linecap="round" stroke-miterlimit="10" stroke-width="2.189"/>
        <line id="Línea_1833" data-name="Línea 1833" x1="20.148" transform="translate(0 0.003)" fill="none" stroke="#000" stroke-linecap="round" stroke-miterlimit="10" stroke-width="2.189"/>
        <line id="Línea_1834" data-name="Línea 1834" x1="3.377" transform="translate(387.136 0.003)" fill="none" stroke="#000" stroke-linecap="round" stroke-miterlimit="10" stroke-width="2.189"/>
      </g>
      <g id="Grupo_1108297" data-name="Grupo 1108297" transform="translate(235.047 206.875)">
        <path id="Trazado_890369" data-name="Trazado 890369" d="M493.7,425.428H379.844a2,2,0,0,0-2,2v.145a2,2,0,0,0,2,2H493.7a2,2,0,0,0,2-2v-.145A2,2,0,0,0,493.7,425.428Z" transform="translate(-377.849 -372.608)" fill="#2d2442"/>
        <g id="Grupo_1108296" data-name="Grupo 1108296" transform="translate(31.951)">
          <path id="Trazado_890370" data-name="Trazado 890370" d="M531.054,351.1l-71.075-.718-10.093-.1a1.6,1.6,0,0,0-1.417.813L428.94,396.184l-2.787,6.435a1.86,1.86,0,0,0-.069.213v0a1.8,1.8,0,0,0-.052.207,1.612,1.612,0,0,0,1.327,2.023,1.4,1.4,0,0,0,.744.027l73.051.571,10.429.082a1.693,1.693,0,0,0,1.582-1.2l19.472-51.359A1.653,1.653,0,0,0,531.054,351.1Z" transform="translate(-424.921 -349.006)" fill="#2d2442"/>
          <g id="Grupo_1108295" data-name="Grupo 1108295">
            <path id="Trazado_890371" data-name="Trazado 890371" d="M530.564,349.393l-65.608-.663-7.991-.081c-2.41-.024-5.194-.447-7.57-.077-3.53.549-4.436,6.1-5.644,8.885l-13.019,30.059q-2.788,6.439-5.577,12.877c-.7,1.62-1.382,3.58.46,4.81.93.621,2.341.427,3.351.44,2.705.037,5.411.043,8.117.063l16.234.127,32.467.254,16.184.126,6.518.051c1.676.013,3.336.334,4.633-.9,1.4-1.335,1.879-4.377,2.541-6.124q1.425-3.759,2.849-7.516l6.649-17.537,6.174-16.284c1.03-2.718,3.9-7.345-.469-8.472a1.127,1.127,0,0,0-.6,2.172c1.437.371-3.464,11.928-3.953,13.219l-4.749,12.527-4.749,12.527-2.137,5.637c-.776,2.048-1.338,5.081-2.612,6.889-1.642,2.33-5.061,1.6-7.49,1.58l-6.616-.051-13.528-.106-27.056-.211-27.056-.211c-.933-.008-2.512.392-3.172-.437-.841-1.057-.366.469-.046-1.436.267-1.586,1.452-3.352,2.09-4.826l5.657-13.061,10.849-25.049c.8-1.853,1.45-4.756,2.712-6.262,1.688-2.015,4.361-1.473,6.664-1.45l13.984.141,61.507.621A1.127,1.127,0,0,0,530.564,349.393Z" transform="translate(-424.431 -348.421)" fill="#2d2442"/>
          </g>
        </g>
        <ellipse id="Elipse_11946" data-name="Elipse 11946" cx="5.492" cy="4.003" rx="5.492" ry="4.003" transform="translate(78.042 26.694)" fill="#5a4f72"/>
        <ellipse id="Elipse_11947" data-name="Elipse 11947" cx="2.865" cy="2.089" rx="2.865" ry="2.089" transform="translate(91.228 29.015)" fill="#5a4f72"/>
      </g>
      <g id="Grupo_1108386" data-name="Grupo 1108386" transform="translate(60.109 38.336)">
        <path id="Trazado_890372" data-name="Trazado 890372" d="M314.157,407.088c3.5-.42,9.712-1.361,9.868-3.519-2.268-1.466-4.77-2.949-7.468-3.08a13.918,13.918,0,0,0-6.209,1.563q-2.511,1.116-4.926,2.438c-.66.361-2.386,1.652-2.414,2.551-.034,1.117,2.018.457,2.832.514A43.837,43.837,0,0,0,314.157,407.088Z" transform="translate(-179.404 -196.232)" fill="#c1ada4"/>
        <path id="Trazado_890373" data-name="Trazado 890373" d="M307.188,406.4s4.661,15.263,7.129,15.629,26.6.548,27.236.274a1.15,1.15,0,0,0,.731-.731s15.355,1.006,15.629.64,0-2.194-.731-2.468-23.946-5.484-25.956-6.215-8.317-.548-8.317-.548l-1.279-8.865Z" transform="translate(-180.717 -197.375)" fill="#fe8e68"/>
        <path id="Trazado_890374" data-name="Trazado 890374" d="M312.347,127.334a8.4,8.4,0,0,1,2.22,6.077,15.6,15.6,0,0,1-.844,3.86c-.763,2.425-1.668,4.938-3.555,6.643a1.38,1.38,0,0,1-1.1.47q-1.135-3.494-2.269-6.989a25.338,25.338,0,0,1-.933-3.4,11.665,11.665,0,0,1,.442-5.887,4.7,4.7,0,0,1,1.453-2.242C309.518,124.53,311.156,126.059,312.347,127.334Z" transform="translate(-180.244 -109.818)" fill="#433735"/>
        <g id="Grupo_1108299" data-name="Grupo 1108299" transform="translate(87.313 146.276)">
          <g id="Grupo_1108298" data-name="Grupo 1108298">
            <path id="Trazado_890375" data-name="Trazado 890375" d="M250.18,316.319a47.073,47.073,0,0,0,.256,7.293c.075,1.356.151,2.716.147,4.074a7.615,7.615,0,0,0,.035,2.488c.029.078.142.132.206.054,1.054-1.285.457-4.35.408-5.9-.084-2.67-.21-5.343-.313-8.012a.37.37,0,0,0-.739,0Z" transform="translate(-250.098 -315.963)" fill="#9b8580"/>
          </g>
        </g>
        <g id="Grupo_1108301" data-name="Grupo 1108301" transform="translate(86.725 141.84)">
          <g id="Grupo_1108300" data-name="Grupo 1108300">
            <path id="Trazado_890376" data-name="Trazado 890376" d="M256.712,309.579c-2.537,5.763-3.947,11.628-7.424,17.014-.2.305.292.589.486.284,3.075-4.831,6.421-11.46,7.228-17.176.021-.158-.211-.3-.29-.122Z" transform="translate(-249.242 -309.495)" fill="#9b8580"/>
          </g>
        </g>
        <path id="Trazado_890377" data-name="Trazado 890377" d="M161.22,375.681l1.561-52.729,11.462,52.729h32.868c-2.184-17.542-11.875-90.859-22-97.074l-39.781-24.77s-23.021,6-22.518,39.278c1.839,32.05,5.757,69.767,7.138,82.565H161.22Z" transform="translate(-122.804 -150.174)" fill="#2d2442"/>
        <path id="Trazado_890378" data-name="Trazado 890378" d="M311.308,341.609c-.854,1.294-5.2.322-6.483.447a21.992,21.992,0,0,0-3.355.837c-3.556.927-7.527.44-10.724,2.253a.432.432,0,0,1-.322.084c-.121-.037-.179-.17-.222-.289-2.041-5.654-3.637-11.554-5.425-17.316l-8.059-25.975-4.163-13.417L262.8,243.01l4.338-31.878,1.028-7.521.075-.571s.21.075.6.21a88.2,88.2,0,0,1,8.714,3.67c6.192,3.025,13.353,7.559,14.329,12.693,0,.018,0,.036.008.053.516,3.6,1.095,7.188,1.66,10.779q1.5,9.555,3.037,19.106,1.9,11.885,3.815,23.768,1.993,12.382,3.993,24.764,1.784,11.048,3.573,22.1,1.276,7.881,2.554,15.762.354,2.18.707,4.36a3.465,3.465,0,0,1,.178,1.1A.822.822,0,0,1,311.308,341.609Z" transform="translate(-166.774 -134.22)" fill="#eed9ce"/>
        <path id="Trazado_890379" data-name="Trazado 890379" d="M226.336,196.692l-.075.571-1.028,7.521-4.338,31.878-21.234,13.082c-1.109.683-2.064,5.38-2.515,6.557-1.466,3.822-2.746,7.791-4.421,11.525-.344.765-.652,2.849-1.413,3.315-1.531.936-7.755-.348-9.677-.471-7.116-.457-14.309-1.5-20.817-4.57-5.146-2.425-9.7-5.856-14.546-8.8-2.96-1.8-6.26-2.923-9.392-4.369-2.092-.966-6.614-2.818-7.42-5.279a2.876,2.876,0,0,1,.471-2.129c1.5-2.9,2.49-6.387,4.256-9.075,1.628-2.48,3.634-4.716,5.222-7.256,3.2-5.111,6.016-10.51,10.007-15.07,6.794-7.762,12.5-16.632,19.5-24.373,3.107-3.438,12.79-6.71,17.421-6.9a38.6,38.6,0,0,1,11.867,1.516,53.623,53.623,0,0,1,7.438,2.724,42.854,42.854,0,0,1,4.744,2.469Z" transform="translate(-124.871 -127.871)" fill="#eed9ce"/>
        <g id="XMLID_56_" transform="translate(109.313 82.626)">
          <g id="XMLID_66_">
            <path id="Trazado_890380" data-name="Trazado 890380" d="M282.172,251.771c2.236-1.375,12.684-8.044,13.62-10.453.434-1.118,2.805-4.561,4.852-7.791a65.664,65.664,0,0,1,5.057-6.466c1.329-1.378,3.248-4.792,4.406-3.669,1.444,1.4-.811,4.9-2.082,7.046a8.829,8.829,0,0,0-1.169,2.471,2.607,2.607,0,0,0,.367,2.309c.285.409,2.238.6,2.893.575,4.934-.217,7.075.073,10.756-1.3a90.615,90.615,0,0,0,10.59-5.142,4.347,4.347,0,0,1,2.3-1.084c.67-.062,2.088.029,2.013.7-.059.521-4.2,3.759-4.632,4.062l-4.337,3.082a1.777,1.777,0,0,0-.829.977,5.025,5.025,0,0,0,.091,1.093,2.606,2.606,0,0,1-.89,1.7,30.409,30.409,0,0,1-2.495,2.384c-1.222,1.046-.224,1.938-1.555,2.857-1.467,1.012-5.271,2.042-6.774,2.993a23.25,23.25,0,0,1-3.735,2.056,28.918,28.918,0,0,1-4.951,1.254c-4.577.944-12.586,9.237-16.458,11.976" transform="translate(-282.172 -223.168)" fill="#fe8e68"/>
          </g>
          <path id="XMLID_64_" d="M320.484,257.527a40.645,40.645,0,0,0,10.328-2.855c4.577-2.128,15.886-9.106,15.886-9.106a1.055,1.055,0,0,0,.036-.674c-.12-.276-1.838-.66-3.222-.058l-10.246,4.448" transform="translate(-294.205 -229.873)" fill="#fe8e68"/>
          <path id="XMLID_58_" d="M318.82,254.349a67.865,67.865,0,0,0,11.865-3.648c4.576-2.128,15.886-9.106,15.886-9.106a1.056,1.056,0,0,0,.036-.674c-.12-.277-1.838-.66-3.222-.058l-10.245,4.448" transform="translate(-293.683 -228.625)" fill="#fe8e68"/>
          <path id="XMLID_57_" d="M322.177,248.237a67.95,67.95,0,0,0,11.865-3.648,131.911,131.911,0,0,0,15.709-8.512,1.465,1.465,0,0,0,.214-1.268c-.12-.277-1.838-.659-3.222-.058L336.5,239.2" transform="translate(-294.737 -226.706)" fill="#fe8e68"/>
        </g>
        <path id="Trazado_890381" data-name="Trazado 890381" d="M268.771,170.758s17.639,10.759,21.767-11.009c1-9.007,2.252-23.643-5.254-29.367s-24.77-6.38-25.145,10.6c.656,4.879.469,5.254.469,5.254s-6.474-1.783-5.066,6.286a13.827,13.827,0,0,0,1.72,4.973L244,167.881c-1.219.955-2.24,2.545-3.93,1.778a2.321,2.321,0,0,0-.564-.223.507.507,0,0,0-.532.206.828.828,0,0,0-.061.377,8.009,8.009,0,0,1-.447,1.887,8.309,8.309,0,0,0,1.286,6.705,12.1,12.1,0,0,0,4.39,4.253,17.97,17.97,0,0,0,5.594,1.835,16.8,16.8,0,0,0,7.445-.06,6.308,6.308,0,0,0,3.522-2.074,3.526,3.526,0,0,0,.508-.728,4.339,4.339,0,0,0,.3-1.969.4.4,0,0,0-.066-.265.43.43,0,0,0-.266-.1c-1.076-.182-.366-.745.084-1.216s.9-.929,1.349-1.39q1.423-1.453,2.866-2.886Q267.119,172.375,268.771,170.758Z" transform="translate(-159.051 -110.256)" fill="#fe8e68"/>
        <ellipse id="Elipse_11948" data-name="Elipse 11948" cx="1.244" cy="2.455" rx="1.244" ry="2.455" transform="translate(121.61 37.625)" fill="#56211a"/>
        <g id="Grupo_1108303" data-name="Grupo 1108303" transform="translate(116.479 31.264)">
          <g id="Grupo_1108302" data-name="Grupo 1108302">
            <path id="Trazado_890382" data-name="Trazado 890382" d="M301.687,148.654c-2.691-.989-7.33.073-9.033,2.472a.243.243,0,0,0,.272.353,41.1,41.1,0,0,1,3.918-1.8,20.163,20.163,0,0,1,4.76-.4.315.315,0,0,0,.083-.616Z" transform="translate(-292.619 -148.286)" fill="#433735"/>
          </g>
        </g>
        <path id="Trazado_890383" data-name="Trazado 890383" d="M315,157.867a6.145,6.145,0,0,0,.532,4.052,17.6,17.6,0,0,0,2.148,3.48l1.087,1.49a23.031,23.031,0,0,0-3.3,1.392c-.639.33-1.327.777-1.453,1.485" transform="translate(-182.86 -120.031)" fill="#fe8e68"/>
        <path id="Trazado_890384" data-name="Trazado 890384" d="M301.71,176.488a5.337,5.337,0,0,0,2.375.251.258.258,0,0,1,.227.043.235.235,0,0,1,.045.145,4.776,4.776,0,0,1-.615,2.257,5.57,5.57,0,0,1-.8,1.368,3.249,3.249,0,0,1-3.416.857,2.746,2.746,0,0,1-1.082-1.1,5.627,5.627,0,0,1-.626-4.643c.415-.916.523-.578,1.329-.207.746.342,1.521.615,2.278.923C301.521,176.42,301.615,176.455,301.71,176.488Z" transform="translate(-177.687 -125.437)" fill="#fffbf9"/>
        <path id="Trazado_890385" data-name="Trazado 890385" d="M253.431,257.473c-12.868,5.976-32.9,16.763-32.9,16.763l-2.877-20.766-30.273.25s8.757,48.288,15.512,52.791c0,0,8.006,6,21.016-3,8.586-5.943,28.561-21.574,38.374-30.117Z" transform="translate(-143.087 -150.059)" fill="#eed9ce"/>
        <g id="Grupo_1108305" data-name="Grupo 1108305" transform="translate(41.333 93.54)">
          <g id="Grupo_1108304" data-name="Grupo 1108304">
            <path id="Trazado_890386" data-name="Trazado 890386" d="M195.2,287.953c-.2-3.319-1.769-6.919-2.614-10.128-1.2-4.557-2.4-9.111-3.524-13.687-2.026-8.269-3.752-16.586-5.559-24.9-.053-.242-.458-.193-.438.059.673,8.289,2.864,16.585,4.858,24.633,1.1,4.438,2.231,8.872,3.473,13.272.96,3.4,1.639,7.8,3.475,10.839a.178.178,0,0,0,.329-.088Z" transform="translate(-183.064 -239.079)" fill="#dbc4bd"/>
          </g>
        </g>
        <g id="Grupo_1108307" data-name="Grupo 1108307" transform="translate(101.283 122.175)">
          <g id="Grupo_1108306" data-name="Grupo 1108306">
            <path id="Trazado_890387" data-name="Trazado 890387" d="M287.647,280.893c-6.286,4.146-11.885,9.584-17.038,15.037-.451.477.268,1.2.722.722,5.241-5.525,11.031-10.194,16.849-15.068.381-.32-.117-.965-.533-.691Z" transform="translate(-270.466 -280.826)" fill="#dbc4bd"/>
          </g>
        </g>
        <g id="Grupo_1108309" data-name="Grupo 1108309" transform="translate(97.02 108.207)">
          <g id="Grupo_1108308" data-name="Grupo 1108308">
            <path id="Trazado_890388" data-name="Trazado 890388" d="M264.687,266.341a21.849,21.849,0,0,0,6.036-2.3c1.634-.8,3.786-1.564,4.862-3.078.193-.271-.125-.538-.384-.5-1.777.268-3.5,1.713-5.1,2.515-1.862.931-3.926,1.615-5.681,2.728a.348.348,0,0,0,.267.632Z" transform="translate(-264.251 -260.462)" fill="#dbc4bd"/>
          </g>
        </g>
        <g id="Grupo_1108311" data-name="Grupo 1108311" transform="translate(73.948 58.171)">
          <g id="Grupo_1108310" data-name="Grupo 1108310">
            <path id="Trazado_890389" data-name="Trazado 890389" d="M236.894,188.224c-2.325-2.39-4.6,1.868-5.3,3.809-1.868,5.2-.752,11.385.759,16.512,1.84,6.241,4.919,11.953,6.563,18.275,1.873,7.2,3.252,14.413,2.97,21.883-.017.461.682.454.713,0,.641-9.738-1.7-20.628-5.336-29.637-1.835-4.55-3.893-8.924-4.978-13.74a31.606,31.606,0,0,1-.869-8.315c.049-1.089,1.915-11.459,4.995-8.3.309.317.793-.168.485-.485Z" transform="translate(-230.613 -187.515)" fill="#9b8580"/>
          </g>
        </g>
        <g id="Grupo_1108313" data-name="Grupo 1108313" transform="translate(97.642 67.298)">
          <g id="Grupo_1108312" data-name="Grupo 1108312">
            <path id="Trazado_890390" data-name="Trazado 890390" d="M270.916,201.37l1.761,2.938q.176.983.351,1.964a14.612,14.612,0,0,1-.019,2.171c-.13,1.956-.613,3.877-.93,5.807-.611,3.725-1.086,7.47-1.721,11.191a140.661,140.661,0,0,1-5.183,21.167c-.128.381.468.54.6.165,3.237-9.234,5-18.824,6.446-28.478.669-4.47,4.482-15.136-1.541-17.456-.243-.093-.474.183-.409.41.019.067.038.134.057.2a.3.3,0,0,0,.588-.08Z" transform="translate(-265.158 -200.82)" fill="#9b8580"/>
          </g>
        </g>
        <path id="Trazado_890391" data-name="Trazado 890391" d="M254.262,329.844a1.2,1.2,0,0,0-1.188-1.188l-12.978.87a1.215,1.215,0,0,0-1.188,1.188c-.188,6.662.167,13.4-.188,20.053a1.194,1.194,0,0,0,1.188,1.188c4.264-.323,8.531-.609,12.792-.975.034,0,.064-.013.1-.018a.942.942,0,0,0,1.048-.854C254.871,343.566,254.211,336.458,254.262,329.844Z" transform="translate(-159.211 -173.673)" fill="#d6ced7"/>
        <g id="Grupo_1108315" data-name="Grupo 1108315" transform="translate(88.981 36.681)">
          <g id="Grupo_1108314" data-name="Grupo 1108314">
            <path id="Trazado_890392" data-name="Trazado 890392" d="M259.422,159.04c-1.944.263-3.421.728-4.835-1.054a4.715,4.715,0,0,0-1.9-1.8c-.113-.043-.2.123-.117.2,1.1,1,1.888,2.725,3.333,3.277a4.754,4.754,0,0,0,3.619-.4c.137-.068.032-.242-.095-.225Z" transform="translate(-252.531 -156.184)" fill="#594c4a"/>
          </g>
        </g>
        <circle id="Elipse_11949" data-name="Elipse 11949" cx="6.004" cy="6.004" r="6.004" transform="translate(116.537 34.294)" fill="none" stroke="#f9f9f9" stroke-miterlimit="10" stroke-width="1.094"/>
        <g id="Grupo_1108317" data-name="Grupo 1108317" transform="translate(128.532 37.215)">
          <g id="Grupo_1108316" data-name="Grupo 1108316">
            <path id="Trazado_890393" data-name="Trazado 890393" d="M310.39,158.47c.222-.129.316-.335.512-.5a2.2,2.2,0,0,1,1.028-.446,1.88,1.88,0,0,1,1.021.063c.3.119.374.4.65.523a.15.15,0,0,0,.2-.051l.066-.091a.27.27,0,0,0,0-.27c-.352-.753-1.355-.82-2.07-.668-.61.129-1.706.6-1.593,1.364a.13.13,0,0,0,.189.077Z" transform="translate(-310.192 -156.963)" fill="#f9f9f9"/>
          </g>
        </g>
        <g id="Grupo_1108318" data-name="Grupo 1108318" transform="translate(90.402)">
          <path id="Trazado_890394" data-name="Trazado 890394" d="M259.989,132.245c3.066,2.209,22.239-.5,28.428-3.337,12.58-5.766,13.812-15.927,10.873-17.835a2.8,2.8,0,0,0-1.169-.465,4.042,4.042,0,0,0-2.7,1.076c.316-1.149,1.458-6.155-1.595-8.141-4.1-2.666-9.261,1.842-10.1,2.4-5.849,3.915-9.009,4.583-9.009,4.583s1.031-9.871-7.053-2.288c-2.546,2.388-7.271,4.616-9.808,7.014-2.66,2.515-4.174,6.626-2.64,10.138" transform="translate(-254.602 -102.706)" fill="#433735"/>
        </g>
        <g id="Grupo_1108319" data-name="Grupo 1108319" transform="translate(87.376 18.322)">
          <path id="Trazado_890395" data-name="Trazado 890395" d="M267.591,134.653c1.753,1.427,2.539,3.714,3.045,5.917a18.981,18.981,0,0,1,.01,10.084c-.3.92.073,5.169-.647,5.051-.228-.037-.733-3.293-1.595-4.952-1.335-2.57-5.58-2.925-7.127-.907-1.916,2.5-.685,4.257.167,6.749a3.6,3.6,0,0,1-2.255,4.819c-2.109.6-1.5-1-2.344-2.5-1.808-3.22-3.7-6.039-4.919-9.627-1.916-5.658-3.494-14.245,2.427-18.165,1.481-.981,6.364-2.176,8.012-1.512" transform="translate(-250.191 -129.417)" fill="#433735"/>
        </g>
        <ellipse id="Elipse_11950" data-name="Elipse 11950" cx="0.539" cy="0.704" rx="0.539" ry="0.704" transform="translate(122.753 40.471)" fill="#fff"/>
        <g id="Grupo_1108321" data-name="Grupo 1108321" transform="translate(103.312 35.856)">
          <g id="Grupo_1108320" data-name="Grupo 1108320">
            <path id="Trazado_890396" data-name="Trazado 890396" d="M273.446,155.307c.883,1.741,2.936,2.084,4.678,2.521a32.178,32.178,0,0,0,7.8,1.117c.454,0,.425-.632,0-.686-2.229-.28-4.441-.475-6.643-.954-1.807-.393-4.27-.74-5.5-2.255-.158-.194-.433.054-.331.256Z" transform="translate(-273.423 -154.98)" fill="#f9f9f9"/>
          </g>
        </g>
        <g id="Grupo_1108323" data-name="Grupo 1108323" transform="translate(106.099 55.987)">
          <g id="Grupo_1108322" data-name="Grupo 1108322">
            <path id="Trazado_890397" data-name="Trazado 890397" d="M277.506,184.524a10.371,10.371,0,0,0,4.224,4.464.085.085,0,0,0,.1-.132,41.613,41.613,0,0,1-4.1-4.465.133.133,0,0,0-.229.134Z" transform="translate(-277.488 -184.33)" fill="#cc6144"/>
          </g>
        </g>
        <g id="Grupo_1108325" data-name="Grupo 1108325" transform="translate(141.789 33.001)">
          <g id="Grupo_1108324" data-name="Grupo 1108324">
            <path id="Trazado_890398" data-name="Trazado 890398" d="M329.812,152.827a11.407,11.407,0,0,0,2.46-1.866c.049-.056,0-.169-.08-.137a11.366,11.366,0,0,0-2.584,1.654c-.2.152-.019.495.2.349Z" transform="translate(-329.52 -150.819)" fill="#433735"/>
          </g>
        </g>
        <g id="Grupo_1108327" data-name="Grupo 1108327" transform="translate(142.996 36.398)">
          <g id="Grupo_1108326" data-name="Grupo 1108326">
            <path id="Trazado_890399" data-name="Trazado 890399" d="M331.608,156.768a5.751,5.751,0,0,0,2-.666.178.178,0,0,0-.089-.328,5.759,5.759,0,0,0-2.056.479.267.267,0,0,0,.142.514Z" transform="translate(-331.279 -155.771)" fill="#433735"/>
          </g>
        </g>
        <g id="Grupo_1108329" data-name="Grupo 1108329" transform="translate(143.262 39.569)">
          <g id="Grupo_1108328" data-name="Grupo 1108328">
            <path id="Trazado_890400" data-name="Trazado 890400" d="M331.963,161.163a8.1,8.1,0,0,1,1.211-.246,9.008,9.008,0,0,0,1.01-.11.121.121,0,0,0,.029-.219,3.129,3.129,0,0,0-2.379.107c-.283.114-.182.553.129.469Z" transform="translate(-331.667 -160.394)" fill="#433735"/>
          </g>
        </g>
        <g id="Grupo_1108331" data-name="Grupo 1108331" transform="translate(14.589 128.148)">
          <g id="Grupo_1108330" data-name="Grupo 1108330">
            <path id="Trazado_890401" data-name="Trazado 890401" d="M146.159,289.535c-1.748-.056-1.677,2.673-1.838,3.842-.218,1.583-.663,3.628.7,4.825a.346.346,0,0,0,.582-.241c.008-.074.016-.148.024-.222.018-.169-.18-.227-.3-.174l-.235.1.467.122a5.108,5.108,0,0,1-.539-3.78c.175-1.386.075-3.227,1.266-4.176.125-.1.013-.294-.124-.3Z" transform="translate(-144.074 -289.534)"/>
          </g>
        </g>
        <g id="Grupo_1108333" data-name="Grupo 1108333" transform="translate(17.671 129.403)">
          <g id="Grupo_1108332" data-name="Grupo 1108332">
            <path id="Trazado_890402" data-name="Trazado 890402" d="M149.565,291.443a8.776,8.776,0,0,0-.464,7.05c.1.227.434.1.442-.12.047-1.154-.233-2.284-.164-3.45s.4-2.251.5-3.394c.016-.176-.237-.222-.319-.086Z" transform="translate(-148.567 -291.364)"/>
          </g>
        </g>
        <g id="Grupo_1108335" data-name="Grupo 1108335" transform="translate(50.648 143.835)">
          <g id="Grupo_1108334" data-name="Grupo 1108334">
            <path id="Trazado_890403" data-name="Trazado 890403" d="M198.443,312.563a18.65,18.65,0,0,1-.767,2.117c-.29.626-.728,1.173-1,1.8a.293.293,0,0,0,.458.353,6.765,6.765,0,0,0,1.76-4.21c.02-.267-.372-.3-.448-.061Z" transform="translate(-196.645 -312.404)"/>
          </g>
        </g>
        <g id="Grupo_1108337" data-name="Grupo 1108337" transform="translate(52.998 146.285)">
          <g id="Grupo_1108336" data-name="Grupo 1108336" transform="translate(0 0)">
            <path id="Trazado_890404" data-name="Trazado 890404" d="M201.044,316.131a11.663,11.663,0,0,1-.94,2.163c-.154.307.27.7.51.393a4.62,4.62,0,0,0,.861-2.5c.018-.25-.366-.292-.431-.058Z" transform="translate(-200.071 -315.977)"/>
          </g>
        </g>
        <g id="Grupo_1108339" data-name="Grupo 1108339" transform="translate(1.973 127.861)">
          <g id="Grupo_1108338" data-name="Grupo 1108338">
            <path id="Trazado_890405" data-name="Trazado 890405" d="M125.728,289.307c2.164,1.3,4.432,2.4,6.585,3.759a15.47,15.47,0,0,0,6.088,2.589c.329.044.4-.508.078-.578a21.074,21.074,0,0,1-6.93-3.232c-1.7-1.089-3.688-2.582-5.77-2.727-.1-.008-.134.14-.051.19Z" transform="translate(-125.681 -289.117)"/>
          </g>
        </g>
        <g id="Grupo_1108341" data-name="Grupo 1108341" transform="translate(18.293 134.378)">
          <g id="Grupo_1108340" data-name="Grupo 1108340">
            <path id="Trazado_890406" data-name="Trazado 890406" d="M149.591,299.077c5.474,2.837,10.641,6.347,16.249,8.909a37.137,37.137,0,0,0,8.029,2.556c2.62.535,5.721,1.263,8.385.977.271-.029.372-.431.069-.508-2.855-.719-5.95-.656-8.855-1.29a36.766,36.766,0,0,1-8.389-2.892c-5.183-2.538-9.9-6.117-15.3-8.2-.257-.1-.43.319-.187.445Z" transform="translate(-149.474 -298.617)"/>
          </g>
        </g>
        <g id="Grupo_1108343" data-name="Grupo 1108343" transform="translate(42.996 168.051)">
          <g id="Grupo_1108342" data-name="Grupo 1108342" transform="translate(0 0)">
            <path id="Trazado_890407" data-name="Trazado 890407" d="M185.719,353.5a27.72,27.72,0,0,1,2.766-2.875c.569-.493,3.481-3.081,4.373-2.215a.124.124,0,0,0,.206-.12c-.446-1.375-2.395.045-3.043.473a14.418,14.418,0,0,0-4.514,4.573c-.077.129.11.283.213.164Z" transform="translate(-185.489 -347.709)"/>
          </g>
        </g>
        <g id="Grupo_1108345" data-name="Grupo 1108345" transform="translate(26.578 168.399)">
          <g id="Grupo_1108344" data-name="Grupo 1108344">
            <path id="Trazado_890408" data-name="Trazado 890408" d="M171.682,352.863a15.42,15.42,0,0,0-10.036-4.646.1.1,0,0,0-.025.189,21.115,21.115,0,0,1,9.763,4.755c.2.18.492-.1.3-.3Z" transform="translate(-161.552 -348.217)"/>
          </g>
        </g>
        <g id="Grupo_1108347" data-name="Grupo 1108347" transform="translate(42.829 175.226)">
          <g id="Grupo_1108346" data-name="Grupo 1108346" transform="translate(0 0)">
            <path id="Trazado_890409" data-name="Trazado 890409" d="M185.377,358.542c3.271,1.154,5.839,3.192,6.59,6.737l.492-.379a8.862,8.862,0,0,1-2.2-2,17.169,17.169,0,0,0-1.269-1.811,1.731,1.731,0,0,0-2.113-.294c-.038.025-.014.094.032.077,1.484-.549,2.327,1.75,3.024,2.61a11.657,11.657,0,0,0,2.183,2c.257.19.544-.123.492-.379-.677-3.368-3.583-6.719-7.186-6.93-.225-.014-.242.3-.051.371Z" transform="translate(-185.245 -358.17)"/>
          </g>
        </g>
        <g id="Grupo_1108349" data-name="Grupo 1108349" transform="translate(1.059 141.593)">
          <g id="Grupo_1108348" data-name="Grupo 1108348" transform="translate(0 0)">
            <path id="Trazado_890410" data-name="Trazado 890410" d="M124.917,317.879c3.349-2.07,6.4-4.613,8.236-8.162.227-.439-.436-.829-.664-.388-1.776,3.439-4.717,5.88-7.961,7.886-.42.26-.034.925.388.664Z" transform="translate(-124.348 -309.136)"/>
          </g>
        </g>
        <g id="Grupo_1108351" data-name="Grupo 1108351" transform="translate(40.983 146.299)">
          <g id="Grupo_1108350" data-name="Grupo 1108350" transform="translate(0 0)">
            <path id="Trazado_890411" data-name="Trazado 890411" d="M183.227,316.141c.231,3.463.744,6.846.672,10.333a54.931,54.931,0,0,1-1.338,10.855c-.076.339.444.484.521.144A54.853,54.853,0,0,0,184.44,326.8a37.11,37.11,0,0,0-.925-10.7c-.043-.156-.3-.131-.289.039Z" transform="translate(-182.553 -315.998)"/>
          </g>
        </g>
        <g id="Grupo_1108353" data-name="Grupo 1108353" transform="translate(40.313 169.056)">
          <g id="Grupo_1108352" data-name="Grupo 1108352" transform="translate(0 0)">
            <path id="Trazado_890412" data-name="Trazado 890412" d="M182.292,349.251a5.857,5.857,0,0,0-.5,1.888,3.57,3.57,0,0,0-.143,1.721.125.125,0,0,0,.225.03,4.459,4.459,0,0,0,.426-1.753,7.308,7.308,0,0,0,.287-1.807.157.157,0,0,0-.291-.079Z" transform="translate(-181.577 -349.175)"/>
          </g>
        </g>
        <g id="Grupo_1108355" data-name="Grupo 1108355" transform="translate(40.523 146.586)">
          <g id="Grupo_1108354" data-name="Grupo 1108354" transform="translate(0 0)">
            <path id="Trazado_890413" data-name="Trazado 890413" d="M187.892,316.647c-.094,2.736.012,5.487.038,8.225a70.979,70.979,0,0,1,.005,7.754c-.425,4.194-4.509,6.33-6.036,10.015-.1.246.323.427.434.183,1.607-3.552,5.55-5.542,6.188-9.592a45.276,45.276,0,0,0,.043-7.673c-.049-2.965-.012-5.95-.192-8.91a.24.24,0,0,0-.48,0Z" transform="translate(-181.883 -316.415)"/>
          </g>
        </g>
        <g id="Grupo_1108357" data-name="Grupo 1108357" transform="translate(77.58 67.689)">
          <g id="Grupo_1108356" data-name="Grupo 1108356">
            <path id="Trazado_890414" data-name="Trazado 890414" d="M235.909,201.549c-.058,5.117,5.332,8.345,9.935,8.8.366.036.383-.491.082-.6-2.16-.8-4.351-1.205-6.26-2.594a8.178,8.178,0,0,1-3.428-5.6.164.164,0,0,0-.328,0Z" transform="translate(-235.908 -201.39)" fill="#c1ada4"/>
          </g>
        </g>
        <g id="Grupo_1108359" data-name="Grupo 1108359" transform="translate(90.229 76.001)">
          <g id="Grupo_1108358" data-name="Grupo 1108358">
            <path id="Trazado_890415" data-name="Trazado 890415" d="M254.514,214.118a10.758,10.758,0,0,0,2.187.161,6.1,6.1,0,0,0,2.174-.211.179.179,0,0,0,0-.342,6.085,6.085,0,0,0-2.174-.211,10.756,10.756,0,0,0-2.187.161.231.231,0,0,0,0,.442Z" transform="translate(-254.351 -213.509)" fill="#c1ada4"/>
          </g>
        </g>
        <g id="Grupo_1108361" data-name="Grupo 1108361" transform="translate(36.678 90.181)">
          <g id="Grupo_1108360" data-name="Grupo 1108360">
            <path id="Trazado_890416" data-name="Trazado 890416" d="M180.936,239.152a5.671,5.671,0,0,0-1.372-3.346c-.656-.746-2.028-1.853-3.089-1.582a.27.27,0,0,0-.118.448,4.836,4.836,0,0,0,1.214.565,5.543,5.543,0,0,1,1.407.974,5.445,5.445,0,0,1,1.678,2.98c.025.156.295.121.279-.038Z" transform="translate(-176.278 -234.182)" fill="#c1ada4"/>
          </g>
        </g>
        <g id="Grupo_1108363" data-name="Grupo 1108363" transform="translate(100.479 39.437)">
          <g id="Grupo_1108362" data-name="Grupo 1108362">
            <path id="Trazado_890417" data-name="Trazado 890417" d="M273.191,165.072c.56-1.838-1.308-5.548-3.559-4.763-.659.23-.237.55.278.41.548-.15,1.612,1.676,1.777,1.991.418.8.489,1.705.889,2.493.084.164.57.02.615-.13Z" transform="translate(-269.294 -160.201)" fill="#cc6144"/>
          </g>
        </g>
        <g id="Grupo_1108365" data-name="Grupo 1108365" transform="translate(100.786 40.776)">
          <g id="Grupo_1108364" data-name="Grupo 1108364">
            <path id="Trazado_890418" data-name="Trazado 890418" d="M272,163.03a.949.949,0,0,0-1.139-.868,1.775,1.775,0,0,0-.874.321c-.145.112-.344.357-.187.519.086.089.322-.01.4-.064.224-.156.343-.416.6-.3a.939.939,0,0,1,.5.583c.062.2.705.015.7-.187Z" transform="translate(-269.741 -162.154)" fill="#cc6144"/>
          </g>
        </g>
        <g id="Grupo_1108367" data-name="Grupo 1108367" transform="translate(121.146 41.532)">
          <g id="Grupo_1108366" data-name="Grupo 1108366">
            <path id="Trazado_890419" data-name="Trazado 890419" d="M299.425,163.391a1.2,1.2,0,0,0,1.282,1.117c.028,0,.233-.054.173-.107-.175-.154-.391-.248-.569-.405a2.1,2.1,0,0,1-.537-.7c-.039-.095-.364-.008-.349.093Z" transform="translate(-299.424 -163.257)" fill="#cc6144"/>
          </g>
        </g>
        <g id="Grupo_1108369" data-name="Grupo 1108369" transform="translate(73.223 88.057)">
          <g id="Grupo_1108368" data-name="Grupo 1108368">
            <path id="Trazado_890420" data-name="Trazado 890420" d="M229.557,231.305c.252,7.225,1.136,14.416,2.061,21.581.475,3.676.676,7.888,1.695,11.345.108.368.608.2.558-.154l0-.014c-.051-.368-.608-.211-.558.154l0,.014.558-.154c.049.168.013-.607,0-.787-.062-.737-.206-1.474-.31-2.207q-.6-4.2-1.144-8.417c-.918-7.1-1.734-14.229-2.4-21.362-.027-.287-.469-.3-.459,0Z" transform="translate(-229.557 -231.085)" fill="#c1ada4"/>
          </g>
        </g>
        <g id="Grupo_1108371" data-name="Grupo 1108371" transform="translate(69.557 119.811)">
          <g id="Grupo_1108370" data-name="Grupo 1108370">
            <path id="Trazado_890421" data-name="Trazado 890421" d="M240.309,277.384a38.556,38.556,0,0,0-8.051,3.133,54.518,54.518,0,0,0-7.956,4.177c-.176.122-.075.432.153.364,5.583-1.682,10.673-5.028,15.99-7.35.192-.084.049-.364-.136-.324Z" transform="translate(-224.213 -277.38)" fill="#c1ada4"/>
          </g>
        </g>
        <g id="Grupo_1108373" data-name="Grupo 1108373" transform="translate(127.341 150.023)">
          <g id="Grupo_1108372" data-name="Grupo 1108372">
            <path id="Trazado_890422" data-name="Trazado 890422" d="M315.33,321.55c-.749,2.677-.915,5.3-2.034,7.912a31.51,31.51,0,0,1-4.768,7.206.281.281,0,0,0,.4.4,19.464,19.464,0,0,0,5.062-7.311c1.036-2.411,2.1-5.544,1.676-8.2-.027-.176-.29-.153-.333,0Z" transform="translate(-308.455 -321.426)" fill="#c1ada4"/>
          </g>
        </g>
        <g id="Grupo_1108375" data-name="Grupo 1108375" transform="translate(12.446 112.023)">
          <g id="Grupo_1108374" data-name="Grupo 1108374">
            <path id="Trazado_890423" data-name="Trazado 890423" d="M143.073,279.763a25.673,25.673,0,0,1-1.18-6.672,38.074,38.074,0,0,1,.912-6.716c.044-.282-.341-.5-.5-.21-2.128,4-1.558,9.831.339,13.779.116.24.5.071.427-.18Z" transform="translate(-140.949 -266.026)" fill="#c1ada4"/>
          </g>
        </g>
        <g id="Grupo_1108377" data-name="Grupo 1108377" transform="translate(18.086 120.184)">
          <g id="Grupo_1108376" data-name="Grupo 1108376">
            <path id="Trazado_890424" data-name="Trazado 890424" d="M151.81,286.49c-.529-1.371-1.122-2.728-1.514-4.148-.147-.532-.766-2.227-.445-2.63q1.892-.876,2.056.844a7.415,7.415,0,0,1,.1,1.478.208.208,0,0,0,.407.055c.279-1.231-.8-5.36-2.742-3.831-.843.665-.406,2.338-.224,3.189a28.68,28.68,0,0,0,1.982,5.2c.093.214.464.06.379-.159Z" transform="translate(-149.173 -277.924)" fill="#c1ada4"/>
          </g>
        </g>
        <g id="Grupo_1108379" data-name="Grupo 1108379" transform="translate(30.668 129.426)">
          <g id="Grupo_1108378" data-name="Grupo 1108378">
            <path id="Trazado_890425" data-name="Trazado 890425" d="M170.668,298.845A27.284,27.284,0,0,1,167.8,291.5a.143.143,0,0,0-.28.038,11.749,11.749,0,0,0,2.875,7.518c.124.154.373-.045.271-.209Z" transform="translate(-167.515 -291.397)" fill="#c1ada4"/>
          </g>
        </g>
        <g id="Grupo_1108381" data-name="Grupo 1108381" transform="translate(45.331 137.207)">
          <g id="Grupo_1108380" data-name="Grupo 1108380">
            <path id="Trazado_890426" data-name="Trazado 890426" d="M189.111,306.982c2.041-.184,4.751-1.709,5.084-3.952.029-.193-.208-.4-.368-.215a17.793,17.793,0,0,1-1.846,2.226,7.8,7.8,0,0,1-2.93,1.5c-.236.066-.2.466.06.442Z" transform="translate(-188.893 -302.742)" fill="#c1ada4"/>
          </g>
        </g>
        <g id="Grupo_1108383" data-name="Grupo 1108383" transform="translate(45.25 135.749)">
          <g id="Grupo_1108382" data-name="Grupo 1108382">
            <path id="Trazado_890427" data-name="Trazado 890427" d="M189.125,304.026c1.331-.457,2.975-1.639,3.213-3.139.029-.18-.2-.379-.346-.2-.446.53-.766,1.136-1.266,1.628a6.152,6.152,0,0,1-1.813,1.207c-.285.128-.083.607.213.506Z" transform="translate(-188.775 -300.616)" fill="#c1ada4"/>
          </g>
        </g>
        <g id="Grupo_1108385" data-name="Grupo 1108385" transform="translate(120.352 58.639)">
          <g id="Grupo_1108384" data-name="Grupo 1108384">
            <path id="Trazado_890428" data-name="Trazado 890428" d="M298.607,188.632c.615-.255,1.044.152,1.615.309.061.017.231,0,.252-.082.123-.461-.5-.619-.857-.652a1.816,1.816,0,0,0-1.294.327c-.2.16.207.13.285.1Z" transform="translate(-298.266 -188.197)" fill="#cc6144"/>
          </g>
        </g>
      </g>
      <g id="Grupo_1108432" data-name="Grupo 1108432" transform="translate(18.328 5.764)">
        <g id="Grupo_1108409" data-name="Grupo 1108409" transform="translate(269.021 60.896)">
          <path id="Trazado_890429" data-name="Trazado 890429" d="M546.2,144h-73.05a12.733,12.733,0,0,0-12.553,10.6l-6.31,37.118a12.732,12.732,0,0,0,12.553,14.866h.37L464.362,221.8l14.05-15.216h61.474a12.733,12.733,0,0,0,12.553-10.6l6.31-37.118A12.733,12.733,0,0,0,546.2,144Z" transform="translate(-454.101 -144)" fill="#eed9ce"/>
          <g id="Grupo_1108388" data-name="Grupo 1108388" transform="translate(49.836 13.271)" opacity="0.16">
            <g id="Grupo_1108387" data-name="Grupo 1108387">
              <path id="Trazado_890430" data-name="Trazado 890430" d="M527.1,164.07c7.783.419,15.589.519,23.381.691l11.521.254c3.9.086,7.972.5,11.86.141.4-.037.577-.706.1-.771a100.33,100.33,0,0,0-11.287-.39l-11.86-.27c-7.9-.18-15.816-.437-23.72-.366a.356.356,0,0,0,0,.711Z" transform="translate(-526.756 -163.348)"/>
            </g>
          </g>
          <g id="Grupo_1108390" data-name="Grupo 1108390" transform="translate(47.543 22.299)" opacity="0.16">
            <g id="Grupo_1108389" data-name="Grupo 1108389">
              <path id="Trazado_890431" data-name="Trazado 890431" d="M523.944,177.673q11.405.658,22.835.619,5.631-.025,11.26-.225a93.824,93.824,0,0,0,11.041-.661c.515-.08.368-.868-.119-.881-3.737-.1-7.526.338-11.263.466s-7.506.2-11.26.21q-11.254.035-22.493-.63c-.709-.042-.706,1.061,0,1.1Z" transform="translate(-523.413 -176.51)"/>
            </g>
          </g>
          <g id="Grupo_1108392" data-name="Grupo 1108392" transform="translate(47.693 30.113)" opacity="0.16">
            <g id="Grupo_1108391" data-name="Grupo 1108391">
              <path id="Trazado_890432" data-name="Trazado 890432" d="M524.067,188.8c6.871.622,13.783,1.3,20.681,1.565s13.826-.15,20.706-.388c.909-.032.912-1.451,0-1.416-6.887.267-13.81.783-20.706.554s-13.778-.968-20.681-1.219c-.589-.022-.57.851,0,.9Z" transform="translate(-523.633 -187.901)"/>
            </g>
          </g>
          <g id="Grupo_1108394" data-name="Grupo 1108394" transform="translate(12.807 37.367)" opacity="0.16">
            <g id="Grupo_1108393" data-name="Grupo 1108393">
              <path id="Trazado_890433" data-name="Trazado 890433" d="M473.088,199.138c19.589,1.627,39.352,1.731,59,1.9,4.677.04,9.387.136,14.061-.068a.6.6,0,0,0,0-1.2c-9.071-.211-18.163-.021-27.237-.11-10.6-.1-21.191-.285-31.782-.639-4.681-.156-9.362-.273-14.039-.548-.426-.025-.418.624,0,.659Z" transform="translate(-472.771 -198.478)"/>
            </g>
          </g>
          <g id="Grupo_1108396" data-name="Grupo 1108396" transform="translate(11.973 44.034)" opacity="0.16">
            <g id="Grupo_1108395" data-name="Grupo 1108395">
              <path id="Trazado_890434" data-name="Trazado 890434" d="M471.873,208.857c19.37,1.613,38.891,1.9,58.318,2.145,4.625.058,9.284.169,13.906-.034a.6.6,0,0,0,0-1.2c-9.069-.215-18.156-.071-27.228-.206-10.373-.155-20.746-.4-31.113-.787-4.629-.174-9.258-.309-13.883-.581-.426-.025-.418.624,0,.659Z" transform="translate(-471.557 -208.197)"/>
            </g>
          </g>
          <g id="Grupo_1108398" data-name="Grupo 1108398" transform="translate(13.941 9.726)" opacity="0.16">
            <g id="Grupo_1108397" data-name="Grupo 1108397">
              <path id="Trazado_890435" data-name="Trazado 890435" d="M476.449,158.679a38.837,38.837,0,0,0-1.006,10.211c-.007,1.744,0,3.491-.135,5.231-.136,1.827-.789,3.582-.881,5.382a.633.633,0,0,0,1.169.317,10.616,10.616,0,0,0,.989-4.181,47.272,47.272,0,0,0,.249-5.513c.006-3.734-.082-7.451.979-11.071a.708.708,0,0,0-1.364-.376Z" transform="translate(-474.426 -158.18)"/>
            </g>
          </g>
          <g id="Grupo_1108400" data-name="Grupo 1108400" transform="translate(16.83 9.419)" opacity="0.16">
            <g id="Grupo_1108399" data-name="Grupo 1108399">
              <path id="Trazado_890436" data-name="Trazado 890436" d="M479.148,159.008c8.811.173,17.577.456,26.343,1.437l-.8-1.056a143.383,143.383,0,0,0-1.528,20.237,1.037,1.037,0,0,0,2.072,0,148.513,148.513,0,0,1,1.094-20.015c.062-.478-.434-.794-.834-.834a164.563,164.563,0,0,0-26.343-.825.528.528,0,0,0,0,1.056Z" transform="translate(-478.638 -157.732)"/>
            </g>
          </g>
          <g id="Grupo_1108402" data-name="Grupo 1108402" transform="translate(14.655 29.821)" opacity="0.16">
            <g id="Grupo_1108401" data-name="Grupo 1108401">
              <path id="Trazado_890437" data-name="Trazado 890437" d="M476.276,189.975a83.752,83.752,0,0,1,13.067-.482q3.111.135,6.206.5c1.2.144,2.4.324,3.6.5a4.921,4.921,0,0,0,2.768.039.786.786,0,0,0,.343-1.3c-1.4-1.243-3.921-1.145-5.73-1.332q-3.417-.354-6.855-.418a85.935,85.935,0,0,0-13.615.86c-.913.128-.708,1.73.219,1.624Z" transform="translate(-475.467 -187.476)"/>
            </g>
          </g>
          <g id="Grupo_1108404" data-name="Grupo 1108404" transform="translate(18.794 13.97)" opacity="0.16">
            <g id="Grupo_1108403" data-name="Grupo 1108403">
              <path id="Trazado_890438" data-name="Trazado 890438" d="M482.241,164.8c-.333,3.539-.593,7.092-.739,10.644a.678.678,0,0,0,1.355,0c-.067-3.559.012-7.094.281-10.644.044-.578-.844-.568-.9,0Z" transform="translate(-481.501 -164.366)"/>
            </g>
          </g>
          <g id="Grupo_1108406" data-name="Grupo 1108406" transform="translate(19.132 24.705)" opacity="0.16">
            <g id="Grupo_1108405" data-name="Grupo 1108405">
              <path id="Trazado_890439" data-name="Trazado 890439" d="M482.483,181.037c6.937.436,13.956.8,20.907.81a.688.688,0,0,0,0-1.375c-6.937-.407-13.96-.469-20.907-.451a.508.508,0,0,0,0,1.016Z" transform="translate(-481.993 -180.018)"/>
            </g>
          </g>
          <g id="Grupo_1108408" data-name="Grupo 1108408" transform="translate(21.732 15.782)" opacity="0.16">
            <g id="Grupo_1108407" data-name="Grupo 1108407">
              <path id="Trazado_890440" data-name="Trazado 890440" d="M486.792,173.989l.833-2.5a8.366,8.366,0,0,1,.944-2.63c1.412-1.486,3.416,3.07,3.847,3.711.821,1.222,2.29,2.146,3.378.616.724-1.019.758-2.409,1.3-3.512a1.062,1.062,0,0,1,.945-1.052l.758.958a8.354,8.354,0,0,0,1.349,1.571,1.73,1.73,0,0,0,1.792.287c1.07-.452,1.093-1.956,2.087-2.407,2.168-.984-1.829-3.283-1.589-.912.081.8-.708,2.215-1.607,1.749-.556-.288-1.073-1.221-1.494-1.683-.525-.575-1.205-1.458-2.118-1.1-.658.258-.8,1.058-1.017,1.639-.319.849-.663,1.691-1,2.532a1.069,1.069,0,0,1-1.179,1.137,9.177,9.177,0,0,1-.752-1.056c-.911-1.33-2.125-4.311-4.233-3.955-.861.145-1.26.774-1.6,1.514a46.7,46.7,0,0,0-1.621,4.816c-.208.622.774.889.98.271Z" transform="translate(-485.783 -167.008)"/>
            </g>
          </g>
        </g>
        <g id="Grupo_1108418" data-name="Grupo 1108418" transform="translate(193.596)">
          <path id="Trazado_890441" data-name="Trazado 890441" d="M404.8,55.219H356.682a8.386,8.386,0,0,0-8.268,6.981l-4.156,24.449a8.387,8.387,0,0,0,8.268,9.792h.244l-4.818,7.008,12.2-7.008h40.492a8.387,8.387,0,0,0,8.268-6.981l4.157-24.449A8.387,8.387,0,0,0,404.8,55.219Z" transform="translate(-344.137 -55.219)" fill="#d6ced7"/>
          <g id="Grupo_1108411" data-name="Grupo 1108411" transform="translate(11.017 7.933)" opacity="0.16">
            <g id="Grupo_1108410" data-name="Grupo 1108410">
              <path id="Trazado_890442" data-name="Trazado 890442" d="M360.493,67.4c8.748.449,17.515.623,26.271.861l12.965.351c4.4.119,8.915.545,13.306.256a.338.338,0,0,0,0-.675c-4.26-.512-8.677-.344-12.965-.462l-13.306-.367c-8.754-.241-17.514-.546-26.271-.575a.305.305,0,0,0,0,.61Z" transform="translate(-360.198 -66.785)"/>
            </g>
          </g>
          <g id="Grupo_1108413" data-name="Grupo 1108413" transform="translate(8.638 13.842)" opacity="0.16">
            <g id="Grupo_1108412" data-name="Grupo 1108412">
              <path id="Trazado_890443" data-name="Trazado 890443" d="M357.187,76.349q12.629.607,25.275.765,6.151.074,12.3.039c4.31-.025,8.69.1,12.984-.275a.386.386,0,0,0,0-.772c-4.2-.17-8.438.084-12.642.108s-8.429.011-12.643-.041q-12.644-.156-25.275-.774c-.61-.029-.609.92,0,.949Z" transform="translate(-356.73 -75.4)"/>
            </g>
          </g>
          <g id="Grupo_1108415" data-name="Grupo 1108415" transform="translate(7.472 19.834)" opacity="0.16">
            <g id="Grupo_1108414" data-name="Grupo 1108414">
              <path id="Trazado_890444" data-name="Trazado 890444" d="M355.317,84.73a438.388,438.388,0,0,0,49.22.821c.6-.021.6-.955,0-.932-16.426.6-32.807.3-49.22-.484-.385-.019-.378.565,0,.595Z" transform="translate(-355.031 -84.135)"/>
            </g>
          </g>
          <g id="Grupo_1108417" data-name="Grupo 1108417" transform="translate(6.239 26.077)" opacity="0.16">
            <g id="Grupo_1108416" data-name="Grupo 1108416">
              <path id="Trazado_890445" data-name="Trazado 890445" d="M353.442,93.671a276.528,276.528,0,0,0,33.975,1.215.394.394,0,0,0,0-.787c-11.341-.187-22.642-.252-33.975-.862-.282-.015-.275.41,0,.434Z" transform="translate(-353.234 -93.236)"/>
            </g>
          </g>
        </g>
        <g id="Grupo_1108431" data-name="Grupo 1108431" transform="translate(0 13.683)">
          <path id="Trazado_890446" data-name="Trazado 890446" d="M144.927,75.167H79.064a11.48,11.48,0,0,0-11.318,9.556l-5.689,33.466a11.48,11.48,0,0,0,11.318,13.4h55.671l9.71,12.237.393-12.237h.089a11.48,11.48,0,0,0,11.318-9.556l5.689-33.466A11.48,11.48,0,0,0,144.927,75.167Z" transform="translate(-61.892 -75.167)" fill="#d6ced7"/>
          <g id="Grupo_1108420" data-name="Grupo 1108420" transform="translate(40.328 11.91)" opacity="0.29">
            <g id="Grupo_1108419" data-name="Grupo 1108419">
              <path id="Trazado_890447" data-name="Trazado 890447" d="M120.9,92.981c7.8.34,15.62.476,23.429.658l11.545.27c3.941.092,7.947.4,11.884.2a.249.249,0,0,0,0-.5c-3.814-.368-7.714-.261-11.545-.352l-11.884-.283c-7.808-.186-15.619-.418-23.429-.448a.225.225,0,0,0,0,.45Z" transform="translate(-120.687 -92.531)"/>
            </g>
          </g>
          <g id="Grupo_1108422" data-name="Grupo 1108422" transform="translate(38.132 20.138)" opacity="0.29">
            <g id="Grupo_1108421" data-name="Grupo 1108421">
              <path id="Trazado_890448" data-name="Trazado 890448" d="M117.821,105.227q11.259.625,22.539.638c7.466,0,15.138.149,22.564-.682.355-.04.375-.567,0-.569-7.516-.021-15.04.562-22.564.558s-15.033-.226-22.539-.644c-.449-.025-.448.674,0,.7Z" transform="translate(-117.485 -104.527)"/>
            </g>
          </g>
          <g id="Grupo_1108424" data-name="Grupo 1108424" transform="translate(10.359 27.285)" opacity="0.29">
            <g id="Grupo_1108423" data-name="Grupo 1108423">
              <path id="Trazado_890449" data-name="Trazado 890449" d="M77.255,115.489a621.2,621.2,0,0,0,67.373,1.047c.546-.02.549-.87,0-.851-22.477.812-44.917.444-67.373-.739-.351-.019-.346.517,0,.543Z" transform="translate(-76.994 -114.946)"/>
            </g>
          </g>
          <g id="Grupo_1108426" data-name="Grupo 1108426" transform="translate(8.636 35.793)" opacity="0.29">
            <g id="Grupo_1108425" data-name="Grupo 1108425">
              <path id="Trazado_890450" data-name="Trazado 890450" d="M74.673,127.746a406.4,406.4,0,0,0,46.5,1.583.36.36,0,0,0,0-.719c-15.528-.2-30.994-.334-46.5-1.261-.256-.014-.252.376,0,.4Z" transform="translate(-74.482 -127.349)"/>
            </g>
          </g>
          <g id="Grupo_1108428" data-name="Grupo 1108428" transform="translate(11.568 6.472)" opacity="0.29">
            <g id="Grupo_1108427" data-name="Grupo 1108427">
              <path id="Trazado_890451" data-name="Trazado 890451" d="M80.139,87.075c-.466,3.227-1.152,6.547-1.37,9.8-.131,1.949.8,2.886,2.688,3.206,3.264.553,6.664.666,9.959.962,1.975.177,5.574.986,7.212-.643.8-.794.6-2.011.541-3.028-.077-1.446-.241-2.888-.243-4.338A20.96,20.96,0,0,1,99.859,88a2.506,2.506,0,0,0-.311-2.255c-1.29-1.633-4.519-1.037-6.3-1.031-3.612.013-7.227.11-10.839.178-1.126.021-1.076,1.842,0,1.717a87.62,87.62,0,0,1,14.229-.665c1.038.049,2.1-.016,2.08,1.743a5.547,5.547,0,0,1-.419,1.28,11.944,11.944,0,0,0-.444,2.843,23.787,23.787,0,0,0,.116,3.078,16.842,16.842,0,0,1,.294,3.41c-.254,1.877-1.765,2.085-3.362,2.04-1.165-.032-2.329-.18-3.489-.276-2.371-.2-4.744-.378-7.117-.567-.966-.077-2.81.134-3.672-.364a3.358,3.358,0,0,1-1.2-2.257,14.756,14.756,0,0,1,.328-2.38c.333-2.414.744-4.813,1.092-7.223.069-.462-.638-.661-.706-.194Z" transform="translate(-78.757 -84.602)"/>
            </g>
          </g>
          <g id="Grupo_1108430" data-name="Grupo 1108430" transform="translate(19.006 11.17)" opacity="0.29">
            <g id="Grupo_1108429" data-name="Grupo 1108429">
              <path id="Trazado_890452" data-name="Trazado 890452" d="M90.391,96.874c.292-1.578.429-3.183.62-4.776l-.25.436c.286-.19,3.083,3.168,3.4,3.526l.25-.948c-1.213.493-2.434.969-3.643,1.473-.675.282-.391,1.4.309,1.119,1.217-.486,2.423-1,3.636-1.5a.577.577,0,0,0,.25-.948c-.772-.869-1.56-1.722-2.387-2.539-.463-.458-1.176-1.415-1.956-1.246-.759.164-.653.992-.713,1.6-.121,1.231-.267,2.46-.305,3.7-.015.445.706.56.789.108Z" transform="translate(-89.602 -91.452)"/>
            </g>
          </g>
        </g>
      </g>
      <g id="Grupo_1108436" data-name="Grupo 1108436" transform="translate(38.722 42.425)">
        <g id="Grupo_1108433" data-name="Grupo 1108433" transform="translate(280.967 120.263)">
          <circle id="Elipse_11951" data-name="Elipse 11951" cx="1.6" cy="1.6" r="1.6" fill="#2d2442"/>
          <circle id="Elipse_11952" data-name="Elipse 11952" cx="1.6" cy="1.6" r="1.6" transform="translate(5.059)" fill="#2d2442"/>
          <circle id="Elipse_11953" data-name="Elipse 11953" cx="1.6" cy="1.6" r="1.6" transform="translate(10.117)" fill="#2d2442"/>
        </g>
        <g id="Grupo_1108434" data-name="Grupo 1108434" transform="translate(287.141)">
          <circle id="Elipse_11954" data-name="Elipse 11954" cx="1.6" cy="1.6" r="1.6" fill="#2d2442"/>
          <circle id="Elipse_11955" data-name="Elipse 11955" cx="1.6" cy="1.6" r="1.6" transform="translate(5.059)" fill="#2d2442"/>
          <circle id="Elipse_11956" data-name="Elipse 11956" cx="1.6" cy="1.6" r="1.6" transform="translate(10.117)" fill="#2d2442"/>
        </g>
        <g id="Grupo_1108435" data-name="Grupo 1108435" transform="translate(0 61.275)">
          <circle id="Elipse_11957" data-name="Elipse 11957" cx="1.6" cy="1.6" r="1.6" fill="#2d2442"/>
          <circle id="Elipse_11958" data-name="Elipse 11958" cx="1.6" cy="1.6" r="1.6" transform="translate(5.059)" fill="#2d2442"/>
          <circle id="Elipse_11959" data-name="Elipse 11959" cx="1.6" cy="1.6" r="1.6" transform="translate(10.117)" fill="#2d2442"/>
        </g>
      </g>
    </g>
  </g>
</svg>
