<svg xmlns="http://www.w3.org/2000/svg" width="400" height="259.642" viewBox="0 0 400 259.642">
  <g id="_1" data-name="1" transform="translate(-112.6 -107.52)">
    <path id="Trazado_889944" data-name="Trazado 889944" d="M506.674,1312.877c0,7.832-90.2,9.394-199.024,9.394s-195.05-1.562-195.05-9.394,88.177-7.58,197-7.58S506.674,1305.067,506.674,1312.877Z" transform="translate(0 -955.109)" fill="#231f20" opacity="0.15"/>
    <g id="Grupo_1108150" data-name="Grupo 1108150" transform="translate(452.491 178.895)">
      <g id="Grupo_1108149" data-name="Grupo 1108149">
        <path id="Trazado_889945" data-name="Trazado 889945" d="M1654.4,589.755a22,22,0,0,0-1.194-7.58l5.558-4.915-3.629-5.857-6.845,2.779a21.609,21.609,0,0,0-6.293-4.525l.436-7.373-6.707-1.585-2.894,6.845a21.436,21.436,0,0,0-7.557,1.286l-4.961-5.6-5.857,3.629,2.848,7.005a21.688,21.688,0,0,0-4.318,6.133l-7.626-.459-1.562,6.707,7.12,3.009a21.308,21.308,0,0,0,1.24,7.235l-5.834,5.168,3.629,5.857,7.235-2.94a21.672,21.672,0,0,0,5.9,4.249l-.459,7.809,6.707,1.562,3.032-7.166a21.332,21.332,0,0,0,7.258-1.148l5.122,5.788,5.857-3.629-2.871-7.074a21.463,21.463,0,0,0,4.433-6.064l7.557.459,1.562-6.707Zm-16.009,8.8a10.893,10.893,0,1,1,3.514-15A10.883,10.883,0,0,1,1638.391,598.552Z" transform="translate(-1601.181 -560.7)" fill="#a9ceea"/>
        <path id="Trazado_889946" data-name="Trazado 889946" d="M1643,595.655a22,22,0,0,0-1.194-7.58l5.558-4.915-3.629-5.857-6.845,2.779a21.609,21.609,0,0,0-6.293-4.525l.437-7.373-6.707-1.585-2.894,6.845a21.432,21.432,0,0,0-7.557,1.286l-4.961-5.6-5.857,3.629,2.848,7.005a21.688,21.688,0,0,0-4.318,6.133l-7.626-.459-1.562,6.707,7.12,3.009a21.308,21.308,0,0,0,1.24,7.235l-5.834,5.168,3.629,5.857,7.235-2.94a21.679,21.679,0,0,0,5.9,4.249l-.459,7.809,6.707,1.585,3.032-7.166a21.332,21.332,0,0,0,7.258-1.148l5.122,5.788,5.857-3.629-2.871-7.074a21.461,21.461,0,0,0,4.433-6.064l7.557.459,1.562-6.707Zm-16.009,8.82a10.893,10.893,0,1,1,3.514-15A10.883,10.883,0,0,1,1626.991,604.475Z" transform="translate(-1592.4 -565.245)" fill="#c9e2f4"/>
        <path id="Trazado_889947" data-name="Trazado 889947" d="M1599.1,644.155l2.274.138.344-1.493Z" transform="translate(-1597.561 -623.943)" fill="#a9ceea"/>
        <path id="Trazado_889948" data-name="Trazado 889948" d="M1731.4,562.055l2.618-1.355-.758,1.792Z" transform="translate(-1699.474 -560.7)" fill="#a9ceea"/>
        <path id="Trazado_889949" data-name="Trazado 889949" d="M1664.3,573.055l2.618-1.355-2.481,1.539Z" transform="translate(-1647.786 -569.173)" fill="#a9ceea"/>
      </g>
      <path id="Trazado_889950" data-name="Trazado 889950" d="M1703.6,811.092l2.619-1.355-1.86-.436Z" transform="translate(-1678.059 -752.2)" fill="#a9ceea"/>
      <path id="Trazado_889951" data-name="Trazado 889951" d="M1835.8,729.993l2.619-1.355-2.251-.138Z" transform="translate(-1779.894 -689.958)" fill="#a9ceea"/>
      <path id="Trazado_889952" data-name="Trazado 889952" d="M1770.7,801.016l2.619-1.355-.161-.161Z" transform="translate(-1729.746 -744.651)" fill="#a9ceea"/>
    </g>
    <g id="Grupo_1108162" data-name="Grupo 1108162" transform="translate(119.583 270.968)">
      <path id="Trazado_889953" data-name="Trazado 889953" d="M185.308,982.446a23.818,23.818,0,0,1,3.032-6.2c1.975-2.6,1.24-10.175-2.113-10.336-3.353-.184-6.293-.781-7.97-3.285s-4.686-2.848-6.133-1.286c-1.47,1.562-3.652,4.663-8.177,4.571s-5.191,4.571-3.882,8.613c1.011,3.147,2.435,6.684,3.009,8.131-11.737,4.869-20.075,17.089-20.075,31.4,0,18.582,7.166,31.077,31.926,31.077,27.149,0,30.962-12.472,30.962-31.077C205.865,999.534,197.3,987.177,185.308,982.446Z" transform="translate(-143 -960.394)" fill="#55cdde"/>
      <g id="Grupo_1108151" data-name="Grupo 1108151" transform="translate(6.179 0.003)">
        <path id="Trazado_889954" data-name="Trazado 889954" d="M206.03,982.457a23.818,23.818,0,0,1,3.032-6.2c1.975-2.6,1.24-10.175-2.113-10.336-3.353-.184-6.293-.781-7.97-3.285-1.585-2.343-4.318-2.8-5.857-1.539a4.558,4.558,0,0,1,2.94,2.113c1.585,2.435,4.318,3.032,7.488,3.193,3.147.161,3.836,7.557,2,10.083a24.125,24.125,0,0,0-2.848,6.041c11.278,4.617,19.317,16.652,19.317,30.8,0,18.122-3.583,30.273-29.078,30.273-11.071,0-18.4-2.756-23.038-7.6,4.823,5.788,12.931,9.141,25.725,9.141,27.149,0,30.962-12.472,30.962-31.077C226.587,999.545,218.019,987.188,206.03,982.457Z" transform="translate(-169.9 -960.409)" fill="#29a5bd"/>
      </g>
      <path id="Trazado_889955" data-name="Trazado 889955" d="M246.683,1045.274H222.819a.922.922,0,0,1-.919-.919v-2.136a.921.921,0,0,1,.919-.919h23.864a.921.921,0,0,1,.919.919v2.136A.922.922,0,0,1,246.683,1045.274Z" transform="translate(-203.778 -1022.717)" fill="#fba700"/>
      <rect id="Rectángulo_404973" data-name="Rectángulo 404973" width="2.274" height="3.974" transform="translate(37.026 18.583)" fill="#ffd415"/>
      <g id="Grupo_1108161" data-name="Grupo 1108161" transform="translate(23.447 32.479)">
        <g id="Grupo_1108160" data-name="Grupo 1108160">
          <g id="Grupo_1108155" data-name="Grupo 1108155" transform="translate(0 3.046)">
            <g id="Grupo_1108154" data-name="Grupo 1108154">
              <g id="Grupo_1108153" data-name="Grupo 1108153">
                <g id="Grupo_1108152" data-name="Grupo 1108152">
                  <path id="Trazado_889956" data-name="Trazado 889956" d="M246.258,1137.418a13.092,13.092,0,0,0,6.27,1.585c2.572-.069,3.9-1.332,3.859-3.17-.046-1.746-1.24-2.733-4.272-3.859-4.18-1.516-6.937-4.02-7.028-8.131-.138-4.823,3.307-8.59,9.165-8.774a13.55,13.55,0,0,1,6.385,1.24l-1.125,5.191a10.808,10.808,0,0,0-5.237-1.194c-2.435.069-3.583,1.355-3.537,2.825.046,1.792,1.47,2.55,4.709,3.836,4.433,1.723,6.569,4.249,6.661,8.223.115,4.731-2.963,8.843-9.785,9.05a14.328,14.328,0,0,1-7.074-1.516Z" transform="translate(-245.083 -1115.061)" fill="#155068"/>
                </g>
              </g>
            </g>
          </g>
          <g id="Grupo_1108157" data-name="Grupo 1108157" transform="translate(6.596 28.849)">
            <g id="Grupo_1108156" data-name="Grupo 1108156">
              <rect id="Rectángulo_404974" data-name="Rectángulo 404974" width="4.226" height="6.569" fill="#155068"/>
            </g>
          </g>
          <g id="Grupo_1108159" data-name="Grupo 1108159" transform="translate(6.596)">
            <g id="Grupo_1108158" data-name="Grupo 1108158">
              <rect id="Rectángulo_404975" data-name="Rectángulo 404975" width="4.226" height="6.11" fill="#155068"/>
            </g>
          </g>
        </g>
      </g>
      <path id="Trazado_889957" data-name="Trazado 889957" d="M258.511,1128.652c-.115-3.974-2.228-6.5-6.661-8.223-3.239-1.286-4.663-2.044-4.709-3.836-.046-1.47,1.1-2.756,3.537-2.825a10.548,10.548,0,0,1,5.237,1.194l1.125-5.191a13.117,13.117,0,0,0-4.709-1.194V1105.5h-4.226v3.4a8.223,8.223,0,0,0-6.615,8.43c.115,4.111,2.871,6.615,7.028,8.131,3.009,1.125,4.226,2.09,4.272,3.859.046,1.838-1.286,3.1-3.859,3.17a12.834,12.834,0,0,1-6.27-1.585l-1.011,5.306a14.381,14.381,0,0,0,6.431,1.516v3.216h4.226v-3.767A8.283,8.283,0,0,0,258.511,1128.652Z" transform="translate(-218.867 -1072.171)" fill="#1e6485"/>
      <path id="Trazado_889958" data-name="Trazado 889958" d="M242.6,1045.274h2.136l.6-3.974H242Z" transform="translate(-219.261 -1022.717)" fill="#e09003"/>
    </g>
    <g id="Grupo_1108163" data-name="Grupo 1108163" transform="translate(424.906 298.003)">
      <path id="Trazado_889959" data-name="Trazado 889959" d="M1486.8,1134.465h65.553V1078.1h-13.046l-6.018,4.41H1486.8Z" transform="translate(-1483.47 -1078.1)" fill="#f3b344"/>
      <rect id="Rectángulo_404976" data-name="Rectángulo 404976" width="61.12" height="3.101" transform="translate(66.585 12.386) rotate(180)" fill="#f1f2f2"/>
      <path id="Trazado_889960" data-name="Trazado 889960" d="M1474.3,1175.908h69.549a2,2,0,0,0,2-2V1133.9a2,2,0,0,0-2-2H1474.3a2,2,0,0,0-2,2v40.011A2.015,2.015,0,0,0,1474.3,1175.908Z" transform="translate(-1472.3 -1119.543)" fill="#d89030"/>
      <path id="Trazado_889961" data-name="Trazado 889961" d="M1484.306,1173.335h67.413a1.9,1.9,0,0,0,1.907-1.906v-37.623a1.9,1.9,0,0,0-1.907-1.906h-67.413a1.9,1.9,0,0,0-1.906,1.906v37.623A1.932,1.932,0,0,0,1484.306,1173.335Z" transform="translate(-1480.08 -1119.543)" fill="#f3b344"/>
      <path id="Trazado_889962" data-name="Trazado 889962" d="M1642.02,1145c-4.318-3.79-6.11-8.82-8.82-13h34.706a1.9,1.9,0,0,1,1.906,1.906v27.126C1664.116,1158.391,1651.9,1153.636,1642.02,1145Z" transform="translate(-1596.243 -1119.62)" fill="#f9be69"/>
    </g>
    <g id="Grupo_1108167" data-name="Grupo 1108167" transform="translate(179.912 116.143)">
      <g id="Grupo_1108166" data-name="Grupo 1108166" transform="translate(6.27 5.861)">
        <path id="Trazado_889963" data-name="Trazado 889963" d="M464.008,423.016l.666.023a1.575,1.575,0,0,0,1.654-1.516h0a.687.687,0,0,0-.643-.712l-2.5-.115a.653.653,0,0,0-.689.643h0A1.58,1.58,0,0,0,464.008,423.016Z" transform="translate(-455.707 -396.11)" fill="#46474b"/>
        <path id="Trazado_889964" data-name="Trazado 889964" d="M453.543,415.2l7.1.3a.625.625,0,0,1,.574.62l-.023.781a.625.625,0,0,1-.62.574l-7.1-.3a.625.625,0,0,1-.574-.62l.023-.781A.625.625,0,0,1,453.543,415.2Z" transform="translate(-448.319 -391.878)" fill="#028dc4"/>
        <path id="Trazado_889965" data-name="Trazado 889965" d="M453.543,414.6l7.1.3a.625.625,0,0,1,.574.62l-.023.781a.625.625,0,0,1-.62.574l-7.1-.3a.625.625,0,0,1-.574-.62l.023-.781A.592.592,0,0,1,453.543,414.6Z" transform="translate(-448.319 -391.411)" fill="#00b4e5"/>
        <path id="Trazado_889966" data-name="Trazado 889966" d="M453,415.611V415.5a.958.958,0,0,1,.965-.9l2.481.115c.046.069.092.161.138.23a1.629,1.629,0,0,0-.345,1.723l-2.366-.092A.909.909,0,0,1,453,415.611Z" transform="translate(-448.393 -391.416)" fill="#018bd6" opacity="0.79"/>
        <path id="Trazado_889967" data-name="Trazado 889967" d="M432.967,323.11c.23-5.444,4.548-9.67,9.67-9.44,5.1.207,9.05,4.8,8.82,10.221a10.061,10.061,0,0,1-3.9,7.626,3.369,3.369,0,0,0-1.309,2.55l-.069,1.539-8.82-.367.069-1.447a3.345,3.345,0,0,0-1.1-2.664A10,10,0,0,1,432.967,323.11Z" transform="translate(-432.957 -313.661)" fill="#ffd203"/>
        <g id="Grupo_1108165" data-name="Grupo 1108165" transform="translate(5.131 13.636)" opacity="0.85">
          <g id="Grupo_1108164" data-name="Grupo 1108164">
            <path id="Trazado_889968" data-name="Trazado 889968" d="M460.168,375.986l-1.929-.069-.23,5.168-.368-.023.23-5.168-1.723-.046-.046-.046a1.989,1.989,0,0,1-.8-1.378,1.312,1.312,0,0,1,.666-1.057,1.431,1.431,0,0,1,1.309-.276,1.909,1.909,0,0,1,1.034,1.057l-.046,1.4,1.929.069.069-1.677.046-.046a2,2,0,0,1,1.355-.712h0a1.376,1.376,0,0,1,1.08.712,1.46,1.46,0,0,1,.3,1.332,1.561,1.561,0,0,1-.9.827l-1.608-.046-.184,5.191-.368-.023Zm-2.228-1.723a1.5,1.5,0,0,0-.781-.8,1.2,1.2,0,0,0-.988.23.932.932,0,0,0-.505.758,1.631,1.631,0,0,0,.62,1.057l1.608.046Zm4.732.85a1.217,1.217,0,0,0-.253-1.011,1.09,1.09,0,0,0-.8-.551h0a1.579,1.579,0,0,0-1.034.528l-.046,1.562,1.516.046A1.167,1.167,0,0,0,462.671,375.113Z" transform="translate(-455.298 -373.03)" fill="#923509"/>
          </g>
        </g>
        <path id="Trazado_889969" data-name="Trazado 889969" d="M432.967,325.63v-.069a.505.505,0,0,1,.023-.184v-.046c0-.069.023-.138.023-.23v-.046c0-.069.023-.115.023-.184V324.8c0-.069.023-.138.023-.207v-.023c0-.069.023-.138.023-.184a.084.084,0,0,1,.023-.069.539.539,0,0,1,.046-.184v-.046c.023-.069.023-.138.046-.207a.084.084,0,0,1,.023-.069c.023-.046.023-.115.046-.161a.085.085,0,0,1,.023-.069.669.669,0,0,0,.046-.207c0-.023,0-.023.023-.046.023-.046.023-.115.046-.161,0-.023.023-.046.023-.069.023-.046.023-.115.046-.161,0-.023,0-.023.023-.046a1.579,1.579,0,0,1,.069-.184c0-.023.023-.046.023-.069.023-.046.023-.092.046-.138,0-.023.023-.046.023-.069.023-.069.046-.115.069-.184,0-.023.023-.046.023-.069a.326.326,0,0,0,.046-.138c0-.023.023-.046.023-.069l.069-.138c.023-.023.023-.069.046-.092l.069-.138c.023-.023.023-.046.046-.092s.046-.069.046-.115c.023-.023.023-.046.046-.069.023-.046.069-.115.092-.161.023-.023.023-.046.046-.092a82888181127.692,82888181127.692,0,0,0,.092-.184c.023-.023.046-.069.069-.092a.481.481,0,0,1,.092-.138.119.119,0,0,0,.046-.092c.023-.023.046-.069.069-.092s.023-.046.046-.069a.97.97,0,0,0,.115-.161c.023-.023.023-.046.046-.069s.046-.069.069-.092.023-.046.046-.069.046-.069.069-.092l.046-.046c.046-.069.092-.115.138-.184l.046-.046c.023-.023.046-.069.092-.092l.046-.046c.069-.069.115-.138.184-.207h0l.092-.092c0-.023.023-.023.023-.046a4.248,4.248,0,0,1,.322-.322l.023-.023c.046-.023.069-.069.115-.092l.023-.023a4,4,0,0,1,.345-.3.023.023,0,0,0,.023-.023c.115-.092.23-.184.367-.276h.023a4.331,4.331,0,0,1,.528-.368h0c.138-.092.276-.161.413-.253h0a4.507,4.507,0,0,1,.574-.3c-2.274,2.6-5.329,8.384-2.871,13.781,3.285,7.166,9.165,5.26,10.956,4.479a3.023,3.023,0,0,0-.3,1.286l-.069,1.539-8.82-.367.069-1.447a3.391,3.391,0,0,0-.023-.482c-.023-.115-.023-.253-.046-.367,0-.023-.023-.069-.023-.092-.023-.069-.023-.115-.046-.184a1.3,1.3,0,0,0-.092-.276,3.236,3.236,0,0,0-.39-.735c-.046-.046-.069-.092-.115-.138s-.069-.092-.115-.138l-.069-.069a1.485,1.485,0,0,0-.207-.184,5.911,5.911,0,0,1-.758-.758l-.092-.092c-.069-.069-.115-.138-.184-.207a1.267,1.267,0,0,1-.161-.207c-.092-.115-.161-.207-.253-.322-.069-.115-.161-.23-.23-.345-.046-.069-.092-.161-.138-.23a12.332,12.332,0,0,1-.643-1.217c-.046-.138-.115-.253-.161-.39-.023-.092-.069-.184-.092-.253-.023-.092-.069-.184-.092-.276-.069-.23-.138-.436-.207-.666a10.16,10.16,0,0,1-.322-3.032C432.967,325.767,432.967,325.7,432.967,325.63Z" transform="translate(-432.957 -316.387)" fill="#ffb400" opacity="0.49"/>
        <path id="Trazado_889970" data-name="Trazado 889970" d="M449.816,409.526l8.361.344a.972.972,0,0,0,1.011-.919h0a.972.972,0,0,0-.919-1.011l-8.361-.345a.972.972,0,0,0-1.011.919h0A.972.972,0,0,0,449.816,409.526Z" transform="translate(-445.235 -386.02)" fill="#028dc4"/>
        <path id="Trazado_889971" data-name="Trazado 889971" d="M449.351,408.924l9.119.391a.556.556,0,0,0,.6-.551l.023-.781a.556.556,0,0,0-.551-.6L449.42,407a.556.556,0,0,0-.6.551l-.023.781A.6.6,0,0,0,449.351,408.924Z" transform="translate(-445.161 -385.556)" fill="#00b4e5"/>
        <path id="Trazado_889972" data-name="Trazado 889972" d="M470.808,332.731c1.355,2.021,3.813,2.733,5.535,1.608,1.7-1.148,2-3.7.666-5.719-1.355-2.021-3.813-2.733-5.535-1.608C469.774,328.137,469.476,330.709,470.808,332.731Z" transform="translate(-461.473 -323.534)" fill="#ffe511"/>
        <path id="Trazado_889973" data-name="Trazado 889973" d="M486.207,331.555c.3.436.758.643,1.034.436.276-.184.276-.689,0-1.125-.3-.436-.758-.643-1.034-.436C485.931,330.613,485.931,331.119,486.207,331.555Z" transform="translate(-473.817 -326.516)" fill="#fffbd6"/>
        <path id="Trazado_889974" data-name="Trazado 889974" d="M495.935,341.29c.069.115.207.161.276.092.092-.046.092-.184.023-.3s-.207-.161-.276-.092C495.866,341.037,495.866,341.175,495.935,341.29Z" transform="translate(-481.432 -334.689)" fill="#fffbd6"/>
        <path id="Trazado_889975" data-name="Trazado 889975" d="M449.985,407.1l3.445.138c-.276.322-.574.942.092,1.929L449.916,409a.972.972,0,0,1-.919-1.011h0A.934.934,0,0,1,449.985,407.1Z" transform="translate(-445.312 -385.635)" fill="#018bd6" opacity="0.79"/>
      </g>
      <rect id="Rectángulo_404977" data-name="Rectángulo 404977" width="3.813" height="1.034" transform="matrix(0.043, -0.999, 0.999, 0.043, 15.516, 3.809)" fill="#ffd011"/>
      <rect id="Rectángulo_404978" data-name="Rectángulo 404978" width="1.034" height="3.79" transform="matrix(0.043, -0.999, 0.999, 0.043, 0, 19.537)" fill="#ffd011"/>
      <path id="Trazado_889976" data-name="Trazado 889976" d="M413.858,309.2l-.758.712,2.572,2.8.758-.712Z" transform="translate(-411.391 -304.363)" fill="#ffd011"/>
      <rect id="Rectángulo_404979" data-name="Rectángulo 404979" width="1.034" height="3.79" transform="translate(25.961 20.735) rotate(-86.788)" fill="#ffd011"/>
      <path id="Trazado_889977" data-name="Trazado 889977" d="M527.625,314.9l.689.758-2.825,2.549-.689-.781Z" transform="translate(-497.435 -308.754)" fill="#ffd011"/>
    </g>
    <rect id="Rectángulo_404980" data-name="Rectángulo 404980" width="41.573" height="15.458" transform="translate(314.816 107.589)" fill="#d5dbeb"/>
    <path id="Trazado_889978" data-name="Trazado 889978" d="M1163.921,267.023H1152V256.572a5.975,5.975,0,0,1,5.972-5.972h0a5.975,5.975,0,0,1,5.972,5.972v10.451Z" transform="translate(-800.663 -143.08)" fill="#8f94c1"/>
    <path id="Trazado_889979" data-name="Trazado 889979" d="M908.139,345.761H848.673A5.686,5.686,0,0,1,843,340.087V260.616a9.7,9.7,0,0,1,9.716-9.716h51.7a9.5,9.5,0,0,1,9.509,9.509V339.95A5.783,5.783,0,0,1,908.139,345.761Z" transform="translate(-562.637 -143.311)" fill="#d5dbeb"/>
    <g id="Grupo_1108177" data-name="Grupo 1108177" transform="translate(287.53 128.445)">
      <path id="Trazado_889980" data-name="Trazado 889980" d="M886.841,460.759H874.714a.412.412,0,0,1-.413-.413v-1.332a.412.412,0,0,1,.413-.414h12.127a.412.412,0,0,1,.413.414v1.332A.427.427,0,0,1,886.841,460.759Z" transform="translate(-874.277 -431.75)" fill="#a0a3cb"/>
      <g id="Grupo_1108168" data-name="Grupo 1108168" transform="translate(0.023 31.169)">
        <path id="Trazado_889981" data-name="Trazado 889981" d="M889.046,479.559H874.713a.412.412,0,0,1-.413-.413v-1.332a.412.412,0,0,1,.413-.413h14.332a.412.412,0,0,1,.413.413v1.332A.412.412,0,0,1,889.046,479.559Z" transform="translate(-874.3 -477.4)" fill="#a0a3cb"/>
        <path id="Trazado_889982" data-name="Trazado 889982" d="M964.646,479.559H950.313a.412.412,0,0,1-.413-.413v-1.332a.412.412,0,0,1,.413-.413h14.332a.412.412,0,0,1,.413.413v1.332A.427.427,0,0,1,964.646,479.559Z" transform="translate(-932.536 -477.4)" fill="#a0a3cb"/>
        <path id="Trazado_889983" data-name="Trazado 889983" d="M1043.89,479.559h-18.076a.412.412,0,0,1-.413-.413v-1.332a.412.412,0,0,1,.413-.413h18.076a.412.412,0,0,1,.413.413v1.332A.412.412,0,0,1,1043.89,479.559Z" transform="translate(-990.694 -477.4)" fill="#a0a3cb"/>
      </g>
      <g id="Grupo_1108169" data-name="Grupo 1108169" transform="translate(0.023 4.456)">
        <path id="Trazado_889984" data-name="Trazado 889984" d="M895.569,363.259H874.714a.412.412,0,0,1-.413-.413v-1.332a.412.412,0,0,1,.413-.413h20.856a.412.412,0,0,1,.413.413v1.332A.427.427,0,0,1,895.569,363.259Z" transform="translate(-874.3 -361.1)" fill="#a0a3cb"/>
        <path id="Trazado_889985" data-name="Trazado 889985" d="M986.119,363.336H980.79a.387.387,0,0,1-.391-.391v-1.332a.412.412,0,0,1,.413-.413h5.329a.387.387,0,0,1,.39.391v1.332A.444.444,0,0,1,986.119,363.336Z" transform="translate(-956.03 -361.177)" fill="#a0a3cb"/>
      </g>
      <path id="Trazado_889986" data-name="Trazado 889986" d="M947.185,460.759h-7.672a.412.412,0,0,1-.413-.413v-1.332a.412.412,0,0,1,.413-.414h7.672a.412.412,0,0,1,.413.414v1.332A.444.444,0,0,1,947.185,460.759Z" transform="translate(-924.193 -431.75)" fill="#a0a3cb"/>
      <g id="Grupo_1108170" data-name="Grupo 1108170" transform="translate(0 48.326)">
        <path id="Trazado_889987" data-name="Trazado 889987" d="M887.2,554.259H874.613a.412.412,0,0,1-.413-.413v-1.332a.412.412,0,0,1,.413-.414H887.2a.412.412,0,0,1,.413.414v1.332A.412.412,0,0,1,887.2,554.259Z" transform="translate(-874.2 -552.1)" fill="#a0a3cb"/>
        <path id="Trazado_889988" data-name="Trazado 889988" d="M944.913,554.259h16.56a.412.412,0,0,0,.413-.413v-1.332a.412.412,0,0,0-.413-.414h-16.56a.412.412,0,0,0-.413.414v1.332A.444.444,0,0,0,944.913,554.259Z" transform="translate(-928.353 -552.1)" fill="#a0a3cb"/>
        <path id="Trazado_889989" data-name="Trazado 889989" d="M1030.013,554.259h9.142a.412.412,0,0,0,.414-.413v-1.332a.412.412,0,0,0-.414-.414h-9.142a.412.412,0,0,0-.413.414v1.332A.427.427,0,0,0,1030.013,554.259Z" transform="translate(-993.907 -552.1)" fill="#a0a3cb"/>
      </g>
      <g id="Grupo_1108171" data-name="Grupo 1108171" transform="translate(0 43.939)">
        <path id="Trazado_889990" data-name="Trazado 889990" d="M883.181,535.159h-8.567a.412.412,0,0,1-.413-.413v-1.332a.412.412,0,0,1,.413-.414h8.567a.412.412,0,0,1,.414.414v1.332A.412.412,0,0,1,883.181,535.159Z" transform="translate(-874.2 -533)" fill="#a0a3cb"/>
        <path id="Trazado_889991" data-name="Trazado 889991" d="M942.405,535.159H927.613a.412.412,0,0,1-.413-.413v-1.332a.412.412,0,0,1,.413-.414h14.792a.412.412,0,0,1,.413.414v1.332A.412.412,0,0,1,942.405,535.159Z" transform="translate(-915.027 -533)" fill="#a0a3cb"/>
        <path id="Trazado_889992" data-name="Trazado 889992" d="M1014.724,535.159h-10.91a.412.412,0,0,1-.413-.413v-1.332a.412.412,0,0,1,.413-.414h10.91a.412.412,0,0,1,.413.414v1.332A.427.427,0,0,1,1014.724,535.159Z" transform="translate(-973.724 -533)" fill="#a0a3cb"/>
        <path id="Trazado_889993" data-name="Trazado 889993" d="M1074.322,535.159h-4.731a.387.387,0,0,1-.391-.391v-1.378a.387.387,0,0,1,.391-.391h4.731a.387.387,0,0,1,.391.391v1.378A.4.4,0,0,1,1074.322,535.159Z" transform="translate(-1024.411 -533)" fill="#a0a3cb"/>
      </g>
      <g id="Grupo_1108172" data-name="Grupo 1108172" transform="translate(0.023 35.05)">
        <path id="Trazado_889994" data-name="Trazado 889994" d="M883.763,496.459h-9.05a.412.412,0,0,1-.413-.413v-1.332a.412.412,0,0,1,.413-.413h9.05a.412.412,0,0,1,.413.413v1.332A.444.444,0,0,1,883.763,496.459Z" transform="translate(-874.3 -494.3)" fill="#a0a3cb"/>
        <path id="Trazado_889995" data-name="Trazado 889995" d="M972.714,496.459H927.6c-.436,0-.8-.482-.8-1.08h0c0-.6.345-1.08.8-1.08h45.11c.436,0,.8.482.8,1.08h0C973.518,495.977,973.174,496.459,972.714,496.459Z" transform="translate(-914.741 -494.3)" fill="#a0a3cb"/>
      </g>
      <g id="Grupo_1108173" data-name="Grupo 1108173" transform="translate(0.023 8.912)">
        <path id="Trazado_889996" data-name="Trazado 889996" d="M885.578,382.659H874.714a.412.412,0,0,1-.413-.413v-1.332a.412.412,0,0,1,.413-.413h10.864a.412.412,0,0,1,.413.413v1.332A.412.412,0,0,1,885.578,382.659Z" transform="translate(-874.3 -380.5)" fill="#a0a3cb"/>
        <path id="Trazado_889997" data-name="Trazado 889997" d="M1018.278,382.659h-10.864a.412.412,0,0,1-.413-.413v-1.332a.412.412,0,0,1,.413-.413h10.864a.412.412,0,0,1,.413.413v1.332A.412.412,0,0,1,1018.278,382.659Z" transform="translate(-976.521 -380.5)" fill="#a0a3cb"/>
        <path id="Trazado_889998" data-name="Trazado 889998" d="M948.962,382.659H936.513a.412.412,0,0,1-.413-.413v-1.332a.412.412,0,0,1,.413-.413h12.449a.412.412,0,0,1,.413.413v1.332A.444.444,0,0,1,948.962,382.659Z" transform="translate(-921.905 -380.5)" fill="#a0a3cb"/>
        <path id="Trazado_889999" data-name="Trazado 889999" d="M1071.922,382.659h-4.709a.412.412,0,0,1-.413-.413v-1.332a.412.412,0,0,1,.413-.413h4.709a.412.412,0,0,1,.413.413v1.332A.412.412,0,0,1,1071.922,382.659Z" transform="translate(-1022.585 -380.5)" fill="#a0a3cb"/>
      </g>
      <g id="Grupo_1108174" data-name="Grupo 1108174" transform="translate(0.023 22.394)">
        <path id="Trazado_890000" data-name="Trazado 890000" d="M890.539,441.359H874.713a.412.412,0,0,1-.413-.413v-1.332a.412.412,0,0,1,.413-.413h15.825a.412.412,0,0,1,.413.413v1.332A.426.426,0,0,1,890.539,441.359Z" transform="translate(-874.3 -439.2)" fill="#a0a3cb"/>
        <path id="Trazado_890001" data-name="Trazado 890001" d="M1008.468,441.436h-29.4a.363.363,0,0,1-.367-.367v-1.4a.363.363,0,0,1,.367-.367h29.4a.363.363,0,0,1,.368.367v1.4A.363.363,0,0,1,1008.468,441.436Z" transform="translate(-954.721 -439.277)" fill="#a0a3cb"/>
        <path id="Trazado_890002" data-name="Trazado 890002" d="M959.922,441.359h-4.709a.412.412,0,0,1-.413-.413v-1.332a.412.412,0,0,1,.413-.413h4.709a.412.412,0,0,1,.413.413v1.332A.426.426,0,0,1,959.922,441.359Z" transform="translate(-936.31 -439.2)" fill="#a0a3cb"/>
      </g>
      <g id="Grupo_1108175" data-name="Grupo 1108175" transform="translate(0.023 17.962)">
        <path id="Trazado_890003" data-name="Trazado 890003" d="M886.841,422.059H874.714a.412.412,0,0,1-.413-.413v-1.332a.412.412,0,0,1,.413-.413h12.127a.412.412,0,0,1,.413.413v1.332A.427.427,0,0,1,886.841,422.059Z" transform="translate(-874.3 -419.9)" fill="#a0a3cb"/>
        <path id="Trazado_890004" data-name="Trazado 890004" d="M1036.741,422.059h-12.127a.412.412,0,0,1-.413-.413v-1.332a.412.412,0,0,1,.413-.413h12.127a.412.412,0,0,1,.414.413v1.332A.412.412,0,0,1,1036.741,422.059Z" transform="translate(-989.77 -419.9)" fill="#a0a3cb"/>
        <path id="Trazado_890005" data-name="Trazado 890005" d="M957.5,422.059H939.813a.412.412,0,0,1-.413-.413v-1.332a.412.412,0,0,1,.413-.413H957.5a.412.412,0,0,1,.413.413v1.332A.427.427,0,0,1,957.5,422.059Z" transform="translate(-924.447 -419.9)" fill="#a0a3cb"/>
        <path id="Trazado_890006" data-name="Trazado 890006" d="M1096.1,422.059h-4.387a.412.412,0,0,1-.413-.413v-1.332a.412.412,0,0,1,.413-.413h4.387a.412.412,0,0,1,.414.413v1.332A.427.427,0,0,1,1096.1,422.059Z" transform="translate(-1041.458 -419.9)" fill="#a0a3cb"/>
      </g>
      <g id="Grupo_1108176" data-name="Grupo 1108176" transform="translate(0 0)">
        <path id="Trazado_890007" data-name="Trazado 890007" d="M887.752,343.859H874.613a.412.412,0,0,1-.413-.413v-1.332a.412.412,0,0,1,.413-.413h13.138a.412.412,0,0,1,.413.413v1.332A.412.412,0,0,1,887.752,343.859Z" transform="translate(-874.2 -341.7)" fill="#a0a3cb"/>
        <path id="Trazado_890008" data-name="Trazado 890008" d="M981.921,343.859H950.913a.412.412,0,0,1-.413-.413v-1.332a.412.412,0,0,1,.413-.413h31.008a.412.412,0,0,1,.413.413v1.332A.412.412,0,0,1,981.921,343.859Z" transform="translate(-932.975 -341.7)" fill="#a0a3cb"/>
      </g>
    </g>
    <g id="Grupo_1108178" data-name="Grupo 1108178" transform="translate(318.078 184.961)">
      <path id="Trazado_890009" data-name="Trazado 890009" d="M1017.444,592.988a6.321,6.321,0,0,1-.23,1.608h.023a6.3,6.3,0,0,0,.368-1.608c.046-.482.046-.942.046-1.424a15.887,15.887,0,0,1,1.631-1.4,5.272,5.272,0,0,1,.436-.322.886.886,0,0,1,.459-.184.474.474,0,0,1,.391.23,1.882,1.882,0,0,1,.276.459,4.135,4.135,0,0,1,.436,2.09l-.046.712.276-.666.505-1.24.253-.62c.046-.115.092-.207.115-.207.023-.023.092-.023.184.023a3.648,3.648,0,0,1,1.011.758,3.833,3.833,0,0,1,.712,1.08.659.659,0,0,0,.253.321.443.443,0,0,0,.23.069c.092,0,.161-.023.207-.023.23-.069.436-.161.643-.23l1.263-.459c.827-.322,1.677-.62,2.5-.965v-.023c-.873.253-1.723.505-2.572.758l-1.286.413c-.207.069-.436.138-.62.207-.092.023-.161.023-.184-.023a.532.532,0,0,1-.138-.207,3.985,3.985,0,0,0-1.906-1.975,2.134,2.134,0,0,0-.207-.069.355.355,0,0,0-.253.069.513.513,0,0,0-.207.345l-.23.62-.276.712a4.487,4.487,0,0,0-.482-1.608,2.938,2.938,0,0,0-.322-.482.728.728,0,0,0-.528-.3.922.922,0,0,0-.551.23c-.138.115-.3.23-.436.345-.528.436-1.057.9-1.539,1.378v-.092c0-.253.023-.505.023-.758a1.755,1.755,0,0,0,.39-.528,1.959,1.959,0,0,0,.184-.9,5.921,5.921,0,0,0-.092-.9v-.023h-.023a.933.933,0,0,0-.207.115l-.069-.046a.138.138,0,0,0,.023.092c-.023.023-.046.069-.069.092a1.983,1.983,0,0,0-.161.391,4.99,4.99,0,0,0-.161.8c-.023.253-.046.482-.046.735l-.115.115-.666.6-.482.413a4.441,4.441,0,0,1,.023-.551v-1.86c-.023-.62-.046-1.24-.115-1.883h-.023c-.069,1.24-.115,2.481-.161,3.721v.8c-.207.161-.39.322-.6.459a4.067,4.067,0,0,1-.505.367,8.916,8.916,0,0,0,.092-1.562c0-.6-.023-1.194-.046-1.792-.046-.6-.092-1.171-.184-1.769h-.023c.046,1.171.069,2.366.023,3.537a15.318,15.318,0,0,1-.161,1.769,3.506,3.506,0,0,1-.735.3v.023a2.189,2.189,0,0,0,.689-.207l-.138.758a3.448,3.448,0,0,1-.253.827.937.937,0,0,1-.276.322,1.1,1.1,0,0,1-.413.138c-.3.046-.6.069-.873.092-.6.046-1.171.092-1.769.115-1.171.046-2.366.046-3.537.023v.023c.6.092,1.171.115,1.769.161.6.023,1.194.046,1.792.046s1.194-.046,1.792-.069l.436-.023c.138-.023.3-.023.459-.046a1.326,1.326,0,0,0,.528-.184,1.17,1.17,0,0,0,.39-.436,4.1,4.1,0,0,0,.276-.919,6.051,6.051,0,0,0,.138-.9v-.069c.207-.115.413-.253.62-.367.161-.115.345-.23.505-.345,0,.9,0,1.769.023,2.664h.023a16.987,16.987,0,0,0,.184-1.86c.023-.345.046-.666.046-1.011a6.9,6.9,0,0,0,.643-.505c.207-.161.39-.344.6-.505v.827a17.1,17.1,0,0,0-1.332,1.562l.023.023c.413-.505.85-1.011,1.309-1.47A7.9,7.9,0,0,1,1017.444,592.988Zm.482-3.974c0-.023.023-.023,0,0,0,.046.023.115.023.184a1.652,1.652,0,0,1-.138.758.57.57,0,0,1-.092.161,1.774,1.774,0,0,1,.046-.344A6.226,6.226,0,0,1,1017.927,589.015Z" transform="translate(-1007.2 -587.2)" fill="#a0a3cb"/>
      <path id="Trazado_890010" data-name="Trazado 890010" d="M1061.011,610.3a11.922,11.922,0,0,1-1.7.505,14.731,14.731,0,0,1-1.746.367c-1.171.207-2.343.39-3.537.574l-1.769.322c-.6.115-1.171.207-1.769.322l-1.746.367c-.574.138-1.171.253-1.746.413v.023l7.074-1.148c1.171-.207,2.366-.391,3.537-.643a15.894,15.894,0,0,0,3.4-1.1Z" transform="translate(-1037.859 -604.994)" fill="#a0a3cb"/>
    </g>
    <g id="Grupo_1108180" data-name="Grupo 1108180" transform="translate(292.811 184.507)">
      <path id="Trazado_890011" data-name="Trazado 890011" d="M921.977,642.88l-3.055-1.746a.07.07,0,0,0-.092,0l-3.193,1.746c-.069.023-.138,0-.138-.092v-10.5a.1.1,0,0,1,.092-.092H922a.1.1,0,0,1,.092.092v10.5C922.115,642.857,922.046,642.9,921.977,642.88Z" transform="translate(-911.295 -621.403)" fill="#ff6c3c"/>
      <path id="Trazado_890012" data-name="Trazado 890012" d="M922.1,632.2h-6.408a.1.1,0,0,0-.092.092v4.732c1.148-.276,3.79-.735,4.915.3,1.24,1.126,1.516,4.548,1.562,5.558.046.023.115-.023.115-.092v-10.5A.1.1,0,0,0,922.1,632.2Z" transform="translate(-911.372 -621.403)" fill="#ef542b"/>
      <path id="Trazado_890013" data-name="Trazado 890013" d="M911.2,592.759l1.011-1.769a.281.281,0,0,0-.092-.367l-1.723-.988a.253.253,0,0,1-.138-.23V587.5a.265.265,0,0,0-.276-.276h-1.975a.253.253,0,0,1-.23-.138l-.942-1.654a.248.248,0,0,0-.368-.092l-1.608.919a.293.293,0,0,1-.276,0l-1.608-.919a.281.281,0,0,0-.367.092l-.942,1.654a.253.253,0,0,1-.23.138h-1.975a.265.265,0,0,0-.276.276v1.906a.253.253,0,0,1-.138.23l-1.723.988a.248.248,0,0,0-.092.367l1.011,1.769a.293.293,0,0,1,0,.276L897.24,594.8a.282.282,0,0,0,.092.368l1.723.988a.253.253,0,0,1,.138.23v1.906a.265.265,0,0,0,.276.276h1.975a.252.252,0,0,1,.23.138l.942,1.654a.248.248,0,0,0,.367.092l1.608-.919a.293.293,0,0,1,.276,0l1.608.919a.282.282,0,0,0,.368-.092l.942-1.654a.253.253,0,0,1,.23-.138h1.975a.265.265,0,0,0,.276-.276v-1.906a.252.252,0,0,1,.138-.23l1.723-.988a.248.248,0,0,0,.092-.368l-1.011-1.769A.291.291,0,0,1,911.2,592.759Z" transform="translate(-897.192 -585.269)" fill="#fec625"/>
      <g id="Grupo_1108179" data-name="Grupo 1108179" transform="translate(9.074)">
        <path id="Trazado_890014" data-name="Trazado 890014" d="M937.642,586.985a.252.252,0,0,0,.23.138h.551a.253.253,0,0,1-.23-.138l-.942-1.654a.248.248,0,0,0-.367-.092l-.184.115Z" transform="translate(-936.7 -585.192)" fill="#e2a305"/>
        <path id="Trazado_890015" data-name="Trazado 890015" d="M937.642,643.238l-.942,1.631.184.115a.282.282,0,0,0,.367-.092l.942-1.654a.252.252,0,0,1,.23-.138h-.551A.252.252,0,0,0,937.642,643.238Z" transform="translate(-936.7 -629.799)" fill="#e2a305"/>
        <path id="Trazado_890016" data-name="Trazado 890016" d="M952.268,599.511a.294.294,0,0,1,0-.276l1.011-1.769a.282.282,0,0,0-.092-.367l-1.723-.988a.253.253,0,0,1-.138-.23v-1.906a.265.265,0,0,0-.276-.276H950.5a.265.265,0,0,1,.276.276v1.906a.253.253,0,0,0,.138.23l1.723.988a.248.248,0,0,1,.092.367l-1.011,1.769a.293.293,0,0,0,0,.276l1.011,1.769a.282.282,0,0,1-.092.368l-1.723.988a.253.253,0,0,0-.138.23v1.906a.265.265,0,0,1-.276.276h.551a.265.265,0,0,0,.276-.276v-1.906a.253.253,0,0,1,.138-.23l1.723-.988a.248.248,0,0,0,.092-.368Z" transform="translate(-947.33 -591.746)" fill="#e2a305"/>
      </g>
      <path id="Trazado_890017" data-name="Trazado 890017" d="M919.3,603.3a4.5,4.5,0,1,1-4.5-4.5A4.509,4.509,0,0,1,919.3,603.3Z" transform="translate(-907.289 -595.674)" fill="#fdeec3"/>
    </g>
    <g id="Grupo_1108188" data-name="Grupo 1108188" transform="translate(292.848 132.406)">
      <g id="Grupo_1108182" data-name="Grupo 1108182" transform="translate(27.687 95.497)">
        <g id="Grupo_1108181" data-name="Grupo 1108181" transform="translate(65.392 105.794)">
          <path id="Trazado_890018" data-name="Trazado 890018" d="M1447.448,1233.5l1.47,17.755h-1.148l-1.47-17.755Z" transform="translate(-1413.294 -1233.5)" fill="#466588"/>
          <path id="Trazado_890019" data-name="Trazado 890019" d="M1329.093,1251.255h27.241l-1.47-17.755H1327.6Z" transform="translate(-1321.858 -1233.5)" fill="#96c6fe"/>
          <path id="Trazado_890020" data-name="Trazado 890020" d="M1303.312,1313.717h35.854a.716.716,0,0,0,.712-.712v-1.493a.716.716,0,0,0-.712-.712h-35.854a.716.716,0,0,0-.712.712v1.493A.731.731,0,0,0,1303.312,1313.717Z" transform="translate(-1302.6 -1293.045)" fill="#70afed"/>
          <path id="Trazado_890021" data-name="Trazado 890021" d="M1356.558,1254.018l-27.7-5.306-.758-8.912,27.632,4.364Z" transform="translate(-1322.243 -1238.353)" fill="#b7d8f9"/>
        </g>
        <path id="Trazado_890022" data-name="Trazado 890022" d="M1044.314,772.9h140.522l-26.414,105.794H1020.771l-2.871-2.274Z" transform="translate(-1017.9 -772.9)" fill="#5fa5dd"/>
        <path id="Trazado_890023" data-name="Trazado 890023" d="M1044.061,772.9h139.121l-26.161,103.52H1017.9Z" transform="translate(-1017.9 -772.9)" fill="#96c6fe"/>
        <path id="Trazado_890024" data-name="Trazado 890024" d="M1088.023,791.5h128.119l-19.523,75.36H1068.5Z" transform="translate(-1056.878 -787.228)" fill="#29478c"/>
        <path id="Trazado_890025" data-name="Trazado 890025" d="M1148.108,791.5h128.12l-1.631,6.225H1146.5Z" transform="translate(-1116.962 -787.228)" fill="#1d3b77"/>
        <path id="Trazado_890026" data-name="Trazado 890026" d="M1147.765,1153.27H1017.9l5.306-20.97h85.857Z" transform="translate(-1017.9 -1049.75)" fill="#b7d8f9"/>
        <path id="Trazado_890027" data-name="Trazado 890027" d="M1683,802.011a1.011,1.011,0,1,0,1.01-1.011A1,1,0,0,0,1683,802.011Z" transform="translate(-1530.235 -794.546)" fill="#f9ece4"/>
        <path id="Trazado_890028" data-name="Trazado 890028" d="M1667,801.611a1.011,1.011,0,1,0,1.011-1.011A1.02,1.02,0,0,0,1667,801.611Z" transform="translate(-1517.91 -794.238)" fill="#f9ece4"/>
        <path id="Trazado_890029" data-name="Trazado 890029" d="M1651.1,801.311a1.011,1.011,0,1,0,1.011-1.011A1.02,1.02,0,0,0,1651.1,801.311Z" transform="translate(-1505.662 -794.007)" fill="#f9ece4"/>
      </g>
      <g id="Grupo_1108187" data-name="Grupo 1108187" transform="translate(0)">
        <g id="Grupo_1108183" data-name="Grupo 1108183" transform="translate(0 53.473)">
          <path id="Trazado_890030" data-name="Trazado 890030" d="M919.715,745.313s-3.629,1.332-5.283.253c-1.47-.965-.965-.6-1.585-1.057-.207-.161-.643-.436-.643-.436s-4.019-2.641-5.306-1.906c-1.286.758-.965,2.044,1.4,3.055s1.4,4.823-2.687,4.18-8.935-.046-8.177,1.447c.758,1.516,4.249,1.447,4.249,1.447s.023.184-.873.138-3.009-1.01-2.894-.39.574,4.686,5.972,6.133a11.548,11.548,0,0,0,9.854-1.562c1.378-.735,6.73-2.228,8.5-1.746C922.264,754.914,922.816,745.888,919.715,745.313Z" transform="translate(-897.356 -707.52)" fill="#fbcd9b"/>
          <path id="Trazado_890031" data-name="Trazado 890031" d="M991.58,752.8l-4.18.735.781,11.324,4.18-.345Z" transform="translate(-966.718 -715.81)" fill="#deebf4"/>
          <path id="Trazado_890032" data-name="Trazado 890032" d="M1053.2,591.765s-8.958-.689-15.8,9.119c-6.937,9.922-12.885,18.765-12.885,18.765l-33.81,9.164,1.24,12.15s34.683-2.94,41.642-9.785C1037.533,629.158,1057.838,614.113,1053.2,591.765Z" transform="translate(-969.26 -591.754)" fill="#4484e0"/>
          <path id="Trazado_890033" data-name="Trazado 890033" d="M995,737.92l.253,2.526s31.6-2.687,40.517-8.889h0c2.205-7.4.85-10.657.85-10.657C1030.142,733.05,1005.91,736.84,995,737.92Z" transform="translate(-972.572 -691.237)" fill="#286bce"/>
        </g>
        <path id="Trazado_890034" data-name="Trazado 890034" d="M1262.763,1012.2c1.1-11.829.551-31.6.551-31.6s-48.854-1.539-53.058,5.191c-1.654,2.664-2.182,13.414-2.09,26.414Z" transform="translate(-1136.77 -837.692)" fill="#3f4752"/>
        <path id="Trazado_890035" data-name="Trazado 890035" d="M1410.2,980.615c-1.125-.023-3.652-.092-7.029-.115-.988,8.2-2.365,20.212-3.468,31.743h10.611c1.057-11.232.6-29.653.551-31.444v-.161s-.161,0-.436-.023A.771.771,0,0,1,1410.2,980.615Z" transform="translate(-1284.318 -837.738)" fill="#2f3740"/>
        <path id="Trazado_890036" data-name="Trazado 890036" d="M1307.987,541.142l-1.837-7.442-16.1.092-1.148,9.486S1297.031,555.061,1307.987,541.142Z" transform="translate(-1198.967 -493.562)" fill="#e9ae74"/>
        <g id="Grupo_1108184" data-name="Grupo 1108184" transform="translate(74.842)">
          <path id="Trazado_890037" data-name="Trazado 890037" d="M1256.5,437.99s.115,7.9.413,12.1c.3,4.226.827,13.873,9.371,14.7,8.521.827,13.046-3.652,16.032-5.673,0,0,9.509-9.532,7.924-12.242-1.608-2.71-3.583-11.048-12.012-10.474C1269.776,437.025,1256.5,437.99,1256.5,437.99Z" transform="translate(-1248.851 -418.592)" fill="#fbcd9b"/>
          <path id="Trazado_890038" data-name="Trazado 890038" d="M1256.252,399.821s10.658-9.21,13.069-15.021,2.136-10.037-.873-12.656c0,0,2.618-3.009,4.019-3.1,0,0-4.226.3-5.512,1.792,0,0,1.1-4.318-.391-5.627,0,0,.184,2.8-1.1,4.318,0,0-5.1-12.357-13.437-10.359s-21.889,9.991-24.806,8.774a6.111,6.111,0,0,0,4.318,1.1,30.73,30.73,0,0,1-8.338,2s1.884,6.937,13.322,8.958a53.594,53.594,0,0,0,19.776.046s-2.136,10.037-.436,14.149c0,0,2.412-5.811,5.237-6.018,2.8-.184.3,4.226-1.011,5.719C1258.779,395.411,1254.851,399.936,1256.252,399.821Z" transform="translate(-1223.2 -358.948)" fill="#221e52"/>
        </g>
        <path id="Trazado_890039" data-name="Trazado 890039" d="M1263.657,551.664s2.825,8.682,1.332,9.67c-1.493,1.011-8.5,4.663-8.5,4.663s3.675,4.846,3.675,7.327c0,2.5-26.85,35.05-26.85,35.05s-7.511-35.211-5.834-36.865c1.677-1.677,4.5-4.663,4.5-4.663s-2.343-7.005,0-8.682,9.187-3.33,9.187-3.33l3.17,2.664,16.009-8.5Z" transform="translate(-1151.468 -505.348)" fill="#f5f5f5"/>
        <path id="Trazado_890040" data-name="Trazado 890040" d="M1205.32,672.768c0-2-1.011-36.015-1.011-36.015s-3.675-24.691.345-33.351a19.288,19.288,0,0,1,6.431-7.6c-.6,2.641.9,7.12.9,7.12s-2.825,3.009-4.5,4.663c-1.677,1.677,5.834,36.865,5.834,36.865l3.836,40.057-2.343,11.806s-7.672,1.723-13.506-5.9C1201.323,690.408,1205.32,674.766,1205.32,672.768Z" transform="translate(-1131.488 -541.398)" fill="#4484e0"/>
        <path id="Trazado_890041" data-name="Trazado 890041" d="M1228.422,790.608s-1.952-40.264-3.537-47.27c-.8-3.514-.184-7.924.62-11.438,1.654,8.866,3.468,17.387,3.468,17.387l3.836,40.057-2.343,11.806a13.214,13.214,0,0,1-8.866-1.723A26.068,26.068,0,0,0,1228.422,790.608Z" transform="translate(-1147.125 -646.238)" fill="#286bce"/>
        <path id="Trazado_890042" data-name="Trazado 890042" d="M1270.7,554.734l3.17,2.664,16.009-8.5.551.436h0l-11.347,12.885-4.869-3.537-5.627,2.756-2.986-5.214C1268.127,555.377,1270.7,554.734,1270.7,554.734Z" transform="translate(-1181.019 -505.27)" fill="#9bd4df"/>
        <path id="Trazado_890043" data-name="Trazado 890043" d="M1259.462,597.265l-1.171-3.33,4.984-2.435,4.272,3.1-4.02,4.387-2.618,19.845-7.694,20.695c-.781.965-1.263,1.516-1.263,1.516s-.207-.988-.551-2.618Z" transform="translate(-1170.081 -538.086)" fill="#de3d73"/>
        <g id="Grupo_1108185" data-name="Grupo 1108185" transform="translate(75.769 47.236)">
          <path id="Trazado_890044" data-name="Trazado 890044" d="M1259.2,618.875h0c10.106-28.527,29.377-54.275,29.377-54.275h0c.666,2.251,2.251,7.947,1.057,8.751-1.493,1.011-8.5,4.663-8.5,4.663s3.675,4.846,3.675,7.327C1284.787,587.523,1264.483,612.421,1259.2,618.875Z" transform="translate(-1251.858 -564.6)" fill="#68a9ea"/>
          <path id="Trazado_890045" data-name="Trazado 890045" d="M1227.48,596.082c1.677-1.677,4.5-4.663,4.5-4.663s-2.343-7.005,0-8.682a17.946,17.946,0,0,1,4.065-1.837h0c-.115,8.177-3.744,47.155-3.744,47.155C1230.305,618.339,1226.194,597.346,1227.48,596.082Z" transform="translate(-1227.235 -577.156)" fill="#68a9ea"/>
        </g>
        <path id="Trazado_890046" data-name="Trazado 890046" d="M1249.181,617.31h0s26.85-32.547,26.85-35.05-3.675-7.327-3.675-7.327,7.005-3.675,8.5-4.663c1.493-1.011-1.332-9.67-1.332-9.67s11,4.594,18.513,10.68l-2.182,43.686-3.124,19.041,4.18,31.949s-26.873,5.719-41.895,2.205c0,0-8.5-44.284-7.006-47.775C1248.193,619.951,1248.607,618.872,1249.181,617.31Z" transform="translate(-1167.334 -514.283)" fill="#4484e0"/>
        <path id="Trazado_890047" data-name="Trazado 890047" d="M1365.6,770.379l6.8-14.861s9.348-24.347,9.348-28.344-5.972-34.774-5.972-34.774l10.956,21.039-.161,3.055-3.124,19.041,5.306,33.672C1388.752,769.184,1378.807,769.391,1365.6,770.379Z" transform="translate(-1258.05 -615.81)" fill="#286bce"/>
        <g id="Grupo_1108186" data-name="Grupo 1108186" transform="translate(103.317 56.974)">
          <path id="Trazado_890048" data-name="Trazado 890048" d="M1352.576,966.493s-.322-5.168,6.684-4.272c1.608.207,2.641-1.263,3.376-3.721l6.638,2.389c-3.33,6.776-6.087,11.829-7.051,12.748-2.664,2.573-4.249,3.882-5.65,1.355s-4.272.62-5.053-1.677-4.525.758-4.341-1.952C1347.362,968.629,1352.576,966.493,1352.576,966.493Z" transform="translate(-1347.171 -877.765)" fill="#fbc0a4"/>
          <path id="Trazado_890049" data-name="Trazado 890049" d="M1408.813,957.979l-1.952,4.111s-6.2-.965-10.06-4.755l1.815-3.836Z" transform="translate(-1385.401 -873.913)" fill="#f8e8d8"/>
          <path id="Trazado_890050" data-name="Trazado 890050" d="M1411.631,607s19.34,44.031,18.007,52.69c-1.332,8.682-22.67,34.683-22.67,34.683L1395.3,689.71l18.513-33.511S1380.945,619.518,1411.631,607Z" transform="translate(-1384.246 -607)" fill="#4484e0"/>
          <path id="Trazado_890051" data-name="Trazado 890051" d="M1466.636,690.947c5.26-11,1.746-16.629,1.746-16.629,1.011-5.88-7.235-41.895-7.258-41.918,5.191,12.265,16.537,40.149,15.5,46.856-1.057,6.891-14.746,24.714-20.327,31.766C1459.033,705.969,1463.328,697.861,1466.636,690.947Z" transform="translate(-1431.234 -626.566)" fill="#286bce"/>
        </g>
      </g>
    </g>
    <g id="Grupo_1108194" data-name="Grupo 1108194" transform="translate(140.645 138.552)">
      <g id="Grupo_1108190" data-name="Grupo 1108190" transform="translate(0 89.351)">
        <g id="Grupo_1108189" data-name="Grupo 1108189" transform="translate(64.266 105.794)">
          <path id="Trazado_890052" data-name="Trazado 890052" d="M523.27,1233.5l-1.47,17.755h1.125l1.493-17.755Z" transform="translate(-520.123 -1233.5)" fill="#466588"/>
          <path id="Trazado_890053" data-name="Trazado 890053" d="M553.964,1251.255H526.7l1.493-17.755h27.241Z" transform="translate(-523.898 -1233.5)" fill="#96c6fe"/>
          <path id="Trazado_890054" data-name="Trazado 890054" d="M551.066,1313.717H515.212a.716.716,0,0,1-.712-.712v-1.493a.716.716,0,0,1,.712-.712h35.854a.716.716,0,0,1,.712.712v1.493A.716.716,0,0,1,551.066,1313.717Z" transform="translate(-514.5 -1293.045)" fill="#70afed"/>
          <path id="Trazado_890055" data-name="Trazado 890055" d="M527.5,1254.018l27.7-5.306.735-8.912-27.608,4.364Z" transform="translate(-524.514 -1238.353)" fill="#b7d8f9"/>
        </g>
        <path id="Trazado_890056" data-name="Trazado 890056" d="M375.223,772.9H234.7l26.437,105.794H398.765l2.894-2.274Z" transform="translate(-234.7 -772.9)" fill="#5fa5dd"/>
        <path id="Trazado_890057" data-name="Trazado 890057" d="M381.121,772.9H242l26.161,103.52H407.283Z" transform="translate(-240.323 -772.9)" fill="#96c6fe"/>
        <path id="Trazado_890058" data-name="Trazado 890058" d="M396.319,791.5H268.2l19.523,75.36h128.1Z" transform="translate(-260.505 -787.228)" fill="#29478c"/>
        <path id="Trazado_890059" data-name="Trazado 890059" d="M396.319,791.5H268.2l1.608,6.225H397.927Z" transform="translate(-260.505 -787.228)" fill="#1d3b77"/>
        <path id="Trazado_890060" data-name="Trazado 890060" d="M396.1,1153.27H525.988l-5.306-20.97H434.825Z" transform="translate(-359.028 -1049.75)" fill="#b7d8f9"/>
        <path id="Trazado_890061" data-name="Trazado 890061" d="M289.721,802.011A1.011,1.011,0,1,1,288.711,801,1,1,0,0,1,289.721,802.011Z" transform="translate(-275.527 -794.546)" fill="#f9ece4"/>
        <path id="Trazado_890062" data-name="Trazado 890062" d="M305.621,801.611a1.011,1.011,0,1,1-1.011-1.011A1,1,0,0,1,305.621,801.611Z" transform="translate(-287.775 -794.238)" fill="#f9ece4"/>
        <path id="Trazado_890063" data-name="Trazado 890063" d="M321.621,801.311a1.011,1.011,0,1,1-1.011-1.011A1.02,1.02,0,0,1,321.621,801.311Z" transform="translate(-300.1 -794.007)" fill="#f9ece4"/>
      </g>
      <g id="Grupo_1108193" data-name="Grupo 1108193" transform="translate(61.74)">
        <path id="Trazado_890064" data-name="Trazado 890064" d="M563.293,389.791s-5.581-2.894-9.831,8.384-4.479,28.826-2.94,34.8c0,0-12.357,13.3-2.251,21.981,0,0,13.9,14.631,14.815,18.4.367-.873,6.316-11.622,15.986-12.219s33.488-25.633,20.787-29.515c0,0,.942,4.042-3.4,3.078s-1.608-15.894-1.654-21.177-3.216-18.283-12.472-23.819C573.124,384.164,562.466,384.554,563.293,389.791Z" transform="translate(-534.927 -385.704)" fill="#1c1715"/>
        <path id="Trazado_890065" data-name="Trazado 890065" d="M636.418,551.683s2,7.442,3.307,8.43c0,0,1.309,3.422-2.55,13.115-3.882,9.693-13.689,4.272-15.274,1.631-1.562-2.641-5.03-7.717-1.883-12.748,0,0,4.341-3.147,2.067-9.968C622.109,552.165,635.729,549.409,636.418,551.683Z" transform="translate(-592.272 -512.866)" fill="#eba97a"/>
        <path id="Trazado_890066" data-name="Trazado 890066" d="M609.416,448.212s6.569,5.1,11.944,3.124a19.911,19.911,0,0,0,11.6-12.357c1.47-5.191-.919-15.642-4.525-19.34-3.606-3.721-17.043-6.156-20.81-1.309C603.858,423.153,602.388,442.654,609.416,448.212Z" transform="translate(-581.279 -408.753)" fill="#fdc596"/>
        <path id="Trazado_890067" data-name="Trazado 890067" d="M522.69,958.2S508.4,965.894,507.6,969.776l15.757-5.03Z" transform="translate(-506.658 -826.705)" fill="#e55daa"/>
        <g id="Grupo_1108191" data-name="Grupo 1108191" transform="translate(47.683 46.809)">
          <path id="Trazado_890068" data-name="Trazado 890068" d="M751.053,935.108s-2.435,5.926-3.951,7.993-1.7,3.882-.482,5.1,1.47-3.33,2.159-3.009-1.194,5.811,1.677,6.523c2.871.735,5.719,1.447,6.454-.046s2.251-5.237.712-7.6a11.846,11.846,0,0,1-1.608-7.717C756.474,934.787,751.053,935.108,751.053,935.108Z" transform="translate(-737.846 -855.706)" fill="#ffddb5"/>
          <path id="Trazado_890069" data-name="Trazado 890069" d="M715.808,589.5s13.552,1.906,16.17,36.566c1.654,21.728-1.493,46.9-1.493,46.9l-8.912-1.286s1.424-40.287-7.786-63.991C713.764,607.691,706.575,593.313,715.808,589.5Z" transform="translate(-711.099 -589.5)" fill="#e55daa"/>
        </g>
        <path id="Trazado_890070" data-name="Trazado 890070" d="M595.185,1009.161c-.459-17.732-2.5-32.661-2.5-32.661l-47.224.23c-1.24,8.407-1.585,20.672-1.562,32.432Z" transform="translate(-534.617 -840.802)" fill="#476291"/>
        <path id="Trazado_890071" data-name="Trazado 890071" d="M716.976,1009.238c-.046-2.182-.138-4.318-.23-6.408a1.415,1.415,0,0,0-.023-.3c-.046-.919-.092-1.814-.138-2.71,0-.138-.023-.276-.023-.391-.046-.9-.115-1.769-.161-2.618a.94.94,0,0,0-.023-.253c-.184-2.871-.413-5.558-.62-7.947v-.069c-.069-.758-.138-1.493-.207-2.182,0-.069-.023-.161-.023-.23-.069-.643-.115-1.263-.184-1.86,0-.069-.023-.161-.023-.23-.207-1.975-.39-3.606-.528-4.846v-.023c-.046-.391-.092-.735-.115-1.034a.172.172,0,0,0-.023-.115c-.023-.253-.069-.482-.092-.666,0-.046-.023-.115-.023-.161-.023-.184-.046-.322-.046-.413v-.023a.962.962,0,0,1-.023-.161h0L702,976.669a44.792,44.792,0,0,1,4.134,13.8,86.163,86.163,0,0,1-.161,18.788h11Z" transform="translate(-656.407 -840.879)" fill="#3e5c87"/>
        <path id="Trazado_890072" data-name="Trazado 890072" d="M567.088,587.012s11.76,5.145,17.433-.712c0,0,24.645,24.668,10.657,89.417,0,0-46.971,2.435-47.913,2.6s3.376-14.034,8.866-17.984c5.467-3.9,36.98-22.073,10.818-72.26C566.789,587.7,566.812,587.494,567.088,587.012Z" transform="translate(-537.113 -540.226)" fill="#f6f6f6"/>
        <path id="Trazado_890073" data-name="Trazado 890073" d="M614.184,677.294c37.186-8.452,25.679-46.466,26.965-54.091,1.057-6.339-9.44-27.31-13-34.2a10.575,10.575,0,0,0,7.9-2.8s24.645,24.668,10.658,89.417c0,0-18.674.965-32.707,1.723A.432.432,0,0,1,614.184,677.294Z" transform="translate(-588.62 -540.149)" fill="#dce2ea"/>
        <path id="Trazado_890074" data-name="Trazado 890074" d="M724.462,651.569l-.345-.3c5.627-49.429-4.02-61.924-10.5-64.772-1.585-.322-4-.092-5.421-.3,0,0,12.242,46.672,11.415,82.251-.6,3.124-.85,5.834-.367,7.166a47.416,47.416,0,0,1,7.924,4.5c4.594,3.078-1.792-23.29-2.871-27.654C724.37,652.166,724.416,651.868,724.462,651.569Z" transform="translate(-661.183 -540.149)" fill="#ff77c4"/>
        <path id="Trazado_890075" data-name="Trazado 890075" d="M533.13,588.7a43.739,43.739,0,0,0-7.327,1.608c-1.7.528-13.207,4.709-12.426,22.992.85,19.73,2.641,36.382-.207,43.158s-9.325,18.053-9.67,30.2c14.654-11.806,32.386-24.508,42.079-44.9C559.084,613.437,533.13,588.7,533.13,588.7Z" transform="translate(-503.5 -542.074)" fill="#ff77c4"/>
        <path id="Trazado_890076" data-name="Trazado 890076" d="M522.641,602.3c-3.928,2.435-9.739,8.292-9.165,21.476.85,19.73,2.641,36.382-.207,43.158s-9.325,18.053-9.67,30.2c0,0,6.339-20.281,16.675-30.916C520.275,666.245,511.984,623.569,522.641,602.3Z" transform="translate(-503.577 -552.551)" fill="#e55daa"/>
        <g id="Grupo_1108192" data-name="Grupo 1108192" transform="translate(11.782 53.182)">
          <path id="Trazado_890077" data-name="Trazado 890077" d="M872.4,742.669s3.928,1.011,5.627-.046a16.859,16.859,0,0,0,1.631-1.057c.207-.161.666-.436.666-.436s4.157-2.664,5.582-2.044,1.125,1.838-1.355,2.894-1.263,4.5,3.078,3.675c4.318-.827,9.532-.551,8.774.873-.735,1.424-4.479,1.562-4.479,1.562s0,.161.942.069,3.17-1.1,3.078-.528-.39,4.341-6.087,5.972a13.988,13.988,0,0,1-10.566-.873c-1.493-.6-7.281-1.654-9.142-1.126C870.126,751.6,869.116,743.358,872.4,742.669Z" transform="translate(-797.59 -711.029)" fill="#ffddb5"/>
          <path id="Trazado_890078" data-name="Trazado 890078" d="M564.192,617.257c-7.488-.368-12.082,7.327-7.672,12.7,8.958,10.91,24.554,29.124,30.411,31.283,8.429,3.078,47.109-1.952,47.109-1.952l-.046-11.186-41.55-1.125C592.467,646.956,582.751,618.153,564.192,617.257Z" transform="translate(-554.797 -617.245)" fill="#ff77c4"/>
          <path id="Trazado_890079" data-name="Trazado 890079" d="M588.643,687.839C583.7,686.116,562.757,668.43,556.9,663.4a8,8,0,0,0,1.217,2.067c1.47,1.792,3.147,3.79,4.892,5.88v.023c.184.207.367.436.551.643l.023.023c.184.207.345.413.528.62l.046.046c.184.207.367.436.551.666h0c.368.436.758.9,1.148,1.332.069.069.115.138.184.207.115.138.253.276.367.436a3.439,3.439,0,0,1,.253.3c.092.115.207.23.3.367.092.115.184.207.276.321s.184.207.276.322.207.23.3.345c.069.092.161.184.23.276.115.138.23.253.345.391a2.3,2.3,0,0,0,.23.253c.115.138.23.253.345.39.069.092.138.161.207.253.115.138.253.276.367.413.046.046.092.115.138.161.666.758,1.332,1.493,2,2.228.023.023.046.069.069.092.138.161.3.322.436.482l.138.138c.138.161.276.322.413.459a.994.994,0,0,1,.138.161,4.131,4.131,0,0,0,.436.459l.138.138c.138.161.3.322.436.459.046.046.069.092.115.138.138.161.3.322.436.482l.092.092c.85.919,1.7,1.815,2.526,2.687l.069.069c.138.138.276.3.413.436.046.046.069.092.115.115.138.138.276.276.39.413l.138.138.391.391.161.161.367.367.138.138c.138.115.253.253.391.367a.61.61,0,0,0,.138.115l.39.39.046.046q.655.655,1.309,1.24c.046.023.069.069.115.092.115.092.207.207.322.3.069.046.115.115.184.161a1.58,1.58,0,0,0,.3.253c.069.069.138.115.207.184.092.092.184.161.276.253.069.069.138.115.207.184a2.5,2.5,0,0,1,.253.23c.069.069.138.115.207.184.092.069.161.138.253.207a1.264,1.264,0,0,0,.207.161c.092.069.161.138.253.207.069.069.138.115.207.184a2,2,0,0,0,.23.184c.069.069.161.115.23.184.092.069.184.161.276.23s.207.161.3.23c.069.046.115.092.161.115a1.4,1.4,0,0,0,.23.161.8.8,0,0,0,.184.115,2,2,0,0,0,.23.161.976.976,0,0,1,.161.115l.207.138c.046.046.115.069.161.115a.932.932,0,0,0,.207.115c.046.023.115.069.161.092.069.046.138.069.207.115a.478.478,0,0,1,.138.092c.069.046.138.069.207.115l.138.069a.82.82,0,0,0,.207.092c.046.023.069.023.115.046a1.6,1.6,0,0,0,.3.115h0a4.562,4.562,0,0,0,.6.184c.046.023.092.023.138.046a5.633,5.633,0,0,0,.666.161,1,1,0,0,1,.115.023c.207.046.436.092.666.138.046,0,.092.023.161.023.253.046.528.092.8.115.069,0,.138.023.207.023.253.023.528.069.8.092h.115c.3.023.6.046.919.069.092,0,.184.023.276.023.322.023.62.046.965.069h.207c.276.023.574.023.85.046h.3c.345,0,.666.023,1.011.023h2.986c.345,0,.689,0,1.057-.023h.367c.3,0,.6-.023.919-.023a2.493,2.493,0,0,0,.414-.023c.367-.023.735-.023,1.125-.046a2.492,2.492,0,0,0,.413-.023c.3-.023.6-.023.873-.046.138,0,.276-.023.413-.023l1.148-.069c.161,0,.3-.023.459-.023l1.011-.069c.138,0,.3-.023.436-.023l.988-.069c.138,0,.3-.023.436-.023l1.148-.069c.115,0,.253-.023.367-.023l.965-.069c.115,0,.23-.023.367-.023.391-.023.8-.069,1.194-.092.115,0,.23-.023.344-.023.367-.023.735-.069,1.1-.092a.449.449,0,0,0,.161-.023c.413-.046.827-.069,1.24-.115.092,0,.161-.023.253-.023.413-.046.827-.069,1.24-.115h.023c.436-.046.85-.092,1.263-.115h.069c3.055-.3,5.742-.6,7.763-.827-5.995-.253-15.527-.712-23.474-1.378C591.743,693.305,588.643,687.839,588.643,687.839Z" transform="translate(-556.417 -652.799)" fill="#e55daa"/>
        </g>
        <path id="Trazado_890080" data-name="Trazado 890080" d="M627.2,588.7l10.428,8.613,1.654-6.133-8.361-2.366Z" transform="translate(-598.788 -542.074)" fill="#9cd6e2"/>
        <path id="Trazado_890081" data-name="Trazado 890081" d="M687.71,586.2,681.6,589l5.788,6.638C687.365,595.663,690.167,588.864,687.71,586.2Z" transform="translate(-640.693 -540.149)" fill="#9cd6e2"/>
        <path id="Trazado_890082" data-name="Trazado 890082" d="M561.893,455.493s-5.4,2.09-8.453-2.067,2.067-6.661,2.067-6.661-3.33,4.2,1.539,4.732,4.892-7.649,3.193-12.173c-4.938-13.023-2.067-21.614.207-26.276a28.488,28.488,0,0,1,6.362-8.085l2.779-1.562,1.929,4.732a57.8,57.8,0,0,0-5.283,10.313c-1.769,4.938-2.527,11.3,1.631,19.477C572.022,446.122,573.078,454.161,561.893,455.493Z" transform="translate(-541.221 -399.335)" fill="#442b19"/>
        <path id="Trazado_890083" data-name="Trazado 890083" d="M587.487,407.115l-1.929-4.732h0s-5.581-2.894-9.831,8.384a46.342,46.342,0,0,0-2.527,13.184c1.906,7.005,7.327,15.067,10.267,21.935,3.721,8.659-7.649,6.339-7.649,6.339s3.79,6.408,9.486,1.47c6.27-5.444.8-14.4-1.585-19.087s-2-13.6.3-18.651A92.242,92.242,0,0,0,587.487,407.115Z" transform="translate(-557.191 -398.296)" fill="#513826"/>
        <path id="Trazado_890084" data-name="Trazado 890084" d="M628.7,394.581s12.748-3.376,19.133,12.036-2.779,22.532-1.171,27.287,5.949,5.444,9.67.551c0,0-4.571,2.963-5.26-.39-.689-3.331,6.914-8.223,6.224-20.924a55.286,55.286,0,0,0-1.815-11.415c-1.952-4.594-5.053-9.21-9.67-11.967-9.256-5.513-19.891-5.122-19.064.092Z" transform="translate(-598.404 -385.761)" fill="#442b19"/>
      </g>
    </g>
    <g id="Grupo_1108211" data-name="Grupo 1108211" transform="translate(140.323 310.211)">
      <g id="Grupo_1108198" data-name="Grupo 1108198" transform="translate(41.16 29.366)">
        <g id="Grupo_1108195" data-name="Grupo 1108195" transform="translate(0.712 8.338)">
          <path id="Trazado_890085" data-name="Trazado 890085" d="M415.7,1308.444V1304.7a96.019,96.019,0,0,0,14.218,1.057,93.953,93.953,0,0,0,14.057-1.057v3.744c0,.023.023.069.023.092,0,1.01-6.316,1.792-14.149,1.792-7.809,0-14.149-.758-14.149-1.769C415.7,1308.513,415.7,1308.49,415.7,1308.444Z" transform="translate(-415.677 -1302.564)" fill="#ffaf5d"/>
          <path id="Trazado_890086" data-name="Trazado 890086" d="M415.7,1306.944V1303.2a96.019,96.019,0,0,0,14.218,1.057,93.953,93.953,0,0,0,14.057-1.057v3.744c0,.023.023.069.023.092,0,1.011-6.316,1.792-14.149,1.792-7.809,0-14.149-.758-14.149-1.769C415.7,1307.013,415.7,1306.99,415.7,1306.944Z" transform="translate(-415.677 -1301.408)" fill="#eb8511"/>
          <path id="Trazado_890087" data-name="Trazado 890087" d="M524,1309.286v-4.525c.367-.046.712-.092,1.057-.161v4.5C524.735,1309.171,524.367,1309.24,524,1309.286Z" transform="translate(-499.102 -1302.487)" fill="#ffb017"/>
          <path id="Trazado_890088" data-name="Trazado 890088" d="M511,1311.071v-4.5c.253-.023.505-.046.735-.069v4.525C511.505,1311.025,511.253,1311.048,511,1311.071Z" transform="translate(-489.088 -1303.95)" fill="#ffb017"/>
          <path id="Trazado_890089" data-name="Trazado 890089" d="M428.035,1309.748c-.253-.046-.505-.069-.735-.115V1305.2h.735Z" transform="translate(-424.613 -1302.949)" fill="#ffb017"/>
          <path id="Trazado_890090" data-name="Trazado 890090" d="M519.6,1310.271v-4.525c.115-.023.23-.023.345-.046v4.548A1.985,1.985,0,0,0,519.6,1310.271Z" transform="translate(-495.713 -1303.334)" fill="#ffb017"/>
          <path id="Trazado_890091" data-name="Trazado 890091" d="M415.6,1297.191c0-1.01,6.362-1.791,14.195-1.791,7.809,0,14.149.827,14.149,1.814s-6.339,1.815-14.149,1.815C421.962,1299.052,415.6,1298.2,415.6,1297.191Z" transform="translate(-415.6 -1295.4)" fill="#fdce14"/>
          <path id="Trazado_890092" data-name="Trazado 890092" d="M423.3,1298.286c0-.712,5.581-1.286,12.449-1.286s12.449.574,12.449,1.286-5.581,1.286-12.449,1.286C428.858,1299.573,423.3,1299,423.3,1298.286Z" transform="translate(-421.531 -1296.632)" fill="#fe920c"/>
          <path id="Trazado_890093" data-name="Trazado 890093" d="M449.593,1300.335c.046-.184.9-.253,1.677-.3a.835.835,0,0,1,.161-.39,11.069,11.069,0,0,0-3.56.505h-1.194l-.276.3h1.24c.184.253,1.447.413,3.376.413a9.257,9.257,0,0,0,3.9-.551,4.182,4.182,0,0,1,2.067-.391c.919-.023,1.447.046,1.378.253s-.666.344-1.906.39a1.612,1.612,0,0,1-.23.368,12.089,12.089,0,0,0,3.79-.459h1.217l.276-.3h-1.125c.138-.482-1.263-.574-3.514-.574a10.65,10.65,0,0,0-4.2.6,3.589,3.589,0,0,1-1.769.321C449.983,1300.519,449.57,1300.45,449.593,1300.335Z" transform="translate(-439.326 -1298.635)" fill="#feb05b"/>
        </g>
        <g id="Grupo_1108196" data-name="Grupo 1108196" transform="translate(3.307 4.18)">
          <path id="Trazado_890094" data-name="Trazado 890094" d="M427.042,1290.344V1286.6a96.021,96.021,0,0,0,14.218,1.057,93.953,93.953,0,0,0,14.057-1.057v3.744c0,.023.023.069.023.092,0,1.011-6.316,1.792-14.149,1.792-7.809,0-14.149-.758-14.149-1.769A.1.1,0,0,1,427.042,1290.344Z" transform="translate(-426.996 -1284.464)" fill="#ffaf5d"/>
          <path id="Trazado_890095" data-name="Trazado 890095" d="M427.042,1288.744V1285a96.019,96.019,0,0,0,14.218,1.057A93.951,93.951,0,0,0,455.317,1285v3.744c0,.023.023.069.023.092,0,1.011-6.316,1.792-14.149,1.792-7.809,0-14.149-.758-14.149-1.768A.1.1,0,0,1,427.042,1288.744Z" transform="translate(-426.996 -1283.231)" fill="#eb8511"/>
          <path id="Trazado_890096" data-name="Trazado 890096" d="M535.3,1291.186v-4.525c.367-.046.712-.092,1.057-.161v4.5C536.035,1291.071,535.69,1291.117,535.3,1291.186Z" transform="translate(-510.402 -1284.387)" fill="#ffb017"/>
          <path id="Trazado_890097" data-name="Trazado 890097" d="M522.4,1292.971v-4.5c.253-.023.505-.046.735-.069v4.525C522.905,1292.925,522.653,1292.948,522.4,1292.971Z" transform="translate(-500.465 -1285.85)" fill="#ffb017"/>
          <path id="Trazado_890098" data-name="Trazado 890098" d="M439.335,1291.648c-.253-.046-.505-.069-.735-.115V1287.1h.735Z" transform="translate(-435.913 -1284.849)" fill="#ffb017"/>
          <path id="Trazado_890099" data-name="Trazado 890099" d="M531,1292.071v-4.525c.115-.023.23-.023.344-.046v4.548C531.23,1292.048,531.115,1292.071,531,1292.071Z" transform="translate(-507.09 -1285.157)" fill="#ffb017"/>
          <path id="Trazado_890100" data-name="Trazado 890100" d="M426.9,1279.091c0-1.011,6.362-1.792,14.195-1.792,7.809,0,14.149.827,14.149,1.815,0,1.01-6.339,1.814-14.149,1.814C433.285,1280.952,426.9,1280.1,426.9,1279.091Z" transform="translate(-426.9 -1277.3)" fill="#ffaf5d"/>
          <path id="Trazado_890101" data-name="Trazado 890101" d="M434.6,1280.186c0-.712,5.581-1.286,12.449-1.286s12.449.574,12.449,1.286-5.581,1.286-12.449,1.286S434.6,1280.9,434.6,1280.186Z" transform="translate(-432.831 -1278.532)" fill="#fe920c"/>
          <path id="Trazado_890102" data-name="Trazado 890102" d="M460.993,1282.135c.046-.184.9-.252,1.677-.3a.832.832,0,0,1,.161-.39,11.059,11.059,0,0,0-3.56.505h-1.194l-.276.3h1.24c.184.253,1.447.413,3.376.413a9.254,9.254,0,0,0,3.9-.551,4.187,4.187,0,0,1,2.067-.39c.919-.023,1.447.046,1.378.253s-.666.345-1.906.39a1.612,1.612,0,0,1-.23.368,12.086,12.086,0,0,0,3.79-.459h1.217l.276-.3h-1.125c.138-.482-1.263-.574-3.514-.574a10.651,10.651,0,0,0-4.2.6,3.586,3.586,0,0,1-1.769.322C461.383,1282.342,460.947,1282.25,460.993,1282.135Z" transform="translate(-450.703 -1280.458)" fill="#feb05b"/>
        </g>
        <g id="Grupo_1108197" data-name="Grupo 1108197">
          <path id="Trazado_890103" data-name="Trazado 890103" d="M412.7,1272.144V1268.4a96.021,96.021,0,0,0,14.218,1.057,93.953,93.953,0,0,0,14.057-1.057v3.744c0,.023.023.069.023.092,0,1.011-6.316,1.792-14.149,1.792-7.809,0-14.149-.758-14.149-1.769Z" transform="translate(-412.654 -1266.264)" fill="#ffaf5d"/>
          <path id="Trazado_890104" data-name="Trazado 890104" d="M412.7,1270.644V1266.9a96.019,96.019,0,0,0,14.218,1.057,93.952,93.952,0,0,0,14.057-1.057v3.744c0,.023.023.069.023.092,0,1.011-6.316,1.792-14.149,1.792-7.809,0-14.149-.758-14.149-1.769Z" transform="translate(-412.654 -1265.108)" fill="#eb8511"/>
          <path id="Trazado_890105" data-name="Trazado 890105" d="M521,1272.986v-4.525c.367-.046.712-.092,1.057-.161v4.5C521.712,1272.871,521.367,1272.94,521,1272.986Z" transform="translate(-496.079 -1266.187)" fill="#ffb017"/>
          <path id="Trazado_890106" data-name="Trazado 890106" d="M508,1274.771v-4.5c.253-.023.505-.046.735-.069v4.525C508.505,1274.725,508.253,1274.748,508,1274.771Z" transform="translate(-486.065 -1267.65)" fill="#ffb017"/>
          <path id="Trazado_890107" data-name="Trazado 890107" d="M425.035,1273.448c-.253-.046-.505-.069-.735-.115V1268.9h.735Z" transform="translate(-421.59 -1266.649)" fill="#ffb017"/>
          <path id="Trazado_890108" data-name="Trazado 890108" d="M516.6,1273.971v-4.525c.115-.023.23-.023.345-.046v4.548A.9.9,0,0,0,516.6,1273.971Z" transform="translate(-492.689 -1267.034)" fill="#ffb017"/>
          <path id="Trazado_890109" data-name="Trazado 890109" d="M412.5,1260.891c0-1.011,6.362-1.792,14.195-1.792,7.809,0,14.149.827,14.149,1.815,0,1.01-6.339,1.814-14.149,1.814C418.885,1262.752,412.5,1261.9,412.5,1260.891Z" transform="translate(-412.5 -1259.1)" fill="#ffaf5d"/>
          <path id="Trazado_890110" data-name="Trazado 890110" d="M420.2,1261.986c0-.712,5.581-1.286,12.449-1.286s12.449.574,12.449,1.286-5.581,1.286-12.449,1.286S420.2,1262.7,420.2,1261.986Z" transform="translate(-418.431 -1260.332)" fill="#fe920c"/>
          <path id="Trazado_890111" data-name="Trazado 890111" d="M446.593,1263.935c.046-.184.9-.253,1.677-.3a.834.834,0,0,1,.161-.391,11.069,11.069,0,0,0-3.56.505h-1.194l-.276.3h1.24c.184.253,1.447.414,3.376.414a9.256,9.256,0,0,0,3.9-.551,4.187,4.187,0,0,1,2.067-.391c.919-.023,1.447.046,1.378.253s-.666.344-1.906.39a1.609,1.609,0,0,1-.23.367,12.083,12.083,0,0,0,3.79-.459h1.217l.276-.3h-1.125c.138-.482-1.263-.574-3.514-.574a10.653,10.653,0,0,0-4.2.6,3.587,3.587,0,0,1-1.769.322C446.983,1264.142,446.547,1264.073,446.593,1263.935Z" transform="translate(-436.303 -1262.258)" fill="#feb05b"/>
        </g>
      </g>
      <g id="Grupo_1108201" data-name="Grupo 1108201" transform="translate(0 33.202)">
        <g id="Grupo_1108199" data-name="Grupo 1108199" transform="translate(3.307 4.157)">
          <path id="Trazado_890112" data-name="Trazado 890112" d="M247.8,1306.944V1303.2a96.02,96.02,0,0,0,14.218,1.057,93.953,93.953,0,0,0,14.057-1.057v3.744c0,.023.023.069.023.092,0,1.011-6.316,1.792-14.149,1.792-7.809,0-14.149-.758-14.149-1.769Z" transform="translate(-247.777 -1301.064)" fill="#ffaf5d"/>
          <path id="Trazado_890113" data-name="Trazado 890113" d="M247.8,1305.444V1301.7a96.019,96.019,0,0,0,14.218,1.057,93.951,93.951,0,0,0,14.057-1.057v3.744c0,.023.023.069.023.092,0,1.011-6.316,1.792-14.149,1.792-7.809,0-14.149-.758-14.149-1.769Z" transform="translate(-247.777 -1299.908)" fill="#eb8511"/>
          <path id="Trazado_890114" data-name="Trazado 890114" d="M356.1,1307.786v-4.525c.367-.046.712-.092,1.057-.161v4.5C356.835,1307.671,356.49,1307.74,356.1,1307.786Z" transform="translate(-331.202 -1300.987)" fill="#ffb017"/>
          <path id="Trazado_890115" data-name="Trazado 890115" d="M343.2,1309.571v-4.5c.253-.023.505-.046.735-.069v4.525C343.705,1309.525,343.453,1309.548,343.2,1309.571Z" transform="translate(-321.265 -1302.45)" fill="#ffb017"/>
          <path id="Trazado_890116" data-name="Trazado 890116" d="M260.135,1308.248c-.253-.046-.505-.069-.735-.115V1303.7h.735Z" transform="translate(-256.713 -1301.449)" fill="#ffb017"/>
          <path id="Trazado_890117" data-name="Trazado 890117" d="M351.8,1308.771v-4.525c.115-.023.23-.023.345-.046v4.548A.874.874,0,0,0,351.8,1308.771Z" transform="translate(-327.89 -1301.834)" fill="#ffb017"/>
          <path id="Trazado_890118" data-name="Trazado 890118" d="M247.7,1295.691c0-1.011,6.362-1.792,14.195-1.792,7.809,0,14.149.827,14.149,1.815,0,1.01-6.339,1.815-14.149,1.815C254.062,1297.552,247.7,1296.7,247.7,1295.691Z" transform="translate(-247.7 -1293.9)" fill="#ffaf5d"/>
          <path id="Trazado_890119" data-name="Trazado 890119" d="M255.4,1296.786c0-.712,5.581-1.286,12.449-1.286s12.449.574,12.449,1.286-5.581,1.286-12.449,1.286S255.4,1297.5,255.4,1296.786Z" transform="translate(-253.631 -1295.132)" fill="#fe920c"/>
          <path id="Trazado_890120" data-name="Trazado 890120" d="M281.793,1298.735c.046-.184.9-.253,1.677-.3a.832.832,0,0,1,.161-.39,11.063,11.063,0,0,0-3.56.505h-1.194l-.276.3h1.24c.184.253,1.447.414,3.376.414a9.254,9.254,0,0,0,3.9-.552,4.183,4.183,0,0,1,2.067-.39c.919-.023,1.447.046,1.378.252s-.666.345-1.906.391a1.609,1.609,0,0,1-.23.367,12.082,12.082,0,0,0,3.79-.459h1.217l.276-.3h-1.125c.138-.482-1.263-.574-3.514-.574a10.655,10.655,0,0,0-4.2.6,3.586,3.586,0,0,1-1.769.322C282.16,1298.942,281.747,1298.873,281.793,1298.735Z" transform="translate(-271.503 -1297.058)" fill="#feb05b"/>
        </g>
        <g id="Grupo_1108200" data-name="Grupo 1108200">
          <path id="Trazado_890121" data-name="Trazado 890121" d="M233.5,1288.744V1285a96.019,96.019,0,0,0,14.218,1.057A93.952,93.952,0,0,0,261.774,1285v3.744c0,.023.023.069.023.092,0,1.011-6.316,1.792-14.149,1.792-7.809,0-14.149-.758-14.149-1.768Z" transform="translate(-233.454 -1282.887)" fill="#ffaf5d"/>
          <path id="Trazado_890122" data-name="Trazado 890122" d="M233.5,1287.244V1283.5a96.02,96.02,0,0,0,14.218,1.057,93.954,93.954,0,0,0,14.057-1.057v3.744c0,.023.023.069.023.092,0,1.011-6.316,1.792-14.149,1.792-7.809,0-14.149-.758-14.149-1.768Z" transform="translate(-233.454 -1281.731)" fill="#eb8511"/>
          <path id="Trazado_890123" data-name="Trazado 890123" d="M341.7,1289.586v-4.525c.367-.046.712-.092,1.057-.161v4.5A6.708,6.708,0,0,1,341.7,1289.586Z" transform="translate(-316.802 -1282.81)" fill="#ffb017"/>
          <path id="Trazado_890124" data-name="Trazado 890124" d="M328.8,1291.471v-4.5c.253-.023.505-.046.735-.069v4.525C329.305,1291.425,329.053,1291.448,328.8,1291.471Z" transform="translate(-306.865 -1284.35)" fill="#ffb017"/>
          <path id="Trazado_890125" data-name="Trazado 890125" d="M245.835,1290.048c-.253-.046-.505-.069-.735-.115V1285.5h.735Z" transform="translate(-242.39 -1283.272)" fill="#ffb017"/>
          <path id="Trazado_890126" data-name="Trazado 890126" d="M337.4,1290.571v-4.525c.115-.023.23-.023.345-.046v4.548C337.653,1290.548,337.515,1290.571,337.4,1290.571Z" transform="translate(-313.49 -1283.657)" fill="#ffb017"/>
          <path id="Trazado_890127" data-name="Trazado 890127" d="M233.3,1277.591c0-1.011,6.362-1.792,14.195-1.792,7.809,0,14.149.827,14.149,1.815s-6.339,1.814-14.149,1.814C239.685,1279.452,233.3,1278.579,233.3,1277.591Z" transform="translate(-233.3 -1275.8)" fill="#ffaf5d"/>
          <path id="Trazado_890128" data-name="Trazado 890128" d="M241,1278.686c0-.712,5.581-1.286,12.449-1.286s12.449.574,12.449,1.286-5.581,1.286-12.449,1.286S241,1279.4,241,1278.686Z" transform="translate(-239.231 -1277.032)" fill="#fe920c"/>
          <path id="Trazado_890129" data-name="Trazado 890129" d="M267.393,1280.635c.046-.184.9-.252,1.677-.3a.833.833,0,0,1,.161-.39,11.058,11.058,0,0,0-3.56.505h-1.194l-.276.3h1.24c.184.253,1.447.413,3.376.413a9.258,9.258,0,0,0,3.9-.551,4.185,4.185,0,0,1,2.067-.391c.919-.023,1.447.046,1.378.253s-.666.345-1.906.391a1.617,1.617,0,0,1-.23.368,12.081,12.081,0,0,0,3.79-.459h1.217l.276-.3h-1.125c.138-.482-1.263-.574-3.514-.574a10.653,10.653,0,0,0-4.2.6,3.586,3.586,0,0,1-1.769.322C267.783,1280.819,267.347,1280.75,267.393,1280.635Z" transform="translate(-257.103 -1278.958)" fill="#feb05b"/>
        </g>
      </g>
      <g id="Grupo_1108208" data-name="Grupo 1108208" transform="translate(11.002 16.848)">
        <g id="Grupo_1108202" data-name="Grupo 1108202" transform="translate(4.617 20.856)">
          <path id="Trazado_890130" data-name="Trazado 890130" d="M301.4,1308.444V1304.7a96.019,96.019,0,0,0,14.218,1.057,93.954,93.954,0,0,0,14.057-1.057v3.744c0,.023.023.069.023.092,0,1.01-6.316,1.792-14.149,1.792-7.809,0-14.149-.758-14.149-1.769Z" transform="translate(-301.377 -1302.564)" fill="#ffaf5d"/>
          <path id="Trazado_890131" data-name="Trazado 890131" d="M301.4,1306.944V1303.2a96.019,96.019,0,0,0,14.218,1.057,93.954,93.954,0,0,0,14.057-1.057v3.744c0,.023.023.069.023.092,0,1.011-6.316,1.792-14.149,1.792-7.809,0-14.149-.758-14.149-1.769Z" transform="translate(-301.377 -1301.408)" fill="#eb8511"/>
          <path id="Trazado_890132" data-name="Trazado 890132" d="M409.7,1309.286v-4.525c.367-.046.712-.092,1.057-.161v4.5C410.435,1309.171,410.067,1309.24,409.7,1309.286Z" transform="translate(-384.802 -1302.487)" fill="#ffb017"/>
          <path id="Trazado_890133" data-name="Trazado 890133" d="M396.8,1311.071v-4.5c.253-.023.505-.046.735-.069v4.525C397.282,1311.025,397.03,1311.048,396.8,1311.071Z" transform="translate(-374.865 -1303.95)" fill="#ffb017"/>
          <path id="Trazado_890134" data-name="Trazado 890134" d="M313.735,1309.748c-.253-.046-.505-.069-.735-.115V1305.2h.735Z" transform="translate(-310.313 -1302.949)" fill="#ffb017"/>
          <path id="Trazado_890135" data-name="Trazado 890135" d="M405.4,1310.271v-4.525c.115-.023.23-.023.345-.046v4.548A1.74,1.74,0,0,0,405.4,1310.271Z" transform="translate(-381.49 -1303.334)" fill="#ffb017"/>
          <path id="Trazado_890136" data-name="Trazado 890136" d="M301.3,1297.191c0-1.01,6.362-1.791,14.195-1.791,7.809,0,14.149.827,14.149,1.814s-6.339,1.815-14.149,1.815C307.662,1299.052,301.3,1298.2,301.3,1297.191Z" transform="translate(-301.3 -1295.4)" fill="#fdce14"/>
          <path id="Trazado_890137" data-name="Trazado 890137" d="M309,1298.286c0-.712,5.581-1.286,12.449-1.286s12.449.574,12.449,1.286-5.581,1.286-12.449,1.286C314.558,1299.573,309,1299,309,1298.286Z" transform="translate(-307.231 -1296.632)" fill="#fe920c"/>
          <path id="Trazado_890138" data-name="Trazado 890138" d="M335.293,1300.335c.046-.184.9-.253,1.677-.3a.835.835,0,0,1,.161-.39,11.069,11.069,0,0,0-3.56.505h-1.194l-.276.3h1.24c.184.253,1.447.413,3.376.413a9.257,9.257,0,0,0,3.9-.551,4.182,4.182,0,0,1,2.067-.391c.919-.023,1.447.046,1.378.253s-.666.344-1.906.39a1.612,1.612,0,0,1-.23.368,12.089,12.089,0,0,0,3.79-.459h1.217l.276-.3h-1.125c.138-.482-1.263-.574-3.514-.574a10.65,10.65,0,0,0-4.2.6,3.589,3.589,0,0,1-1.769.321C335.683,1300.519,335.27,1300.45,335.293,1300.335Z" transform="translate(-325.026 -1298.635)" fill="#feb05b"/>
        </g>
        <g id="Grupo_1108203" data-name="Grupo 1108203" transform="translate(7.212 16.698)">
          <path id="Trazado_890139" data-name="Trazado 890139" d="M312.766,1290.344V1286.6a96.021,96.021,0,0,0,14.218,1.057,93.953,93.953,0,0,0,14.057-1.057v3.744c0,.023.023.069.023.092,0,1.011-6.316,1.792-14.149,1.792-7.809,0-14.149-.758-14.149-1.769C312.766,1290.413,312.743,1290.367,312.766,1290.344Z" transform="translate(-312.72 -1284.464)" fill="#ffaf5d"/>
          <path id="Trazado_890140" data-name="Trazado 890140" d="M312.766,1288.744V1285a96.019,96.019,0,0,0,14.218,1.057A93.952,93.952,0,0,0,341.04,1285v3.744c0,.023.023.069.023.092,0,1.011-6.316,1.792-14.149,1.792-7.809,0-14.149-.758-14.149-1.768C312.766,1288.813,312.743,1288.79,312.766,1288.744Z" transform="translate(-312.72 -1283.231)" fill="#eb8511"/>
          <path id="Trazado_890141" data-name="Trazado 890141" d="M421,1291.186v-4.525c.367-.046.712-.092,1.057-.161v4.5C421.735,1291.071,421.39,1291.117,421,1291.186Z" transform="translate(-396.102 -1284.387)" fill="#ffb017"/>
          <path id="Trazado_890142" data-name="Trazado 890142" d="M408.1,1292.971v-4.5c.253-.023.505-.046.735-.069v4.525C408.605,1292.925,408.353,1292.948,408.1,1292.971Z" transform="translate(-386.165 -1285.85)" fill="#ffb017"/>
          <path id="Trazado_890143" data-name="Trazado 890143" d="M325.035,1291.648c-.253-.046-.505-.069-.735-.115V1287.1h.735Z" transform="translate(-321.613 -1284.849)" fill="#ffb017"/>
          <path id="Trazado_890144" data-name="Trazado 890144" d="M416.7,1292.071v-4.525c.115-.023.23-.023.345-.046v4.548C416.93,1292.048,416.815,1292.071,416.7,1292.071Z" transform="translate(-392.79 -1285.157)" fill="#ffb017"/>
          <path id="Trazado_890145" data-name="Trazado 890145" d="M312.6,1279.091c0-1.011,6.362-1.792,14.195-1.792,7.809,0,14.149.827,14.149,1.815,0,1.01-6.339,1.814-14.149,1.814C318.985,1280.952,312.6,1280.1,312.6,1279.091Z" transform="translate(-312.6 -1277.3)" fill="#ffaf5d"/>
          <path id="Trazado_890146" data-name="Trazado 890146" d="M320.3,1280.186c0-.712,5.581-1.286,12.449-1.286s12.449.574,12.449,1.286-5.581,1.286-12.449,1.286S320.3,1280.9,320.3,1280.186Z" transform="translate(-318.531 -1278.532)" fill="#fe920c"/>
          <path id="Trazado_890147" data-name="Trazado 890147" d="M346.693,1282.135c.046-.184.9-.252,1.677-.3a.833.833,0,0,1,.161-.39,11.059,11.059,0,0,0-3.56.505h-1.194l-.276.3h1.24c.184.253,1.447.413,3.376.413a9.254,9.254,0,0,0,3.9-.551,4.187,4.187,0,0,1,2.067-.39c.919-.023,1.447.046,1.378.253s-.666.345-1.906.39a1.611,1.611,0,0,1-.23.368,12.086,12.086,0,0,0,3.79-.459h1.217l.276-.3h-1.125c.138-.482-1.263-.574-3.514-.574a10.651,10.651,0,0,0-4.2.6,3.586,3.586,0,0,1-1.769.322C347.083,1282.342,346.647,1282.25,346.693,1282.135Z" transform="translate(-336.403 -1280.458)" fill="#feb05b"/>
        </g>
        <g id="Grupo_1108204" data-name="Grupo 1108204" transform="translate(3.905 12.518)">
          <path id="Trazado_890148" data-name="Trazado 890148" d="M298.4,1272.144V1268.4a96.021,96.021,0,0,0,14.218,1.057,93.954,93.954,0,0,0,14.057-1.057v3.744c0,.023.023.069.023.092,0,1.011-6.316,1.792-14.149,1.792s-14.149-.758-14.149-1.769Z" transform="translate(-298.354 -1266.264)" fill="#ffaf5d"/>
          <path id="Trazado_890149" data-name="Trazado 890149" d="M298.4,1270.644V1266.9a96.019,96.019,0,0,0,14.218,1.057,93.952,93.952,0,0,0,14.057-1.057v3.744c0,.023.023.069.023.092,0,1.011-6.316,1.792-14.149,1.792s-14.149-.758-14.149-1.769Z" transform="translate(-298.354 -1265.108)" fill="#eb8511"/>
          <path id="Trazado_890150" data-name="Trazado 890150" d="M406.7,1272.986v-4.525c.367-.046.712-.092,1.057-.161v4.5C407.412,1272.871,407.067,1272.94,406.7,1272.986Z" transform="translate(-381.779 -1266.187)" fill="#ffb017"/>
          <path id="Trazado_890151" data-name="Trazado 890151" d="M393.7,1274.771v-4.5c.253-.023.505-.046.735-.069v4.525C394.205,1274.725,393.953,1274.748,393.7,1274.771Z" transform="translate(-371.765 -1267.65)" fill="#ffb017"/>
          <path id="Trazado_890152" data-name="Trazado 890152" d="M310.735,1273.448c-.253-.046-.505-.069-.735-.115V1268.9h.735Z" transform="translate(-307.29 -1266.649)" fill="#ffb017"/>
          <path id="Trazado_890153" data-name="Trazado 890153" d="M402.3,1273.971v-4.525c.115-.023.23-.023.345-.046v4.548A.924.924,0,0,0,402.3,1273.971Z" transform="translate(-378.39 -1267.034)" fill="#ffb017"/>
          <path id="Trazado_890154" data-name="Trazado 890154" d="M298.2,1260.891c0-1.011,6.362-1.792,14.195-1.792s14.149.827,14.149,1.815c0,1.01-6.339,1.814-14.149,1.814S298.2,1261.9,298.2,1260.891Z" transform="translate(-298.2 -1259.1)" fill="#ffaf5d"/>
          <path id="Trazado_890155" data-name="Trazado 890155" d="M305.9,1261.986c0-.712,5.581-1.286,12.449-1.286s12.449.574,12.449,1.286-5.581,1.286-12.449,1.286S305.9,1262.7,305.9,1261.986Z" transform="translate(-304.131 -1260.332)" fill="#fe920c"/>
          <path id="Trazado_890156" data-name="Trazado 890156" d="M332.293,1263.935c.046-.184.9-.253,1.677-.3a.834.834,0,0,1,.161-.391,11.069,11.069,0,0,0-3.56.505h-1.194l-.276.3h1.24c.184.253,1.447.414,3.376.414a9.256,9.256,0,0,0,3.9-.551,4.186,4.186,0,0,1,2.067-.391c.919-.023,1.447.046,1.378.253s-.666.344-1.906.39a1.607,1.607,0,0,1-.23.367,12.084,12.084,0,0,0,3.79-.459h1.217l.276-.3h-1.125c.138-.482-1.263-.574-3.514-.574a10.653,10.653,0,0,0-4.2.6,3.587,3.587,0,0,1-1.769.322C332.683,1264.142,332.247,1264.073,332.293,1263.935Z" transform="translate(-322.003 -1262.258)" fill="#feb05b"/>
        </g>
        <g id="Grupo_1108205" data-name="Grupo 1108205" transform="translate(0 8.361)">
          <path id="Trazado_890157" data-name="Trazado 890157" d="M281.3,1253.944V1250.2a96.018,96.018,0,0,0,14.218,1.057,93.952,93.952,0,0,0,14.057-1.057v3.744c0,.023.023.069.023.092,0,1.011-6.316,1.792-14.149,1.792-7.809,0-14.149-.758-14.149-1.768Z" transform="translate(-281.277 -1248.087)" fill="#ffaf5d"/>
          <path id="Trazado_890158" data-name="Trazado 890158" d="M281.3,1252.444V1248.7a96.02,96.02,0,0,0,14.218,1.057,93.953,93.953,0,0,0,14.057-1.057v3.744c0,.023.023.069.023.092,0,1.011-6.316,1.792-14.149,1.792-7.809,0-14.149-.758-14.149-1.769Z" transform="translate(-281.277 -1246.931)" fill="#eb8511"/>
          <path id="Trazado_890159" data-name="Trazado 890159" d="M389.6,1254.786v-4.525c.367-.046.712-.092,1.057-.161v4.5C390.335,1254.671,389.99,1254.74,389.6,1254.786Z" transform="translate(-364.702 -1248.01)" fill="#ffb017"/>
          <path id="Trazado_890160" data-name="Trazado 890160" d="M376.7,1256.671v-4.5c.253-.023.505-.046.735-.069v4.525C377.205,1256.625,376.953,1256.648,376.7,1256.671Z" transform="translate(-354.765 -1249.55)" fill="#ffb017"/>
          <path id="Trazado_890161" data-name="Trazado 890161" d="M293.635,1255.248c-.253-.046-.505-.069-.735-.115V1250.7h.735Z" transform="translate(-290.213 -1248.472)" fill="#ffb017"/>
          <path id="Trazado_890162" data-name="Trazado 890162" d="M385.3,1255.771v-4.525c.115-.023.23-.023.345-.046v4.548A1.749,1.749,0,0,0,385.3,1255.771Z" transform="translate(-361.39 -1248.857)" fill="#ffb017"/>
          <path id="Trazado_890163" data-name="Trazado 890163" d="M281.2,1242.792c0-1.011,6.362-1.792,14.195-1.792,7.809,0,14.149.827,14.149,1.815,0,1.01-6.339,1.814-14.149,1.814C287.562,1244.652,281.2,1243.779,281.2,1242.792Z" transform="translate(-281.2 -1241)" fill="#fdce14"/>
          <path id="Trazado_890164" data-name="Trazado 890164" d="M288.9,1243.886c0-.712,5.581-1.286,12.449-1.286s12.449.574,12.449,1.286-5.581,1.286-12.449,1.286S288.9,1244.6,288.9,1243.886Z" transform="translate(-287.131 -1242.232)" fill="#fe920c"/>
          <path id="Trazado_890165" data-name="Trazado 890165" d="M315.293,1245.835c.046-.184.9-.253,1.677-.3a.834.834,0,0,1,.161-.391,11.069,11.069,0,0,0-3.56.505h-1.194l-.276.3h1.24c.184.253,1.447.414,3.376.414a9.254,9.254,0,0,0,3.9-.551,4.464,4.464,0,0,1,2.067-.391c.919-.023,1.447.046,1.378.253s-.666.344-1.906.391a1.611,1.611,0,0,1-.23.368,12.089,12.089,0,0,0,3.79-.459h1.217l.276-.3h-1.125c.138-.482-1.263-.574-3.514-.574a10.653,10.653,0,0,0-4.2.6,3.587,3.587,0,0,1-1.769.322C315.66,1246.019,315.247,1245.95,315.293,1245.835Z" transform="translate(-305.003 -1244.158)" fill="#feb05b"/>
        </g>
        <g id="Grupo_1108206" data-name="Grupo 1108206" transform="translate(3.905 4.18)">
          <path id="Trazado_890166" data-name="Trazado 890166" d="M298.4,1235.844V1232.1a96.019,96.019,0,0,0,14.218,1.057,93.952,93.952,0,0,0,14.057-1.057v3.744c0,.023.023.069.023.092,0,1.011-6.316,1.792-14.149,1.792s-14.149-.758-14.149-1.769Z" transform="translate(-298.354 -1229.964)" fill="#ffaf5d"/>
          <path id="Trazado_890167" data-name="Trazado 890167" d="M298.4,1234.344V1230.6a96.021,96.021,0,0,0,14.218,1.057,93.954,93.954,0,0,0,14.057-1.057v3.744c0,.023.023.069.023.092,0,1.011-6.316,1.792-14.149,1.792s-14.149-.758-14.149-1.769Z" transform="translate(-298.354 -1228.808)" fill="#eb8511"/>
          <path id="Trazado_890168" data-name="Trazado 890168" d="M406.7,1236.686v-4.525c.367-.046.712-.092,1.057-.161v4.5C407.412,1236.571,407.067,1236.617,406.7,1236.686Z" transform="translate(-381.779 -1229.887)" fill="#ffb017"/>
          <path id="Trazado_890169" data-name="Trazado 890169" d="M393.7,1238.471v-4.5c.253-.023.505-.046.735-.069v4.525C394.205,1238.425,393.953,1238.448,393.7,1238.471Z" transform="translate(-371.765 -1231.35)" fill="#ffb017"/>
          <path id="Trazado_890170" data-name="Trazado 890170" d="M310.735,1237.148c-.253-.046-.505-.069-.735-.115V1232.6h.735Z" transform="translate(-307.29 -1230.349)" fill="#ffb017"/>
          <path id="Trazado_890171" data-name="Trazado 890171" d="M402.3,1237.671v-4.525c.115-.023.23-.023.345-.046v4.548A.93.93,0,0,0,402.3,1237.671Z" transform="translate(-378.39 -1230.734)" fill="#ffb017"/>
          <path id="Trazado_890172" data-name="Trazado 890172" d="M298.2,1224.591c0-1.011,6.362-1.792,14.195-1.792s14.149.827,14.149,1.815c0,1.01-6.339,1.814-14.149,1.814S298.2,1225.6,298.2,1224.591Z" transform="translate(-298.2 -1222.8)" fill="#fdce14"/>
          <path id="Trazado_890173" data-name="Trazado 890173" d="M305.9,1225.686c0-.712,5.581-1.286,12.449-1.286s12.449.574,12.449,1.286-5.581,1.286-12.449,1.286S305.9,1226.4,305.9,1225.686Z" transform="translate(-304.131 -1224.032)" fill="#fe920c"/>
          <path id="Trazado_890174" data-name="Trazado 890174" d="M332.293,1227.635c.046-.184.9-.253,1.677-.3a.832.832,0,0,1,.161-.39,11.056,11.056,0,0,0-3.56.505h-1.194l-.276.3h1.24c.184.253,1.447.413,3.376.413a9.258,9.258,0,0,0,3.9-.551,4.186,4.186,0,0,1,2.067-.391c.919-.023,1.447.046,1.378.253s-.666.345-1.906.391a1.612,1.612,0,0,1-.23.367,12.078,12.078,0,0,0,3.79-.459h1.217l.276-.3h-1.125c.138-.482-1.263-.574-3.514-.574a10.653,10.653,0,0,0-4.2.6,3.587,3.587,0,0,1-1.769.322C332.683,1227.842,332.247,1227.773,332.293,1227.635Z" transform="translate(-322.003 -1225.958)" fill="#feb05b"/>
        </g>
        <g id="Grupo_1108207" data-name="Grupo 1108207" transform="translate(5.306)">
          <path id="Trazado_890175" data-name="Trazado 890175" d="M304.4,1217.644V1213.9a96.02,96.02,0,0,0,14.218,1.057,93.954,93.954,0,0,0,14.057-1.057v3.744c0,.023.023.069.023.092,0,1.011-6.316,1.792-14.149,1.792-7.809,0-14.149-.758-14.149-1.769Z" transform="translate(-304.377 -1211.764)" fill="#ffaf5d"/>
          <path id="Trazado_890176" data-name="Trazado 890176" d="M304.4,1216.144V1212.4a96.019,96.019,0,0,0,14.218,1.057,93.952,93.952,0,0,0,14.057-1.057v3.744c0,.023.023.069.023.092,0,1.011-6.316,1.792-14.149,1.792-7.809,0-14.149-.758-14.149-1.769Z" transform="translate(-304.377 -1210.608)" fill="#eb8511"/>
          <path id="Trazado_890177" data-name="Trazado 890177" d="M412.7,1218.486v-4.525c.368-.046.712-.092,1.057-.161v4.5C413.435,1218.371,413.09,1218.44,412.7,1218.486Z" transform="translate(-387.802 -1211.687)" fill="#ffb017"/>
          <path id="Trazado_890178" data-name="Trazado 890178" d="M399.8,1220.271v-4.5c.253-.023.505-.046.735-.069v4.525C400.282,1220.248,400.053,1220.271,399.8,1220.271Z" transform="translate(-377.865 -1213.15)" fill="#ffb017"/>
          <path id="Trazado_890179" data-name="Trazado 890179" d="M316.735,1218.948c-.253-.046-.505-.069-.735-.115V1214.4h.735Z" transform="translate(-313.313 -1212.149)" fill="#ffb017"/>
          <path id="Trazado_890180" data-name="Trazado 890180" d="M408.4,1219.394v-4.548c.115-.023.23-.023.345-.046v4.548C408.63,1219.371,408.515,1219.371,408.4,1219.394Z" transform="translate(-384.49 -1212.457)" fill="#ffb017"/>
          <path id="Trazado_890181" data-name="Trazado 890181" d="M304.3,1206.391c0-1.011,6.362-1.792,14.195-1.792,7.809,0,14.149.827,14.149,1.815,0,1.01-6.339,1.814-14.149,1.814C310.662,1208.252,304.3,1207.4,304.3,1206.391Z" transform="translate(-304.3 -1204.6)" fill="#fdce14"/>
          <path id="Trazado_890182" data-name="Trazado 890182" d="M312,1207.586c0-.712,5.581-1.286,12.449-1.286s12.449.574,12.449,1.286-5.581,1.286-12.449,1.286C317.581,1208.849,312,1208.275,312,1207.586Z" transform="translate(-310.231 -1205.91)" fill="#fe920c"/>
          <path id="Trazado_890183" data-name="Trazado 890183" d="M338.293,1209.535c.046-.184.9-.253,1.677-.3a.835.835,0,0,1,.161-.391,11.068,11.068,0,0,0-3.56.505h-1.194l-.276.3h1.24c.184.253,1.447.413,3.376.413a9.256,9.256,0,0,0,3.9-.551,4.185,4.185,0,0,1,2.067-.391c.919-.023,1.447.046,1.378.253s-.666.344-1.906.39a1.614,1.614,0,0,1-.23.368,12.09,12.09,0,0,0,3.79-.459h1.217l.276-.3h-1.125c.138-.482-1.263-.574-3.514-.574a10.653,10.653,0,0,0-4.2.6,3.586,3.586,0,0,1-1.769.322C338.683,1209.719,338.27,1209.65,338.293,1209.535Z" transform="translate(-328.026 -1207.835)" fill="#feb05b"/>
        </g>
      </g>
      <g id="Grupo_1108210" data-name="Grupo 1108210" transform="translate(37.828)">
        <g id="Grupo_1108209" data-name="Grupo 1108209" transform="translate(0)">
          <circle id="Elipse_11931" data-name="Elipse 11931" cx="15.159" cy="15.159" r="15.159" transform="translate(0 30.216) rotate(-85.269)" fill="#fdce14"/>
          <circle id="Elipse_11932" data-name="Elipse 11932" cx="11.691" cy="11.691" r="11.691" transform="translate(4.481 5.524)" fill="#ffeb67"/>
          <circle id="Elipse_11933" data-name="Elipse 11933" cx="11.691" cy="11.691" r="11.691" transform="translate(2.284 25.069) rotate(-76.714)" fill="orange"/>
          <path id="Trazado_890184" data-name="Trazado 890184" d="M429.991,1153.216a11.7,11.7,0,0,1,11.668,10.933c.023-.253.023-.505.023-.758a11.691,11.691,0,0,0-23.382,0c0,.253,0,.505.023.758A11.689,11.689,0,0,1,429.991,1153.216Z" transform="translate(-413.635 -1147.003)" fill="#eb860d"/>
          <path id="Trazado_890185" data-name="Trazado 890185" d="M455.873,1176.192c-1.4-.6-1.838-.942-1.838-1.562,0-.689.505-1.1,1.378-1.08a5.021,5.021,0,0,1,2.481.8l.666-2.894a2.905,2.905,0,0,0-.6-.3l.3-.942-2.159-.62-.344,1.08c-.138,0-.3-.023-.436-.023A4.334,4.334,0,0,0,450.59,1175c-.046,1.608.85,3.124,3.216,4.089,1.332.551,1.677.873,1.677,1.562s-.459,1.125-1.539,1.1a6.379,6.379,0,0,1-3.078-1.057l-.666,3.009a6.4,6.4,0,0,0,1.125.551l-.322.988,2.159.62.391-1.194a1.739,1.739,0,0,1,.344.023c3.285.046,5.007-1.769,5.03-4.3C458.951,1178.42,458.032,1177.111,455.873,1176.192Z" transform="translate(-438.208 -1160.791)" fill="#eb860d"/>
          <path id="Trazado_890186" data-name="Trazado 890186" d="M454.773,1177.292c-1.4-.6-1.837-.942-1.837-1.562,0-.689.505-1.1,1.378-1.079a5.02,5.02,0,0,1,2.481.8l.666-2.894a2.883,2.883,0,0,0-.6-.3l.3-.942L455,1170.7l-.345,1.079c-.138,0-.3-.023-.436-.023a4.334,4.334,0,0,0-4.732,4.341c-.046,1.608.85,3.124,3.216,4.088,1.332.551,1.677.873,1.677,1.562s-.459,1.125-1.539,1.1a6.379,6.379,0,0,1-3.078-1.057l-.666,3.009a6.414,6.414,0,0,0,1.125.551l-.322.988,2.159.62.39-1.194a1.74,1.74,0,0,1,.345.023c3.284.046,5.007-1.769,5.03-4.3C457.851,1179.52,456.932,1178.211,454.773,1177.292Z" transform="translate(-437.361 -1161.639)" fill="#ffef04"/>
        </g>
        <path id="Trazado_890187" data-name="Trazado 890187" d="M490.509,1149a8.359,8.359,0,0,1-.965,1.929,2.328,2.328,0,0,1-2.044.253s2.3.62,1.562,3.836c0,0,.436-3.078,3.193-2.526C492.255,1152.491,489.751,1151.917,490.509,1149Z" transform="translate(-466.941 -1144.923)" fill="#fff"/>
      </g>
    </g>
    <g id="Grupo_1108213" data-name="Grupo 1108213" transform="translate(291.664 115.927)">
      <g id="Grupo_1108212" data-name="Grupo 1108212" transform="translate(0)">
        <path id="Trazado_890188" data-name="Trazado 890188" d="M897.8,292.138v.023a2.183,2.183,0,0,1-.712,1.792,2.98,2.98,0,0,1-2,.643,2.75,2.75,0,0,1-2.09-.827,2.985,2.985,0,0,1-.8-2.159v-1.424a3.046,3.046,0,0,1,.781-2.159,2.682,2.682,0,0,1,2.044-.827,2.951,2.951,0,0,1,2.044.643,2.231,2.231,0,0,1,.712,1.815v.023h-1.4A1.218,1.218,0,0,0,895,288.3a1.183,1.183,0,0,0-1.011.528,2.251,2.251,0,0,0-.367,1.355v1.447a2.256,2.256,0,0,0,.391,1.355,1.265,1.265,0,0,0,1.057.528,1.235,1.235,0,0,0,.965-.345,1.5,1.5,0,0,0,.322-1.034Z" transform="translate(-892.2 -287.2)" fill="#29478c"/>
        <path id="Trazado_890189" data-name="Trazado 890189" d="M926.395,291.641a3,3,0,0,1-.827,2.182,2.906,2.906,0,0,1-2.182.873,2.854,2.854,0,0,1-2.159-.873,3.036,3.036,0,0,1-.827-2.182v-1.286a3.036,3.036,0,0,1,.827-2.182,2.854,2.854,0,0,1,2.159-.873,2.946,2.946,0,0,1,3.032,3.055v1.286Zm-1.447-1.309a2.232,2.232,0,0,0-.413-1.378,1.361,1.361,0,0,0-1.171-.528,1.408,1.408,0,0,0-1.148.528,2.232,2.232,0,0,0-.413,1.378v1.309a2.256,2.256,0,0,0,.413,1.4,1.346,1.346,0,0,0,1.148.528,1.378,1.378,0,0,0,1.148-.528,2.256,2.256,0,0,0,.413-1.4v-1.309Z" transform="translate(-913.923 -287.277)" fill="#29478c"/>
        <path id="Trazado_890190" data-name="Trazado 890190" d="M957.311,294.889h-1.447l-2.894-4.846h-.023v4.846H951.5V287.7h1.447l2.894,4.846h.023V287.7h1.447Z" transform="translate(-937.88 -287.585)" fill="#29478c"/>
        <path id="Trazado_890191" data-name="Trazado 890191" d="M985.212,288.8h-2.044v6.087h-1.447V288.8H979.7v-1.1h5.512Z" transform="translate(-959.602 -287.585)" fill="#29478c"/>
        <path id="Trazado_890192" data-name="Trazado 890192" d="M1008.647,292.018v2.871H1007.2V287.7h2.481a3.015,3.015,0,0,1,1.929.551,1.9,1.9,0,0,1,.689,1.562,1.554,1.554,0,0,1-.3.965,2.04,2.04,0,0,1-.85.643,1.607,1.607,0,0,1,.919.62,2.04,2.04,0,0,1,.276,1.08v.528a1.933,1.933,0,0,0,.092.62.716.716,0,0,0,.276.482v.115h-1.493a.821.821,0,0,1-.253-.528,3.824,3.824,0,0,1-.046-.712v-.505a1.044,1.044,0,0,0-.3-.827,1.111,1.111,0,0,0-.827-.3h-1.149Zm0-1.1h1.034a1.345,1.345,0,0,0,.9-.253.9.9,0,0,0,.3-.758,1,1,0,0,0-.3-.781,1.25,1.25,0,0,0-.873-.3h-1.057v2.09Z" transform="translate(-980.786 -287.585)" fill="#29478c"/>
        <path id="Trazado_890193" data-name="Trazado 890193" d="M1037.041,293.427H1034.7l-.482,1.562H1032.7l2.435-7.189h1.47l2.412,7.189H1037.5Zm-1.975-1.148h1.631l-.8-2.527h-.023Z" transform="translate(-1000.429 -287.662)" fill="#29478c"/>
        <path id="Trazado_890194" data-name="Trazado 890194" d="M1064.712,288.8h-2.044v6.087h-1.447V288.8H1059.2v-1.1h5.512Z" transform="translate(-1020.842 -287.585)" fill="#29478c"/>
        <path id="Trazado_890195" data-name="Trazado 890195" d="M1091.195,291.641a3,3,0,0,1-.827,2.182,2.906,2.906,0,0,1-2.182.873,2.854,2.854,0,0,1-2.159-.873,3.035,3.035,0,0,1-.827-2.182v-1.286a3.035,3.035,0,0,1,.827-2.182,2.854,2.854,0,0,1,2.159-.873,2.946,2.946,0,0,1,3.032,3.055v1.286Zm-1.424-1.309a2.232,2.232,0,0,0-.414-1.378,1.361,1.361,0,0,0-1.171-.528,1.407,1.407,0,0,0-1.148.528,2.187,2.187,0,0,0-.413,1.378v1.309a2.255,2.255,0,0,0,.413,1.4,1.345,1.345,0,0,0,1.148.528,1.377,1.377,0,0,0,1.148-.528,2.256,2.256,0,0,0,.413-1.4v-1.309Z" transform="translate(-1040.87 -287.277)" fill="#29478c"/>
      </g>
    </g>
  </g>
</svg>
