<svg xmlns="http://www.w3.org/2000/svg" width="55.999" height="55.999" viewBox="0 0 55.999 55.999">
  <g id="map_854952" transform="translate(-0.001)">
    <path id="Trazado_889751" data-name="Trazado 889751" d="M61.842,345.342H7.478L15.55,325.8H53.769Z" transform="translate(-6.66 -290.167)" fill="#a8eefc"/>
    <path id="Trazado_889752" data-name="Trazado 889752" d="M406.741,325.8H403.8l8.072,19.541h2.944Z" transform="translate(-359.632 -290.167)" fill="#7ee5f2"/>
    <path id="Trazado_889753" data-name="Trazado 889753" d="M87.314,336.709l-1.795-4.344H64.269L56.763,325.8H51.929l-2.712,6.564h-7.34l-1.795,4.344h7.34l-3.566,8.633h4.835L54.7,330.787l17.11,14.555h7.294l-9.872-8.633Z" transform="translate(-35.699 -290.167)" fill="#ffdb56"/>
    <path id="Trazado_889754" data-name="Trazado 889754" d="M430.383,390.161h2.944l-1.795-4.344h-2.944Z" transform="translate(-381.712 -343.619)" fill="#ffbb24"/>
    <g id="Grupo_1108053" data-name="Grupo 1108053" transform="translate(6.179 35.634)">
      <path id="Trazado_889755" data-name="Trazado 889755" d="M63.831,332.365h-7.34L59.2,325.8h7.34Z" transform="translate(-56.491 -325.801)" fill="#4ce166"/>
      <path id="Trazado_889756" data-name="Trazado 889756" d="M221.346,332.365H200.1L192.59,325.8h26.045Z" transform="translate(-177.704 -325.801)" fill="#4ce166"/>
    </g>
    <path id="Trazado_889757" data-name="Trazado 889757" d="M409.453,332.365l-2.712-6.564H403.8l2.712,6.564Z" transform="translate(-359.632 -290.167)" fill="#44c868"/>
    <path id="Trazado_889758" data-name="Trazado 889758" d="M124.8,371.389l-6.013,14.555h23.123Z" transform="translate(-105.793 -330.769)" fill="#4ce166"/>
    <path id="Trazado_889759" data-name="Trazado 889759" d="M118.809,7.534a16.912,16.912,0,0,0-16.848,16.975c0,14.276,16.848,27.411,16.848,27.411s16.848-13.135,16.848-27.411A16.912,16.912,0,0,0,118.809,7.534Zm0,23.745a6.77,6.77,0,1,1,6.72-6.77A6.745,6.745,0,0,1,118.809,31.279Z" transform="translate(-90.809 -6.71)" fill="#ff4a4a"/>
    <path id="Trazado_889760" data-name="Trazado 889760" d="M244.012,7.534c-.5,0-.987.023-1.472.065a16.926,16.926,0,0,1,15.376,16.909c0,11.678-11.273,22.592-15.376,26.177.913.8,1.472,1.234,1.472,1.234S260.86,38.785,260.86,24.508A16.912,16.912,0,0,0,244.012,7.534Z" transform="translate(-216.012 -6.71)" fill="#e7343f"/>
    <path id="Trazado_889761" data-name="Trazado 889761" d="M194.622,108.486a7.595,7.595,0,0,0,0-15.189,7.457,7.457,0,0,0-4.268,1.334.828.828,0,0,0-.21,1.146.814.814,0,0,0,1.137.212,5.836,5.836,0,0,1,3.341-1.044,5.929,5.929,0,1,1-5.239,3.206.827.827,0,0,0-.348-1.111.815.815,0,0,0-1.1.351,7.662,7.662,0,0,0-.847,3.5A7.575,7.575,0,0,0,194.622,108.486Z" transform="translate(-166.621 -83.093)"/>
    <path id="Trazado_889762" data-name="Trazado 889762" d="M55.937,54.859,47.865,35.317h0a.818.818,0,0,0-.755-.507H39.066a41.71,41.71,0,0,0,3.884-6.342A24.451,24.451,0,0,0,45.666,17.8a17.666,17.666,0,1,0-35.332,0,24.451,24.451,0,0,0,2.716,10.669,41.688,41.688,0,0,0,3.884,6.342H8.891a.818.818,0,0,0-.755.507l-5.5,13.316a.826.826,0,0,0,.441,1.077.814.814,0,0,0,1.069-.444l.785-1.9H10.5L7.612,54.351H2.045l.836-2.025a.826.826,0,0,0-.441-1.077.815.815,0,0,0-1.069.444L.063,54.859a.829.829,0,0,0,.075.774A.816.816,0,0,0,.818,56H55.182a.816.816,0,0,0,.68-.367A.829.829,0,0,0,55.937,54.859ZM11.97,17.8a16.03,16.03,0,1,1,32.06,0c0,3.734-1.288,9.7-7.245,17.306l-.017.022q-.456.582-.949,1.177A62.926,62.926,0,0,1,28,44.151a62.828,62.828,0,0,1-7.8-7.822q-.506-.609-.972-1.2l-.015-.019C13.259,27.5,11.97,21.534,11.97,17.8ZM9.436,36.458H15l-2.031,4.916H7.405Zm4.783,17.893,5.112-12.375L33.879,54.351Zm22.2,0L19.533,39.991a.815.815,0,0,0-1.283.313l-5.8,14.048H9.384l3.095-7.492a.829.829,0,0,0-.075-.774.816.816,0,0,0-.68-.367H5.611l1.114-2.7h6.794a.818.818,0,0,0,.755-.507l2.5-6.057H18.2q.37.464.754.929A61.707,61.707,0,0,0,27.5,45.862a.813.813,0,0,0,1,0c.1-.075,1.4-1.095,3.245-2.839h9.262a.824.824,0,0,0,0-1.648H33.432c1.134-1.149,2.373-2.488,3.62-3.987q.386-.464.754-.929h8.759L48.6,41.374H44.279a.824.824,0,0,0,0,1.648h5l1.114,2.7H33.538a.818.818,0,0,0-.766.536.828.828,0,0,0,.23.911l8.218,7.187Zm7.3,0-7.987-6.985H51.07l2.885,6.985Z" transform="translate(0)"/>
  </g>
</svg>
