<svg xmlns="http://www.w3.org/2000/svg" width="108" height="108" viewBox="0 0 108 108">
  <g id="Grupo_1108655" data-name="Grupo 1108655" transform="translate(-273.669 -2739)">
    <circle id="Elipse_11934" data-name="Elipse 11934" cx="54" cy="54" r="54" transform="translate(273.669 2739)" fill="#3cead6"/>
    <g id="compliance_2631401" transform="translate(287.835 2756.666)">
      <g id="Grupo_1108224" data-name="Grupo 1108224" transform="translate(2.269 2.269)">
        <g id="Grupo_1108215" data-name="Grupo 1108215" transform="translate(2.538 5.075)">
          <path id="Trazado_890240" data-name="Trazado 890240" d="M4,6H75.055V56.754H4Z" transform="translate(-4 -6)" fill="#e6e9ed"/>
        </g>
        <g id="Grupo_1108216" data-name="Grupo 1108216" transform="translate(21.57 60.904)">
          <path id="Trazado_890241" data-name="Trazado 890241" d="M31.688,50,26.613,65.226H19L24.075,50Z" transform="translate(-19 -50)" fill="#cf9e76"/>
        </g>
        <g id="Grupo_1108217" data-name="Grupo 1108217" transform="translate(41.872 60.904)">
          <path id="Trazado_890242" data-name="Trazado 890242" d="M42.613,50l5.075,15.226H40.075L35,50Z" transform="translate(-35 -50)" fill="#cf9e76"/>
        </g>
        <g id="Grupo_1108218" data-name="Grupo 1108218" transform="translate(0 0)">
          <path id="Trazado_890243" data-name="Trazado 890243" d="M78.13,3.269V5.807a1.273,1.273,0,0,1-1.269,1.269H3.269A1.273,1.273,0,0,1,2,5.807V3.269A1.273,1.273,0,0,1,3.269,2H76.861A1.273,1.273,0,0,1,78.13,3.269Z" transform="translate(-2 -2)" fill="#ccd1d9"/>
        </g>
        <g id="Grupo_1108219" data-name="Grupo 1108219" transform="translate(0 55.829)">
          <path id="Trazado_890244" data-name="Trazado 890244" d="M78.13,47.269v2.538a1.273,1.273,0,0,1-1.269,1.269H3.269A1.273,1.273,0,0,1,2,49.807V47.269A1.273,1.273,0,0,1,3.269,46H76.861A1.273,1.273,0,0,1,78.13,47.269Z" transform="translate(-2 -46)" fill="#ccd1d9"/>
        </g>
        <g id="Grupo_1108220" data-name="Grupo 1108220" transform="translate(26.709 10.151)">
          <path id="Trazado_890245" data-name="Trazado 890245" d="M34.2,37.635a12.688,12.688,0,1,0-2.271-8.6H25.524a2.532,2.532,0,0,1-2.474-2l4.428-1.561a18.435,18.435,0,0,1,1.573-3.832L27.5,18.641,32.9,13.248,35.891,14.8a18.435,18.435,0,0,1,3.832-1.573L40.75,10h7.613l1.028,3.223A18.435,18.435,0,0,1,53.223,14.8l2.994-1.548,5.393,5.393-1.548,2.994a18.435,18.435,0,0,1,1.573,3.832l3.223,1.028v7.613l-3.223,1.028a18.435,18.435,0,0,1-1.573,3.832l1.548,2.994-5.393,5.38-2.994-1.535a18.435,18.435,0,0,1-3.832,1.573L48.363,50.6H40.75L39.723,47.38a18.435,18.435,0,0,1-3.832-1.573l-1.5.774a2.552,2.552,0,0,0-2.525-2.322,2.556,2.556,0,0,0,2.538-2.538,2.545,2.545,0,0,0-2.538-2.538,2.481,2.481,0,0,0,1.789-.749,2.3,2.3,0,0,0,.546-.8Z" transform="translate(-23.05 -10)" fill="#ffc729"/>
        </g>
        <g id="Grupo_1108221" data-name="Grupo 1108221" transform="translate(35.527 17.764)">
          <path id="Trazado_890246" data-name="Trazado 890246" d="M32.538,29.957a2.549,2.549,0,0,0-2.474-2.538,12.689,12.689,0,1,1,2.271,8.6A2.534,2.534,0,0,0,30,32.495a2.556,2.556,0,0,0,2.538-2.538Zm2.538-1.269a7.613,7.613,0,1,0,7.613-7.613A7.619,7.619,0,0,0,35.075,28.688Z" transform="translate(-30 -16)" fill="#fcd770"/>
        </g>
        <g id="Grupo_1108222" data-name="Grupo 1108222" transform="translate(2.538 30.452)">
          <path id="Trazado_890247" data-name="Trazado 890247" d="M11.613,43.764V46.3H4V26h7.613V43.764Z" transform="translate(-4 -26)" fill="#b4dd7f"/>
        </g>
        <g id="Grupo_1108223" data-name="Grupo 1108223" transform="translate(10.151 13.957)">
          <path id="Trazado_890248" data-name="Trazado 890248" d="M35.377,33.3a2.534,2.534,0,0,1,2.335,3.527,2.3,2.3,0,0,1-.546.8,2.481,2.481,0,0,1-1.789.749,2.545,2.545,0,0,1,2.538,2.538,2.556,2.556,0,0,1-2.538,2.538A2.552,2.552,0,0,1,37.9,45.774a1.161,1.161,0,0,1,.013.216,2.545,2.545,0,0,1-2.538,2.538h-17.8a7.366,7.366,0,0,1-2.4-.393l-2.639-.875H10V32.033h.495A10.933,10.933,0,0,0,21.42,21.108V14.269A1.273,1.273,0,0,1,22.688,13a3.812,3.812,0,0,1,3.807,3.807v8.882a2.45,2.45,0,0,0,.063.533,2.532,2.532,0,0,0,2.474,2H35.44a2.549,2.549,0,0,1,2.474,2.538A2.556,2.556,0,0,1,35.377,33.3Z" transform="translate(-10 -13)" fill="#f0d0b4"/>
        </g>
      </g>
      <g id="Grupo_1108225" data-name="Grupo 1108225" transform="translate(1 1)">
        <path id="Trazado_890249" data-name="Trazado 890249" d="M79.668,6.075V3.538A2.54,2.54,0,0,0,77.13,1H3.538A2.54,2.54,0,0,0,1,3.538V6.075A2.54,2.54,0,0,0,3.538,8.613V56.829A2.54,2.54,0,0,0,1,59.367V61.9a2.54,2.54,0,0,0,2.538,2.538H27.153L22.078,79.668H32.366l5.075-15.226h5.783L48.3,79.668H58.587L53.512,64.442H77.13A2.54,2.54,0,0,0,79.668,61.9V59.367a2.54,2.54,0,0,0-2.538-2.538V8.613A2.54,2.54,0,0,0,79.668,6.075ZM3.538,3.538H77.13V6.075H3.538ZM6.075,33.99h5.075V51.754H6.075ZM30.537,77.13H25.6l4.23-12.688h4.938Zm24.532,0H50.131L45.9,64.442H50.84ZM77.132,61.9H3.538V59.367H77.13Zm-2.539-5.075H6.075V54.291h7.613V51.754h1.063l2.439.813A8.868,8.868,0,0,0,20,53.022H37.8a3.8,3.8,0,0,0,3.748-3.229l.268-.138a19.053,19.053,0,0,0,2.828,1.166l1.113,3.47h9.464l1.112-3.469a19.054,19.054,0,0,0,2.828-1.166L62.39,51.32l6.692-6.691-1.665-3.234a18.918,18.918,0,0,0,1.166-2.828l3.472-1.114V27.988l-3.469-1.112a18.95,18.95,0,0,0-1.166-2.828l1.665-3.234-6.692-6.692-3.234,1.665a19.053,19.053,0,0,0-2.828-1.166l-1.114-3.47H45.752L44.64,14.62a19.053,19.053,0,0,0-2.828,1.166l-3.234-1.665-6.692,6.692,1.665,3.234A19.114,19.114,0,0,0,32.377,26.9l-2.194.774v-7.64a5.08,5.08,0,0,0-5.075-5.075,2.54,2.54,0,0,0-2.538,2.538V24.34a9.585,9.585,0,0,1-8.882,9.594V31.452H6.075V8.613H74.593Zm-60.9-20.357A12.109,12.109,0,0,0,25.108,24.34V17.495a2.54,2.54,0,0,1,2.538,2.538v8.882a3.811,3.811,0,0,0,3.807,3.807H37.8a1.269,1.269,0,1,1,0,2.538H33.99V37.8H37.8a1.269,1.269,0,1,1,0,2.538H33.99v2.538H37.8a1.269,1.269,0,1,1,0,2.538H33.99v2.538H37.8a1.269,1.269,0,1,1,0,2.538H20a6.326,6.326,0,0,1-2.006-.325l-2.831-.944H13.688ZM34.99,21.3l4.074-4.076,2.785,1.434.594-.334a16.507,16.507,0,0,1,3.548-1.462l.656-.185.957-2.989h5.762l.958,2.989.656.185a16.507,16.507,0,0,1,3.548,1.462l.594.334,2.785-1.434L65.98,21.3l-1.433,2.784.332.6a16.359,16.359,0,0,1,1.463,3.549l.185.656,2.989.955V35.6l-2.989.957-.185.656a16.293,16.293,0,0,1-1.463,3.548l-.334.6,1.434,2.785-4.074,4.074L59.12,46.783l-.594.334a16.507,16.507,0,0,1-3.548,1.462l-.656.185-.957,2.989H47.6l-.958-2.989-.656-.185a16.507,16.507,0,0,1-3.548-1.462l-.594-.334-.831.428a3.86,3.86,0,0,0-.406-.533,3.776,3.776,0,0,0,.99-2.538,3.885,3.885,0,0,0-.074-.733,13.948,13.948,0,1,0-4.763-13.224H31.452a1.238,1.238,0,0,1-.481-.1l3.477-1.226.179-.632a16.423,16.423,0,0,1,1.463-3.549l.332-.6Zm4.294,9.186a11.457,11.457,0,1,1,2.247,9.29,3.705,3.705,0,0,0-.917-3.249,3.784,3.784,0,0,0-1.33-6.041Z" transform="translate(-1 -1)"/>
        <path id="Trazado_890250" data-name="Trazado 890250" d="M41.882,36.764A8.882,8.882,0,1,0,33,27.882,8.892,8.892,0,0,0,41.882,36.764Zm0-15.226a6.344,6.344,0,1,1-6.344,6.344A6.351,6.351,0,0,1,41.882,21.538Z" transform="translate(7.603 3.839)"/>
        <path id="Trazado_890251" data-name="Trazado 890251" d="M7,9H18.42v2.538H7Z" transform="translate(0.613 1.151)"/>
        <path id="Trazado_890252" data-name="Trazado 890252" d="M7,13H18.42v2.538H7Z" transform="translate(0.613 2.226)"/>
        <path id="Trazado_890253" data-name="Trazado 890253" d="M7,17H18.42v2.538H7Z" transform="translate(0.613 3.301)"/>
      </g>
    </g>
  </g>
</svg>
