<svg xmlns="http://www.w3.org/2000/svg" width="76.347" height="60.041" viewBox="0 0 76.347 60.041">
  <g id="work_16405644" transform="translate(0 -54.668)">
    <g id="Grupo_1108054" data-name="Grupo 1108054" transform="translate(2.025 55.709)">
      <path id="Trazado_889763" data-name="Trazado 889763" d="M143.372,252.976h-2.735c-9.05,6.349-14.114,4.5-15.766,18.294a67.851,67.851,0,0,0-.549,7.515,2.959,2.959,0,0,0,2.971,3.06h32.158a2.959,2.959,0,0,0,2.972-3.06,67.708,67.708,0,0,0-.549-7.515c-1.653-13.8-6.717-11.945-15.766-18.294Z" transform="translate(-107.807 -224.446)" fill="#57a3ff" fill-rule="evenodd"/>
      <path id="Trazado_889764" data-name="Trazado 889764" d="M33.777,185.427v12.824a1.576,1.576,0,0,1-1.53,1.615H15.111a1.577,1.577,0,0,1-1.53-1.615V185.427Z" transform="translate(-13.581 -166.97)" fill="#ffba57" fill-rule="evenodd"/>
      <path id="Trazado_889765" data-name="Trazado 889765" d="M171.107,325.774H193.29l1.15-13.336a1.289,1.289,0,0,0-.33-1.006,1.259,1.259,0,0,0-.972-.431H171.259a1.259,1.259,0,0,0-.972.431,1.288,1.288,0,0,0-.329,1.006Z" transform="translate(-146.633 -273.818)" fill="#425f78" fill-rule="evenodd"/>
      <path id="Trazado_889766" data-name="Trazado 889766" d="M240.028,350.6a2.111,2.111,0,1,0-2.113-2.113A2.111,2.111,0,0,0,240.028,350.6Z" transform="translate(-204.463 -303.924)" fill="#eaf6ff" fill-rule="evenodd"/>
      <path id="Trazado_889767" data-name="Trazado 889767" d="M164.1,402.646h26.241v1.746a1.752,1.752,0,0,1-1.746,1.746H165.846a1.752,1.752,0,0,1-1.746-1.746Z" transform="translate(-141.655 -351.798)" fill="#ffba57" fill-rule="evenodd"/>
      <path id="Trazado_889768" data-name="Trazado 889768" d="M228.561,227.153h7v5.338a3.5,3.5,0,1,1-7,0Z" transform="translate(-196.504 -202.474)" fill="#fcb079" fill-rule="evenodd"/>
      <path id="Trazado_889769" data-name="Trazado 889769" d="M179.776,77.937h21.566v-8.4c0-4.054-3.284-7.245-7.228-6.315a4.826,4.826,0,0,1-3.208-.689c-5.719-2.87-11.129,1.7-11.129,7Z" transform="translate(-154.994 -61.648)" fill="#59616e" fill-rule="evenodd"/>
      <path id="Trazado_889770" data-name="Trazado 889770" d="M179.675,149.83a2.918,2.918,0,1,1-3.977,1.095A2.918,2.918,0,0,1,179.675,149.83Zm17.055,0a2.918,2.918,0,1,1-3.977,1.095A2.918,2.918,0,0,1,196.73,149.83Z" transform="translate(-151.199 -136.356)" fill="#fcb079" fill-rule="evenodd"/>
      <path id="Trazado_889771" data-name="Trazado 889771" d="M235.565,229.9a9.434,9.434,0,0,1-7,0v-2.739h7Z" transform="translate(-196.504 -202.474)" fill="#e39e6d" fill-rule="evenodd"/>
      <path id="Trazado_889772" data-name="Trazado 889772" d="M213.377,116.789c-3.1.114-8.948.955-9.629-3.161a17.663,17.663,0,0,1-6.822,3.161v7.744a8.225,8.225,0,0,0,16.451,0Z" transform="translate(-169.587 -105.877)" fill="#fdc8a2" fill-rule="evenodd"/>
      <path id="Trazado_889773" data-name="Trazado 889773" d="M341.833,148.156A12.165,12.165,0,1,1,354,160.321a12.165,12.165,0,0,1-12.165-12.165Z" transform="translate(-292.886 -124.905)" fill="#fa4655" fill-rule="evenodd"/>
      <path id="Trazado_889774" data-name="Trazado 889774" d="M361.449,164.846a9.242,9.242,0,1,0,9.241-9.24,9.243,9.243,0,0,0-9.241,9.24Z" transform="translate(-309.577 -141.596)" fill="#eaf6ff" fill-rule="evenodd"/>
    </g>
    <path id="Trazado_889775" data-name="Trazado 889775" d="M91.505,426.06H139.4v3.622H91.505Z" transform="translate(-77.861 -316.012)" fill="#e6a74e"/>
    <path id="Trazado_889776" data-name="Trazado 889776" d="M182.828,72.446c.613-4.861,5.706-8.712,11.066-6.023a4.826,4.826,0,0,0,3.208.693,5.549,5.549,0,0,1,3.981.5,5.82,5.82,0,0,0-6.97-4.392,4.826,4.826,0,0,1-3.208-.689c-5.719-2.87-11.129,1.7-11.129,7v6.269a2.91,2.91,0,0,1,2.557-1.048v-2.2q.247-.051.495-.114Z" transform="translate(-152.969 -5.939)" fill="#505763" fill-rule="evenodd"/>
    <path id="Trazado_889777" data-name="Trazado 889777" d="M15.811,221.239v-7.672c-.7-.309-1.391-.655-2.088-1.044-.047-.025-.093-.055-.14-.08v8.8a1.577,1.577,0,0,0,1.53,1.615h2.227A1.574,1.574,0,0,1,15.811,221.239Z" transform="translate(-11.559 -134.248)" fill="#e6a74e" fill-rule="evenodd"/>
    <path id="Trazado_889778" data-name="Trazado 889778" d="M18.082,171.509H8.652c-.93,0-1.648.372-1.648,1.5v2.777a2.138,2.138,0,0,0,1.12,1.91,19.244,19.244,0,0,0,19.917,0,2.142,2.142,0,0,0,1.124-1.91v-2.777c0-1.124-.723-1.5-1.653-1.5Z" transform="translate(-5.96 -99.418)" fill="#e6a74e" fill-rule="evenodd"/>
    <path id="Trazado_889779" data-name="Trazado 889779" d="M9.785,175.782v-2.777c0-1.124.719-1.5,1.648-1.5H8.652c-.93,0-1.648.372-1.648,1.5v2.777a2.138,2.138,0,0,0,1.12,1.91,19.774,19.774,0,0,0,11.341,2.718,20.9,20.9,0,0,1-8.559-2.718,2.138,2.138,0,0,1-1.12-1.91Z" transform="translate(-5.96 -99.418)" fill="#cf9646" fill-rule="evenodd"/>
    <path id="Trazado_889780" data-name="Trazado 889780" d="M70.586,217.94h3.2V222h-3.2Z" transform="translate(-60.061 -138.926)" fill="#59616e"/>
    <path id="Trazado_889781" data-name="Trazado 889781" d="M70.586,217.94h1.6V222h-1.6Z" transform="translate(-60.061 -138.926)" fill="#505763"/>
    <path id="Trazado_889782" data-name="Trazado 889782" d="M127.188,274.877c1.463-12.228,5.6-12.169,12.828-16.413a3.451,3.451,0,0,1-.144-.985v-.959c-8.564,5.723-13.387,4.371-14.993,17.765a67.858,67.858,0,0,0-.549,7.515h2.325A64.591,64.591,0,0,1,127.188,274.877Z" transform="translate(-105.792 -171.753)" fill="#4e93e6" fill-rule="evenodd"/>
    <path id="Trazado_889783" data-name="Trazado 889783" d="M173.746,324.666l-1.057-12.228a1.291,1.291,0,0,1,.334-1.006A1.259,1.259,0,0,1,174,311H171.26a1.259,1.259,0,0,0-.972.431,1.288,1.288,0,0,0-.33,1.006l1.052,12.228Z" transform="translate(-144.609 -218.11)" fill="#3b566c" fill-rule="evenodd"/>
    <path id="Trazado_889784" data-name="Trazado 889784" d="M168.767,403.753v-1.107H164.1v1.746a1.752,1.752,0,0,0,1.746,1.746h4.666a1.752,1.752,0,0,1-1.745-1.746Z" transform="translate(-139.631 -296.089)" fill="#e6a74e" fill-rule="evenodd"/>
    <path id="Trazado_889785" data-name="Trazado 889785" d="M91.5,426.06H115.45v3.622H91.5Z" transform="translate(-77.861 -316.012)" fill="#cf9646"/>
    <path id="Trazado_889786" data-name="Trazado 889786" d="M343.75,148.156a12.171,12.171,0,0,1,11.206-12.127c-.317-.025-.634-.038-.96-.038a12.165,12.165,0,0,0,0,24.33c.326,0,.643-.013.96-.038A12.168,12.168,0,0,1,343.75,148.156Z" transform="translate(-290.859 -69.196)" fill="#dd404d" fill-rule="evenodd"/>
    <path id="Trazado_889787" data-name="Trazado 889787" d="M362.51,164.846a9.243,9.243,0,0,1,8.7-9.227c-.178-.008-.355-.013-.537-.013a9.242,9.242,0,0,0,0,18.484c.182,0,.359,0,.537-.017A9.243,9.243,0,0,1,362.51,164.846Z" transform="translate(-307.539 -85.887)" fill="#d3dde6" fill-rule="evenodd"/>
    <path id="Trazado_889788" data-name="Trazado 889788" d="M23.268,86.988v-8.3a3.186,3.186,0,0,0,.981-2.321V73.585a2.43,2.43,0,0,0-2.692-2.54H19V69.612a2.311,2.311,0,0,0-2.27-2.346H7.519a2.311,2.311,0,0,0-2.27,2.346v1.433H2.7A2.432,2.432,0,0,0,0,73.585v2.777a3.186,3.186,0,0,0,.985,2.325v8.3a2.62,2.62,0,0,0,2.574,2.659H20.693A2.62,2.62,0,0,0,23.268,86.988ZM7.337,69.612a.244.244,0,0,1,.182-.258h9.214a.244.244,0,0,1,.182.258v1.433H7.337Zm-5.25,6.75V73.585c0-.32,0-.452.609-.452h18.86c.6,0,.6.132.6.452v2.777a1.087,1.087,0,0,1-.587,1,20.688,20.688,0,0,1-6.805,2.427v-.775a1.044,1.044,0,0,0-1.044-1.044h-3.2a1.044,1.044,0,0,0-1.044,1.044v.78A20.527,20.527,0,0,1,2.676,77.36a1.089,1.089,0,0,1-.588-1Zm10.592,3.694V82.03H11.572V80.056ZM3.072,86.988V79.916A21.759,21.759,0,0,0,9.484,81.9v1.171a1.044,1.044,0,0,0,1.044,1.044h3.2a1.044,1.044,0,0,0,1.044-1.044V81.9a21.868,21.868,0,0,0,6.412-1.987v7.077a.541.541,0,0,1-.486.571H3.558a.541.541,0,0,1-.486-.571Zm61.109-2.113v.752a1.044,1.044,0,1,1-2.088,0v-.752a1.044,1.044,0,0,1,2.088,0Zm5.638-2.06a1.044,1.044,0,0,1-1.426.382l-.651-.376a1.044,1.044,0,1,1,1.045-1.808l.651.376a1.044,1.044,0,0,1,.382,1.426Zm-2.443,1.4a1.044,1.044,0,1,1-1.808,1.044l-.376-.651A1.044,1.044,0,1,1,67,83.562ZM61.084,73.307a1.044,1.044,0,1,1-1.808,1.045L58.9,73.7a1.044,1.044,0,0,1,1.808-1.045Zm9.768,5.649A1.044,1.044,0,0,1,69.808,80h-.752a1.044,1.044,0,1,1,0-2.088h.752a1.044,1.044,0,0,1,1.043,1.044ZM63.139,65.748A13.209,13.209,0,1,0,76.346,78.957,13.209,13.209,0,0,0,63.139,65.748Zm0,24.329a11.12,11.12,0,1,1,11.12-11.12,11.12,11.12,0,0,1-11.12,11.12Zm0-21.4A10.286,10.286,0,1,0,73.426,78.959,10.285,10.285,0,0,0,63.139,68.673Zm0,18.483a8.2,8.2,0,1,1,8.2-8.2,8.2,8.2,0,0,1-8.2,8.2Zm-2.055-2.55-.376.651A1.044,1.044,0,0,1,58.9,84.212l.376-.651a1.044,1.044,0,0,1,1.808,1.045Zm-2.55-1.787-.651.376a1.044,1.044,0,0,1-1.044-1.808l.651-.376a1.044,1.044,0,1,1,1.044,1.808ZM56.457,75.1a1.044,1.044,0,0,1,1.426-.381l.651.376A1.044,1.044,0,0,1,57.489,76.9l-.651-.376a1.044,1.044,0,0,1-.382-1.427Zm5.638,3.7V75.783a1.044,1.044,0,0,1,2.088,0V78.2l2.006,1.185a1.044,1.044,0,0,1-1.062,1.8L62.608,79.7a1.044,1.044,0,0,1-.514-.9Zm0-5.761v-.752a1.044,1.044,0,1,1,2.088,0v.752a1.044,1.044,0,1,1-2.088,0ZM56.469,80a1.044,1.044,0,0,1,0-2.088h.752a1.044,1.044,0,1,1,0,2.088Zm8.723-6.694.376-.651A1.044,1.044,0,0,1,67.376,73.7L67,74.352a1.044,1.044,0,1,1-1.808-1.045Zm2.55,1.787.651-.376a1.044,1.044,0,0,1,1.045,1.808l-.651.376a1.044,1.044,0,1,1-1.045-1.808ZM34.722,72.283a1.044,1.044,0,1,1-2.088,0V71.154a1.044,1.044,0,1,1,2.088,0Zm2.87,31.146a3.155,3.155,0,1,0-3.157-3.158,3.155,3.155,0,0,0,3.157,3.158Zm0-4.222a1.066,1.066,0,1,1-.755.311A1.067,1.067,0,0,1,37.591,99.207ZM35.012,76.85a1.044,1.044,0,0,1,1.446.3,1.343,1.343,0,0,0,1.131.5h0a1.351,1.351,0,0,0,1.138-.5,1.044,1.044,0,1,1,1.743,1.15,3.4,3.4,0,0,1-2.88,1.439h0A3.389,3.389,0,0,1,34.713,78.3,1.044,1.044,0,0,1,35.012,76.85Zm5.446-4.567V71.154a1.044,1.044,0,0,1,2.088,0v1.129a1.044,1.044,0,1,1-2.088,0ZM61.536,109H57.649a64.66,64.66,0,0,0-.52-6.6C55.838,91.637,52.34,89.794,47.046,87c-1.466-.772-3.113-1.64-4.919-2.812V82.446a9.291,9.291,0,0,0,4.646-6.821,3.963,3.963,0,0,0,2.641-6.108V63.6A7.781,7.781,0,0,0,46.588,57.5a6.551,6.551,0,0,0-5.681-1.236,3.9,3.9,0,0,1-2.5-.606,8.422,8.422,0,0,0-8.359.24,9.1,9.1,0,0,0-4.282,7.7v5.925c-.052.078-.1.157-.148.239a3.954,3.954,0,0,0,2.793,5.864,9.291,9.291,0,0,0,4.629,6.812V84.2c-1.8,1.168-3.443,2.034-4.906,2.805-5.292,2.79-8.789,4.633-10.079,15.4A64.884,64.884,0,0,0,17.531,109H13.648a1.044,1.044,0,0,0-1.044,1.044v3.622a1.044,1.044,0,0,0,1.044,1.044H61.536a1.044,1.044,0,0,0,1.044-1.044v-3.621A1.044,1.044,0,0,0,61.536,109ZM47.549,70.509c.016.021.034.041.051.06a1.874,1.874,0,0,1-.739,2.87V70a1.908,1.908,0,0,1,.183.09,1.869,1.869,0,0,1,.5.42ZM28.323,73.44a1.85,1.85,0,0,1-.184-.089,1.885,1.885,0,0,1-.7-2.56,1.863,1.863,0,0,1,.174-.253l.011-.014a1.866,1.866,0,0,1,.7-.528Zm0-6.82v1.207a3.955,3.955,0,0,0-.469.121V63.6a7,7,0,0,1,3.291-5.92,6.3,6.3,0,0,1,6.328-.15,5.837,5.837,0,0,0,3.915.771,4.5,4.5,0,0,1,3.906.841A5.679,5.679,0,0,1,47.326,63.6v4.349a3.9,3.9,0,0,0-.465-.119V66.619a1.044,1.044,0,0,0-1.082-1.044c-.349.013-.725.034-1.123.057-3.681.209-7.019.187-7.441-2.346a1.044,1.044,0,0,0-1.646-.671A16.471,16.471,0,0,1,29.153,65.6a1.044,1.044,0,0,0-.831,1.022Zm2.088,7.743V67.445A18.137,18.137,0,0,0,35.635,65.1c1.6,3.045,6.23,2.782,9.138,2.616v1.1a.01.01,0,0,0,0,0v5.538a7.194,7.194,0,0,1-4.044,6.462,1.043,1.043,0,0,0-.166.077,7.153,7.153,0,0,1-5.981-.018,1.061,1.061,0,0,0-.114-.052,7.194,7.194,0,0,1-4.057-6.469Zm9.628,8.943v2.418a2.456,2.456,0,1,1-4.912,0V83.3A9.225,9.225,0,0,0,40.039,83.306ZM20.128,102.654c1.16-9.678,3.938-11.142,8.98-13.8,1.218-.642,2.557-1.348,4.02-2.24a4.543,4.543,0,0,0,8.913-.008c1.467.895,2.811,1.6,4.032,2.247,5.044,2.657,7.823,4.121,8.983,13.8a62.063,62.063,0,0,1,.5,6.348h-3.9a2.737,2.737,0,0,0,.092-.7v-1.746a1.044,1.044,0,0,0-1.044-1.044h-.8l.959-11.091a2.356,2.356,0,0,0-2.342-2.574H26.653a2.35,2.35,0,0,0-2.342,2.571l.954,11.094h-.8a1.044,1.044,0,0,0-1.044,1.044V108.3a2.762,2.762,0,0,0,.092.7h-3.9a62.328,62.328,0,0,1,.508-6.346Zm29.54,4.943v.7a.712.712,0,0,1-.559.688L49.06,109H26.146l-.018,0a.718.718,0,0,1-.616-.7v-.7ZM26.458,94.016a.22.22,0,0,1,.195-.084H48.53a.224.224,0,0,1,.2.089.239.239,0,0,1,.066.213l-.974,11.273H27.362l-.971-11.275a.239.239,0,0,1,.067-.217Zm34.034,18.606h-45.8v-1.534h45.8Z"/>
  </g>
</svg>
