<svg xmlns="http://www.w3.org/2000/svg" width="295" height="195.826" viewBox="0 0 295 195.826">
  <g id="Grupo_1108656" data-name="Grupo 1108656" transform="translate(-1125 -2179.112)">
    <g id="Grupo_133939" data-name="Grupo 133939" transform="translate(524.744 1775.112)">
      <path id="Trazado_873209" data-name="Trazado 873209" d="M8,0H287c4.418,0,8,2.851,8,6.368v183.09c0,3.517-3.582,6.368-8,6.368H8c-4.418,0-8-2.851-8-6.368V6.368C0,2.851,3.582,0,8,0Z" transform="translate(600.256 404)" fill="#d7faf6"/>
    </g>
    <g id="Grupo_1099449" data-name="Grupo 1099449" transform="translate(1288.662 2204.259)">
      <path id="Trazado_99257" data-name="Trazado 99257" d="M420.076,105.58a2.934,2.934,0,1,1-2.932-2.8A2.869,2.869,0,0,1,420.076,105.58Z" transform="translate(-414.214 -102.779)" fill="#8746f8"/>
      <path id="Trazado_99258" data-name="Trazado 99258" d="M428.522,105.58a2.934,2.934,0,1,1-2.929-2.8A2.868,2.868,0,0,1,428.522,105.58Z" transform="translate(-396.283 -102.779)" fill="#8746f8"/>
      <path id="Trazado_99259" data-name="Trazado 99259" d="M436.968,105.58a2.934,2.934,0,1,1-2.929-2.8A2.868,2.868,0,0,1,436.968,105.58Z" transform="translate(-378.352 -102.779)" fill="#8746f8"/>
      <path id="Trazado_99260" data-name="Trazado 99260" d="M445.415,105.58a2.934,2.934,0,1,1-2.932-2.8A2.869,2.869,0,0,1,445.415,105.58Z" transform="translate(-360.42 -102.779)" fill="#8746f8"/>
      <path id="Trazado_99261" data-name="Trazado 99261" d="M453.861,105.58a2.934,2.934,0,1,1-2.929-2.8A2.868,2.868,0,0,1,453.861,105.58Z" transform="translate(-342.49 -102.779)" fill="#8746f8"/>
      <ellipse id="Elipse_3975" data-name="Elipse 3975" cx="2.931" cy="2.803" rx="2.931" ry="2.803" transform="translate(0 22.422)" fill="#8746f8"/>
      <path id="Trazado_99268" data-name="Trazado 99268" d="M428.522,113.088a2.934,2.934,0,1,1-2.929-2.8A2.87,2.87,0,0,1,428.522,113.088Z" transform="translate(-396.283 -87.864)" fill="#8746f8"/>
      <ellipse id="Elipse_3976" data-name="Elipse 3976" cx="2.931" cy="2.803" rx="2.931" ry="2.803" transform="translate(52.754 22.422)" fill="#8746f8"/>
      <path id="Trazado_99269" data-name="Trazado 99269" d="M445.415,113.088a2.934,2.934,0,1,1-2.932-2.8A2.871,2.871,0,0,1,445.415,113.088Z" transform="translate(-360.42 -87.864)" fill="#8746f8"/>
      <path id="Trazado_99270" data-name="Trazado 99270" d="M453.861,113.088a2.934,2.934,0,1,1-2.929-2.8A2.87,2.87,0,0,1,453.861,113.088Z" transform="translate(-342.49 -87.864)" fill="#8746f8"/>
      <path id="Trazado_99274" data-name="Trazado 99274" d="M420.076,120.6a2.934,2.934,0,1,1-2.932-2.8A2.871,2.871,0,0,1,420.076,120.6Z" transform="translate(-414.214 -72.952)" fill="#8746f8"/>
      <path id="Trazado_99275" data-name="Trazado 99275" d="M428.522,120.6a2.934,2.934,0,1,1-2.929-2.8A2.87,2.87,0,0,1,428.522,120.6Z" transform="translate(-396.283 -72.952)" fill="#8746f8"/>
      <path id="Trazado_99276" data-name="Trazado 99276" d="M436.968,120.6a2.934,2.934,0,1,1-2.929-2.8A2.87,2.87,0,0,1,436.968,120.6Z" transform="translate(-378.352 -72.952)" fill="#8746f8"/>
      <path id="Trazado_99277" data-name="Trazado 99277" d="M445.415,120.6a2.934,2.934,0,1,1-2.932-2.8A2.871,2.871,0,0,1,445.415,120.6Z" transform="translate(-360.42 -72.952)" fill="#8746f8"/>
      <path id="Trazado_99278" data-name="Trazado 99278" d="M453.861,120.6a2.934,2.934,0,1,1-2.929-2.8A2.87,2.87,0,0,1,453.861,120.6Z" transform="translate(-342.49 -72.952)" fill="#8746f8"/>
      <ellipse id="Elipse_3980" data-name="Elipse 3980" cx="2.931" cy="2.803" rx="2.931" ry="2.803" transform="translate(0 67.267)" fill="#8746f8"/>
      <path id="Trazado_99285" data-name="Trazado 99285" d="M428.522,128.106a2.934,2.934,0,1,1-2.929-2.8A2.868,2.868,0,0,1,428.522,128.106Z" transform="translate(-396.283 -58.036)" fill="#8746f8"/>
      <ellipse id="Elipse_3981" data-name="Elipse 3981" cx="2.931" cy="2.803" rx="2.931" ry="2.803" transform="translate(52.754 67.267)" fill="#8746f8"/>
      <path id="Trazado_99286" data-name="Trazado 99286" d="M445.415,128.106a2.934,2.934,0,1,1-2.932-2.8A2.868,2.868,0,0,1,445.415,128.106Z" transform="translate(-360.42 -58.036)" fill="#8746f8"/>
      <path id="Trazado_99287" data-name="Trazado 99287" d="M453.861,128.106a2.934,2.934,0,1,1-2.929-2.8A2.868,2.868,0,0,1,453.861,128.106Z" transform="translate(-342.49 -58.036)" fill="#8746f8"/>
      <ellipse id="Elipse_3985" data-name="Elipse 3985" cx="2.931" cy="2.803" rx="2.931" ry="2.803" transform="translate(0 89.689)" fill="#8746f8"/>
      <path id="Trazado_99291" data-name="Trazado 99291" d="M428.522,135.614a2.934,2.934,0,1,1-2.929-2.8A2.867,2.867,0,0,1,428.522,135.614Z" transform="translate(-396.283 -43.121)" fill="#8746f8"/>
      <ellipse id="Elipse_3986" data-name="Elipse 3986" cx="2.931" cy="2.803" rx="2.931" ry="2.803" transform="translate(52.754 89.689)" fill="#8746f8"/>
      <path id="Trazado_99292" data-name="Trazado 99292" d="M445.415,135.614a2.934,2.934,0,1,1-2.932-2.8A2.868,2.868,0,0,1,445.415,135.614Z" transform="translate(-360.42 -43.121)" fill="#8746f8"/>
      <path id="Trazado_99293" data-name="Trazado 99293" d="M453.861,135.614a2.934,2.934,0,1,1-2.929-2.8A2.868,2.868,0,0,1,453.861,135.614Z" transform="translate(-342.49 -43.121)" fill="#8746f8"/>
    </g>
    <path id="Trazado_873371" data-name="Trazado 873371" d="M325.19,466.825a22.346,22.346,0,0,0,6.565,15.852l22.691,22.684-22.691,22.685a22.423,22.423,0,0,0,31.711,31.71l22.684-22.684,22.684,22.684a22.42,22.42,0,0,0,31.7-31.71l-22.684-22.685,22.684-22.684a22.42,22.42,0,0,0,0-31.7h0a22.422,22.422,0,0,0-31.7,0l-22.684,22.685-22.684-22.685a22.43,22.43,0,0,0-31.711,0h0a22.35,22.35,0,0,0-6.565,15.852Z" transform="translate(799.81 1808.617)" fill="#d6c0fd"/>
    <g id="Layer_21" data-name="Layer 21" transform="translate(1206 2201.823)">
      <path id="Trazado_890453" data-name="Trazado 890453" d="M5,2H107.021V139.729H5Z" transform="translate(1.551 1.551)" fill="#4c317d"/>
      <path id="Trazado_890454" data-name="Trazado 890454" d="M56.735,92.577l19.129-7.363V82.852a23.1,23.1,0,0,1-5.252-6.886A12.72,12.72,0,0,1,60.561,55.607v-12.8A25.533,25.533,0,0,1,86.067,17.3H98.406a16.273,16.273,0,0,1,5.514,1V2H7V32.606A101.746,101.746,0,0,0,41.312,108.9,25.865,25.865,0,0,1,56.735,92.577Z" transform="translate(4.652 1.551)" fill="#8746f8"/>
      <g id="Grupo_1108439" data-name="Grupo 1108439" transform="translate(16.753 18.854)">
        <path id="Trazado_890455" data-name="Trazado 890455" d="M9,22H29.4V42.4H9Z" transform="translate(-9 13.707)" fill="#fff"/>
        <path id="Trazado_890456" data-name="Trazado 890456" d="M9,36H29.4V56.4H9Z" transform="translate(-9 35.415)" fill="#fff"/>
        <path id="Trazado_890457" data-name="Trazado 890457" d="M9,8H29.4V28.4H9Z" transform="translate(-9 -8)" fill="#fff"/>
      </g>
      <path id="Trazado_890458" data-name="Trazado 890458" d="M0,0H28.857V5.1H0Z" transform="translate(22.595 29.804) rotate(-45)" fill="#8dbf00"/>
      <path id="Trazado_890459" data-name="Trazado 890459" d="M0,0H28.857V5.1H0Z" transform="translate(22.592 65.507) rotate(-45)" fill="#8dbf00"/>
      <path id="Trazado_890460" data-name="Trazado 890460" d="M0,0H28.857V5.1H0Z" transform="translate(22.587 101.212) rotate(-45)" fill="#8dbf00"/>
      <path id="Trazado_890461" data-name="Trazado 890461" d="M22,11H37.3v5.1H22Z" transform="translate(27.91 15.505)" fill="#d7e0ef"/>
      <path id="Trazado_890462" data-name="Trazado 890462" d="M22,15H43.05v5.1H22Z" transform="translate(27.91 21.707)" fill="#c1cfe8"/>
      <path id="Trazado_890463" data-name="Trazado 890463" d="M22,25H32.2v5.1H22Z" transform="translate(27.91 37.213)" fill="#d7e0ef"/>
      <path id="Trazado_890464" data-name="Trazado 890464" d="M22,29H37.3v5.1H22Z" transform="translate(27.91 43.415)" fill="#d7e0ef"/>
      <path id="Trazado_890465" data-name="Trazado 890465" d="M22,20.1H37.433A25.214,25.214,0,0,1,38.479,15H22Z" transform="translate(27.91 21.707)" fill="#d7e0ef"/>
      <path id="Trazado_890466" data-name="Trazado 890466" d="M59.258,32.745v8.3L36.852,49.665a20.907,20.907,0,0,0-13.38,18.371L21,107.361h96.92l-2.469-39.324a20.907,20.907,0,0,0-13.38-18.371L79.662,41.047v-8.3Z" transform="translate(26.359 49.222)" fill="#c1cfe8"/>
      <path id="Trazado_890467" data-name="Trazado 890467" d="M110.521,65.093A20.932,20.932,0,0,0,97.514,49.665L75.1,41.047v-8.3H59.8v8.3L37.4,49.665A20.914,20.914,0,0,0,24.013,68.029a37.006,37.006,0,0,0,36.932,39.332h52.419l-2.469-39.324A20.815,20.815,0,0,0,110.521,65.093Z" transform="translate(30.916 49.222)" fill="#d7e0ef"/>
      <path id="Trazado_890468" data-name="Trazado 890468" d="M56.4,41.047v-8.3H36v8.3L46.2,53.8Z" transform="translate(49.617 49.222)" fill="#d08d78"/>
      <path id="Trazado_890469" data-name="Trazado 890469" d="M30,45.108V30.4A20.4,20.4,0,0,1,50.4,10H62.744a11.189,11.189,0,0,1,10.615,7.652,11.189,11.189,0,0,1,7.652,10.615V45.1" transform="translate(40.314 13.955)" fill="#383838"/>
      <path id="Trazado_890470" data-name="Trazado 890470" d="M32,30.4v14.7H77.91V28.275a11.189,11.189,0,0,0-7.652-10.623A11.189,11.189,0,0,0,59.643,10H52.4A20.4,20.4,0,0,0,32,30.4Z" transform="translate(43.415 13.955)" fill="#4c4c4c"/>
      <path id="Trazado_890471" data-name="Trazado 890471" d="M39.2,23H36.652a7.652,7.652,0,0,0,0,15.3h3.29" transform="translate(38.763 34.112)" fill="#d08d78"/>
      <path id="Trazado_890472" data-name="Trazado 890472" d="M47.45,23H50a7.652,7.652,0,0,1,0,15.3H46.71" transform="translate(66.223 34.112)" fill="#d08d78"/>
      <path id="Trazado_890473" data-name="Trazado 890473" d="M33,28.2V40.955a17.854,17.854,0,1,0,35.707,0V23.1a5.1,5.1,0,0,0-5.1-5.1,34.835,34.835,0,0,1-24.63,10.2Z" transform="translate(44.965 26.359)" fill="#d08d78"/>
      <path id="Trazado_890474" data-name="Trazado 890474" d="M32.013,39.91l7.618,19.045,12.753-10.2L42.182,36" transform="translate(43.435 54.269)" fill="#a5badb"/>
      <path id="Trazado_890475" data-name="Trazado 890475" d="M60.371,39.91,52.753,58.955,40,48.753,50.2,36" transform="translate(55.819 54.269)" fill="#a5badb"/>
      <path id="Trazado_890476" data-name="Trazado 890476" d="M36.429,48.287,42.986,56.3h5.1l6.557-8.016L45.537,41Z" transform="translate(50.282 62.021)" fill="#ff4d55"/>
      <path id="Trazado_890477" data-name="Trazado 890477" d="M47.2,47H42.1L37,77.606l7.652,7.652L52.3,77.606Z" transform="translate(51.168 71.324)" fill="#e73844"/>
      <path id="Trazado_890478" data-name="Trazado 890478" d="M27,50h5.1V80.606H27Z" transform="translate(35.662 75.976)" fill="#a5badb"/>
      <path id="Trazado_890479" data-name="Trazado 890479" d="M51,50h5.1V80.606H51Z" transform="translate(72.875 75.976)" fill="#a5badb"/>
      <path id="Trazado_890480" data-name="Trazado 890480" d="M50.3,58.6a17.838,17.838,0,0,0,15.3-17.65V23.1a5.1,5.1,0,0,0-5.1-5.1,34.835,34.835,0,0,1-24.63,10.2H35V40.955A17.838,17.838,0,0,0,50.3,58.6Z" transform="translate(48.066 26.359)" fill="#f2b9a1"/>
      <path id="Trazado_890481" data-name="Trazado 890481" d="M53.3,33.74A17.777,17.777,0,0,1,38,36.2v3.3l7.652,9.564L53.3,39.5Z" transform="translate(52.718 50.764)" fill="#f2b9a1"/>
      <path id="Trazado_890482" data-name="Trazado 890482" d="M45.5,158.33a2.551,2.551,0,0,0,1.859.8h96.92a2.551,2.551,0,0,0,2.551-2.709l-2.466-39.309A23.488,23.488,0,0,0,129.348,96.5l-20.777-7.988v-5.3a20.481,20.481,0,0,0,6.149-8.251h1.5a10.151,10.151,0,0,0,7.652-16.879V42.222a13.722,13.722,0,0,0-8.231-12.587,13.666,13.666,0,0,0-4.522-5.581V3.551A2.551,2.551,0,0,0,108.572,1H6.551A2.551,2.551,0,0,0,4,3.551V141.279a2.551,2.551,0,0,0,2.551,2.551H45.6l-.8,12.595A2.55,2.55,0,0,0,45.5,158.33Zm39.291-65,7.442,9.3-8.075,6.461L78.776,95.625Zm11.029,12.959,5.5,4.4-4.16,5.083H94.478l-4.16-5.083Zm0,46.688-4.92-4.92,4.53-27.181h.78l4.53,27.181Zm-21.8-55.512L80.7,114.17a2.551,2.551,0,0,0,3.964,1.046l1.673-1.339,4.229,5.167-4.91,29.469a2.551,2.551,0,0,0,.712,2.222l3.3,3.3h-21.9V125.976h-5.1v28.056H50.075l2.3-36.631a18.382,18.382,0,0,1,11.753-16.135Zm64.921,17.344a18.167,18.167,0,0,1,.329,2.6l2.3,36.621H128.976V125.976h-5.1v28.056h-21.9l3.3-3.3a2.551,2.551,0,0,0,.712-2.222l-4.91-29.469,4.229-5.167,1.673,1.339a2.551,2.551,0,0,0,3.964-1.046l6.682-16.706,9.888,3.8a18.287,18.287,0,0,1,11.424,13.548ZM112.862,95.625l-5.382,13.451-8.075-6.46,7.442-9.286Zm-9.391-6.251L95.819,98.94l-7.652-9.564v-3.16a20.238,20.238,0,0,0,15.3,0Zm7.652-22.06a15.3,15.3,0,1,1-30.606,0v-10.2h3.425a37.131,37.131,0,0,0,25.505-10.047,2.551,2.551,0,0,1,1.676,2.395Zm5.1,2.551h-.176a20.528,20.528,0,0,0,.176-2.551V59.662a5.1,5.1,0,0,1,0,10.2Zm-3.357-35.84a8.634,8.634,0,0,1,5.907,8.2v12.7a10.047,10.047,0,0,0-2.551-.362v-5.1a7.652,7.652,0,0,0-7.652-7.652,2.55,2.55,0,0,0-1.8.747,32.06,32.06,0,0,1-22.828,9.455H77.965a2.551,2.551,0,0,0-2.551,2.551,10.047,10.047,0,0,0-2.551.362V44.359A17.874,17.874,0,0,1,90.718,26.505h12.339a8.626,8.626,0,0,1,8.195,5.907A2.55,2.55,0,0,0,112.867,34.024ZM75.415,59.662v7.652a20.523,20.523,0,0,0,.176,2.551h-.176a5.1,5.1,0,0,1,0-10.2ZM9.1,138.729V6.1h96.92V21.764a13.6,13.6,0,0,0-2.964-.36H90.718A22.975,22.975,0,0,0,69.1,36.707H49.91v5.1h18a22.786,22.786,0,0,0-.15,2.551V58.086a10.151,10.151,0,0,0,7.652,16.879h1.5a20.481,20.481,0,0,0,6.149,8.251v5.3L62.295,96.5a23.465,23.465,0,0,0-15.012,20.6l-1.359,21.629Z"/>
      <path id="Trazado_890483" data-name="Trazado 890483" d="M29.9,11.2H10.551A2.551,2.551,0,0,0,8,13.748v20.4A2.551,2.551,0,0,0,10.551,36.7h20.4a2.551,2.551,0,0,0,2.551-2.551V14.8l6.9-6.9L36.8,4.293ZM28.4,31.6H13.1V16.3H24.8l-8.4,8.4L20.005,28.3l8.4-8.4Z" transform="translate(6.202 5.106)"/>
      <path id="Trazado_890484" data-name="Trazado 890484" d="M29.9,25.2H10.551A2.551,2.551,0,0,0,8,27.748v20.4A2.551,2.551,0,0,0,10.551,50.7h20.4a2.551,2.551,0,0,0,2.551-2.551V28.8l6.9-6.9L36.8,18.293ZM28.4,45.6H13.1V30.3H24.8l-8.4,8.4L20.005,42.3l8.4-8.4Z" transform="translate(6.202 26.813)"/>
      <path id="Trazado_890485" data-name="Trazado 890485" d="M36.8,32.293l-6.9,6.9H10.551A2.551,2.551,0,0,0,8,41.748v20.4A2.551,2.551,0,0,0,10.551,64.7h20.4a2.551,2.551,0,0,0,2.551-2.551V42.8l6.9-6.9ZM28.4,59.6H13.1V44.3H24.8l-8.4,8.4L20.005,56.3l8.4-8.4Z" transform="translate(6.202 48.521)"/>
      <path id="Trazado_890486" data-name="Trazado 890486" d="M22,11H37.3v5.1H22Z" transform="translate(27.91 15.505)"/>
      <path id="Trazado_890487" data-name="Trazado 890487" d="M22,25H32.2v5.1H22Z" transform="translate(27.91 37.213)"/>
      <path id="Trazado_890488" data-name="Trazado 890488" d="M22,29H37.3v5.1H22Z" transform="translate(27.91 43.415)"/>
    </g>
  </g>
</svg>
