<svg xmlns="http://www.w3.org/2000/svg" width="108" height="108" viewBox="0 0 108 108">
  <g id="Grupo_1108656" data-name="Grupo 1108656" transform="translate(-588.669 -2739)">
    <circle id="Elipse_11935" data-name="Elipse 11935" cx="54" cy="54" r="54" transform="translate(588.669 2739)" fill="#3cead6"/>
    <g id="fildoutline" transform="translate(605.448 2755.613)">
      <g id="_20-Email_copy_4" data-name="20-Email copy 4" transform="translate(2 2.053)">
        <path id="Trazado_890254" data-name="Trazado 890254" d="M45.3,9.093a6.655,6.655,0,0,1,3.54-4.72,15.261,15.261,0,0,1,8.26-1.18,15.684,15.684,0,0,1-5.9,5.9,6.552,6.552,0,0,1-5.9,0Z" transform="translate(5.793 -1.872)" fill="#44bc59"/>
        <path id="Trazado_890255" data-name="Trazado 890255" d="M48.839,6.733a14.278,14.278,0,0,1,6.722-1.306A15.732,15.732,0,0,0,57.1,3.193a15.261,15.261,0,0,0-8.26,1.18,6.655,6.655,0,0,0-3.54,4.72,4.9,4.9,0,0,0,.742.322,6.552,6.552,0,0,1,2.8-2.682Z" transform="translate(5.793 -1.872)" fill="#2d9739"/>
        <path id="Trazado_890256" data-name="Trazado 890256" d="M46.919,10.092a6.655,6.655,0,0,0-3.54-4.72,11.55,11.55,0,0,0-7.08-1.18,9.736,9.736,0,0,0,4.72,5.9,6.552,6.552,0,0,0,5.9,0Z" transform="translate(4.173 -1.691)" fill="#44bc59"/>
        <path id="Trazado_890257" data-name="Trazado 890257" d="M43.379,7.732a6.553,6.553,0,0,1,2.8,2.682,4.9,4.9,0,0,0,.742-.322,6.655,6.655,0,0,0-3.54-4.72,11.55,11.55,0,0,0-7.08-1.18,9.421,9.421,0,0,0,.955,2.246A12.013,12.013,0,0,1,43.379,7.732Z" transform="translate(4.173 -1.691)" fill="#2d9739"/>
        <circle id="Elipse_11938" data-name="Elipse 11938" cx="16.52" cy="16.52" r="16.52" transform="translate(34.572 13.121)" fill="#ffe081"/>
        <path id="Trazado_890258" data-name="Trazado 890258" d="M33.659,29.692A16.508,16.508,0,0,1,49,13.231c-.391-.028-.782-.059-1.18-.059a16.52,16.52,0,0,0,0,33.04c.4,0,.789-.032,1.18-.059A16.508,16.508,0,0,1,33.659,29.692Z" transform="translate(3.273 -0.051)" fill="#ffd54f"/>
        <path id="Trazado_890259" data-name="Trazado 890259" d="M5,24H9.72v7.08H5Z" transform="translate(-1.46 1.898)" fill="#ffe081"/>
        <path id="Trazado_890260" data-name="Trazado 890260" d="M5,24H7.36v7.08H5Z" transform="translate(-1.46 1.898)" fill="#ffd54f"/>
        <path id="Trazado_890261" data-name="Trazado 890261" d="M13,21h4.72V31.62H13Z" transform="translate(-0.02 1.358)" fill="#ffe081"/>
        <path id="Trazado_890262" data-name="Trazado 890262" d="M13,21h2.36V31.62H13Z" transform="translate(-0.02 1.358)" fill="#ffd54f"/>
        <path id="Trazado_890263" data-name="Trazado 890263" d="M21,17h4.72V32.34H21Z" transform="translate(1.42 0.638)" fill="#ffe081"/>
        <path id="Trazado_890264" data-name="Trazado 890264" d="M21,17h2.36V32.34H21Z" transform="translate(1.42 0.638)" fill="#ffd54f"/>
        <circle id="Elipse_11939" data-name="Elipse 11939" cx="11.8" cy="11.8" r="11.8" transform="translate(39.292 17.841)" fill="#ffcb29"/>
        <path id="Trazado_890265" data-name="Trazado 890265" d="M37.659,28.972a11.8,11.8,0,0,1,10.619-11.74c-.388-.039-.781-.059-1.18-.059a11.8,11.8,0,1,0,0,23.6c.4,0,.792-.021,1.18-.059a11.8,11.8,0,0,1-10.62-11.741Z" transform="translate(3.993 0.669)" fill="#fec111"/>
        <path id="Trazado_890266" data-name="Trazado 890266" d="M68.872,48.992C68.4,50.054,53.556,61,49,63.754a11.247,11.247,0,0,1-10.4.7L23.62,58.514C21.449,57.653,13,56.036,13,56.036v-17.7l7.033-1.711a6.3,6.3,0,0,1,1.381-.378,2.641,2.641,0,0,1,.519-.083,5.5,5.5,0,0,1,.614-.035,6.511,6.511,0,0,1,2.738.566l19.033,9.64a2.39,2.39,0,0,1,.448.248.478.478,0,0,1,.106.059,4.352,4.352,0,0,1,1.735,2.041,4.662,4.662,0,0,1,.33,2.419A1.6,1.6,0,0,0,47.208,51C50.252,49.759,61.4,43.717,63,43.08a4.5,4.5,0,0,1,5.971,2.4,4.432,4.432,0,0,1-.094,3.516Z" transform="translate(-0.02 4.081)" fill="#fecc81"/>
        <path id="Trazado_890267" data-name="Trazado 890267" d="M45.657,51.1v.071a1.76,1.76,0,0,1-.024.248c-.944.224-1.888-.484-2.336-.319v-.071a.071.071,0,0,1,.012-.047,4.529,4.529,0,0,0-2.631-4.649L21.644,36.7a6.334,6.334,0,0,0-1.51-.448c-.012-.012-.012-.012-.024-.012a4.272,4.272,0,0,1,.543-.071,5.5,5.5,0,0,1,.614-.035A6.511,6.511,0,0,1,24,36.7l19.033,9.64a2.391,2.391,0,0,1,.448.248.478.478,0,0,1,.106.059,5.125,5.125,0,0,1,1.735,2.041,4.662,4.662,0,0,1,.33,2.419Z" transform="translate(1.26 4.081)" fill="#faa629"/>
        <path id="Trazado_890268" data-name="Trazado 890268" d="M64.55,44.469a4.431,4.431,0,0,0-5.317-2.583,4.306,4.306,0,0,1,2.957,2.583,4.411,4.411,0,0,1-.087,3.514c-.476,1.067-15.314,12.01-19.88,14.767a11.5,11.5,0,0,1-4.71,1.572,11.386,11.386,0,0,0,7.07-1.572c4.565-2.757,19.4-13.7,19.88-14.767a4.411,4.411,0,0,0,.087-3.515Z" transform="translate(4.392 5.086)" fill="#faa629"/>
        <path id="Trazado_890269" data-name="Trazado 890269" d="M3,34H14.8V61.14H3Z" transform="translate(-1.82 3.698)" fill="#89d3e2"/>
        <path id="Trazado_890270" data-name="Trazado 890270" d="M8.9,34V54.21A6.925,6.925,0,0,1,3,61.055v.085H14.8V34Z" transform="translate(-1.82 3.698)" fill="#36c2d6"/>
        <path id="Trazado_890271" data-name="Trazado 890271" d="M3.731,20.548a1.18,1.18,0,0,1,.327-1.636l10.62-7.08a1.17,1.17,0,0,1,1.028-.137l6.438,2.146,8.148-7.13H26.78a1.18,1.18,0,1,1,0-2.36h5.9a1.18,1.18,0,0,1,1.18,1.18v5.9a1.18,1.18,0,1,1-2.36,0V8.791L23.19,16.062a1.178,1.178,0,0,1-1.151.23l-6.532-2.177-10.14,6.76a1.18,1.18,0,0,1-1.636-.327ZM10.26,26.77a1.18,1.18,0,0,1,1.18,1.18v7.08a1.18,1.18,0,0,1-1.18,1.18H5.54a1.18,1.18,0,0,1-1.18-1.18V27.95a1.18,1.18,0,0,1,1.18-1.18ZM9.08,29.13H6.72v4.72H9.08Zm10.62-5.9a1.18,1.18,0,0,1,1.18,1.18V35.03a1.18,1.18,0,0,1-1.18,1.18H14.98a1.18,1.18,0,0,1-1.18-1.18V24.41a1.18,1.18,0,0,1,1.18-1.18Zm-1.18,2.36H16.16v8.26h2.36Zm10.62-7.08a1.18,1.18,0,0,1,1.18,1.18V35.03a1.18,1.18,0,0,1-1.18,1.18H24.42a1.18,1.18,0,0,1-1.18-1.18V19.69a1.18,1.18,0,0,1,1.18-1.18Zm-1.18,2.36H25.6V33.85h2.36Zm23.953,12h2.36a1.358,1.358,0,0,1,1.18,1.18,1.336,1.336,0,0,1-1.18,1.18h-3.54a1.18,1.18,0,1,0,0,2.36h1.18v1.18a1.18,1.18,0,1,0,2.36,0v-1.18a3.54,3.54,0,1,0,0-7.08h-2.36a1.336,1.336,0,0,1-1.18-1.18,1.358,1.358,0,0,1,1.18-1.18h3.54a1.18,1.18,0,0,0,0-2.36h-1.18v-1.18a1.18,1.18,0,1,0-2.36,0v1.18a3.54,3.54,0,0,0,0,7.08Zm-11.8-1.18a12.98,12.98,0,1,1,12.98,12.98,12.98,12.98,0,0,1-12.98-12.98Zm2.36,0a10.62,10.62,0,1,0,10.62-10.62,10.62,10.62,0,0,0-10.62,10.62Zm-7.08,0a17.708,17.708,0,0,1,16.52-17.64V12.124a7.829,7.829,0,0,1-1.8.216,7.562,7.562,0,0,1-3.448-.832,10.891,10.891,0,0,1-5.336-6.679,1.179,1.179,0,0,1,.9-1.427A12.7,12.7,0,0,1,50.086,4.68a7.8,7.8,0,0,1,1.827,1.279V3.373a1.18,1.18,0,0,1,2.36,0V4.779A7.808,7.808,0,0,1,56.1,3.5,16.359,16.359,0,0,1,65.08,2.208a1.18,1.18,0,0,1,.853,1.722,16.79,16.79,0,0,1-6.407,6.4,7.563,7.563,0,0,1-3.45.833,7.829,7.829,0,0,1-1.8-.216v3.109a17.69,17.69,0,1,1-18.88,17.64ZM54.5,8.575A5.324,5.324,0,0,0,58.46,8.22a13.181,13.181,0,0,0,4.324-3.8,12.745,12.745,0,0,0-5.618,1.186A5.45,5.45,0,0,0,54.5,8.575ZM51.685,9.756a5.448,5.448,0,0,0-2.665-2.97A10.963,10.963,0,0,0,44.133,5.6a8.208,8.208,0,0,0,3.593,3.8,5.3,5.3,0,0,0,3.959.356ZM37.753,31.693a15.34,15.34,0,1,0,15.34-15.34A15.34,15.34,0,0,0,37.753,31.693ZM71.933,55.6C71.2,57.256,55.268,68.676,51.586,70.9a12.671,12.671,0,0,1-6.518,1.818A12.172,12.172,0,0,1,40.1,71.666L25.162,65.742a23.893,23.893,0,0,0-6.44-1.567,1.237,1.237,0,0,1-.131-.021l-2.431-.523V66.89a1.18,1.18,0,0,1-1.18,1.18H3.18A1.18,1.18,0,0,1,2,66.89V39.75a1.18,1.18,0,0,1,1.18-1.18h11.8a1.18,1.18,0,0,1,1.18,1.18V42.97l5.489-1.331a7.835,7.835,0,0,1,6.1.121l19.087,9.655a5.594,5.594,0,0,1,3.187,4.053c2.12-1,5.6-2.8,8.527-4.325,3.261-1.692,5.3-2.743,5.99-3.021a5.625,5.625,0,0,1,7.4,7.481ZM13.8,40.93H4.36V65.71H13.8ZM69.849,52.051a3.3,3.3,0,0,0-4.434-1.739c-.623.25-3.129,1.549-5.781,2.925-3.616,1.876-7.654,3.97-9.64,4.833a5.925,5.925,0,0,1-3.238,4.32,5.8,5.8,0,0,1-2.513.583,5.574,5.574,0,0,1-1.912-.34L30.589,58.341a1.18,1.18,0,0,1,.81-2.217l11.743,4.292a3.314,3.314,0,0,0,2.58-.148,3.64,3.64,0,0,0,1.8-2.02,7.6,7.6,0,0,0,.225-1.158,3.367,3.367,0,0,0-1.923-3.546L26.733,43.889a5.455,5.455,0,0,0-4.282-.031,1.2,1.2,0,0,1-.165.053L16.16,45.4V61.217l2.864.616a26.278,26.278,0,0,1,7.009,1.715l14.984,5.944a10.127,10.127,0,0,0,9.352-.614c4.72-2.851,18.208-12.891,19.449-14.326a3.239,3.239,0,0,0,.032-2.5Z" transform="translate(-2 -2.053)"/>
      </g>
    </g>
  </g>
</svg>
