<svg xmlns="http://www.w3.org/2000/svg" width="57.638" height="54.641" viewBox="0 0 57.638 54.641">
  <g id="Layer_x0020_1" transform="translate(0 -44.701)">
    <path id="Trazado_889822" data-name="Trazado 889822" d="M55.813,99.342H1.858A1.875,1.875,0,0,1,0,97.484V69.307c0-.068,0-.1.034-.135v-.034a.512.512,0,0,1,.236-.372c.845-.676,4.156-3.514,9.629-8.176V52.853a1.774,1.774,0,0,1,1.757-1.791h9.392c2.433-2.095,4.46-3.818,5.608-4.831,2.534-2.162,2.939-1.926,5.135.034,1.115.98,3.074,2.7,5.473,4.8h8.717a1.8,1.8,0,0,1,1.791,1.791v7.5c5.372,4.73,8.683,7.6,9.6,8.379a.722.722,0,0,1,.27.574V97.484a1.887,1.887,0,0,1-.541,1.351h-.034A1.886,1.886,0,0,1,55.813,99.342ZM2.534,68.631H9.9v-6.25C6.487,65.286,4.02,67.381,2.534,68.631ZM23.075,51.063H35.238c-2.061-1.858-5.608-5.034-5.946-5C28.853,46.062,25.373,49.1,23.075,51.063Zm24.7,11.082v6.487h7.4Q52.942,66.705,47.773,62.144ZM11.251,60.86v3.412a1.645,1.645,0,0,1,.405-.034h1.115V60.894a.678.678,0,0,1,.676-.676h8.142a.676.676,0,0,1,0,1.351H14.122v2.669h9.054c2.4-5.406,8.953-5.3,11.318,0h9.021V61.57H36.083a.676.676,0,1,1,0-1.351h8.108a.678.678,0,0,1,.676.676v3.345h1.115a1.785,1.785,0,0,1,.439.034V59.408A.442.442,0,0,0,45.982,59H11.656a.419.419,0,0,0-.405.439Zm11.926-3.21c2.4-5.372,8.953-5.3,11.284,0h9.054V54.982H36.083a.676.676,0,1,1,0-1.351h8.108a.678.678,0,0,1,.676.676v3.345h1.115a1.712,1.712,0,0,1,.439.068V52.853a.447.447,0,0,0-.439-.439H11.656a.419.419,0,0,0-.405.439v4.865a1.7,1.7,0,0,1,.405-.068h1.115V54.306a.678.678,0,0,1,.676-.676h8.142a.676.676,0,0,1,0,1.351H14.122v2.669Zm9.8,0c-1.96-3.514-6.284-3.547-8.277,0Zm0,6.588c-1.96-3.547-6.318-3.547-8.277,0Zm-15.136,12.4a2.264,2.264,0,0,1,0-4.527A2.264,2.264,0,0,1,17.839,76.638Zm0-3.176a.912.912,0,0,0,0,1.824A.912.912,0,0,0,17.839,73.462Zm21.994,3.176a2.264,2.264,0,0,1,0-4.527A2.264,2.264,0,0,1,39.833,76.638Zm0-3.176a.912.912,0,1,0,0,1.824A.912.912,0,0,0,39.833,73.462ZM28.819,79.645c-.608,0-.676-.541-.676-1.081-1.824-.541-2.365-3.074-1.115-3.074,1.115,0,.236,1.824,1.791,1.824a1.139,1.139,0,0,0,1.149-1.149c0-1.96-3.615-.3-3.615-3.615a2.307,2.307,0,0,1,1.791-2.365v-.439a.676.676,0,1,1,1.351,0c0,.135.034.27.034.439a2.307,2.307,0,0,1,1.791,2.365.676.676,0,0,1-1.351,0,1.132,1.132,0,0,0-2.264,0c0,1.993,3.615.3,3.615,3.615a2.514,2.514,0,0,1-1.791,2.4C29.528,79.1,29.461,79.645,28.819,79.645Zm0,2.3c-3.514,0-6.385-3.412-6.385-7.568,0-4.189,2.872-7.568,6.385-7.568,3.547,0,6.419,3.379,6.419,7.568C35.238,78.53,32.366,81.942,28.819,81.942Zm0-13.784c-2.77,0-5.034,2.77-5.034,6.217,0,3.412,2.264,6.217,5.034,6.217,2.8,0,5.034-2.8,5.034-6.217C33.887,70.928,31.623,68.158,28.819,68.158Zm14.7,8.041V68.158H36.083a.676.676,0,1,1,0-1.351h8.108a.657.657,0,0,1,.676.676v7.94l1.554-.878V66a.419.419,0,0,0-.439-.405H11.656a.39.39,0,0,0-.405.405v8.548l1.52.878v-7.94a.657.657,0,0,1,.676-.676h8.142a.676.676,0,0,1,0,1.351H14.122v8.007l14.73,8.413Zm1.081.946c-.034.034-.068.034-.1.068L35.1,82.584l21.183,14.7V70.455L47.5,75.489a.256.256,0,0,1-.135.068Zm-31.454.034-.034-.034-2.872-1.622a.118.118,0,0,0-.068-.034L1.351,70.455V97.281L22.6,82.551ZM9.9,69.982H3.243L9.9,73.766Zm37.873,3.784,6.656-3.784H47.773ZM35.644,94.68H21.994a.676.676,0,0,1,0-1.351H35.644A.676.676,0,1,1,35.644,94.68Zm0-4.02H21.994a.676.676,0,0,1,0-1.351H35.644A.676.676,0,1,1,35.644,90.659ZM23.886,83.294l-21.15,14.7h52.2L33.785,83.328l-4.595,2.6a.545.545,0,0,1-.3.1.571.571,0,0,1-.338-.1Z" fill-rule="evenodd"/>
    <path id="Trazado_889823" data-name="Trazado 889823" d="M1039,819.129l21.183,14.7V807l-8.784,5.034a.256.256,0,0,1-.135.068l-2.771,1.588c-.034.034-.068.034-.1.068Z" transform="translate(-1003.897 -736.545)" fill="#ffe479" fill-rule="evenodd"/>
    <path id="Trazado_889824" data-name="Trazado 889824" d="M133.2,1201.7l-21.15-14.663-4.595,2.6a.545.545,0,0,1-.3.1.571.571,0,0,1-.338-.1L102.15,1187,81,1201.7Zm-19.291-4.662a.676.676,0,1,1,0,1.351H100.258a.676.676,0,0,1,0-1.351Zm0-2.669H100.258a.676.676,0,0,1,0-1.351h13.649A.676.676,0,1,1,113.907,1194.365Z" transform="translate(-78.263 -1103.706)" fill="#ffa725" fill-rule="evenodd"/>
    <path id="Trazado_889825" data-name="Trazado 889825" d="M40,833.826,61.251,819.1l-9.46-5.372-.034-.034-2.872-1.622a.118.118,0,0,0-.068-.034L40,807Z" transform="translate(-38.649 -736.545)" fill="#ffe479" fill-rule="evenodd"/>
    <path id="Trazado_889826" data-name="Trazado 889826" d="M96,793l6.656,3.784V793Z" transform="translate(-92.757 -723.018)" fill="#ffa725" fill-rule="evenodd"/>
    <path id="Trazado_889827" data-name="Trazado 889827" d="M75,574.25h7.365V568C78.953,570.906,76.487,573,75,574.25Z" transform="translate(-72.466 -505.619)" fill="#ffa725" fill-rule="evenodd"/>
    <path id="Trazado_889828" data-name="Trazado 889828" d="M333,663.405v8.548l1.52.878v-7.94a.657.657,0,0,1,.676-.676h8.142a.676.676,0,0,1,0,1.351h-7.467v8.007l14.73,8.413,14.663-8.379v-8.041h-7.433a.676.676,0,1,1,0-1.351h8.108a.657.657,0,0,1,.676.676v7.94l1.554-.878v-8.548a.419.419,0,0,0-.439-.405H333.405A.39.39,0,0,0,333,663.405Zm6.588,10.642a2.264,2.264,0,0,1,0-4.527A2.264,2.264,0,0,1,339.588,674.048Zm4.595-2.264c0-4.189,2.872-7.568,6.385-7.568,3.547,0,6.419,3.379,6.419,7.568,0,4.156-2.872,7.568-6.419,7.568C347.055,679.352,344.183,675.94,344.183,671.784Zm17.4,2.264a2.264,2.264,0,0,1,0-4.527A2.264,2.264,0,0,1,361.582,674.048Z" transform="translate(-321.749 -597.41)" fill="#25a753" fill-rule="evenodd"/>
    <path id="Trazado_889829" data-name="Trazado 889829" d="M709.034,739c-2.77,0-5.034,2.77-5.034,6.216,0,3.412,2.264,6.216,5.034,6.216,2.8,0,5.034-2.8,5.034-6.216C714.1,741.77,711.838,739,709.034,739Zm-.676,10.406c-1.824-.541-2.365-3.074-1.115-3.074,1.115,0,.236,1.824,1.791,1.824a1.139,1.139,0,0,0,1.149-1.149c0-1.96-3.615-.3-3.615-3.615a2.307,2.307,0,0,1,1.791-2.365v-.439a.676.676,0,1,1,1.351,0c0,.135.034.27.034.439a2.307,2.307,0,0,1,1.791,2.365.676.676,0,0,1-1.351,0,1.132,1.132,0,0,0-2.264,0c0,1.993,3.615.3,3.615,3.615a2.513,2.513,0,0,1-1.791,2.4c0,.541-.068,1.081-.71,1.081C708.426,750.487,708.358,749.946,708.358,749.406Z" transform="translate(-680.215 -670.842)" fill="#9cc735" fill-rule="evenodd"/>
    <path id="Trazado_889830" data-name="Trazado 889830" d="M1152.912,896a.912.912,0,1,0,0,1.824A.912.912,0,0,0,1152.912,896Z" transform="translate(-1113.079 -822.538)" fill="#9cc735" fill-rule="evenodd"/>
    <path id="Trazado_889831" data-name="Trazado 889831" d="M356.244,473.237h9.021v-2.669h-7.433a.676.676,0,1,1,0-1.351h8.108a.678.678,0,0,1,.676.676v3.345h1.115a1.785,1.785,0,0,1,.439.034v-4.865a.442.442,0,0,0-.439-.405H333.405a.419.419,0,0,0-.405.439v4.831a1.645,1.645,0,0,1,.405-.034h1.115v-3.345a.678.678,0,0,1,.676-.676h8.142a.676.676,0,0,1,0,1.351h-7.467v2.669h9.054C347.325,467.831,353.879,467.932,356.244,473.237Z" transform="translate(-321.749 -408.998)" fill="#21964b" fill-rule="evenodd"/>
    <path id="Trazado_889832" data-name="Trazado 889832" d="M739.277,546.911c-1.96-3.547-6.318-3.547-8.277,0Z" transform="translate(-706.303 -482.672)" fill="#9cc735" fill-rule="evenodd"/>
    <path id="Trazado_889833" data-name="Trazado 889833" d="M731,352.273h8.277C737.318,348.759,732.993,348.725,731,352.273Z" transform="translate(-706.303 -294.622)" fill="#9cc735" fill-rule="evenodd"/>
    <path id="Trazado_889834" data-name="Trazado 889834" d="M344.926,278.237c2.4-5.372,8.953-5.3,11.284,0h9.054v-2.669h-7.433a.676.676,0,1,1,0-1.351h8.108a.678.678,0,0,1,.676.676v3.345h1.115a1.712,1.712,0,0,1,.439.068v-4.865a.447.447,0,0,0-.439-.439H333.405a.419.419,0,0,0-.405.439V278.3a1.7,1.7,0,0,1,.405-.068h1.115v-3.345a.678.678,0,0,1,.676-.676h8.142a.676.676,0,0,1,0,1.351h-7.467v2.669Z" transform="translate(-321.749 -220.586)" fill="#25a753" fill-rule="evenodd"/>
    <g id="Grupo_1108056" data-name="Grupo 1108056" transform="translate(23.075 46.062)">
      <path id="Trazado_889835" data-name="Trazado 889835" d="M683,89.993h12.163c-2.061-1.858-5.608-5.034-5.946-5C688.777,84.992,685.3,88.033,683,89.993Z" transform="translate(-683 -84.992)" fill="#ffa725" fill-rule="evenodd"/>
      <path id="Trazado_889836" data-name="Trazado 889836" d="M1414,561v6.487h7.4Q1419.169,565.561,1414,561Z" transform="translate(-1389.303 -544.918)" fill="#ffa725" fill-rule="evenodd"/>
      <path id="Trazado_889837" data-name="Trazado 889837" d="M1420.656,793H1414v3.784Z" transform="translate(-1389.303 -769.08)" fill="#ffa725" fill-rule="evenodd"/>
    </g>
    <path id="Trazado_889838" data-name="Trazado 889838" d="M501.912,897.824a.913.913,0,0,0,0-1.824A.913.913,0,1,0,501.912,897.824Z" transform="translate(-484.074 -822.538)" fill="#9cc735" fill-rule="evenodd"/>
  </g>
</svg>
