<svg xmlns="http://www.w3.org/2000/svg" width="108" height="108" viewBox="0 0 108 108">
  <g id="Grupo_1108657" data-name="Grupo 1108657" transform="translate(-904.169 -2739)">
    <circle id="Elipse_11936" data-name="Elipse 11936" cx="54" cy="54" r="54" transform="translate(904.169 2739)" fill="#3cead6"/>
    <g id="work_14991844" transform="translate(918 2736.271)">
      <g id="Grupo_1108235" data-name="Grupo 1108235" transform="translate(1.135 21.328)">
        <g id="Grupo_1108234" data-name="Grupo 1108234" transform="translate(0 0)">
          <g id="Grupo_1108233" data-name="Grupo 1108233" transform="translate(0 8.22)">
            <g id="Grupo_1108228" data-name="Grupo 1108228">
              <g id="Grupo_1108226" data-name="Grupo 1108226" transform="translate(37.924)">
                <path id="Trazado_890272" data-name="Trazado 890272" d="M273.959,96.981a3.775,3.775,0,0,1,3.771,3.771v3.628a7.751,7.751,0,0,1-.158,1.56l-.036.175.178.007a18.22,18.22,0,0,1,12.461,5.591,18.429,18.429,0,0,1,2.221,2.8V82.03h-34.2V96.981Z" transform="translate(-258.193 -82.03)" fill="#e8edf2"/>
              </g>
              <path id="Trazado_890273" data-name="Trazado 890273" d="M444.291,82.03v26.641a18.484,18.484,0,0,1,6.051,5.843V82.03Z" transform="translate(-378.215 -82.03)" fill="#d9e7ec"/>
              <path id="Trazado_890274" data-name="Trazado 890274" d="M64.961,229.77a7.7,7.7,0,0,1-7.693,7.693H15.344a7.7,7.7,0,0,1-7.693-7.693H7.5v28.389a3.922,3.922,0,0,0,3.922,3.922H61.19a3.922,3.922,0,0,0,3.922-3.922V229.77Z" transform="translate(-7.5 -207.42)" fill="#e8edf2"/>
              <g id="Grupo_1108227" data-name="Grupo 1108227" transform="translate(0 22.35)">
                <path id="Trazado_890275" data-name="Trazado 890275" d="M64.961,229.77a7.7,7.7,0,0,1-5.9,7.48v16.371a3.922,3.922,0,0,1-3.922,3.922H7.5v.616a3.922,3.922,0,0,0,3.922,3.922H61.19a3.922,3.922,0,0,0,3.922-3.922V229.77Z" transform="translate(-7.5 -229.77)" fill="#d9e7ec"/>
              </g>
            </g>
            <path id="Trazado_890276" data-name="Trazado 890276" d="M129.362,129.758v-3.931a.471.471,0,0,1,.471-.471h11.812a.471.471,0,0,1,.471.471v3.931h4.706v-5.186a3.922,3.922,0,0,0-3.922-3.922H128.578a3.922,3.922,0,0,0-3.922,3.922v5.186Z" transform="translate(-106.933 -114.808)" fill="#ffe177"/>
            <path id="Trazado_890277" data-name="Trazado 890277" d="M230.976,120.65H228.43v4.707h1.291a.471.471,0,0,1,.471.471v3.931H234.9v-5.186a3.922,3.922,0,0,0-3.922-3.922Z" transform="translate(-195.008 -114.808)" fill="#ffd15b"/>
            <path id="Trazado_890278" data-name="Trazado 890278" d="M57.268,195.254H15.344A7.844,7.844,0,0,1,7.5,187.41v-3.628a3.922,3.922,0,0,1,3.922-3.922H61.19a3.922,3.922,0,0,1,3.922,3.922v3.628A7.844,7.844,0,0,1,57.268,195.254Z" transform="translate(-7.5 -165.061)" fill="#0593fc"/>
            <g id="Grupo_1108229" data-name="Grupo 1108229" transform="translate(0.731 14.799)">
              <path id="Trazado_890279" data-name="Trazado 890279" d="M65.292,179.859h-.616v10.856H12.333a7.843,7.843,0,0,0,7.113,4.538H61.37a7.844,7.844,0,0,0,7.844-7.844v-3.628a3.922,3.922,0,0,0-3.922-3.922Z" transform="translate(-12.333 -179.859)" fill="#0182fc"/>
            </g>
            <path id="Trazado_890280" data-name="Trazado 890280" d="M180.317,260.761a3.138,3.138,0,0,1-3.138-3.138v-6.868a1.513,1.513,0,0,1,1.513-1.513h3.25a1.513,1.513,0,0,1,1.513,1.513v6.868A3.138,3.138,0,0,1,180.317,260.761Z" transform="translate(-151.51 -223.948)" fill="#ffe177"/>
            <path id="Trazado_890281" data-name="Trazado 890281" d="M181.972,249.243h-1.513V254.6a3.138,3.138,0,0,1-3.138,3.138c-.036,0-.071,0-.107-.005a3.136,3.136,0,0,0,6.27-.107v-6.868A1.513,1.513,0,0,0,181.972,249.243Z" transform="translate(-151.541 -223.948)" fill="#ffd15b"/>
            <g id="Grupo_1108232" data-name="Grupo 1108232" transform="translate(30.597 16.28)">
              <g id="Grupo_1108231" data-name="Grupo 1108231" transform="translate(0)">
                <circle id="Elipse_11940" data-name="Elipse 11940" cx="18.465" cy="18.465" r="18.465" transform="translate(0 26.11) rotate(-45)" fill="#fe646f"/>
                <path id="Trazado_890282" data-name="Trazado 890282" d="M299.809,254.616a18.47,18.47,0,0,1-25,25,18.467,18.467,0,1,0,25-25Z" transform="translate(-264.969 -244.787)" fill="#fd4755"/>
                <g id="Grupo_1108230" data-name="Grupo 1108230" transform="translate(7.981 7.981)">
                  <circle id="Elipse_11941" data-name="Elipse 11941" cx="12.821" cy="12.821" r="12.821" transform="translate(0 18.13) rotate(-45)" fill="#fff"/>
                  <path id="Trazado_890283" data-name="Trazado 890283" d="M355.307,317.454a18.465,18.465,0,0,1-17.659,17.659,12.82,12.82,0,0,0,17.659-17.659Z" transform="translate(-326.282 -306.1)" fill="#f5f8f9"/>
                </g>
              </g>
            </g>
          </g>
          <path id="Trazado_890284" data-name="Trazado 890284" d="M292.4,36.071V31.364a3.669,3.669,0,0,0-3.67-3.67H261.862a3.67,3.67,0,0,0-3.67,3.67v4.707Z" transform="translate(-220.268 -27.694)" fill="#0ed2b3"/>
          <path id="Trazado_890285" data-name="Trazado 890285" d="M446.672,27.694H444.29v8.377h6.051V31.364A3.669,3.669,0,0,0,446.672,27.694Z" transform="translate(-378.214 -27.694)" fill="#0ab69f"/>
        </g>
      </g>
      <g id="Grupo_1108236" data-name="Grupo 1108236" transform="translate(0 20.193)">
        <path id="Trazado_890286" data-name="Trazado 890286" d="M295.948,122.637a1.135,1.135,0,0,0,1.6,0L301,119.192a1.135,1.135,0,1,0-1.6-1.6l-2.643,2.643-1.418-1.418a1.135,1.135,0,0,0-1.6,1.6Z" transform="translate(-249.011 -102.572)"/>
        <path id="Trazado_890287" data-name="Trazado 890287" d="M358.3,132.681h11.637a1.135,1.135,0,1,0,0-2.269H358.3a1.135,1.135,0,1,0,0,2.269Z" transform="translate(-303.132 -113.738)"/>
        <path id="Trazado_890288" data-name="Trazado 890288" d="M376.071,302.679a1.134,1.134,0,0,0-1.135,1.135v7.876a1.134,1.134,0,0,0,1.135,1.135h5.9a1.135,1.135,0,0,0,0-2.269h-4.77v-6.741A1.135,1.135,0,0,0,376.071,302.679Z" transform="translate(-318.217 -259.945)"/>
        <path id="Trazado_890289" data-name="Trazado 890289" d="M74.4,61.438V25a4.81,4.81,0,0,0-4.8-4.8H52.044a1.135,1.135,0,0,0,0,2.269H69.592A2.538,2.538,0,0,1,72.127,25V28.57H40.193V25a2.538,2.538,0,0,1,2.535-2.535H46.75a1.135,1.135,0,0,0,0-2.269H42.728a4.81,4.81,0,0,0-4.8,4.8v9.326a5.061,5.061,0,0,0-.822-.068H22.779a5.062,5.062,0,0,0-5.057,5.057v3.9H5.057A5.062,5.062,0,0,0,0,48.269V80.286a5.062,5.062,0,0,0,5.057,5.057h9.109a1.135,1.135,0,1,0,0-2.269H5.057a2.791,2.791,0,0,1-2.787-2.787V57.855a8.957,8.957,0,0,0,6.71,3.021h16.69v2.348a4.272,4.272,0,1,0,8.544,0V60.876h7.47a19.555,19.555,0,0,0,.052,22.2H19.46a1.135,1.135,0,1,0,0,2.269H43.569A19.59,19.59,0,0,0,74.4,61.438Zm-34.2-30.6H72.127V58.52a19.564,19.564,0,0,0-12.246-6.078V48.269a5.071,5.071,0,0,0-.055-.745H66.8a1.135,1.135,0,0,0,0-2.269h-7.92a5.052,5.052,0,0,0-4.057-2.042H42.159v-3.9a5.05,5.05,0,0,0-1.966-4Zm-20.2,8.473a2.791,2.791,0,0,1,2.787-2.787H37.1a2.791,2.791,0,0,1,2.788,2.787v3.9H37.452V40.567a1.607,1.607,0,0,0-1.605-1.605H24.035a1.607,1.607,0,0,0-1.605,1.605v2.645H19.992Zm4.707,3.9V41.231H35.183v1.981Zm7.245,20.012a2,2,0,1,1-4.006,0V56.356a.379.379,0,0,1,.378-.378h3.25a.379.379,0,0,1,.378.378Zm2.269-4.617V56.356a2.65,2.65,0,0,0-2.647-2.647h-3.25a2.65,2.65,0,0,0-2.647,2.647v2.251H8.979a6.717,6.717,0,0,1-6.71-6.71V48.269a2.791,2.791,0,0,1,2.787-2.787H54.825a2.791,2.791,0,0,1,2.787,2.787V52.34A19.552,19.552,0,0,0,43.5,58.607H34.213ZM57.854,89.268A17.331,17.331,0,1,1,75.185,71.937,17.351,17.351,0,0,1,57.854,89.268Z" transform="translate(0 -20.193)"/>
        <path id="Trazado_890290" data-name="Trazado 890290" d="M304.137,269.987a13.89,13.89,0,0,0-7.772,2.364,1.134,1.134,0,1,0,1.265,1.884,11.7,11.7,0,1,1-3.367,3.461,1.135,1.135,0,1,0-1.916-1.215,13.955,13.955,0,1,0,11.791-6.493Z" transform="translate(-246.283 -232.199)"/>
      </g>
    </g>
  </g>
</svg>
