<svg xmlns="http://www.w3.org/2000/svg" width="63.198" height="54.641" viewBox="0 0 63.198 54.641">
  <g id="Layer_x0020_1" transform="translate(0 -116)">
    <path id="Trazado_889839" data-name="Trazado 889839" d="M63.862,598.859H13.852A1.866,1.866,0,0,1,12,596.97V561H67.27v18.152c0,.222-.111,5.853-.333,9.15l.519-.111c.333,0-3,9.706-3,10.039A.617.617,0,0,1,63.862,598.859Z" transform="translate(-11.555 -428.515)" fill="#cfffff" fill-rule="evenodd"/>
    <path id="Trazado_889840" data-name="Trazado 889840" d="M20,307.928v-8.076A1.858,1.858,0,0,1,21.852,298H72.825a1.882,1.882,0,0,1,1.852,1.852v8.076Z" transform="translate(-19.259 -175.258)" fill="#ff5b27" fill-rule="evenodd"/>
    <g id="Grupo_1108057" data-name="Grupo 1108057" transform="translate(4.519 138.301)">
      <path id="Trazado_889841" data-name="Trazado 889841" d="M128.038,724.557h-5.52a.558.558,0,0,1-.519-.519v-5.52a.53.53,0,0,1,.519-.519h5.52a.506.506,0,0,1,.519.519v5.52A.53.53,0,0,1,128.038,724.557Z" transform="translate(-122 -718)" fill="#2b597f" fill-rule="evenodd"/>
      <path id="Trazado_889842" data-name="Trazado 889842" d="M493.038,724.557h-5.52a.53.53,0,0,1-.519-.519v-5.52a.506.506,0,0,1,.519-.519h5.52a.506.506,0,0,1,.519.519v5.52A.53.53,0,0,1,493.038,724.557Z" transform="translate(-473.479 -718)" fill="#2b597f" fill-rule="evenodd"/>
      <path id="Trazado_889843" data-name="Trazado 889843" d="M858.038,724.557h-5.52a.53.53,0,0,1-.519-.519v-5.52a.506.506,0,0,1,.519-.519h5.52a.506.506,0,0,1,.519.519v5.52A.53.53,0,0,1,858.038,724.557Z" transform="translate(-824.957 -718)" fill="#2b597f" fill-rule="evenodd"/>
      <path id="Trazado_889844" data-name="Trazado 889844" d="M1223,724.557h-5.483a.53.53,0,0,1-.519-.519v-5.52a.506.506,0,0,1,.519-.519H1223a.538.538,0,0,1,.556.519v5.52A.564.564,0,0,1,1223,724.557Z" transform="translate(-1176.436 -718)" fill="#2b597f" fill-rule="evenodd"/>
      <path id="Trazado_889845" data-name="Trazado 889845" d="M128.038,989.557h-5.52a.53.53,0,0,1-.519-.519v-5.52a.53.53,0,0,1,.519-.519h5.52a.506.506,0,0,1,.519.519v5.52A.506.506,0,0,1,128.038,989.557Z" transform="translate(-122 -973.183)" fill="#2b597f" fill-rule="evenodd"/>
      <path id="Trazado_889846" data-name="Trazado 889846" d="M493.038,989.557h-5.52a.506.506,0,0,1-.519-.519v-5.52a.506.506,0,0,1,.519-.519h5.52a.506.506,0,0,1,.519.519v5.52A.506.506,0,0,1,493.038,989.557Z" transform="translate(-473.479 -973.183)" fill="#2b597f" fill-rule="evenodd"/>
      <path id="Trazado_889847" data-name="Trazado 889847" d="M858.038,989.557h-5.52a.506.506,0,0,1-.519-.519v-5.52a.506.506,0,0,1,.519-.519h5.52a.506.506,0,0,1,.519.519v5.52A.506.506,0,0,1,858.038,989.557Z" transform="translate(-824.957 -973.183)" fill="#2b597f" fill-rule="evenodd"/>
      <path id="Trazado_889848" data-name="Trazado 889848" d="M1217.519,986.779a.506.506,0,0,1-.519-.519v-4.742a.506.506,0,0,1,.519-.519H1223a.538.538,0,0,1,.556.519V983.3a.538.538,0,0,1-.556.519.53.53,0,0,1-.519-.519l-4.445,2.964A.53.53,0,0,1,1217.519,986.779Z" transform="translate(-1176.436 -971.257)" fill="#2b597f" fill-rule="evenodd"/>
      <path id="Trazado_889849" data-name="Trazado 889849" d="M128.038,1255.557h-5.52a.558.558,0,0,1-.519-.519v-5.52a.53.53,0,0,1,.519-.519h5.52a.506.506,0,0,1,.519.519v5.52A.53.53,0,0,1,128.038,1255.557Z" transform="translate(-122 -1229.329)" fill="#2b597f" fill-rule="evenodd"/>
      <path id="Trazado_889850" data-name="Trazado 889850" d="M493.038,1255.557h-5.52a.53.53,0,0,1-.519-.519v-5.52a.506.506,0,0,1,.519-.519h5.52a.506.506,0,0,1,.519.519v5.52A.53.53,0,0,1,493.038,1255.557Z" transform="translate(-473.479 -1229.329)" fill="#2b597f" fill-rule="evenodd"/>
      <path id="Trazado_889851" data-name="Trazado 889851" d="M858.038,1255.557h-5.52a.53.53,0,0,1-.519-.519v-5.52a.506.506,0,0,1,.519-.519h5.52a.506.506,0,0,1,.519.519v5.52A.53.53,0,0,1,858.038,1255.557Z" transform="translate(-824.957 -1229.329)" fill="#2b597f" fill-rule="evenodd"/>
    </g>
    <path id="Trazado_889852" data-name="Trazado 889852" d="M1162.965,1057.893a9.946,9.946,0,1,1,9.928-9.965A9.968,9.968,0,0,1,1162.965,1057.893Z" transform="translate(-1110.288 -887.845)" fill="#ffa130" fill-rule="evenodd"/>
    <path id="Trazado_889853" data-name="Trazado 889853" d="M1217.853,1109.744a7.872,7.872,0,1,1,7.854-7.891A7.889,7.889,0,0,1,1217.853,1109.744Z" transform="translate(-1165.176 -941.771)" fill="#ffc220" fill-rule="evenodd"/>
    <path id="Trazado_889854" data-name="Trazado 889854" d="M52.048,165.084a2.828,2.828,0,0,1-2.186-2.778.6.6,0,0,1,.63-.593.585.585,0,0,1,.593.593,1.593,1.593,0,0,0,3.186,0,1.6,1.6,0,0,0-1.593-1.593,2.814,2.814,0,0,1-.63-5.557v-.815a.631.631,0,0,1,1.26,0v.815a2.786,2.786,0,0,1,2.186,2.741.617.617,0,0,1-.593.63.649.649,0,0,1-.63-.63,1.6,1.6,0,0,0-1.593-1.593,1.63,1.63,0,0,0-1.593,1.593,1.581,1.581,0,0,0,1.593,1.593,2.835,2.835,0,0,1,.63,5.594v.778a.63.63,0,1,1-1.26,0Zm-13.929.074H31.562a.617.617,0,0,1-.593-.63v-6.557a.617.617,0,0,1,.593-.63h6.557a.649.649,0,0,1,.63.63v6.557A.649.649,0,0,1,38.119,165.158Zm-5.927-1.26h5.3v-5.3h-5.3Zm-7.594,1.26H18.041a.617.617,0,0,1-.593-.63v-6.557a.617.617,0,0,1,.593-.63H24.6a.624.624,0,0,1,.63.63v6.557A.624.624,0,0,1,24.6,165.158ZM18.67,163.9H24v-5.3H18.67Zm-7.557,1.26H4.556a.649.649,0,0,1-.63-.63v-6.557a.649.649,0,0,1,.63-.63h6.557a.617.617,0,0,1,.593.63v6.557A.617.617,0,0,1,11.113,165.158ZM5.149,163.9h5.334v-5.3H5.149Zm39.3-10.335v-5.446a.617.617,0,0,1,.63-.593H51.64a.585.585,0,0,1,.593.593V149.6h.445a11.4,11.4,0,0,1,2.26.222V133.411H1.26v35.34a.657.657,0,0,0,.63.667H47.75a10.555,10.555,0,0,1-5.594-9.3A10.375,10.375,0,0,1,44.453,153.563Zm6.557-3.853v-.963h-5.3v3.482A10.554,10.554,0,0,1,51.01,149.71ZM38.119,155.3H31.562a.6.6,0,0,1-.593-.63v-6.557a.585.585,0,0,1,.593-.593h6.557a.617.617,0,0,1,.63.593v6.557A.624.624,0,0,1,38.119,155.3Zm-5.927-1.222h5.3v-5.334h-5.3ZM24.6,155.3H18.041a.6.6,0,0,1-.593-.63v-6.557a.585.585,0,0,1,.593-.593H24.6a.6.6,0,0,1,.63.593v6.557A.6.6,0,0,1,24.6,155.3Zm-5.927-1.222H24v-5.334H18.67ZM11.113,155.3H4.556a.624.624,0,0,1-.63-.63v-6.557a.617.617,0,0,1,.63-.593h6.557a.585.585,0,0,1,.593.593v6.557A.6.6,0,0,1,11.113,155.3Zm-5.964-1.222h5.334v-5.334H5.149Zm46.491-8.594H45.083a.649.649,0,0,1-.63-.63V138.3a.649.649,0,0,1,.63-.63H51.64a.617.617,0,0,1,.593.63v6.557A.617.617,0,0,1,51.64,145.487Zm-5.927-1.26h5.3v-5.3h-5.3Zm-7.594,1.26H31.562a.617.617,0,0,1-.593-.63V138.3a.617.617,0,0,1,.593-.63h6.557a.649.649,0,0,1,.63.63v6.557A.649.649,0,0,1,38.119,145.487Zm-5.927-1.26h5.3v-5.3h-5.3Zm-7.594,1.26H18.041a.617.617,0,0,1-.593-.63V138.3a.617.617,0,0,1,.593-.63H24.6a.624.624,0,0,1,.63.63v6.557A.624.624,0,0,1,24.6,145.487Zm-5.927-1.26H24v-5.3H18.67Zm-7.557,1.26H4.556a.649.649,0,0,1-.63-.63V138.3a.649.649,0,0,1,.63-.63h6.557a.617.617,0,0,1,.593.63v6.557A.617.617,0,0,1,11.113,145.487Zm-5.964-1.26h5.334v-5.3H5.149Zm40.6-13.706a.63.63,0,0,1,0-1.26c1.26,0,2.667-2.186,2.815-5.408H32.155c-.185,3.779-1.889,6.668-4.075,6.668a.631.631,0,0,1,0-1.26c1.26,0,2.667-2.186,2.815-5.408H14.484c-.148,3.779-1.889,6.668-4.038,6.668a.63.63,0,0,1,0-1.26c1.26,0,2.63-2.186,2.815-5.408H1.889a.657.657,0,0,0-.63.667v7.668H54.937V124.52a.664.664,0,0,0-.667-.667H49.825C49.64,127.632,47.936,130.521,45.75,130.521Zm2.815-7.89c-.148-3.223-1.556-5.408-2.815-5.408s-2.667,2.186-2.815,5.408Zm-6.89,0C41.86,118.852,43.6,116,45.75,116c2.186,0,3.89,2.852,4.075,6.631H54.27a1.9,1.9,0,0,1,1.889,1.889v25.672a10.521,10.521,0,0,1-3.445,20.449H1.889A1.9,1.9,0,0,1,0,168.751V124.52a1.9,1.9,0,0,1,1.889-1.889H6.372C6.557,118.852,8.261,116,10.447,116c2.149,0,3.89,2.852,4.038,6.631h9.557C24.19,118.852,25.931,116,28.08,116c2.186,0,3.89,2.852,4.075,6.631Zm-10.78,0c-.148-3.223-1.556-5.408-2.815-5.408s-2.667,2.186-2.815,5.408Zm-17.633,0c-.185-3.223-1.556-5.408-2.815-5.408-1.3,0-2.667,2.186-2.852,5.408Zm39.415,45.824a8.335,8.335,0,1,1,8.335-8.335A8.348,8.348,0,0,1,52.677,168.455Zm0-15.448a7.094,7.094,0,1,0,7.113,7.113A7.083,7.083,0,0,0,52.677,153.007Zm0-2.186a9.3,9.3,0,1,0,9.3,9.3A9.3,9.3,0,0,0,52.677,150.822Z" fill-rule="evenodd"/>
  </g>
</svg>
