<svg xmlns="http://www.w3.org/2000/svg" width="49.688" height="60" viewBox="0 0 49.688 60">
  <g id="aprobado" transform="translate(-44)">
    <g id="Grupo_1108036" data-name="Grupo 1108036" transform="translate(44 19.57)">
      <g id="Grupo_1108035" data-name="Grupo 1108035">
        <path id="Trazado_889742" data-name="Trazado 889742" d="M46,167.343a1.171,1.171,0,1,0,.343.829A1.18,1.18,0,0,0,46,167.343Z" transform="translate(-44 -167)" fill="#464bc7"/>
      </g>
    </g>
    <g id="Grupo_1108038" data-name="Grupo 1108038" transform="translate(44)">
      <g id="Grupo_1108037" data-name="Grupo 1108037">
        <path id="Trazado_889743" data-name="Trazado 889743" d="M90.172,0H66.461a1.172,1.172,0,0,0,0,2.344H90.172a1.173,1.173,0,0,1,1.172,1.172V56.484a1.173,1.173,0,0,1-1.172,1.172H47.516a1.173,1.173,0,0,1-1.172-1.172V25.117a1.172,1.172,0,0,0-2.344,0V56.484A3.52,3.52,0,0,0,47.516,60H90.172a3.52,3.52,0,0,0,3.516-3.516V3.516A3.52,3.52,0,0,0,90.172,0Z" transform="translate(-44)" fill="#464bc7"/>
      </g>
    </g>
    <g id="Grupo_1108040" data-name="Grupo 1108040" transform="translate(53.457 4.688)">
      <g id="Grupo_1108039" data-name="Grupo 1108039">
        <path id="Trazado_889744" data-name="Trazado 889744" d="M140.083,40a15.773,15.773,0,0,0-2.382.181,1.172,1.172,0,1,0,.355,2.317,13.4,13.4,0,0,1,2.027-.154,13.235,13.235,0,0,1,10.128,21.763,11.741,11.741,0,0,0-6.118-5.12,5.724,5.724,0,0,0,1.732-4.1V53.74a5.742,5.742,0,1,0-11.484,0v1.143a5.724,5.724,0,0,0,1.732,4.1,11.744,11.744,0,0,0-6.13,5.14,13.2,13.2,0,0,1-2.919-6.334,1.172,1.172,0,0,0-2.312.388A15.587,15.587,0,1,0,140.083,40Zm-3.4,13.74a3.4,3.4,0,1,1,6.8,0v1.143a3.4,3.4,0,1,1-6.8,0Zm3.4,15.088a13.226,13.226,0,0,1-8.4-2.986,9.373,9.373,0,0,1,16.793-.02A13.181,13.181,0,0,1,140.083,68.828Z" transform="translate(-124.696 -40)" fill="#464bc7"/>
      </g>
    </g>
    <g id="Grupo_1108042" data-name="Grupo 1108042" transform="translate(61.854 46.641)">
      <g id="Grupo_1108041" data-name="Grupo 1108041">
        <path id="Trazado_889745" data-name="Trazado 889745" d="M214.169,398H197.529a1.172,1.172,0,0,0,0,2.344h16.641a1.172,1.172,0,0,0,0-2.344Z" transform="translate(-196.357 -398.002)" fill="#464bc7"/>
      </g>
    </g>
    <g id="Grupo_1108044" data-name="Grupo 1108044" transform="translate(56.848 40.078)">
      <g id="Grupo_1108043" data-name="Grupo 1108043">
        <path id="Trazado_889746" data-name="Trazado 889746" d="M155.64,342.343a1.171,1.171,0,1,0,.343.829A1.18,1.18,0,0,0,155.64,342.343Z" transform="translate(-153.64 -342)" fill="#464bc7"/>
      </g>
    </g>
    <g id="Grupo_1108046" data-name="Grupo 1108046" transform="translate(56.848 46.641)">
      <g id="Grupo_1108045" data-name="Grupo 1108045">
        <path id="Trazado_889747" data-name="Trazado 889747" d="M155.64,398.343a1.171,1.171,0,1,0,.343.829A1.178,1.178,0,0,0,155.64,398.343Z" transform="translate(-153.64 -398)" fill="#464bc7"/>
      </g>
    </g>
    <g id="Grupo_1108048" data-name="Grupo 1108048" transform="translate(61.854 40.078)">
      <g id="Grupo_1108047" data-name="Grupo 1108047">
        <path id="Trazado_889748" data-name="Trazado 889748" d="M214.169,342H197.529a1.172,1.172,0,0,0,0,2.344h16.641a1.172,1.172,0,0,0,0-2.344Z" transform="translate(-196.357 -342.002)" fill="#464bc7"/>
      </g>
    </g>
    <g id="Grupo_1108050" data-name="Grupo 1108050" transform="translate(49.006 6.41)">
      <g id="Grupo_1108049" data-name="Grupo 1108049">
        <path id="Trazado_889749" data-name="Trazado 889749" d="M95.495,55.044a1.172,1.172,0,0,0-1.657,0L90.021,58.86l-1.3-1.3a1.172,1.172,0,1,0-1.657,1.657l2.133,2.133a1.172,1.172,0,0,0,1.657,0L95.495,56.7A1.172,1.172,0,0,0,95.495,55.044Z" transform="translate(-86.716 -54.701)" fill="#464bc7"/>
      </g>
    </g>
    <g id="Grupo_1108052" data-name="Grupo 1108052" transform="translate(44)">
      <g id="Grupo_1108051" data-name="Grupo 1108051">
        <path id="Trazado_889750" data-name="Trazado 889750" d="M53.609,0a9.609,9.609,0,1,0,9.609,9.609A9.62,9.62,0,0,0,53.609,0Zm0,16.875a7.266,7.266,0,1,1,7.266-7.266A7.274,7.274,0,0,1,53.609,16.875Z" transform="translate(-44)" fill="#464bc7"/>
      </g>
    </g>
  </g>
</svg>
